<?xml version='1.0' encoding='utf-8'?>
<mlt LC_NUMERIC="C" producer="main_bin" version="7.21.0" root="/home/vlyskouski/Work/_tercad/fingrom/docs/marketing-flow/presentation">
 <profile frame_rate_num="15" sample_aspect_num="1" display_aspect_den="149" colorspace="709" progressive="1" description="1596x894 15.00fps" display_aspect_num="266" frame_rate_den="1" width="1596" height="894" sample_aspect_den="1"/>
 <chain id="chain28" out="00:04:25.200">
  <property name="length">3979</property>
  <property name="eof">pause</property>
  <property name="resource">background.mp4</property>
  <property name="mlt_service">avformat-novalidate</property>
  <property name="meta.media.nb_streams">1</property>
  <property name="meta.media.0.stream.type">video</property>
  <property name="meta.media.0.stream.frame_rate">15</property>
  <property name="meta.media.0.stream.sample_aspect_ratio">1</property>
  <property name="meta.media.0.codec.width">1596</property>
  <property name="meta.media.0.codec.height">894</property>
  <property name="meta.media.0.codec.rotate">0</property>
  <property name="meta.media.0.codec.pix_fmt">yuv444p</property>
  <property name="meta.media.0.codec.sample_aspect_ratio">1</property>
  <property name="meta.media.0.codec.colorspace">709</property>
  <property name="meta.media.0.codec.color_trc">1</property>
  <property name="meta.media.0.codec.name">h264</property>
  <property name="meta.media.0.codec.long_name">H.264 / AVC / MPEG-4 AVC / MPEG-4 part 10</property>
  <property name="meta.media.0.codec.bit_rate">434684</property>
  <property name="meta.attr.0.stream.creation_time.markup">2023-11-02T18:30:54.000000Z</property>
  <property name="meta.attr.0.stream.handler_name.markup">VideoHandler</property>
  <property name="meta.attr.0.stream.vendor_id.markup">[0][0][0][0]</property>
  <property name="meta.attr.major_brand.markup">mp42</property>
  <property name="meta.attr.minor_version.markup">0</property>
  <property name="meta.attr.compatible_brands.markup">mp42mp41isomiso2</property>
  <property name="meta.attr.creation_time.markup">2023-11-02T18:30:54.000000Z</property>
  <property name="meta.attr.encoder.markup">x264</property>
  <property name="seekable">1</property>
  <property name="meta.media.sample_aspect_num">1</property>
  <property name="meta.media.sample_aspect_den">1</property>
  <property name="audio_index">-1</property>
  <property name="video_index">0</property>
  <property name="vstream">0</property>
  <property name="meta.media.frame_rate_num">15</property>
  <property name="meta.media.frame_rate_den">1</property>
  <property name="meta.media.colorspace">709</property>
  <property name="meta.media.color_trc">1</property>
  <property name="meta.media.has_b_frames">0</property>
  <property name="meta.media.width">1596</property>
  <property name="meta.media.height">894</property>
  <property name="meta.media.color_range">mpeg</property>
  <property name="meta.media.top_field_first">0</property>
  <property name="meta.media.progressive">1</property>
  <property name="kdenlive:id">4</property>
  <property name="kdenlive:clip_type">2</property>
  <property name="kdenlive:file_size">14430340</property>
  <property name="kdenlive:file_hash">4c3c04a531ad7830b95d1c7b3f04c495</property>
  <property name="kdenlive:folderid">-1</property>
  <property name="mute_on_pause">0</property>
 </chain>
 <chain id="chain29" out="00:02:45.933">
  <property name="length">2490</property>
  <property name="eof">pause</property>
  <property name="resource">back_Absurd-David_Fesliyan.mp3</property>
  <property name="mlt_service">avformat</property>
  <property name="meta.media.nb_streams">1</property>
  <property name="meta.media.0.stream.type">audio</property>
  <property name="meta.media.0.codec.sample_fmt">fltp</property>
  <property name="meta.media.0.codec.sample_rate">44100</property>
  <property name="meta.media.0.codec.channels">2</property>
  <property name="meta.media.0.codec.name">mp3float</property>
  <property name="meta.media.0.codec.long_name">MP3 (MPEG audio layer 3)</property>
  <property name="meta.media.0.codec.bit_rate">320000</property>
  <property name="meta.attr.album.markup">FesliyanStudios.com ASCAP IPI 792929876, 792929974</property>
  <property name="meta.attr.artist.markup">FesliyanStudios.com ASCAP IPI 792929876, 792929974</property>
  <property name="meta.attr.album_artist.markup">FesliyanStudios.com ASCAP IPI 792929876, 792929974</property>
  <property name="meta.attr.comment.markup">FesliyanStudios.com ASCAP IPI 792929876, 792929974</property>
  <property name="meta.attr.composer.markup">FesliyanStudios.com ASCAP IPI 792929876, 792929974</property>
  <property name="meta.attr.genre.markup">Soundtrack</property>
  <property name="meta.attr.title.markup">Absurd</property>
  <property name="meta.attr.track.markup">1</property>
  <property name="meta.attr.date.markup">2017</property>
  <property name="seekable">1</property>
  <property name="audio_index">0</property>
  <property name="video_index">-1</property>
  <property name="astream">0</property>
  <property name="kdenlive:folderid">-1</property>
  <property name="kdenlive:id">5</property>
  <property name="kdenlive:clip_type">1</property>
  <property name="kdenlive:file_size">6643743</property>
  <property name="kdenlive:file_hash">6d5b595db7134726039f90d798d5f726</property>
  <property name="kdenlive:audio_max0">214</property>
 </chain>
 <chain id="chain31" out="00:00:11.533">
  <property name="length">174</property>
  <property name="eof">pause</property>
  <property name="resource">ch00-s01-welcome_en.m4a</property>
  <property name="mlt_service">avformat</property>
  <property name="meta.media.nb_streams">1</property>
  <property name="meta.media.0.stream.type">audio</property>
  <property name="meta.media.0.codec.sample_fmt">fltp</property>
  <property name="meta.media.0.codec.sample_rate">48000</property>
  <property name="meta.media.0.codec.channels">2</property>
  <property name="meta.media.0.codec.name">aac</property>
  <property name="meta.media.0.codec.long_name">AAC (Advanced Audio Coding)</property>
  <property name="meta.media.0.codec.bit_rate">174871</property>
  <property name="meta.attr.0.stream.creation_time.markup">2023-11-01T17:21:37.000000Z</property>
  <property name="meta.attr.0.stream.handler_name.markup">SoundHandler</property>
  <property name="meta.attr.0.stream.vendor_id.markup">[0][0][0][0]</property>
  <property name="meta.attr.major_brand.markup">mp42</property>
  <property name="meta.attr.minor_version.markup">0</property>
  <property name="meta.attr.compatible_brands.markup">mp41isom</property>
  <property name="meta.attr.creation_time.markup">2023-11-01T17:21:37.000000Z</property>
  <property name="meta.attr.date.markup">2023</property>
  <property name="meta.attr.album_artist.markup">Запись голоса</property>
  <property name="meta.attr.title.markup">ch00-s01-welcome</property>
  <property name="seekable">1</property>
  <property name="audio_index">0</property>
  <property name="video_index">-1</property>
  <property name="astream">0</property>
  <property name="kdenlive:folderid">-1</property>
  <property name="kdenlive:id">6</property>
  <property name="kdenlive:clip_type">1</property>
  <property name="kdenlive:file_size">256212</property>
  <property name="kdenlive:file_hash">df207f46ca025f866f4414c53a4f281e</property>
  <property name="kdenlive:audio_max0">136</property>
 </chain>
 <chain id="chain32" out="00:00:09.867">
  <property name="length">149</property>
  <property name="eof">pause</property>
  <property name="resource">ch00-s02-inclusive_en.m4a</property>
  <property name="mlt_service">avformat</property>
  <property name="meta.media.nb_streams">1</property>
  <property name="meta.media.0.stream.type">audio</property>
  <property name="meta.media.0.codec.sample_fmt">fltp</property>
  <property name="meta.media.0.codec.sample_rate">48000</property>
  <property name="meta.media.0.codec.channels">2</property>
  <property name="meta.media.0.codec.name">aac</property>
  <property name="meta.media.0.codec.long_name">AAC (Advanced Audio Coding)</property>
  <property name="meta.media.0.codec.bit_rate">178060</property>
  <property name="meta.attr.0.stream.creation_time.markup">2023-11-01T17:39:56.000000Z</property>
  <property name="meta.attr.0.stream.handler_name.markup">SoundHandler</property>
  <property name="meta.attr.0.stream.vendor_id.markup">[0][0][0][0]</property>
  <property name="meta.attr.major_brand.markup">mp42</property>
  <property name="meta.attr.minor_version.markup">0</property>
  <property name="meta.attr.compatible_brands.markup">mp41isom</property>
  <property name="meta.attr.creation_time.markup">2023-11-01T17:39:56.000000Z</property>
  <property name="meta.attr.title.markup">ch00-s02-inclusive</property>
  <property name="meta.attr.date.markup">2023</property>
  <property name="meta.attr.album_artist.markup">Запись голоса</property>
  <property name="seekable">1</property>
  <property name="audio_index">0</property>
  <property name="video_index">-1</property>
  <property name="astream">0</property>
  <property name="kdenlive:folderid">-1</property>
  <property name="kdenlive:id">7</property>
  <property name="kdenlive:clip_type">1</property>
  <property name="kdenlive:file_size">224173</property>
  <property name="kdenlive:file_hash">6996858f5bbae41f7ce40f2b3a7aba74</property>
  <property name="kdenlive:audio_max0">159</property>
 </chain>
 <chain id="chain30" out="00:00:09.133">
  <property name="length">138</property>
  <property name="eof">pause</property>
  <property name="resource">ch00-s03-journey_en.m4a</property>
  <property name="mlt_service">avformat</property>
  <property name="meta.media.nb_streams">1</property>
  <property name="meta.media.0.stream.type">audio</property>
  <property name="meta.media.0.codec.sample_fmt">fltp</property>
  <property name="meta.media.0.codec.sample_rate">48000</property>
  <property name="meta.media.0.codec.channels">2</property>
  <property name="meta.media.0.codec.name">aac</property>
  <property name="meta.media.0.codec.long_name">AAC (Advanced Audio Coding)</property>
  <property name="meta.media.0.codec.bit_rate">173862</property>
  <property name="meta.attr.0.stream.creation_time.markup">2023-11-01T17:32:34.000000Z</property>
  <property name="meta.attr.0.stream.handler_name.markup">SoundHandler</property>
  <property name="meta.attr.0.stream.vendor_id.markup">[0][0][0][0]</property>
  <property name="meta.attr.major_brand.markup">mp42</property>
  <property name="meta.attr.minor_version.markup">0</property>
  <property name="meta.attr.compatible_brands.markup">mp41isom</property>
  <property name="meta.attr.creation_time.markup">2023-11-01T17:32:34.000000Z</property>
  <property name="meta.attr.date.markup">2023</property>
  <property name="meta.attr.album_artist.markup">Запись голоса</property>
  <property name="meta.attr.title.markup">ch00-s03-journey</property>
  <property name="seekable">1</property>
  <property name="audio_index">0</property>
  <property name="video_index">-1</property>
  <property name="astream">0</property>
  <property name="kdenlive:folderid">-1</property>
  <property name="kdenlive:id">8</property>
  <property name="kdenlive:clip_type">1</property>
  <property name="kdenlive:file_size">202377</property>
  <property name="kdenlive:file_hash">e5ced1e50c64447adfcc3a0ffda3e986</property>
  <property name="kdenlive:audio_max0">120</property>
 </chain>
 <chain id="chain34" out="00:00:09.067">
  <property name="length">137</property>
  <property name="eof">pause</property>
  <property name="resource">ch01-s01-challenges_en.m4a</property>
  <property name="mlt_service">avformat</property>
  <property name="meta.media.nb_streams">1</property>
  <property name="meta.media.0.stream.type">audio</property>
  <property name="meta.media.0.codec.sample_fmt">fltp</property>
  <property name="meta.media.0.codec.sample_rate">48000</property>
  <property name="meta.media.0.codec.channels">2</property>
  <property name="meta.media.0.codec.name">aac</property>
  <property name="meta.media.0.codec.long_name">AAC (Advanced Audio Coding)</property>
  <property name="meta.media.0.codec.bit_rate">170137</property>
  <property name="meta.attr.0.stream.creation_time.markup">2023-11-01T17:44:41.000000Z</property>
  <property name="meta.attr.0.stream.handler_name.markup">SoundHandler</property>
  <property name="meta.attr.0.stream.vendor_id.markup">[0][0][0][0]</property>
  <property name="meta.attr.major_brand.markup">mp42</property>
  <property name="meta.attr.minor_version.markup">0</property>
  <property name="meta.attr.compatible_brands.markup">mp41isom</property>
  <property name="meta.attr.creation_time.markup">2023-11-01T17:44:41.000000Z</property>
  <property name="meta.attr.date.markup">2023</property>
  <property name="meta.attr.album_artist.markup">Запись голоса</property>
  <property name="meta.attr.title.markup">ch01-s01-challenges</property>
  <property name="seekable">1</property>
  <property name="audio_index">0</property>
  <property name="video_index">-1</property>
  <property name="astream">0</property>
  <property name="kdenlive:folderid">-1</property>
  <property name="kdenlive:id">9</property>
  <property name="kdenlive:clip_type">1</property>
  <property name="kdenlive:file_size">196725</property>
  <property name="kdenlive:file_hash">42d65966e3c3a6204032ea627a1e8c92</property>
  <property name="kdenlive:audio_max0">126</property>
 </chain>
 <chain id="chain33" out="00:00:08.267">
  <property name="length">125</property>
  <property name="eof">pause</property>
  <property name="resource">ch01-s02-complex_en.m4a</property>
  <property name="mlt_service">avformat</property>
  <property name="meta.media.nb_streams">1</property>
  <property name="meta.media.0.stream.type">audio</property>
  <property name="meta.media.0.codec.sample_fmt">fltp</property>
  <property name="meta.media.0.codec.sample_rate">48000</property>
  <property name="meta.media.0.codec.channels">2</property>
  <property name="meta.media.0.codec.name">aac</property>
  <property name="meta.media.0.codec.long_name">AAC (Advanced Audio Coding)</property>
  <property name="meta.media.0.codec.bit_rate">176334</property>
  <property name="meta.attr.0.stream.creation_time.markup">2023-11-01T17:47:19.000000Z</property>
  <property name="meta.attr.0.stream.handler_name.markup">SoundHandler</property>
  <property name="meta.attr.0.stream.vendor_id.markup">[0][0][0][0]</property>
  <property name="meta.attr.major_brand.markup">mp42</property>
  <property name="meta.attr.minor_version.markup">0</property>
  <property name="meta.attr.compatible_brands.markup">mp41isom</property>
  <property name="meta.attr.creation_time.markup">2023-11-01T17:47:19.000000Z</property>
  <property name="meta.attr.date.markup">2023</property>
  <property name="meta.attr.album_artist.markup">Запись голоса</property>
  <property name="meta.attr.title.markup">ch01-s02-complex</property>
  <property name="seekable">1</property>
  <property name="audio_index">0</property>
  <property name="video_index">-1</property>
  <property name="astream">0</property>
  <property name="kdenlive:folderid">-1</property>
  <property name="kdenlive:id">10</property>
  <property name="kdenlive:clip_type">1</property>
  <property name="kdenlive:file_size">185774</property>
  <property name="kdenlive:file_hash">a99b0029bca6aec19e936f7311916514</property>
  <property name="kdenlive:audio_max0">119</property>
 </chain>
 <chain id="chain35" out="00:00:07.000">
  <property name="length">106</property>
  <property name="eof">pause</property>
  <property name="resource">ch01-s03-centric_en.m4a</property>
  <property name="mlt_service">avformat</property>
  <property name="meta.media.nb_streams">1</property>
  <property name="meta.media.0.stream.type">audio</property>
  <property name="meta.media.0.codec.sample_fmt">fltp</property>
  <property name="meta.media.0.codec.sample_rate">48000</property>
  <property name="meta.media.0.codec.channels">38</property>
  <property name="meta.media.0.codec.name">aac</property>
  <property name="meta.media.0.codec.long_name">AAC (Advanced Audio Coding)</property>
  <property name="meta.media.0.codec.bit_rate">177487</property>
  <property name="meta.attr.0.stream.creation_time.markup">2023-11-01T17:52:22.000000Z</property>
  <property name="meta.attr.0.stream.handler_name.markup">SoundHandler</property>
  <property name="meta.attr.0.stream.vendor_id.markup">[0][0][0][0]</property>
  <property name="meta.attr.major_brand.markup">mp42</property>
  <property name="meta.attr.minor_version.markup">0</property>
  <property name="meta.attr.compatible_brands.markup">mp41isom</property>
  <property name="meta.attr.creation_time.markup">2023-11-01T17:52:22.000000Z</property>
  <property name="meta.attr.date.markup">2023</property>
  <property name="meta.attr.album_artist.markup">Запись голоса</property>
  <property name="meta.attr.title.markup">ch01-s03-centric</property>
  <property name="seekable">1</property>
  <property name="audio_index">0</property>
  <property name="video_index">-1</property>
  <property name="astream">0</property>
  <property name="kdenlive:folderid">-1</property>
  <property name="kdenlive:id">11</property>
  <property name="kdenlive:clip_type">1</property>
  <property name="kdenlive:file_size">158634</property>
  <property name="kdenlive:file_hash">33f416122ca52272825869e6fc24188e</property>
  <property name="kdenlive:audio_max0">182</property>
 </chain>
 <chain id="chain36" out="00:00:07.467">
  <property name="length">113</property>
  <property name="eof">pause</property>
  <property name="resource">ch02-s01-accounts_en.m4a</property>
  <property name="mlt_service">avformat</property>
  <property name="meta.media.nb_streams">1</property>
  <property name="meta.media.0.stream.type">audio</property>
  <property name="meta.media.0.codec.sample_fmt">fltp</property>
  <property name="meta.media.0.codec.sample_rate">48000</property>
  <property name="meta.media.0.codec.channels">2</property>
  <property name="meta.media.0.codec.name">aac</property>
  <property name="meta.media.0.codec.long_name">AAC (Advanced Audio Coding)</property>
  <property name="meta.media.0.codec.bit_rate">176618</property>
  <property name="meta.attr.0.stream.creation_time.markup">2023-11-01T17:57:02.000000Z</property>
  <property name="meta.attr.0.stream.handler_name.markup">SoundHandler</property>
  <property name="meta.attr.0.stream.vendor_id.markup">[0][0][0][0]</property>
  <property name="meta.attr.major_brand.markup">mp42</property>
  <property name="meta.attr.minor_version.markup">0</property>
  <property name="meta.attr.compatible_brands.markup">mp41isom</property>
  <property name="meta.attr.creation_time.markup">2023-11-01T17:57:02.000000Z</property>
  <property name="meta.attr.date.markup">2023</property>
  <property name="meta.attr.album_artist.markup">Запись голоса</property>
  <property name="meta.attr.title.markup">ch02-s01-accounts</property>
  <property name="seekable">1</property>
  <property name="audio_index">0</property>
  <property name="video_index">-1</property>
  <property name="astream">0</property>
  <property name="kdenlive:folderid">-1</property>
  <property name="kdenlive:id">12</property>
  <property name="kdenlive:clip_type">1</property>
  <property name="kdenlive:file_size">168021</property>
  <property name="kdenlive:file_hash">69b362155bf9318cb1ebc450d2dd19cb</property>
  <property name="kdenlive:audio_max0">127</property>
 </chain>
 <chain id="chain37" out="00:00:06.933">
  <property name="length">105</property>
  <property name="eof">pause</property>
  <property name="resource">ch02-s03-categories_en.m4a</property>
  <property name="mlt_service">avformat</property>
  <property name="meta.media.nb_streams">1</property>
  <property name="meta.media.0.stream.type">audio</property>
  <property name="meta.media.0.codec.sample_fmt">fltp</property>
  <property name="meta.media.0.codec.sample_rate">48000</property>
  <property name="meta.media.0.codec.channels">2</property>
  <property name="meta.media.0.codec.name">aac</property>
  <property name="meta.media.0.codec.long_name">AAC (Advanced Audio Coding)</property>
  <property name="meta.media.0.codec.bit_rate">180509</property>
  <property name="meta.attr.0.stream.creation_time.markup">2023-11-01T18:03:02.000000Z</property>
  <property name="meta.attr.0.stream.handler_name.markup">SoundHandler</property>
  <property name="meta.attr.0.stream.vendor_id.markup">[0][0][0][0]</property>
  <property name="meta.attr.major_brand.markup">mp42</property>
  <property name="meta.attr.minor_version.markup">0</property>
  <property name="meta.attr.compatible_brands.markup">mp41isom</property>
  <property name="meta.attr.creation_time.markup">2023-11-01T18:03:02.000000Z</property>
  <property name="meta.attr.date.markup">2023</property>
  <property name="meta.attr.album_artist.markup">Запись голоса</property>
  <property name="meta.attr.title.markup">ch02-s03-categories</property>
  <property name="seekable">1</property>
  <property name="audio_index">0</property>
  <property name="video_index">-1</property>
  <property name="astream">0</property>
  <property name="kdenlive:folderid">-1</property>
  <property name="kdenlive:id">13</property>
  <property name="kdenlive:clip_type">1</property>
  <property name="kdenlive:file_size">160901</property>
  <property name="kdenlive:file_hash">4cef8f18303ec93e65226a259f4f3362</property>
  <property name="kdenlive:audio_max0">120</property>
 </chain>
 <chain id="chain38" out="00:00:05.600">
  <property name="length">85</property>
  <property name="eof">pause</property>
  <property name="resource">ch03-s01-bills_en.m4a</property>
  <property name="mlt_service">avformat</property>
  <property name="meta.media.nb_streams">1</property>
  <property name="meta.media.0.stream.type">audio</property>
  <property name="meta.media.0.codec.sample_fmt">fltp</property>
  <property name="meta.media.0.codec.sample_rate">48000</property>
  <property name="meta.media.0.codec.channels">2</property>
  <property name="meta.media.0.codec.name">aac</property>
  <property name="meta.media.0.codec.long_name">AAC (Advanced Audio Coding)</property>
  <property name="meta.media.0.codec.bit_rate">163129</property>
  <property name="meta.attr.0.stream.creation_time.markup">2023-11-01T18:08:17.000000Z</property>
  <property name="meta.attr.0.stream.handler_name.markup">SoundHandler</property>
  <property name="meta.attr.0.stream.vendor_id.markup">[0][0][0][0]</property>
  <property name="meta.attr.major_brand.markup">mp42</property>
  <property name="meta.attr.minor_version.markup">0</property>
  <property name="meta.attr.compatible_brands.markup">mp41isom</property>
  <property name="meta.attr.creation_time.markup">2023-11-01T18:08:17.000000Z</property>
  <property name="meta.attr.date.markup">2023</property>
  <property name="meta.attr.album_artist.markup">Запись голоса</property>
  <property name="meta.attr.title.markup">ch03-s01-bills</property>
  <property name="seekable">1</property>
  <property name="audio_index">0</property>
  <property name="video_index">-1</property>
  <property name="astream">0</property>
  <property name="kdenlive:folderid">-1</property>
  <property name="kdenlive:id">14</property>
  <property name="kdenlive:clip_type">1</property>
  <property name="kdenlive:file_size">117602</property>
  <property name="kdenlive:file_hash">ac608d3e60931a2d0dd5150d634f4a07</property>
  <property name="kdenlive:audio_max0">131</property>
 </chain>
 <chain id="chain39" out="00:00:06.467">
  <property name="length">98</property>
  <property name="eof">pause</property>
  <property name="resource">ch04-s01-goals_en.m4a</property>
  <property name="mlt_service">avformat</property>
  <property name="meta.media.nb_streams">1</property>
  <property name="meta.media.0.stream.type">audio</property>
  <property name="meta.media.0.codec.sample_fmt">fltp</property>
  <property name="meta.media.0.codec.sample_rate">48000</property>
  <property name="meta.media.0.codec.channels">2</property>
  <property name="meta.media.0.codec.name">aac</property>
  <property name="meta.media.0.codec.long_name">AAC (Advanced Audio Coding)</property>
  <property name="meta.media.0.codec.bit_rate">164846</property>
  <property name="meta.attr.0.stream.creation_time.markup">2023-11-01T18:11:20.000000Z</property>
  <property name="meta.attr.0.stream.handler_name.markup">SoundHandler</property>
  <property name="meta.attr.0.stream.vendor_id.markup">[0][0][0][0]</property>
  <property name="meta.attr.major_brand.markup">mp42</property>
  <property name="meta.attr.minor_version.markup">0</property>
  <property name="meta.attr.compatible_brands.markup">mp41isom</property>
  <property name="meta.attr.creation_time.markup">2023-11-01T18:11:20.000000Z</property>
  <property name="meta.attr.date.markup">2023</property>
  <property name="meta.attr.album_artist.markup">Запись голоса</property>
  <property name="meta.attr.title.markup">ch04-s01-goals</property>
  <property name="seekable">1</property>
  <property name="audio_index">0</property>
  <property name="video_index">-1</property>
  <property name="astream">0</property>
  <property name="kdenlive:folderid">-1</property>
  <property name="kdenlive:id">15</property>
  <property name="kdenlive:clip_type">1</property>
  <property name="kdenlive:file_size">136120</property>
  <property name="kdenlive:file_hash">d22814e7ce7f7b26b29f561264b62d93</property>
  <property name="kdenlive:audio_max0">129</property>
 </chain>
 <chain id="chain40" out="00:00:06.000">
  <property name="length">91</property>
  <property name="eof">pause</property>
  <property name="resource">ch05-s01-exchange_en.m4a</property>
  <property name="mlt_service">avformat</property>
  <property name="meta.media.nb_streams">1</property>
  <property name="meta.media.0.stream.type">audio</property>
  <property name="meta.media.0.codec.sample_fmt">fltp</property>
  <property name="meta.media.0.codec.sample_rate">48000</property>
  <property name="meta.media.0.codec.channels">19</property>
  <property name="meta.media.0.codec.name">aac</property>
  <property name="meta.media.0.codec.long_name">AAC (Advanced Audio Coding)</property>
  <property name="meta.media.0.codec.bit_rate">176327</property>
  <property name="meta.attr.0.stream.creation_time.markup">2023-11-01T18:15:50.000000Z</property>
  <property name="meta.attr.0.stream.handler_name.markup">SoundHandler</property>
  <property name="meta.attr.0.stream.vendor_id.markup">[0][0][0][0]</property>
  <property name="meta.attr.major_brand.markup">mp42</property>
  <property name="meta.attr.minor_version.markup">0</property>
  <property name="meta.attr.compatible_brands.markup">mp41isom</property>
  <property name="meta.attr.creation_time.markup">2023-11-01T18:15:50.000000Z</property>
  <property name="meta.attr.date.markup">2023</property>
  <property name="meta.attr.album_artist.markup">Запись голоса</property>
  <property name="meta.attr.title.markup">ch05-s01-exchange</property>
  <property name="seekable">1</property>
  <property name="audio_index">0</property>
  <property name="video_index">-1</property>
  <property name="astream">0</property>
  <property name="kdenlive:folderid">-1</property>
  <property name="kdenlive:id">16</property>
  <property name="kdenlive:clip_type">1</property>
  <property name="kdenlive:file_size">136462</property>
  <property name="kdenlive:file_hash">fcd21e8932989136bd8d7db2fb175447</property>
  <property name="kdenlive:audio_max0">122</property>
 </chain>
 <chain id="chain41" out="00:00:02.867">
  <property name="length">44</property>
  <property name="eof">pause</property>
  <property name="resource">ch05-s01-metrics_en.m4a</property>
  <property name="mlt_service">avformat</property>
  <property name="meta.media.nb_streams">1</property>
  <property name="meta.media.0.stream.type">audio</property>
  <property name="meta.media.0.codec.sample_fmt">fltp</property>
  <property name="meta.media.0.codec.sample_rate">48000</property>
  <property name="meta.media.0.codec.channels">2</property>
  <property name="meta.media.0.codec.name">aac</property>
  <property name="meta.media.0.codec.long_name">AAC (Advanced Audio Coding)</property>
  <property name="meta.media.0.codec.bit_rate">182869</property>
  <property name="meta.attr.0.stream.creation_time.markup">2023-11-01T18:19:19.000000Z</property>
  <property name="meta.attr.0.stream.handler_name.markup">SoundHandler</property>
  <property name="meta.attr.0.stream.vendor_id.markup">[0][0][0][0]</property>
  <property name="meta.attr.major_brand.markup">mp42</property>
  <property name="meta.attr.minor_version.markup">0</property>
  <property name="meta.attr.compatible_brands.markup">mp41isom</property>
  <property name="meta.attr.creation_time.markup">2023-11-01T18:19:19.000000Z</property>
  <property name="meta.attr.date.markup">2023</property>
  <property name="meta.attr.album_artist.markup">Запись голоса</property>
  <property name="meta.attr.title.markup">ch05-s01-metrics</property>
  <property name="seekable">1</property>
  <property name="audio_index">0</property>
  <property name="video_index">-1</property>
  <property name="astream">0</property>
  <property name="kdenlive:folderid">-1</property>
  <property name="kdenlive:id">17</property>
  <property name="kdenlive:clip_type">1</property>
  <property name="kdenlive:file_size">68489</property>
  <property name="kdenlive:file_hash">a45ee9db81cffea341a1ed49fd002c61</property>
  <property name="kdenlive:audio_max0">151</property>
 </chain>
 <chain id="chain42" out="00:00:11.933">
  <property name="length">180</property>
  <property name="eof">pause</property>
  <property name="resource">ch05-s02-list_en.m4a</property>
  <property name="mlt_service">avformat</property>
  <property name="meta.media.nb_streams">1</property>
  <property name="meta.media.0.stream.type">audio</property>
  <property name="meta.media.0.codec.sample_fmt">fltp</property>
  <property name="meta.media.0.codec.sample_rate">48000</property>
  <property name="meta.media.0.codec.channels">2</property>
  <property name="meta.media.0.codec.name">aac</property>
  <property name="meta.media.0.codec.long_name">AAC (Advanced Audio Coding)</property>
  <property name="meta.media.0.codec.bit_rate">183600</property>
  <property name="meta.attr.0.stream.creation_time.markup">2023-11-01T18:23:34.000000Z</property>
  <property name="meta.attr.0.stream.handler_name.markup">SoundHandler</property>
  <property name="meta.attr.0.stream.vendor_id.markup">[0][0][0][0]</property>
  <property name="meta.attr.major_brand.markup">mp42</property>
  <property name="meta.attr.minor_version.markup">0</property>
  <property name="meta.attr.compatible_brands.markup">mp41isom</property>
  <property name="meta.attr.creation_time.markup">2023-11-01T18:23:34.000000Z</property>
  <property name="meta.attr.date.markup">2023</property>
  <property name="meta.attr.album_artist.markup">Запись голоса</property>
  <property name="meta.attr.title.markup">ch05-s02-list</property>
  <property name="seekable">1</property>
  <property name="audio_index">0</property>
  <property name="video_index">-1</property>
  <property name="astream">0</property>
  <property name="kdenlive:folderid">-1</property>
  <property name="kdenlive:id">18</property>
  <property name="kdenlive:clip_type">1</property>
  <property name="kdenlive:file_size">278698</property>
  <property name="kdenlive:file_hash">d4fb312fba70e8c13921aafb3c0f0eea</property>
  <property name="kdenlive:audio_max0">127</property>
 </chain>
 <chain id="chain43" out="00:00:06.600">
  <property name="length">100</property>
  <property name="eof">pause</property>
  <property name="resource">ch05-s03-insights_en.m4a</property>
  <property name="mlt_service">avformat</property>
  <property name="meta.media.nb_streams">1</property>
  <property name="meta.media.0.stream.type">audio</property>
  <property name="meta.media.0.codec.sample_fmt">fltp</property>
  <property name="meta.media.0.codec.sample_rate">48000</property>
  <property name="meta.media.0.codec.channels">2</property>
  <property name="meta.media.0.codec.name">aac</property>
  <property name="meta.media.0.codec.long_name">AAC (Advanced Audio Coding)</property>
  <property name="meta.media.0.codec.bit_rate">183191</property>
  <property name="meta.attr.0.stream.creation_time.markup">2023-11-01T18:28:56.000000Z</property>
  <property name="meta.attr.0.stream.handler_name.markup">SoundHandler</property>
  <property name="meta.attr.0.stream.vendor_id.markup">[0][0][0][0]</property>
  <property name="meta.attr.major_brand.markup">mp42</property>
  <property name="meta.attr.minor_version.markup">0</property>
  <property name="meta.attr.compatible_brands.markup">mp41isom</property>
  <property name="meta.attr.creation_time.markup">2023-11-01T18:28:56.000000Z</property>
  <property name="meta.attr.date.markup">2023</property>
  <property name="meta.attr.album_artist.markup">Запись голоса</property>
  <property name="meta.attr.title.markup">ch05-s03-insights</property>
  <property name="seekable">1</property>
  <property name="audio_index">0</property>
  <property name="video_index">-1</property>
  <property name="astream">0</property>
  <property name="kdenlive:folderid">-1</property>
  <property name="kdenlive:id">19</property>
  <property name="kdenlive:clip_type">1</property>
  <property name="kdenlive:file_size">154047</property>
  <property name="kdenlive:file_hash">584034e23228b07c4b24fe749167b735</property>
  <property name="kdenlive:audio_max0">142</property>
 </chain>
 <chain id="chain45" out="00:00:06.000">
  <property name="length">91</property>
  <property name="eof">pause</property>
  <property name="resource">ch06-s01-main-page_en.m4a</property>
  <property name="mlt_service">avformat</property>
  <property name="meta.media.nb_streams">1</property>
  <property name="meta.media.0.stream.type">audio</property>
  <property name="meta.media.0.codec.sample_fmt">fltp</property>
  <property name="meta.media.0.codec.sample_rate">48000</property>
  <property name="meta.media.0.codec.channels">2</property>
  <property name="meta.media.0.codec.name">aac</property>
  <property name="meta.media.0.codec.long_name">AAC (Advanced Audio Coding)</property>
  <property name="meta.media.0.codec.bit_rate">178582</property>
  <property name="meta.attr.0.stream.creation_time.markup">2023-11-01T18:41:49.000000Z</property>
  <property name="meta.attr.0.stream.handler_name.markup">SoundHandler</property>
  <property name="meta.attr.0.stream.vendor_id.markup">[0][0][0][0]</property>
  <property name="meta.attr.major_brand.markup">mp42</property>
  <property name="meta.attr.minor_version.markup">0</property>
  <property name="meta.attr.compatible_brands.markup">mp41isom</property>
  <property name="meta.attr.creation_time.markup">2023-11-01T18:41:49.000000Z</property>
  <property name="meta.attr.date.markup">2023</property>
  <property name="meta.attr.album_artist.markup">Запись голоса</property>
  <property name="meta.attr.title.markup">ch06-s01-main-page</property>
  <property name="seekable">1</property>
  <property name="audio_index">0</property>
  <property name="video_index">-1</property>
  <property name="astream">0</property>
  <property name="kdenlive:folderid">-1</property>
  <property name="kdenlive:id">20</property>
  <property name="kdenlive:clip_type">1</property>
  <property name="kdenlive:file_size">137911</property>
  <property name="kdenlive:file_hash">3473cb86709a6f48db7da8757baa7e83</property>
  <property name="kdenlive:audio_max0">166</property>
 </chain>
 <chain id="chain44" out="00:00:07.667">
  <property name="length">116</property>
  <property name="eof">pause</property>
  <property name="resource">ch06-s02-navigation-panel_en.m4a</property>
  <property name="mlt_service">avformat</property>
  <property name="meta.media.nb_streams">1</property>
  <property name="meta.media.0.stream.type">audio</property>
  <property name="meta.media.0.codec.sample_fmt">fltp</property>
  <property name="meta.media.0.codec.sample_rate">48000</property>
  <property name="meta.media.0.codec.channels">2</property>
  <property name="meta.media.0.codec.name">aac</property>
  <property name="meta.media.0.codec.long_name">AAC (Advanced Audio Coding)</property>
  <property name="meta.media.0.codec.bit_rate">182659</property>
  <property name="meta.attr.0.stream.creation_time.markup">2023-11-01T18:46:13.000000Z</property>
  <property name="meta.attr.0.stream.handler_name.markup">SoundHandler</property>
  <property name="meta.attr.0.stream.vendor_id.markup">[0][0][0][0]</property>
  <property name="meta.attr.major_brand.markup">mp42</property>
  <property name="meta.attr.minor_version.markup">0</property>
  <property name="meta.attr.compatible_brands.markup">mp41isom</property>
  <property name="meta.attr.creation_time.markup">2023-11-01T18:46:13.000000Z</property>
  <property name="meta.attr.date.markup">2023</property>
  <property name="meta.attr.album_artist.markup">Запись голоса</property>
  <property name="meta.attr.title.markup">ch06-s02-navigation-panel</property>
  <property name="seekable">1</property>
  <property name="audio_index">0</property>
  <property name="video_index">-1</property>
  <property name="astream">0</property>
  <property name="kdenlive:folderid">-1</property>
  <property name="kdenlive:id">21</property>
  <property name="kdenlive:clip_type">1</property>
  <property name="kdenlive:file_size">179642</property>
  <property name="kdenlive:file_hash">f944b578d5c2cd2fff1ef020179d7ed5</property>
  <property name="kdenlive:audio_max0">143</property>
 </chain>
 <chain id="chain46" out="00:00:08.867">
  <property name="length">134</property>
  <property name="eof">pause</property>
  <property name="resource">ch06-s03-colors_en.m4a</property>
  <property name="mlt_service">avformat</property>
  <property name="meta.media.nb_streams">1</property>
  <property name="meta.media.0.stream.type">audio</property>
  <property name="meta.media.0.codec.sample_fmt">fltp</property>
  <property name="meta.media.0.codec.sample_rate">48000</property>
  <property name="meta.media.0.codec.channels">2</property>
  <property name="meta.media.0.codec.name">aac</property>
  <property name="meta.media.0.codec.long_name">AAC (Advanced Audio Coding)</property>
  <property name="meta.media.0.codec.bit_rate">169665</property>
  <property name="meta.attr.0.stream.creation_time.markup">2023-11-01T18:49:26.000000Z</property>
  <property name="meta.attr.0.stream.handler_name.markup">SoundHandler</property>
  <property name="meta.attr.0.stream.vendor_id.markup">[0][0][0][0]</property>
  <property name="meta.attr.major_brand.markup">mp42</property>
  <property name="meta.attr.minor_version.markup">0</property>
  <property name="meta.attr.compatible_brands.markup">mp41isom</property>
  <property name="meta.attr.creation_time.markup">2023-11-01T18:49:26.000000Z</property>
  <property name="meta.attr.date.markup">2023</property>
  <property name="meta.attr.album_artist.markup">Запись голоса</property>
  <property name="meta.attr.title.markup">ch06-s03-colors</property>
  <property name="seekable">1</property>
  <property name="audio_index">0</property>
  <property name="video_index">-1</property>
  <property name="astream">0</property>
  <property name="kdenlive:folderid">-1</property>
  <property name="kdenlive:id">22</property>
  <property name="kdenlive:clip_type">1</property>
  <property name="kdenlive:file_size">192075</property>
  <property name="kdenlive:file_hash">d69fd86750d00faad304d78d6cf21b5f</property>
  <property name="kdenlive:audio_max0">132</property>
 </chain>
 <chain id="chain47" out="00:00:04.267">
  <property name="length">65</property>
  <property name="eof">pause</property>
  <property name="resource">ch06-s04-last-choice_en.m4a</property>
  <property name="mlt_service">avformat</property>
  <property name="meta.media.nb_streams">1</property>
  <property name="meta.media.0.stream.type">audio</property>
  <property name="meta.media.0.codec.sample_fmt">fltp</property>
  <property name="meta.media.0.codec.sample_rate">48000</property>
  <property name="meta.media.0.codec.channels">2</property>
  <property name="meta.media.0.codec.name">aac</property>
  <property name="meta.media.0.codec.long_name">AAC (Advanced Audio Coding)</property>
  <property name="meta.media.0.codec.bit_rate">182268</property>
  <property name="meta.attr.0.stream.creation_time.markup">2023-11-01T19:22:00.000000Z</property>
  <property name="meta.attr.0.stream.handler_name.markup">SoundHandler</property>
  <property name="meta.attr.0.stream.vendor_id.markup">[0][0][0][0]</property>
  <property name="meta.attr.major_brand.markup">mp42</property>
  <property name="meta.attr.minor_version.markup">0</property>
  <property name="meta.attr.compatible_brands.markup">mp41isom</property>
  <property name="meta.attr.creation_time.markup">2023-11-01T19:22:00.000000Z</property>
  <property name="meta.attr.date.markup">2023</property>
  <property name="meta.attr.album_artist.markup">Запись голоса</property>
  <property name="meta.attr.title.markup">ch06-s04-last-choice</property>
  <property name="seekable">1</property>
  <property name="audio_index">0</property>
  <property name="video_index">-1</property>
  <property name="astream">0</property>
  <property name="kdenlive:folderid">-1</property>
  <property name="kdenlive:id">23</property>
  <property name="kdenlive:clip_type">1</property>
  <property name="kdenlive:file_size">99937</property>
  <property name="kdenlive:file_hash">38889c46410b883e6aebc6eb3802c062</property>
  <property name="kdenlive:audio_max0">123</property>
 </chain>
 <chain id="chain48" out="00:00:04.000">
  <property name="length">61</property>
  <property name="eof">pause</property>
  <property name="resource">ch06-s05-scroll-to_en.m4a</property>
  <property name="mlt_service">avformat</property>
  <property name="meta.media.nb_streams">1</property>
  <property name="meta.media.0.stream.type">audio</property>
  <property name="meta.media.0.codec.sample_fmt">fltp</property>
  <property name="meta.media.0.codec.sample_rate">48000</property>
  <property name="meta.media.0.codec.channels">2</property>
  <property name="meta.media.0.codec.name">aac</property>
  <property name="meta.media.0.codec.long_name">AAC (Advanced Audio Coding)</property>
  <property name="meta.media.0.codec.bit_rate">162535</property>
  <property name="meta.attr.0.stream.creation_time.markup">2023-11-01T19:24:12.000000Z</property>
  <property name="meta.attr.0.stream.handler_name.markup">SoundHandler</property>
  <property name="meta.attr.0.stream.vendor_id.markup">[0][0][0][0]</property>
  <property name="meta.attr.major_brand.markup">mp42</property>
  <property name="meta.attr.minor_version.markup">0</property>
  <property name="meta.attr.compatible_brands.markup">mp41isom</property>
  <property name="meta.attr.creation_time.markup">2023-11-01T19:24:12.000000Z</property>
  <property name="meta.attr.date.markup">2023</property>
  <property name="meta.attr.album_artist.markup">Запись голоса</property>
  <property name="meta.attr.title.markup">ch06-s05-scroll-to</property>
  <property name="seekable">1</property>
  <property name="audio_index">0</property>
  <property name="video_index">-1</property>
  <property name="astream">0</property>
  <property name="kdenlive:folderid">-1</property>
  <property name="kdenlive:id">24</property>
  <property name="kdenlive:clip_type">1</property>
  <property name="kdenlive:file_size">84713</property>
  <property name="kdenlive:file_hash">7bfdc6d3233e5d1d07a45ba084642951</property>
  <property name="kdenlive:audio_max0">132</property>
 </chain>
 <chain id="chain49" out="00:00:04.933">
  <property name="length">75</property>
  <property name="eof">pause</property>
  <property name="resource">ch06-s06-expand_en.m4a</property>
  <property name="mlt_service">avformat</property>
  <property name="meta.media.nb_streams">1</property>
  <property name="meta.media.0.stream.type">audio</property>
  <property name="meta.media.0.codec.sample_fmt">fltp</property>
  <property name="meta.media.0.codec.sample_rate">48000</property>
  <property name="meta.media.0.codec.channels">2</property>
  <property name="meta.media.0.codec.name">aac</property>
  <property name="meta.media.0.codec.long_name">AAC (Advanced Audio Coding)</property>
  <property name="meta.media.0.codec.bit_rate">167194</property>
  <property name="meta.attr.0.stream.creation_time.markup">2023-11-01T19:28:31.000000Z</property>
  <property name="meta.attr.0.stream.handler_name.markup">SoundHandler</property>
  <property name="meta.attr.0.stream.vendor_id.markup">[0][0][0][0]</property>
  <property name="meta.attr.major_brand.markup">mp42</property>
  <property name="meta.attr.minor_version.markup">0</property>
  <property name="meta.attr.compatible_brands.markup">mp41isom</property>
  <property name="meta.attr.creation_time.markup">2023-11-01T19:28:31.000000Z</property>
  <property name="meta.attr.date.markup">2023</property>
  <property name="meta.attr.album_artist.markup">Запись голоса</property>
  <property name="meta.attr.title.markup">ch06-s06-expand</property>
  <property name="seekable">1</property>
  <property name="audio_index">0</property>
  <property name="video_index">-1</property>
  <property name="astream">0</property>
  <property name="kdenlive:folderid">-1</property>
  <property name="kdenlive:id">25</property>
  <property name="kdenlive:clip_type">1</property>
  <property name="kdenlive:file_size">106541</property>
  <property name="kdenlive:file_hash">5e0fc971a90e3b7853cf5f3605a1547f</property>
  <property name="kdenlive:audio_max0">112</property>
 </chain>
 <chain id="chain50" out="00:00:05.533">
  <property name="length">84</property>
  <property name="eof">pause</property>
  <property name="resource">ch06-s07-swipe_en.m4a</property>
  <property name="mlt_service">avformat</property>
  <property name="meta.media.nb_streams">1</property>
  <property name="meta.media.0.stream.type">audio</property>
  <property name="meta.media.0.codec.sample_fmt">fltp</property>
  <property name="meta.media.0.codec.sample_rate">48000</property>
  <property name="meta.media.0.codec.channels">2</property>
  <property name="meta.media.0.codec.name">aac</property>
  <property name="meta.media.0.codec.long_name">AAC (Advanced Audio Coding)</property>
  <property name="meta.media.0.codec.bit_rate">180641</property>
  <property name="meta.attr.0.stream.creation_time.markup">2023-11-01T19:31:14.000000Z</property>
  <property name="meta.attr.0.stream.handler_name.markup">SoundHandler</property>
  <property name="meta.attr.0.stream.vendor_id.markup">[0][0][0][0]</property>
  <property name="meta.attr.major_brand.markup">mp42</property>
  <property name="meta.attr.minor_version.markup">0</property>
  <property name="meta.attr.compatible_brands.markup">mp41isom</property>
  <property name="meta.attr.creation_time.markup">2023-11-01T19:31:14.000000Z</property>
  <property name="meta.attr.date.markup">2023</property>
  <property name="meta.attr.album_artist.markup">Запись голоса</property>
  <property name="meta.attr.title.markup">ch06-s07-swipe</property>
  <property name="seekable">1</property>
  <property name="audio_index">0</property>
  <property name="video_index">-1</property>
  <property name="astream">0</property>
  <property name="kdenlive:folderid">-1</property>
  <property name="kdenlive:id">26</property>
  <property name="kdenlive:clip_type">1</property>
  <property name="kdenlive:file_size">129052</property>
  <property name="kdenlive:file_hash">770de80d22e6f82e473f57467ffd1527</property>
  <property name="kdenlive:audio_max0">171</property>
 </chain>
 <chain id="chain51" out="00:00:07.400">
  <property name="length">112</property>
  <property name="eof">pause</property>
  <property name="resource">ch06-s08-zoom_en.m4a</property>
  <property name="mlt_service">avformat</property>
  <property name="meta.media.nb_streams">1</property>
  <property name="meta.media.0.stream.type">audio</property>
  <property name="meta.media.0.codec.sample_fmt">fltp</property>
  <property name="meta.media.0.codec.sample_rate">48000</property>
  <property name="meta.media.0.codec.channels">2</property>
  <property name="meta.media.0.codec.name">aac</property>
  <property name="meta.media.0.codec.long_name">AAC (Advanced Audio Coding)</property>
  <property name="meta.media.0.codec.bit_rate">166669</property>
  <property name="meta.attr.0.stream.creation_time.markup">2023-11-01T19:33:39.000000Z</property>
  <property name="meta.attr.0.stream.handler_name.markup">SoundHandler</property>
  <property name="meta.attr.0.stream.vendor_id.markup">[0][0][0][0]</property>
  <property name="meta.attr.major_brand.markup">mp42</property>
  <property name="meta.attr.minor_version.markup">0</property>
  <property name="meta.attr.compatible_brands.markup">mp41isom</property>
  <property name="meta.attr.creation_time.markup">2023-11-01T19:33:39.000000Z</property>
  <property name="meta.attr.date.markup">2023</property>
  <property name="meta.attr.album_artist.markup">Запись голоса</property>
  <property name="meta.attr.title.markup">ch06-s08-zoom</property>
  <property name="seekable">1</property>
  <property name="audio_index">0</property>
  <property name="video_index">-1</property>
  <property name="astream">0</property>
  <property name="kdenlive:folderid">-1</property>
  <property name="kdenlive:id">27</property>
  <property name="kdenlive:clip_type">1</property>
  <property name="kdenlive:file_size">157782</property>
  <property name="kdenlive:file_hash">79b533e4607275e1044b4c2309ec5804</property>
  <property name="kdenlive:audio_max0">149</property>
 </chain>
 <chain id="chain52" out="00:00:03.067">
  <property name="length">47</property>
  <property name="eof">pause</property>
  <property name="resource">ch07-s09-shortcuts_en.m4a</property>
  <property name="mlt_service">avformat</property>
  <property name="meta.media.nb_streams">1</property>
  <property name="meta.media.0.stream.type">audio</property>
  <property name="meta.media.0.codec.sample_fmt">fltp</property>
  <property name="meta.media.0.codec.sample_rate">48000</property>
  <property name="meta.media.0.codec.channels">2</property>
  <property name="meta.media.0.codec.name">aac</property>
  <property name="meta.media.0.codec.long_name">AAC (Advanced Audio Coding)</property>
  <property name="meta.media.0.codec.bit_rate">171414</property>
  <property name="meta.attr.0.stream.creation_time.markup">2023-11-01T19:36:10.000000Z</property>
  <property name="meta.attr.0.stream.handler_name.markup">SoundHandler</property>
  <property name="meta.attr.0.stream.vendor_id.markup">[0][0][0][0]</property>
  <property name="meta.attr.major_brand.markup">mp42</property>
  <property name="meta.attr.minor_version.markup">0</property>
  <property name="meta.attr.compatible_brands.markup">mp41isom</property>
  <property name="meta.attr.creation_time.markup">2023-11-01T19:36:10.000000Z</property>
  <property name="meta.attr.date.markup">2023</property>
  <property name="meta.attr.album_artist.markup">Запись голоса</property>
  <property name="meta.attr.title.markup">ch07-s09-shortcuts</property>
  <property name="seekable">1</property>
  <property name="audio_index">0</property>
  <property name="video_index">-1</property>
  <property name="astream">0</property>
  <property name="kdenlive:folderid">-1</property>
  <property name="kdenlive:id">28</property>
  <property name="kdenlive:clip_type">1</property>
  <property name="kdenlive:file_size">68292</property>
  <property name="kdenlive:file_hash">5d6aa71d0d9703260d3f23a21eb7567d</property>
  <property name="kdenlive:audio_max0">129</property>
 </chain>
 <chain id="chain53" out="00:00:10.267">
  <property name="length">155</property>
  <property name="eof">pause</property>
  <property name="resource">ch08-s01-conclusion_en.m4a</property>
  <property name="mlt_service">avformat</property>
  <property name="meta.media.nb_streams">1</property>
  <property name="meta.media.0.stream.type">audio</property>
  <property name="meta.media.0.codec.sample_fmt">fltp</property>
  <property name="meta.media.0.codec.sample_rate">48000</property>
  <property name="meta.media.0.codec.channels">2</property>
  <property name="meta.media.0.codec.name">aac</property>
  <property name="meta.media.0.codec.long_name">AAC (Advanced Audio Coding)</property>
  <property name="meta.media.0.codec.bit_rate">178027</property>
  <property name="meta.attr.0.stream.creation_time.markup">2023-11-01T19:40:16.000000Z</property>
  <property name="meta.attr.0.stream.handler_name.markup">SoundHandler</property>
  <property name="meta.attr.0.stream.vendor_id.markup">[0][0][0][0]</property>
  <property name="meta.attr.major_brand.markup">mp42</property>
  <property name="meta.attr.minor_version.markup">0</property>
  <property name="meta.attr.compatible_brands.markup">mp41isom</property>
  <property name="meta.attr.creation_time.markup">2023-11-01T19:40:16.000000Z</property>
  <property name="meta.attr.date.markup">2023</property>
  <property name="meta.attr.album_artist.markup">Запись голоса</property>
  <property name="meta.attr.title.markup">ch08-s01-conclusion</property>
  <property name="seekable">1</property>
  <property name="audio_index">0</property>
  <property name="video_index">-1</property>
  <property name="astream">0</property>
  <property name="kdenlive:folderid">-1</property>
  <property name="kdenlive:id">29</property>
  <property name="kdenlive:clip_type">1</property>
  <property name="kdenlive:file_size">233019</property>
  <property name="kdenlive:file_hash">b29338b04fa1d2daea097972ca8ec678</property>
  <property name="kdenlive:audio_max0">148</property>
 </chain>
 <chain id="chain54" out="00:00:06.600">
  <property name="length">100</property>
  <property name="eof">pause</property>
  <property name="resource">ch08-s02-free_en.m4a</property>
  <property name="mlt_service">avformat</property>
  <property name="meta.media.nb_streams">1</property>
  <property name="meta.media.0.stream.type">audio</property>
  <property name="meta.media.0.codec.sample_fmt">fltp</property>
  <property name="meta.media.0.codec.sample_rate">48000</property>
  <property name="meta.media.0.codec.channels">2</property>
  <property name="meta.media.0.codec.name">aac</property>
  <property name="meta.media.0.codec.long_name">AAC (Advanced Audio Coding)</property>
  <property name="meta.media.0.codec.bit_rate">183918</property>
  <property name="meta.attr.0.stream.creation_time.markup">2023-11-01T19:43:13.000000Z</property>
  <property name="meta.attr.0.stream.handler_name.markup">SoundHandler</property>
  <property name="meta.attr.0.stream.vendor_id.markup">[0][0][0][0]</property>
  <property name="meta.attr.major_brand.markup">mp42</property>
  <property name="meta.attr.minor_version.markup">0</property>
  <property name="meta.attr.compatible_brands.markup">mp41isom</property>
  <property name="meta.attr.creation_time.markup">2023-11-01T19:43:13.000000Z</property>
  <property name="meta.attr.date.markup">2023</property>
  <property name="meta.attr.album_artist.markup">Запись голоса</property>
  <property name="meta.attr.title.markup">ch08-s02-free</property>
  <property name="seekable">1</property>
  <property name="audio_index">0</property>
  <property name="video_index">-1</property>
  <property name="astream">0</property>
  <property name="kdenlive:folderid">-1</property>
  <property name="kdenlive:id">30</property>
  <property name="kdenlive:clip_type">1</property>
  <property name="kdenlive:file_size">155786</property>
  <property name="kdenlive:file_hash">211bea8fd6b5d144331e87b7e32f3dd3</property>
  <property name="kdenlive:audio_max0">152</property>
 </chain>
 <chain id="chain56" out="00:00:05.400">
  <property name="length">82</property>
  <property name="eof">pause</property>
  <property name="resource">ch08-s03-decision_en.m4a</property>
  <property name="mlt_service">avformat</property>
  <property name="meta.media.nb_streams">1</property>
  <property name="meta.media.0.stream.type">audio</property>
  <property name="meta.media.0.codec.sample_fmt">fltp</property>
  <property name="meta.media.0.codec.sample_rate">48000</property>
  <property name="meta.media.0.codec.channels">30</property>
  <property name="meta.media.0.codec.name">aac</property>
  <property name="meta.media.0.codec.long_name">AAC (Advanced Audio Coding)</property>
  <property name="meta.media.0.codec.bit_rate">184369</property>
  <property name="meta.attr.0.stream.creation_time.markup">2023-11-01T19:46:11.000000Z</property>
  <property name="meta.attr.0.stream.handler_name.markup">SoundHandler</property>
  <property name="meta.attr.0.stream.vendor_id.markup">[0][0][0][0]</property>
  <property name="meta.attr.major_brand.markup">mp42</property>
  <property name="meta.attr.minor_version.markup">0</property>
  <property name="meta.attr.compatible_brands.markup">mp41isom</property>
  <property name="meta.attr.creation_time.markup">2023-11-01T19:46:11.000000Z</property>
  <property name="meta.attr.date.markup">2023</property>
  <property name="meta.attr.album_artist.markup">Запись голоса</property>
  <property name="meta.attr.title.markup">ch08-s03-decision</property>
  <property name="seekable">1</property>
  <property name="audio_index">0</property>
  <property name="video_index">-1</property>
  <property name="astream">0</property>
  <property name="kdenlive:folderid">-1</property>
  <property name="kdenlive:id">31</property>
  <property name="kdenlive:clip_type">1</property>
  <property name="kdenlive:file_size">127656</property>
  <property name="kdenlive:file_hash">d0f116f02950c1bdedddaa11f9c3d07f</property>
  <property name="kdenlive:audio_max0">151</property>
 </chain>
 <chain id="chain55" out="00:00:01.600">
  <property name="length">25</property>
  <property name="eof">pause</property>
  <property name="resource">ch08-s03-thanks_en.m4a</property>
  <property name="mlt_service">avformat</property>
  <property name="meta.media.nb_streams">1</property>
  <property name="meta.media.0.stream.type">audio</property>
  <property name="meta.media.0.codec.sample_fmt">fltp</property>
  <property name="meta.media.0.codec.sample_rate">48000</property>
  <property name="meta.media.0.codec.channels">2</property>
  <property name="meta.media.0.codec.name">aac</property>
  <property name="meta.media.0.codec.long_name">AAC (Advanced Audio Coding)</property>
  <property name="meta.media.0.codec.bit_rate">178813</property>
  <property name="meta.attr.0.stream.creation_time.markup">2023-11-01T19:48:26.000000Z</property>
  <property name="meta.attr.0.stream.handler_name.markup">SoundHandler</property>
  <property name="meta.attr.0.stream.vendor_id.markup">[0][0][0][0]</property>
  <property name="meta.attr.major_brand.markup">mp42</property>
  <property name="meta.attr.minor_version.markup">0</property>
  <property name="meta.attr.compatible_brands.markup">mp41isom</property>
  <property name="meta.attr.creation_time.markup">2023-11-01T19:48:26.000000Z</property>
  <property name="meta.attr.date.markup">2023</property>
  <property name="meta.attr.album_artist.markup">Запись голоса</property>
  <property name="meta.attr.title.markup">ch08-s03-thanks</property>
  <property name="seekable">1</property>
  <property name="audio_index">0</property>
  <property name="video_index">-1</property>
  <property name="astream">0</property>
  <property name="kdenlive:folderid">-1</property>
  <property name="kdenlive:id">32</property>
  <property name="kdenlive:clip_type">1</property>
  <property name="kdenlive:file_size">38423</property>
  <property name="kdenlive:file_hash">9827404a712a2348e6c25ec7c7d68d97</property>
  <property name="kdenlive:audio_max0">124</property>
 </chain>
 <chain id="chain57" out="00:01:20.933">
  <property name="length">1215</property>
  <property name="eof">pause</property>
  <property name="resource">adaptive-design.mp4</property>
  <property name="mlt_service">avformat-novalidate</property>
  <property name="meta.media.nb_streams">2</property>
  <property name="meta.media.0.stream.type">video</property>
  <property name="meta.media.0.stream.frame_rate">15</property>
  <property name="meta.media.0.stream.sample_aspect_ratio">1</property>
  <property name="meta.media.0.codec.width">1816</property>
  <property name="meta.media.0.codec.height">1028</property>
  <property name="meta.media.0.codec.rotate">0</property>
  <property name="meta.media.0.codec.pix_fmt">yuv420p</property>
  <property name="meta.media.0.codec.sample_aspect_ratio">1</property>
  <property name="meta.media.0.codec.colorspace">709</property>
  <property name="meta.media.0.codec.color_trc">1</property>
  <property name="meta.media.0.codec.name">h264</property>
  <property name="meta.media.0.codec.long_name">H.264 / AVC / MPEG-4 AVC / MPEG-4 part 10</property>
  <property name="meta.media.0.codec.bit_rate">292958</property>
  <property name="meta.attr.0.stream.handler_name.markup">VideoHandler</property>
  <property name="meta.attr.0.stream.vendor_id.markup">[0][0][0][0]</property>
  <property name="meta.media.1.stream.type">audio</property>
  <property name="meta.media.1.codec.sample_fmt">fltp</property>
  <property name="meta.media.1.codec.sample_rate">48000</property>
  <property name="meta.media.1.codec.channels">2</property>
  <property name="meta.media.1.codec.name">aac</property>
  <property name="meta.media.1.codec.long_name">AAC (Advanced Audio Coding)</property>
  <property name="meta.media.1.codec.bit_rate">2272</property>
  <property name="meta.attr.1.stream.handler_name.markup">SoundHandler</property>
  <property name="meta.attr.1.stream.vendor_id.markup">[0][0][0][0]</property>
  <property name="meta.attr.major_brand.markup">isom</property>
  <property name="meta.attr.minor_version.markup">512</property>
  <property name="meta.attr.compatible_brands.markup">isomiso2avc1mp41</property>
  <property name="meta.attr.encoder.markup">Lavf60.3.100</property>
  <property name="seekable">1</property>
  <property name="meta.media.sample_aspect_num">1</property>
  <property name="meta.media.sample_aspect_den">1</property>
  <property name="audio_index">1</property>
  <property name="video_index">0</property>
  <property name="vstream">0</property>
  <property name="meta.media.frame_rate_num">15</property>
  <property name="meta.media.frame_rate_den">1</property>
  <property name="meta.media.colorspace">709</property>
  <property name="meta.media.color_trc">1</property>
  <property name="meta.media.has_b_frames">2</property>
  <property name="meta.media.width">1816</property>
  <property name="meta.media.height">1028</property>
  <property name="meta.media.color_range">mpeg</property>
  <property name="astream">0</property>
  <property name="meta.media.top_field_first">0</property>
  <property name="meta.media.progressive">1</property>
  <property name="kdenlive:folderid">-1</property>
  <property name="kdenlive:id">33</property>
  <property name="mute_on_pause">0</property>
  <property name="kdenlive:clip_type">0</property>
  <property name="kdenlive:file_size">3032773</property>
  <property name="kdenlive:file_hash">c1e96150e34532e63a66f1e7d88662f1</property>
  <property name="kdenlive:audio_max1">1</property>
 </chain>
 <chain id="chain58" out="00:01:06.667">
  <property name="length">1001</property>
  <property name="eof">pause</property>
  <property name="resource">/home/vlyskouski/Videos/Pear-to-Pear.mp4</property>
  <property name="mlt_service">avformat-novalidate</property>
  <property name="meta.media.nb_streams">2</property>
  <property name="meta.media.0.stream.type">video</property>
  <property name="meta.media.0.stream.frame_rate">15</property>
  <property name="meta.media.0.stream.sample_aspect_ratio">1</property>
  <property name="meta.media.0.codec.width">994</property>
  <property name="meta.media.0.codec.height">742</property>
  <property name="meta.media.0.codec.rotate">0</property>
  <property name="meta.media.0.codec.pix_fmt">yuv420p</property>
  <property name="meta.media.0.codec.sample_aspect_ratio">1</property>
  <property name="meta.media.0.codec.colorspace">709</property>
  <property name="meta.media.0.codec.color_trc">1</property>
  <property name="meta.media.0.codec.name">h264</property>
  <property name="meta.media.0.codec.long_name">H.264 / AVC / MPEG-4 AVC / MPEG-4 part 10</property>
  <property name="meta.media.0.codec.bit_rate">318695</property>
  <property name="meta.attr.0.stream.handler_name.markup">VideoHandler</property>
  <property name="meta.attr.0.stream.vendor_id.markup">[0][0][0][0]</property>
  <property name="meta.media.1.stream.type">audio</property>
  <property name="meta.media.1.codec.sample_fmt">fltp</property>
  <property name="meta.media.1.codec.sample_rate">48000</property>
  <property name="meta.media.1.codec.channels">2</property>
  <property name="meta.media.1.codec.name">aac</property>
  <property name="meta.media.1.codec.long_name">AAC (Advanced Audio Coding)</property>
  <property name="meta.media.1.codec.bit_rate">2273</property>
  <property name="meta.attr.1.stream.handler_name.markup">SoundHandler</property>
  <property name="meta.attr.1.stream.vendor_id.markup">[0][0][0][0]</property>
  <property name="meta.attr.major_brand.markup">isom</property>
  <property name="meta.attr.minor_version.markup">512</property>
  <property name="meta.attr.compatible_brands.markup">isomiso2avc1mp41</property>
  <property name="meta.attr.encoder.markup">Lavf60.3.100</property>
  <property name="seekable">1</property>
  <property name="meta.media.sample_aspect_num">1</property>
  <property name="meta.media.sample_aspect_den">1</property>
  <property name="audio_index">1</property>
  <property name="video_index">0</property>
  <property name="vstream">0</property>
  <property name="meta.media.frame_rate_num">15</property>
  <property name="meta.media.frame_rate_den">1</property>
  <property name="meta.media.colorspace">709</property>
  <property name="meta.media.color_trc">1</property>
  <property name="meta.media.has_b_frames">2</property>
  <property name="meta.media.width">994</property>
  <property name="meta.media.height">742</property>
  <property name="meta.media.color_range">mpeg</property>
  <property name="astream">0</property>
  <property name="meta.media.top_field_first">0</property>
  <property name="meta.media.progressive">1</property>
  <property name="kdenlive:folderid">-1</property>
  <property name="kdenlive:id">34</property>
  <property name="mute_on_pause">0</property>
  <property name="kdenlive:clip_type">0</property>
  <property name="kdenlive:file_size">2714421</property>
  <property name="kdenlive:file_hash">62c0557839e4659d1b5420fcc7b84109</property>
  <property name="kdenlive:audio_max1">1</property>
 </chain>
 <chain id="chain59" out="00:00:23.733">
  <property name="length">357</property>
  <property name="eof">pause</property>
  <property name="resource">accounts.mp4</property>
  <property name="mlt_service">avformat-novalidate</property>
  <property name="meta.media.nb_streams">1</property>
  <property name="meta.media.0.stream.type">video</property>
  <property name="meta.media.0.stream.frame_rate">15</property>
  <property name="meta.media.0.stream.sample_aspect_ratio">1</property>
  <property name="meta.media.0.codec.width">1156</property>
  <property name="meta.media.0.codec.height">724</property>
  <property name="meta.media.0.codec.rotate">0</property>
  <property name="meta.media.0.codec.pix_fmt">yuv444p</property>
  <property name="meta.media.0.codec.sample_aspect_ratio">1</property>
  <property name="meta.media.0.codec.colorspace">709</property>
  <property name="meta.media.0.codec.color_trc">1</property>
  <property name="meta.media.0.codec.name">h264</property>
  <property name="meta.media.0.codec.long_name">H.264 / AVC / MPEG-4 AVC / MPEG-4 part 10</property>
  <property name="meta.media.0.codec.bit_rate">887387</property>
  <property name="meta.attr.0.stream.creation_time.markup">2023-11-02T20:21:45.000000Z</property>
  <property name="meta.attr.0.stream.handler_name.markup">VideoHandler</property>
  <property name="meta.attr.0.stream.vendor_id.markup">[0][0][0][0]</property>
  <property name="meta.attr.major_brand.markup">mp42</property>
  <property name="meta.attr.minor_version.markup">0</property>
  <property name="meta.attr.compatible_brands.markup">mp42mp41isomiso2</property>
  <property name="meta.attr.creation_time.markup">2023-11-02T20:21:45.000000Z</property>
  <property name="meta.attr.encoder.markup">x264</property>
  <property name="seekable">1</property>
  <property name="meta.media.sample_aspect_num">1</property>
  <property name="meta.media.sample_aspect_den">1</property>
  <property name="audio_index">-1</property>
  <property name="video_index">0</property>
  <property name="vstream">0</property>
  <property name="meta.media.frame_rate_num">15</property>
  <property name="meta.media.frame_rate_den">1</property>
  <property name="meta.media.colorspace">709</property>
  <property name="meta.media.color_trc">1</property>
  <property name="meta.media.has_b_frames">0</property>
  <property name="meta.media.width">1156</property>
  <property name="meta.media.height">724</property>
  <property name="meta.media.color_range">mpeg</property>
  <property name="meta.media.top_field_first">0</property>
  <property name="meta.media.progressive">1</property>
  <property name="kdenlive:folderid">-1</property>
  <property name="kdenlive:id">35</property>
  <property name="mute_on_pause">0</property>
  <property name="kdenlive:clip_type">2</property>
  <property name="kdenlive:file_size">2642336</property>
  <property name="kdenlive:file_hash">22751f535e921504d517dd339e8043e3</property>
 </chain>
 <chain id="chain60" out="00:00:16.533">
  <property name="length">249</property>
  <property name="eof">pause</property>
  <property name="resource">budgets.mp4</property>
  <property name="mlt_service">avformat-novalidate</property>
  <property name="meta.media.nb_streams">1</property>
  <property name="meta.media.0.stream.type">video</property>
  <property name="meta.media.0.stream.frame_rate">15</property>
  <property name="meta.media.0.stream.sample_aspect_ratio">1</property>
  <property name="meta.media.0.codec.width">1156</property>
  <property name="meta.media.0.codec.height">724</property>
  <property name="meta.media.0.codec.rotate">0</property>
  <property name="meta.media.0.codec.pix_fmt">yuv444p</property>
  <property name="meta.media.0.codec.sample_aspect_ratio">1</property>
  <property name="meta.media.0.codec.colorspace">709</property>
  <property name="meta.media.0.codec.color_trc">1</property>
  <property name="meta.media.0.codec.name">h264</property>
  <property name="meta.media.0.codec.long_name">H.264 / AVC / MPEG-4 AVC / MPEG-4 part 10</property>
  <property name="meta.media.0.codec.bit_rate">170457</property>
  <property name="meta.attr.0.stream.creation_time.markup">2023-11-02T20:36:10.000000Z</property>
  <property name="meta.attr.0.stream.handler_name.markup">VideoHandler</property>
  <property name="meta.attr.0.stream.vendor_id.markup">[0][0][0][0]</property>
  <property name="meta.attr.major_brand.markup">mp42</property>
  <property name="meta.attr.minor_version.markup">0</property>
  <property name="meta.attr.compatible_brands.markup">mp42mp41isomiso2</property>
  <property name="meta.attr.creation_time.markup">2023-11-02T20:36:10.000000Z</property>
  <property name="meta.attr.encoder.markup">x264</property>
  <property name="seekable">1</property>
  <property name="meta.media.sample_aspect_num">1</property>
  <property name="meta.media.sample_aspect_den">1</property>
  <property name="audio_index">-1</property>
  <property name="video_index">0</property>
  <property name="vstream">0</property>
  <property name="meta.media.frame_rate_num">15</property>
  <property name="meta.media.frame_rate_den">1</property>
  <property name="meta.media.colorspace">709</property>
  <property name="meta.media.color_trc">1</property>
  <property name="meta.media.has_b_frames">0</property>
  <property name="meta.media.width">1156</property>
  <property name="meta.media.height">724</property>
  <property name="meta.media.color_range">mpeg</property>
  <property name="meta.media.top_field_first">0</property>
  <property name="meta.media.progressive">1</property>
  <property name="kdenlive:folderid">-1</property>
  <property name="kdenlive:id">36</property>
  <property name="mute_on_pause">0</property>
  <property name="kdenlive:clip_type">2</property>
  <property name="kdenlive:file_size">355621</property>
  <property name="kdenlive:file_hash">1980293c15e7dc302f793b3cb37c89de</property>
 </chain>
 <chain id="chain61" out="00:00:10.600">
  <property name="length">160</property>
  <property name="eof">pause</property>
  <property name="resource">bills.mp4</property>
  <property name="mlt_service">avformat-novalidate</property>
  <property name="meta.media.nb_streams">1</property>
  <property name="meta.media.0.stream.type">video</property>
  <property name="meta.media.0.stream.frame_rate">15</property>
  <property name="meta.media.0.stream.sample_aspect_ratio">1</property>
  <property name="meta.media.0.codec.width">1156</property>
  <property name="meta.media.0.codec.height">724</property>
  <property name="meta.media.0.codec.rotate">0</property>
  <property name="meta.media.0.codec.pix_fmt">yuv444p</property>
  <property name="meta.media.0.codec.sample_aspect_ratio">1</property>
  <property name="meta.media.0.codec.colorspace">709</property>
  <property name="meta.media.0.codec.color_trc">1</property>
  <property name="meta.media.0.codec.name">h264</property>
  <property name="meta.media.0.codec.long_name">H.264 / AVC / MPEG-4 AVC / MPEG-4 part 10</property>
  <property name="meta.media.0.codec.bit_rate">362804</property>
  <property name="meta.attr.0.stream.creation_time.markup">2023-11-02T20:39:57.000000Z</property>
  <property name="meta.attr.0.stream.handler_name.markup">VideoHandler</property>
  <property name="meta.attr.0.stream.vendor_id.markup">[0][0][0][0]</property>
  <property name="meta.attr.major_brand.markup">mp42</property>
  <property name="meta.attr.minor_version.markup">0</property>
  <property name="meta.attr.compatible_brands.markup">mp42mp41isomiso2</property>
  <property name="meta.attr.creation_time.markup">2023-11-02T20:39:57.000000Z</property>
  <property name="meta.attr.encoder.markup">x264</property>
  <property name="seekable">1</property>
  <property name="meta.media.sample_aspect_num">1</property>
  <property name="meta.media.sample_aspect_den">1</property>
  <property name="audio_index">-1</property>
  <property name="video_index">0</property>
  <property name="vstream">0</property>
  <property name="meta.media.frame_rate_num">15</property>
  <property name="meta.media.frame_rate_den">1</property>
  <property name="meta.media.colorspace">709</property>
  <property name="meta.media.color_trc">1</property>
  <property name="meta.media.has_b_frames">0</property>
  <property name="meta.media.width">1156</property>
  <property name="meta.media.height">724</property>
  <property name="meta.media.color_range">mpeg</property>
  <property name="meta.media.top_field_first">0</property>
  <property name="meta.media.progressive">1</property>
  <property name="kdenlive:folderid">-1</property>
  <property name="kdenlive:id">37</property>
  <property name="mute_on_pause">0</property>
  <property name="kdenlive:clip_type">2</property>
  <property name="kdenlive:file_size">485305</property>
  <property name="kdenlive:file_hash">ac6a90f217d1ceccf7136191b28c81f4</property>
 </chain>
 <chain id="chain63" out="00:00:36.867">
  <property name="length">554</property>
  <property name="eof">pause</property>
  <property name="resource">goal_1.mp4</property>
  <property name="mlt_service">avformat-novalidate</property>
  <property name="meta.media.nb_streams">1</property>
  <property name="meta.media.0.stream.type">video</property>
  <property name="meta.media.0.stream.frame_rate">15</property>
  <property name="meta.media.0.stream.sample_aspect_ratio">1</property>
  <property name="meta.media.0.codec.width">1156</property>
  <property name="meta.media.0.codec.height">724</property>
  <property name="meta.media.0.codec.rotate">0</property>
  <property name="meta.media.0.codec.pix_fmt">yuv444p</property>
  <property name="meta.media.0.codec.sample_aspect_ratio">1</property>
  <property name="meta.media.0.codec.colorspace">709</property>
  <property name="meta.media.0.codec.color_trc">1</property>
  <property name="meta.media.0.codec.name">h264</property>
  <property name="meta.media.0.codec.long_name">H.264 / AVC / MPEG-4 AVC / MPEG-4 part 10</property>
  <property name="meta.media.0.codec.bit_rate">392699</property>
  <property name="meta.attr.0.stream.creation_time.markup">2023-11-02T20:42:36.000000Z</property>
  <property name="meta.attr.0.stream.handler_name.markup">VideoHandler</property>
  <property name="meta.attr.0.stream.vendor_id.markup">[0][0][0][0]</property>
  <property name="meta.attr.major_brand.markup">mp42</property>
  <property name="meta.attr.minor_version.markup">0</property>
  <property name="meta.attr.compatible_brands.markup">mp42mp41isomiso2</property>
  <property name="meta.attr.creation_time.markup">2023-11-02T20:42:36.000000Z</property>
  <property name="meta.attr.encoder.markup">x264</property>
  <property name="seekable">1</property>
  <property name="meta.media.sample_aspect_num">1</property>
  <property name="meta.media.sample_aspect_den">1</property>
  <property name="audio_index">-1</property>
  <property name="video_index">0</property>
  <property name="vstream">0</property>
  <property name="meta.media.frame_rate_num">15</property>
  <property name="meta.media.frame_rate_den">1</property>
  <property name="meta.media.colorspace">709</property>
  <property name="meta.media.color_trc">1</property>
  <property name="meta.media.has_b_frames">0</property>
  <property name="meta.media.width">1156</property>
  <property name="meta.media.height">724</property>
  <property name="meta.media.color_range">mpeg</property>
  <property name="meta.media.top_field_first">0</property>
  <property name="meta.media.progressive">1</property>
  <property name="kdenlive:folderid">-1</property>
  <property name="kdenlive:id">38</property>
  <property name="mute_on_pause">0</property>
  <property name="kdenlive:clip_type">2</property>
  <property name="kdenlive:file_size">1816114</property>
  <property name="kdenlive:file_hash">5820cf36b82d54f0922038bd507d2681</property>
 </chain>
 <chain id="chain62" out="00:00:34.800">
  <property name="length">523</property>
  <property name="eof">pause</property>
  <property name="resource">goal_2.mp4</property>
  <property name="mlt_service">avformat-novalidate</property>
  <property name="meta.media.nb_streams">1</property>
  <property name="meta.media.0.stream.type">video</property>
  <property name="meta.media.0.stream.frame_rate">15</property>
  <property name="meta.media.0.stream.sample_aspect_ratio">1</property>
  <property name="meta.media.0.codec.width">1156</property>
  <property name="meta.media.0.codec.height">724</property>
  <property name="meta.media.0.codec.rotate">0</property>
  <property name="meta.media.0.codec.pix_fmt">yuv444p</property>
  <property name="meta.media.0.codec.sample_aspect_ratio">1</property>
  <property name="meta.media.0.codec.colorspace">709</property>
  <property name="meta.media.0.codec.color_trc">1</property>
  <property name="meta.media.0.codec.name">h264</property>
  <property name="meta.media.0.codec.long_name">H.264 / AVC / MPEG-4 AVC / MPEG-4 part 10</property>
  <property name="meta.media.0.codec.bit_rate">169390</property>
  <property name="meta.attr.0.stream.creation_time.markup">2023-11-02T20:47:09.000000Z</property>
  <property name="meta.attr.0.stream.handler_name.markup">VideoHandler</property>
  <property name="meta.attr.0.stream.vendor_id.markup">[0][0][0][0]</property>
  <property name="meta.attr.major_brand.markup">mp42</property>
  <property name="meta.attr.minor_version.markup">0</property>
  <property name="meta.attr.compatible_brands.markup">mp42mp41isomiso2</property>
  <property name="meta.attr.creation_time.markup">2023-11-02T20:47:09.000000Z</property>
  <property name="meta.attr.encoder.markup">x264</property>
  <property name="seekable">1</property>
  <property name="meta.media.sample_aspect_num">1</property>
  <property name="meta.media.sample_aspect_den">1</property>
  <property name="audio_index">-1</property>
  <property name="video_index">0</property>
  <property name="vstream">0</property>
  <property name="meta.media.frame_rate_num">15</property>
  <property name="meta.media.frame_rate_den">1</property>
  <property name="meta.media.colorspace">709</property>
  <property name="meta.media.color_trc">1</property>
  <property name="meta.media.has_b_frames">0</property>
  <property name="meta.media.width">1156</property>
  <property name="meta.media.height">724</property>
  <property name="meta.media.color_range">mpeg</property>
  <property name="meta.media.top_field_first">0</property>
  <property name="meta.media.progressive">1</property>
  <property name="kdenlive:folderid">-1</property>
  <property name="kdenlive:id">39</property>
  <property name="mute_on_pause">0</property>
  <property name="kdenlive:clip_type">2</property>
  <property name="kdenlive:file_size">741286</property>
  <property name="kdenlive:file_hash">c560afcfceafd1e004c39732ed3a09bb</property>
 </chain>
 <chain id="chain64" out="00:00:31.867">
  <property name="length">479</property>
  <property name="eof">pause</property>
  <property name="resource">currencies.mp4</property>
  <property name="mlt_service">avformat-novalidate</property>
  <property name="meta.media.nb_streams">1</property>
  <property name="meta.media.0.stream.type">video</property>
  <property name="meta.media.0.stream.frame_rate">15</property>
  <property name="meta.media.0.stream.sample_aspect_ratio">1</property>
  <property name="meta.media.0.codec.width">1156</property>
  <property name="meta.media.0.codec.height">724</property>
  <property name="meta.media.0.codec.rotate">0</property>
  <property name="meta.media.0.codec.pix_fmt">yuv444p</property>
  <property name="meta.media.0.codec.sample_aspect_ratio">1</property>
  <property name="meta.media.0.codec.colorspace">709</property>
  <property name="meta.media.0.codec.color_trc">1</property>
  <property name="meta.media.0.codec.name">h264</property>
  <property name="meta.media.0.codec.long_name">H.264 / AVC / MPEG-4 AVC / MPEG-4 part 10</property>
  <property name="meta.media.0.codec.bit_rate">318641</property>
  <property name="meta.attr.0.stream.creation_time.markup">2023-11-02T20:56:42.000000Z</property>
  <property name="meta.attr.0.stream.handler_name.markup">VideoHandler</property>
  <property name="meta.attr.0.stream.vendor_id.markup">[0][0][0][0]</property>
  <property name="meta.attr.major_brand.markup">mp42</property>
  <property name="meta.attr.minor_version.markup">0</property>
  <property name="meta.attr.compatible_brands.markup">mp42mp41isomiso2</property>
  <property name="meta.attr.creation_time.markup">2023-11-02T20:56:42.000000Z</property>
  <property name="meta.attr.encoder.markup">x264</property>
  <property name="seekable">1</property>
  <property name="meta.media.sample_aspect_num">1</property>
  <property name="meta.media.sample_aspect_den">1</property>
  <property name="audio_index">-1</property>
  <property name="video_index">0</property>
  <property name="vstream">0</property>
  <property name="meta.media.frame_rate_num">15</property>
  <property name="meta.media.frame_rate_den">1</property>
  <property name="meta.media.colorspace">709</property>
  <property name="meta.media.color_trc">1</property>
  <property name="meta.media.has_b_frames">0</property>
  <property name="meta.media.width">1156</property>
  <property name="meta.media.height">724</property>
  <property name="meta.media.color_range">mpeg</property>
  <property name="meta.media.top_field_first">0</property>
  <property name="meta.media.progressive">1</property>
  <property name="kdenlive:folderid">-1</property>
  <property name="kdenlive:id">40</property>
  <property name="mute_on_pause">0</property>
  <property name="kdenlive:clip_type">2</property>
  <property name="kdenlive:file_size">1274759</property>
  <property name="kdenlive:file_hash">645d1c270a25b9cbd990613b1bb872b2</property>
 </chain>
 <chain id="chain65" out="00:00:19.667">
  <property name="length">296</property>
  <property name="eof">pause</property>
  <property name="resource">metrics.mp4</property>
  <property name="mlt_service">avformat-novalidate</property>
  <property name="meta.media.nb_streams">1</property>
  <property name="meta.media.0.stream.type">video</property>
  <property name="meta.media.0.stream.frame_rate">15</property>
  <property name="meta.media.0.stream.sample_aspect_ratio">1</property>
  <property name="meta.media.0.codec.width">1156</property>
  <property name="meta.media.0.codec.height">724</property>
  <property name="meta.media.0.codec.rotate">0</property>
  <property name="meta.media.0.codec.pix_fmt">yuv444p</property>
  <property name="meta.media.0.codec.sample_aspect_ratio">1</property>
  <property name="meta.media.0.codec.colorspace">709</property>
  <property name="meta.media.0.codec.color_trc">1</property>
  <property name="meta.media.0.codec.name">h264</property>
  <property name="meta.media.0.codec.long_name">H.264 / AVC / MPEG-4 AVC / MPEG-4 part 10</property>
  <property name="meta.media.0.codec.bit_rate">256341</property>
  <property name="meta.attr.0.stream.creation_time.markup">2023-11-02T21:06:35.000000Z</property>
  <property name="meta.attr.0.stream.handler_name.markup">VideoHandler</property>
  <property name="meta.attr.0.stream.vendor_id.markup">[0][0][0][0]</property>
  <property name="meta.attr.major_brand.markup">mp42</property>
  <property name="meta.attr.minor_version.markup">0</property>
  <property name="meta.attr.compatible_brands.markup">mp42mp41isomiso2</property>
  <property name="meta.attr.creation_time.markup">2023-11-02T21:06:35.000000Z</property>
  <property name="meta.attr.encoder.markup">x264</property>
  <property name="seekable">1</property>
  <property name="meta.media.sample_aspect_num">1</property>
  <property name="meta.media.sample_aspect_den">1</property>
  <property name="audio_index">-1</property>
  <property name="video_index">0</property>
  <property name="vstream">0</property>
  <property name="meta.media.frame_rate_num">15</property>
  <property name="meta.media.frame_rate_den">1</property>
  <property name="meta.media.colorspace">709</property>
  <property name="meta.media.color_trc">1</property>
  <property name="meta.media.has_b_frames">0</property>
  <property name="meta.media.width">1156</property>
  <property name="meta.media.height">724</property>
  <property name="meta.media.color_range">mpeg</property>
  <property name="meta.media.top_field_first">0</property>
  <property name="meta.media.progressive">1</property>
  <property name="kdenlive:folderid">-1</property>
  <property name="kdenlive:id">41</property>
  <property name="mute_on_pause">0</property>
  <property name="kdenlive:clip_type">2</property>
  <property name="kdenlive:file_size">634420</property>
  <property name="kdenlive:file_hash">8524a2d5ff637f05d9e22bcec145f957</property>
 </chain>
 <chain id="chain66" out="00:00:50.867">
  <property name="length">764</property>
  <property name="eof">pause</property>
  <property name="resource">settings.mp4</property>
  <property name="mlt_service">avformat-novalidate</property>
  <property name="meta.media.nb_streams">1</property>
  <property name="meta.media.0.stream.type">video</property>
  <property name="meta.media.0.stream.frame_rate">15</property>
  <property name="meta.media.0.stream.sample_aspect_ratio">1</property>
  <property name="meta.media.0.codec.width">1156</property>
  <property name="meta.media.0.codec.height">724</property>
  <property name="meta.media.0.codec.rotate">0</property>
  <property name="meta.media.0.codec.pix_fmt">yuv444p</property>
  <property name="meta.media.0.codec.sample_aspect_ratio">1</property>
  <property name="meta.media.0.codec.colorspace">709</property>
  <property name="meta.media.0.codec.color_trc">1</property>
  <property name="meta.media.0.codec.name">h264</property>
  <property name="meta.media.0.codec.long_name">H.264 / AVC / MPEG-4 AVC / MPEG-4 part 10</property>
  <property name="meta.media.0.codec.bit_rate">225872</property>
  <property name="meta.attr.0.stream.creation_time.markup">2023-11-02T21:22:36.000000Z</property>
  <property name="meta.attr.0.stream.handler_name.markup">VideoHandler</property>
  <property name="meta.attr.0.stream.vendor_id.markup">[0][0][0][0]</property>
  <property name="meta.attr.major_brand.markup">mp42</property>
  <property name="meta.attr.minor_version.markup">0</property>
  <property name="meta.attr.compatible_brands.markup">mp42mp41isomiso2</property>
  <property name="meta.attr.creation_time.markup">2023-11-02T21:22:36.000000Z</property>
  <property name="meta.attr.encoder.markup">x264</property>
  <property name="seekable">1</property>
  <property name="meta.media.sample_aspect_num">1</property>
  <property name="meta.media.sample_aspect_den">1</property>
  <property name="audio_index">-1</property>
  <property name="video_index">0</property>
  <property name="vstream">0</property>
  <property name="meta.media.frame_rate_num">15</property>
  <property name="meta.media.frame_rate_den">1</property>
  <property name="meta.media.colorspace">709</property>
  <property name="meta.media.color_trc">1</property>
  <property name="meta.media.has_b_frames">0</property>
  <property name="meta.media.width">1156</property>
  <property name="meta.media.height">724</property>
  <property name="meta.media.color_range">mpeg</property>
  <property name="meta.media.top_field_first">0</property>
  <property name="meta.media.progressive">1</property>
  <property name="kdenlive:folderid">-1</property>
  <property name="kdenlive:id">42</property>
  <property name="mute_on_pause">0</property>
  <property name="kdenlive:clip_type">2</property>
  <property name="kdenlive:file_size">1442053</property>
  <property name="kdenlive:file_hash">6c275d5ad9aa231403ab182b5ae24e17</property>
 </chain>
 <chain id="chain67" out="00:00:35.667">
  <property name="length">536</property>
  <property name="eof">pause</property>
  <property name="resource">autoscroll.mp4</property>
  <property name="mlt_service">avformat-novalidate</property>
  <property name="meta.media.nb_streams">1</property>
  <property name="meta.media.0.stream.type">video</property>
  <property name="meta.media.0.stream.frame_rate">15</property>
  <property name="meta.media.0.stream.sample_aspect_ratio">1</property>
  <property name="meta.media.0.codec.width">1156</property>
  <property name="meta.media.0.codec.height">724</property>
  <property name="meta.media.0.codec.rotate">0</property>
  <property name="meta.media.0.codec.pix_fmt">yuv444p</property>
  <property name="meta.media.0.codec.sample_aspect_ratio">1</property>
  <property name="meta.media.0.codec.colorspace">709</property>
  <property name="meta.media.0.codec.color_trc">1</property>
  <property name="meta.media.0.codec.name">h264</property>
  <property name="meta.media.0.codec.long_name">H.264 / AVC / MPEG-4 AVC / MPEG-4 part 10</property>
  <property name="meta.media.0.codec.bit_rate">288514</property>
  <property name="meta.attr.0.stream.creation_time.markup">2023-11-02T21:28:53.000000Z</property>
  <property name="meta.attr.0.stream.handler_name.markup">VideoHandler</property>
  <property name="meta.attr.0.stream.vendor_id.markup">[0][0][0][0]</property>
  <property name="meta.attr.major_brand.markup">mp42</property>
  <property name="meta.attr.minor_version.markup">0</property>
  <property name="meta.attr.compatible_brands.markup">mp42mp41isomiso2</property>
  <property name="meta.attr.creation_time.markup">2023-11-02T21:28:53.000000Z</property>
  <property name="meta.attr.encoder.markup">x264</property>
  <property name="seekable">1</property>
  <property name="meta.media.sample_aspect_num">1</property>
  <property name="meta.media.sample_aspect_den">1</property>
  <property name="audio_index">-1</property>
  <property name="video_index">0</property>
  <property name="vstream">0</property>
  <property name="meta.media.frame_rate_num">15</property>
  <property name="meta.media.frame_rate_den">1</property>
  <property name="meta.media.colorspace">709</property>
  <property name="meta.media.color_trc">1</property>
  <property name="meta.media.has_b_frames">0</property>
  <property name="meta.media.width">1156</property>
  <property name="meta.media.height">724</property>
  <property name="meta.media.color_range">mpeg</property>
  <property name="meta.media.top_field_first">0</property>
  <property name="meta.media.progressive">1</property>
  <property name="kdenlive:folderid">-1</property>
  <property name="kdenlive:id">43</property>
  <property name="mute_on_pause">0</property>
  <property name="kdenlive:clip_type">2</property>
  <property name="kdenlive:file_size">1291775</property>
  <property name="kdenlive:file_hash">69bb751cd854447e8839e084d64e2953</property>
 </chain>
 <chain id="chain68" out="00:00:09.267">
  <property name="length">140</property>
  <property name="eof">pause</property>
  <property name="resource">collapse.mp4</property>
  <property name="mlt_service">avformat-novalidate</property>
  <property name="meta.media.nb_streams">1</property>
  <property name="meta.media.0.stream.type">video</property>
  <property name="meta.media.0.stream.frame_rate">15</property>
  <property name="meta.media.0.stream.sample_aspect_ratio">1</property>
  <property name="meta.media.0.codec.width">1158</property>
  <property name="meta.media.0.codec.height">720</property>
  <property name="meta.media.0.codec.rotate">0</property>
  <property name="meta.media.0.codec.pix_fmt">yuv444p</property>
  <property name="meta.media.0.codec.sample_aspect_ratio">1</property>
  <property name="meta.media.0.codec.colorspace">709</property>
  <property name="meta.media.0.codec.color_trc">1</property>
  <property name="meta.media.0.codec.name">h264</property>
  <property name="meta.media.0.codec.long_name">H.264 / AVC / MPEG-4 AVC / MPEG-4 part 10</property>
  <property name="meta.media.0.codec.bit_rate">280768</property>
  <property name="meta.attr.0.stream.creation_time.markup">2023-11-02T21:35:22.000000Z</property>
  <property name="meta.attr.0.stream.handler_name.markup">VideoHandler</property>
  <property name="meta.attr.0.stream.vendor_id.markup">[0][0][0][0]</property>
  <property name="meta.attr.major_brand.markup">mp42</property>
  <property name="meta.attr.minor_version.markup">0</property>
  <property name="meta.attr.compatible_brands.markup">mp42mp41isomiso2</property>
  <property name="meta.attr.creation_time.markup">2023-11-02T21:35:22.000000Z</property>
  <property name="meta.attr.encoder.markup">x264</property>
  <property name="seekable">1</property>
  <property name="meta.media.sample_aspect_num">1</property>
  <property name="meta.media.sample_aspect_den">1</property>
  <property name="audio_index">-1</property>
  <property name="video_index">0</property>
  <property name="vstream">0</property>
  <property name="meta.media.frame_rate_num">15</property>
  <property name="meta.media.frame_rate_den">1</property>
  <property name="meta.media.colorspace">709</property>
  <property name="meta.media.color_trc">1</property>
  <property name="meta.media.has_b_frames">0</property>
  <property name="meta.media.width">1158</property>
  <property name="meta.media.height">720</property>
  <property name="meta.media.color_range">mpeg</property>
  <property name="meta.media.top_field_first">0</property>
  <property name="meta.media.progressive">1</property>
  <property name="kdenlive:folderid">-1</property>
  <property name="kdenlive:id">44</property>
  <property name="mute_on_pause">0</property>
  <property name="kdenlive:clip_type">2</property>
  <property name="kdenlive:file_size">329045</property>
  <property name="kdenlive:file_hash">f870fdc91ceeef18576c799871d10976</property>
 </chain>
 <chain id="chain69" out="00:00:10.600">
  <property name="length">160</property>
  <property name="eof">pause</property>
  <property name="resource">swipe.mp4</property>
  <property name="mlt_service">avformat-novalidate</property>
  <property name="meta.media.nb_streams">1</property>
  <property name="meta.media.0.stream.type">video</property>
  <property name="meta.media.0.stream.frame_rate">15</property>
  <property name="meta.media.0.stream.sample_aspect_ratio">1</property>
  <property name="meta.media.0.codec.width">1280</property>
  <property name="meta.media.0.codec.height">720</property>
  <property name="meta.media.0.codec.rotate">0</property>
  <property name="meta.media.0.codec.pix_fmt">yuv444p</property>
  <property name="meta.media.0.codec.sample_aspect_ratio">1</property>
  <property name="meta.media.0.codec.colorspace">709</property>
  <property name="meta.media.0.codec.color_trc">1</property>
  <property name="meta.media.0.codec.name">h264</property>
  <property name="meta.media.0.codec.long_name">H.264 / AVC / MPEG-4 AVC / MPEG-4 part 10</property>
  <property name="meta.media.0.codec.bit_rate">305474</property>
  <property name="meta.attr.0.stream.creation_time.markup">2023-11-02T21:39:27.000000Z</property>
  <property name="meta.attr.0.stream.handler_name.markup">VideoHandler</property>
  <property name="meta.attr.0.stream.vendor_id.markup">[0][0][0][0]</property>
  <property name="meta.attr.major_brand.markup">mp42</property>
  <property name="meta.attr.minor_version.markup">0</property>
  <property name="meta.attr.compatible_brands.markup">mp42mp41isomiso2</property>
  <property name="meta.attr.creation_time.markup">2023-11-02T21:39:27.000000Z</property>
  <property name="meta.attr.encoder.markup">x264</property>
  <property name="seekable">1</property>
  <property name="meta.media.sample_aspect_num">1</property>
  <property name="meta.media.sample_aspect_den">1</property>
  <property name="audio_index">-1</property>
  <property name="video_index">0</property>
  <property name="vstream">0</property>
  <property name="meta.media.frame_rate_num">15</property>
  <property name="meta.media.frame_rate_den">1</property>
  <property name="meta.media.colorspace">709</property>
  <property name="meta.media.color_trc">1</property>
  <property name="meta.media.has_b_frames">0</property>
  <property name="meta.media.width">1280</property>
  <property name="meta.media.height">720</property>
  <property name="meta.media.color_range">mpeg</property>
  <property name="meta.media.top_field_first">0</property>
  <property name="meta.media.progressive">1</property>
  <property name="kdenlive:folderid">-1</property>
  <property name="kdenlive:id">45</property>
  <property name="mute_on_pause">0</property>
  <property name="kdenlive:clip_type">2</property>
  <property name="kdenlive:file_size">408863</property>
  <property name="kdenlive:file_hash">f05a9b217dd24d7d9cdcc2a0eef54c13</property>
 </chain>
 <chain id="chain70" out="00:00:14.533">
  <property name="length">219</property>
  <property name="eof">pause</property>
  <property name="resource">zoom.mp4</property>
  <property name="mlt_service">avformat-novalidate</property>
  <property name="meta.media.nb_streams">1</property>
  <property name="meta.media.0.stream.type">video</property>
  <property name="meta.media.0.stream.frame_rate">15</property>
  <property name="meta.media.0.stream.sample_aspect_ratio">1</property>
  <property name="meta.media.0.codec.width">1280</property>
  <property name="meta.media.0.codec.height">720</property>
  <property name="meta.media.0.codec.rotate">0</property>
  <property name="meta.media.0.codec.pix_fmt">yuv444p</property>
  <property name="meta.media.0.codec.sample_aspect_ratio">1</property>
  <property name="meta.media.0.codec.colorspace">709</property>
  <property name="meta.media.0.codec.color_trc">1</property>
  <property name="meta.media.0.codec.name">h264</property>
  <property name="meta.media.0.codec.long_name">H.264 / AVC / MPEG-4 AVC / MPEG-4 part 10</property>
  <property name="meta.media.0.codec.bit_rate">966739</property>
  <property name="meta.attr.0.stream.creation_time.markup">2023-11-02T21:46:58.000000Z</property>
  <property name="meta.attr.0.stream.handler_name.markup">VideoHandler</property>
  <property name="meta.attr.0.stream.vendor_id.markup">[0][0][0][0]</property>
  <property name="meta.attr.major_brand.markup">mp42</property>
  <property name="meta.attr.minor_version.markup">0</property>
  <property name="meta.attr.compatible_brands.markup">mp42mp41isomiso2</property>
  <property name="meta.attr.creation_time.markup">2023-11-02T21:46:58.000000Z</property>
  <property name="meta.attr.encoder.markup">x264</property>
  <property name="seekable">1</property>
  <property name="meta.media.sample_aspect_num">1</property>
  <property name="meta.media.sample_aspect_den">1</property>
  <property name="audio_index">-1</property>
  <property name="video_index">0</property>
  <property name="vstream">0</property>
  <property name="meta.media.frame_rate_num">15</property>
  <property name="meta.media.frame_rate_den">1</property>
  <property name="meta.media.colorspace">709</property>
  <property name="meta.media.color_trc">1</property>
  <property name="meta.media.has_b_frames">0</property>
  <property name="meta.media.width">1280</property>
  <property name="meta.media.height">720</property>
  <property name="meta.media.color_range">mpeg</property>
  <property name="meta.media.top_field_first">0</property>
  <property name="meta.media.progressive">1</property>
  <property name="kdenlive:folderid">-1</property>
  <property name="kdenlive:id">46</property>
  <property name="mute_on_pause">0</property>
  <property name="kdenlive:clip_type">2</property>
  <property name="kdenlive:file_size">1766099</property>
  <property name="kdenlive:file_hash">089a864a9aa105973216cdbb4bd5bd13</property>
 </chain>
 <chain id="chain71" out="00:00:03.133">
  <property name="length">48</property>
  <property name="eof">pause</property>
  <property name="resource">keys.mp4</property>
  <property name="mlt_service">avformat-novalidate</property>
  <property name="meta.media.nb_streams">1</property>
  <property name="meta.media.0.stream.type">video</property>
  <property name="meta.media.0.stream.frame_rate">15</property>
  <property name="meta.media.0.stream.sample_aspect_ratio">1</property>
  <property name="meta.media.0.codec.width">508</property>
  <property name="meta.media.0.codec.height">472</property>
  <property name="meta.media.0.codec.rotate">0</property>
  <property name="meta.media.0.codec.pix_fmt">yuv444p</property>
  <property name="meta.media.0.codec.sample_aspect_ratio">1</property>
  <property name="meta.media.0.codec.colorspace">601</property>
  <property name="meta.media.0.codec.color_trc">6</property>
  <property name="meta.media.0.codec.name">h264</property>
  <property name="meta.media.0.codec.long_name">H.264 / AVC / MPEG-4 AVC / MPEG-4 part 10</property>
  <property name="meta.media.0.codec.bit_rate">160165</property>
  <property name="meta.attr.0.stream.creation_time.markup">2023-11-02T21:49:42.000000Z</property>
  <property name="meta.attr.0.stream.handler_name.markup">VideoHandler</property>
  <property name="meta.attr.0.stream.vendor_id.markup">[0][0][0][0]</property>
  <property name="meta.attr.major_brand.markup">mp42</property>
  <property name="meta.attr.minor_version.markup">0</property>
  <property name="meta.attr.compatible_brands.markup">mp42mp41isomiso2</property>
  <property name="meta.attr.creation_time.markup">2023-11-02T21:49:42.000000Z</property>
  <property name="meta.attr.encoder.markup">x264</property>
  <property name="seekable">1</property>
  <property name="meta.media.sample_aspect_num">1</property>
  <property name="meta.media.sample_aspect_den">1</property>
  <property name="audio_index">-1</property>
  <property name="video_index">0</property>
  <property name="vstream">0</property>
  <property name="meta.media.frame_rate_num">15</property>
  <property name="meta.media.frame_rate_den">1</property>
  <property name="meta.media.colorspace">601</property>
  <property name="meta.media.color_trc">6</property>
  <property name="meta.media.has_b_frames">0</property>
  <property name="meta.media.width">508</property>
  <property name="meta.media.height">472</property>
  <property name="meta.media.color_range">mpeg</property>
  <property name="meta.media.top_field_first">0</property>
  <property name="meta.media.progressive">1</property>
  <property name="kdenlive:folderid">-1</property>
  <property name="kdenlive:id">47</property>
  <property name="mute_on_pause">0</property>
  <property name="kdenlive:clip_type">2</property>
  <property name="kdenlive:file_size">65180</property>
  <property name="kdenlive:file_hash">fa866df1c1a29ba4bc510d48dc830827</property>
 </chain>
 <producer id="producer20" in="00:00:00.000" out="00:00:04.933">
  <property name="length">75</property>
  <property name="eof">pause</property>
  <property name="resource"/>
  <property name="meta.media.progressive">1</property>
  <property name="aspect_ratio">1</property>
  <property name="seekable">1</property>
  <property name="mlt_service">kdenlivetitle</property>
  <property name="kdenlive:duration">00:00:05:00</property>
  <property name="kdenlive:clipname">Thank you fo...</property>
  <property name="xmldata">&lt;kdenlivetitle duration="75" LC_NUMERIC="C" width="1596" height="894" out="74">
 &lt;item type="QGraphicsTextItem" z-index="0">
  &lt;position x="1098" y="402">
   &lt;transform>1,0,0,0,1,0,0,0,1&lt;/transform>
  &lt;/position>
  &lt;content line-spacing="19" shadow="0;#64000000;3;3;3" font-underline="0" box-height="133" font="Century Schoolbook L" letter-spacing="0" font-pixel-size="44" font-italic="0" typewriter="0;2;1;0;0" alignment="1" font-weight="50" box-width="454.469" font-color="255,255,255,255">Vielen Dank für 
Ihre Aufmerksamkeit!&lt;/content>
 &lt;/item>
 &lt;startviewport rect="0,0,1596,894"/>
 &lt;endviewport rect="0,0,1596,894"/>
 &lt;background color="0,0,0,0"/>
&lt;/kdenlivetitle>
</property>
  <property name="xml">was here</property>
  <property name="kdenlive:folderid">-1</property>
  <property name="kdenlive:id">48</property>
  <property name="kdenlive:clip_type">2</property>
  <property name="kdenlive:file_hash">e6c1d66feacf8964e0bce9789b459ef7</property>
  <property name="force_reload">0</property>
  <property name="meta.media.width">1596</property>
  <property name="meta.media.height">894</property>
 </producer>
 <producer id="producer21" in="00:00:00.000" out="00:00:06.467">
  <property name="length">98</property>
  <property name="eof">pause</property>
  <property name="resource"/>
  <property name="meta.media.progressive">1</property>
  <property name="aspect_ratio">1</property>
  <property name="seekable">1</property>
  <property name="mlt_service">kdenlivetitle</property>
  <property name="kdenlive:duration">00:00:05:00</property>
  <property name="kdenlive:clipname">Fingrom aims...</property>
  <property name="xmldata">&lt;kdenlivetitle duration="75" LC_NUMERIC="C" width="1596" height="894" out="74">
 &lt;item type="QGraphicsTextItem" z-index="0">
  &lt;position x="9" y="2">
   &lt;transform>1,0,0,0,1,0,0,0,1&lt;/transform>
  &lt;/position>
  &lt;content line-spacing="4" shadow="0;#64000000;3;3;3" font-underline="0" box-height="92" font="Cabin" letter-spacing="1" font-pixel-size="36" font-italic="0" typewriter="1;3;2;0;0" alignment="1" font-weight="50" box-width="1049.83" font-color="61,61,61,255">Fingrom aims to fill this gap and provide a financial management 
tool that's truly user-centric&lt;/content>
 &lt;/item>
 &lt;startviewport rect="0,0,1596,894"/>
 &lt;endviewport rect="0,0,1596,894"/>
 &lt;background color="0,0,0,0"/>
&lt;/kdenlivetitle>
</property>
  <property name="xml">was here</property>
  <property name="kdenlive:folderid">-1</property>
  <property name="kdenlive:id">49</property>
  <property name="kdenlive:clip_type">2</property>
  <property name="kdenlive:file_hash">857d8feed51637524f3efd3f394b77f3</property>
  <property name="force_reload">0</property>
  <property name="meta.media.width">1596</property>
  <property name="meta.media.height">894</property>
 </producer>
 <producer id="producer22" in="00:00:00.000" out="00:00:13.933">
  <property name="length">210</property>
  <property name="eof">pause</property>
  <property name="meta.media.progressive">1</property>
  <property name="aspect_ratio">1</property>
  <property name="seekable">1</property>
  <property name="mlt_service">kdenlivetitle</property>
  <property name="kdenlive:duration">00:00:05:00</property>
  <property name="kdenlive:clipname">It allows yo...</property>
  <property name="xmldata">&lt;kdenlivetitle duration="75" LC_NUMERIC="C" width="1596" height="894" out="74">
 &lt;item type="QGraphicsTextItem" z-index="0">
  &lt;position x="17" y="8">
   &lt;transform>1,0,0,0,1,0,0,0,1&lt;/transform>
  &lt;/position>
  &lt;content line-spacing="6" shadow="0;#64000000;3;3;3" font-underline="0" box-height="88" font="Cabin" letter-spacing="1" font-pixel-size="34" font-italic="0" typewriter="1;4;2;0;0" alignment="1" font-weight="50" box-width="1286.7" font-color="61,61,61,255">In diesem Video stellen wir Ihnen die wichtigsten Funktionen und Möglichkeiten von 
Fingrom vor, um Finanzbuchhaltung intuitiv, effizient und umfassend zu gestalten.&lt;/content>
 &lt;/item>
 &lt;startviewport rect="0,0,1596,894"/>
 &lt;endviewport rect="0,0,1596,894"/>
 &lt;background color="0,0,0,0"/>
&lt;/kdenlivetitle>
</property>
  <property name="xml">was here</property>
  <property name="kdenlive:folderid">-1</property>
  <property name="kdenlive:id">50</property>
  <property name="kdenlive:clip_type">2</property>
  <property name="force_reload">0</property>
  <property name="meta.media.width">1596</property>
  <property name="meta.media.height">894</property>
  <property name="kdenlive:file_hash">05d8285b17d36bb3e41f5266ac0dfee9</property>
 </producer>
 <producer id="producer23" in="00:00:00.000" out="00:00:07.933">
  <property name="length">120</property>
  <property name="eof">pause</property>
  <property name="meta.media.progressive">1</property>
  <property name="aspect_ratio">1</property>
  <property name="seekable">1</property>
  <property name="mlt_service">kdenlivetitle</property>
  <property name="kdenlive:duration">00:00:05:00</property>
  <property name="kdenlive:clipname">Create budge...</property>
  <property name="xmldata">&lt;kdenlivetitle duration="75" LC_NUMERIC="C" width="1596" height="894" out="74">
 &lt;item type="QGraphicsTextItem" z-index="0">
  &lt;position x="9" y="2">
   &lt;transform>1,0,0,0,1,0,0,0,1&lt;/transform>
  &lt;/position>
  &lt;content line-spacing="4" shadow="0;#64000000;3;3;3" font-underline="0" box-height="107" font="Cabin" letter-spacing="1" font-pixel-size="36" font-italic="0" typewriter="1;3;2;0;0" alignment="1" font-weight="50" box-width="1295.92" font-color="61,61,61,255">Create budget categories with ease and set configurable limits, renewed monthly
or based on your relative income&lt;/content>
 &lt;/item>
 &lt;startviewport rect="0,0,1596,894"/>
 &lt;endviewport rect="0,0,1596,894"/>
 &lt;background color="0,0,0,0"/>
&lt;/kdenlivetitle>
</property>
  <property name="xml">was here</property>
  <property name="kdenlive:folderid">-1</property>
  <property name="kdenlive:id">51</property>
  <property name="kdenlive:clip_type">2</property>
  <property name="force_reload">0</property>
  <property name="kdenlive:file_hash">861f74986935928596113bc074ed5155</property>
  <property name="meta.media.width">1596</property>
  <property name="meta.media.height">894</property>
 </producer>
 <producer id="producer38" in="00:00:00.000" out="00:00:07.933">
  <property name="length">120</property>
  <property name="eof">pause</property>
  <property name="resource"/>
  <property name="meta.media.progressive">1</property>
  <property name="aspect_ratio">1</property>
  <property name="seekable">1</property>
  <property name="mlt_service">kdenlivetitle</property>
  <property name="kdenlive:duration">00:00:05:00</property>
  <property name="kdenlive:clipname">Create budge...</property>
  <property name="xmldata">&lt;kdenlivetitle duration="75" LC_NUMERIC="C" width="1596" height="894" out="74">
 &lt;item type="QGraphicsTextItem" z-index="0">
  &lt;position x="9" y="2">
   &lt;transform>1,0,0,0,1,0,0,0,1&lt;/transform>
  &lt;/position>
  &lt;content line-spacing="4" shadow="0;#64000000;3;3;3" font-underline="0" box-height="107" font="Cabin" letter-spacing="1" font-pixel-size="36" font-italic="0" typewriter="1;3;2;0;0" alignment="1" font-weight="50" box-width="1295.92" font-color="61,61,61,255">Create budget categories with ease and set configurable limits, renewed monthly
or based on your relative income&lt;/content>
 &lt;/item>
 &lt;startviewport rect="0,0,1596,894"/>
 &lt;endviewport rect="0,0,1596,894"/>
 &lt;background color="0,0,0,0"/>
&lt;/kdenlivetitle>
</property>
  <property name="xml">was here</property>
  <property name="kdenlive:folderid">54</property>
  <property name="kdenlive:id">52</property>
  <property name="kdenlive:clip_type">2</property>
  <property name="force_reload">0</property>
  <property name="kdenlive:file_hash">861f74986935928596113bc074ed5155</property>
  <property name="meta.media.width">1596</property>
  <property name="meta.media.height">894</property>
 </producer>
 <producer id="producer24" in="00:00:00.000" out="00:00:07.933">
  <property name="length">120</property>
  <property name="eof">pause</property>
  <property name="meta.media.progressive">1</property>
  <property name="aspect_ratio">1</property>
  <property name="seekable">1</property>
  <property name="mlt_service">kdenlivetitle</property>
  <property name="kdenlive:duration">00:00:05:00</property>
  <property name="kdenlive:clipname">Manage bills...</property>
  <property name="xmldata">&lt;kdenlivetitle duration="75" LC_NUMERIC="C" width="1596" height="894" out="74">
 &lt;item type="QGraphicsTextItem" z-index="0">
  &lt;position x="9" y="2">
   &lt;transform>1,0,0,0,1,0,0,0,1&lt;/transform>
  &lt;/position>
  &lt;content line-spacing="4" shadow="0;#64000000;3;3;3" font-underline="0" box-height="44" font="Cabin" letter-spacing="1" font-pixel-size="36" font-italic="0" typewriter="1;3;2;0;0" alignment="1" font-weight="50" box-width="959.672" font-color="61,61,61,255">Manage bills, transfers, and income transactions effortlessly&lt;/content>
 &lt;/item>
 &lt;startviewport rect="0,0,1596,894"/>
 &lt;endviewport rect="0,0,1596,894"/>
 &lt;background color="0,0,0,0"/>
&lt;/kdenlivetitle>
</property>
  <property name="xml">was here</property>
  <property name="kdenlive:folderid">-1</property>
  <property name="kdenlive:id">53</property>
  <property name="kdenlive:clip_type">2</property>
  <property name="force_reload">0</property>
  <property name="meta.media.width">1596</property>
  <property name="meta.media.height">894</property>
  <property name="kdenlive:file_hash">cb6370bac2c6eec2439203804d87203c</property>
 </producer>
 <producer id="producer25" in="00:00:00.000" out="00:00:07.933">
  <property name="length">120</property>
  <property name="eof">pause</property>
  <property name="meta.media.progressive">1</property>
  <property name="aspect_ratio">1</property>
  <property name="seekable">1</property>
  <property name="mlt_service">kdenlivetitle</property>
  <property name="kdenlive:duration">00:00:05:00</property>
  <property name="kdenlive:clipname">Set and trac...</property>
  <property name="xmldata">&lt;kdenlivetitle duration="75" LC_NUMERIC="C" width="1596" height="894" out="74">
 &lt;item type="QGraphicsTextItem" z-index="0">
  &lt;position x="9" y="2">
   &lt;transform>1,0,0,0,1,0,0,0,1&lt;/transform>
  &lt;/position>
  &lt;content line-spacing="4" shadow="0;#64000000;3;3;3" font-underline="0" box-height="44" font="Cabin" letter-spacing="1" font-pixel-size="36" font-italic="0" typewriter="1;3;2;0;0" alignment="1" font-weight="50" box-width="1132.38" font-color="61,61,61,255">Set and track financial goals to stay on top of your financial aspirations&lt;/content>
 &lt;/item>
 &lt;startviewport rect="0,0,1596,894"/>
 &lt;endviewport rect="0,0,1596,894"/>
 &lt;background color="0,0,0,0"/>
&lt;/kdenlivetitle>
</property>
  <property name="xml">was here</property>
  <property name="kdenlive:folderid">-1</property>
  <property name="kdenlive:id">55</property>
  <property name="kdenlive:clip_type">2</property>
  <property name="force_reload">0</property>
  <property name="meta.media.width">1596</property>
  <property name="meta.media.height">894</property>
  <property name="kdenlive:file_hash">cf6e634251f10f5fe8a96a91ae4ffb4e</property>
 </producer>
 <producer id="producer26" in="00:00:00.000" out="00:00:07.933">
  <property name="length">120</property>
  <property name="eof">pause</property>
  <property name="meta.media.progressive">1</property>
  <property name="aspect_ratio">1</property>
  <property name="seekable">1</property>
  <property name="mlt_service">kdenlivetitle</property>
  <property name="kdenlive:duration">00:00:05:00</property>
  <property name="kdenlive:clipname">Stay updated...</property>
  <property name="xmldata">&lt;kdenlivetitle duration="75" LC_NUMERIC="C" width="1596" height="894" out="74">
 &lt;item type="QGraphicsTextItem" z-index="0">
  &lt;position x="9" y="2">
   &lt;transform>1,0,0,0,1,0,0,0,1&lt;/transform>
  &lt;/position>
  &lt;content line-spacing="4" shadow="0;#64000000;3;3;3" font-underline="0" box-height="107" font="Cabin" letter-spacing="1" font-pixel-size="36" font-italic="0" typewriter="1;3;2;0;0" alignment="1" font-weight="50" box-width="1150.02" font-color="61,61,61,255">Stay updated on exchange rates and choose your default currency for a 
comprehensive financial summary&lt;/content>
 &lt;/item>
 &lt;startviewport rect="0,0,1596,894"/>
 &lt;endviewport rect="0,0,1596,894"/>
 &lt;background color="0,0,0,0"/>
&lt;/kdenlivetitle>
</property>
  <property name="xml">was here</property>
  <property name="kdenlive:folderid">-1</property>
  <property name="kdenlive:id">56</property>
  <property name="kdenlive:clip_type">2</property>
  <property name="force_reload">0</property>
  <property name="meta.media.width">1596</property>
  <property name="meta.media.height">894</property>
  <property name="kdenlive:file_hash">bfb6e166fe2cd4fd376e65ff96a61ea7</property>
 </producer>
 <producer id="producer27" in="00:00:00.000" out="00:00:07.933">
  <property name="length">120</property>
  <property name="eof">pause</property>
  <property name="meta.media.progressive">1</property>
  <property name="aspect_ratio">1</property>
  <property name="seekable">1</property>
  <property name="mlt_service">kdenlivetitle</property>
  <property name="kdenlive:duration">00:00:05:00</property>
  <property name="kdenlive:clipname">Fingrom does...</property>
  <property name="xmldata">&lt;kdenlivetitle duration="75" LC_NUMERIC="C" width="1596" height="894" out="74">
 &lt;item type="QGraphicsTextItem" z-index="0">
  &lt;position x="9" y="2">
   &lt;transform>1,0,0,0,1,0,0,0,1&lt;/transform>
  &lt;/position>
  &lt;content line-spacing="4" shadow="0;#64000000;3;3;3" font-underline="0" box-height="44" font="Cabin" letter-spacing="1" font-pixel-size="36" font-italic="0" typewriter="1;3;2;0;0" alignment="1" font-weight="50" box-width="656.906" font-color="61,61,61,255">Fingrom doesn't stop at basic accounting&lt;/content>
 &lt;/item>
 &lt;startviewport rect="0,0,1596,894"/>
 &lt;endviewport rect="0,0,1596,894"/>
 &lt;background color="0,0,0,0"/>
&lt;/kdenlivetitle>
</property>
  <property name="xml">was here</property>
  <property name="kdenlive:folderid">-1</property>
  <property name="kdenlive:id">57</property>
  <property name="kdenlive:clip_type">2</property>
  <property name="force_reload">0</property>
  <property name="meta.media.width">1596</property>
  <property name="meta.media.height">894</property>
  <property name="kdenlive:file_hash">3c42a54b653ffa8cfdf806f184a67d3c</property>
 </producer>
 <producer id="producer28" in="00:00:00.000" out="00:00:09.467">
  <property name="length">143</property>
  <property name="eof">pause</property>
  <property name="meta.media.progressive">1</property>
  <property name="aspect_ratio">1</property>
  <property name="seekable">1</property>
  <property name="mlt_service">kdenlivetitle</property>
  <property name="kdenlive:duration">00:00:05:00</property>
  <property name="kdenlive:clipname">It offers ad...</property>
  <property name="xmldata">&lt;kdenlivetitle duration="75" LC_NUMERIC="C" width="1596" height="894" out="74">
 &lt;item type="QGraphicsTextItem" z-index="0">
  &lt;position x="9" y="2">
   &lt;transform>1,0,0,0,1,0,0,0,1&lt;/transform>
  &lt;/position>
  &lt;content line-spacing="4" shadow="0;#64000000;3;3;3" font-underline="0" box-height="92" font="Cabin" letter-spacing="1" font-pixel-size="36" font-italic="0" typewriter="1;3;2;0;0" alignment="1" font-weight="50" box-width="1227.45" font-color="61,61,61,255">It offers advanced metrics such as budget forecasting with Monte Carlo 
simulation, Candlestick Chart, Income Health Radar, Currency Distribution, ...&lt;/content>
 &lt;/item>
 &lt;startviewport rect="0,0,1596,894"/>
 &lt;endviewport rect="0,0,1596,894"/>
 &lt;background color="0,0,0,0"/>
&lt;/kdenlivetitle>
</property>
  <property name="xml">was here</property>
  <property name="kdenlive:folderid">-1</property>
  <property name="kdenlive:id">58</property>
  <property name="kdenlive:clip_type">2</property>
  <property name="force_reload">0</property>
  <property name="meta.media.width">1596</property>
  <property name="meta.media.height">894</property>
  <property name="kdenlive:file_hash">8c45da98467ed825a07c0d729c2dc2ad</property>
 </producer>
 <producer id="producer29" in="00:00:00.000" out="00:00:09.467">
  <property name="length">143</property>
  <property name="eof">pause</property>
  <property name="meta.media.progressive">1</property>
  <property name="aspect_ratio">1</property>
  <property name="seekable">1</property>
  <property name="mlt_service">kdenlivetitle</property>
  <property name="kdenlive:duration">00:00:05:00</property>
  <property name="kdenlive:clipname">... YTD Expe...</property>
  <property name="xmldata">&lt;kdenlivetitle duration="75" LC_NUMERIC="C" width="1596" height="894" out="74">
 &lt;item type="QGraphicsTextItem" z-index="0">
  &lt;position x="9" y="2">
   &lt;transform>1,0,0,0,1,0,0,0,1&lt;/transform>
  &lt;/position>
  &lt;content line-spacing="4" shadow="0;#64000000;3;3;3" font-underline="0" box-height="44" font="Cabin" letter-spacing="1" font-pixel-size="36" font-italic="0" typewriter="1;3;2;0;0" alignment="1" font-weight="50" box-width="818.469" font-color="61,61,61,255">... YTD Expenses, Bar Race for Categories and more&lt;/content>
 &lt;/item>
 &lt;startviewport rect="0,0,1596,894"/>
 &lt;endviewport rect="0,0,1596,894"/>
 &lt;background color="0,0,0,0"/>
&lt;/kdenlivetitle>
</property>
  <property name="xml">was here</property>
  <property name="kdenlive:folderid">-1</property>
  <property name="kdenlive:id">59</property>
  <property name="kdenlive:clip_type">2</property>
  <property name="force_reload">0</property>
  <property name="meta.media.width">1596</property>
  <property name="meta.media.height">894</property>
  <property name="kdenlive:file_hash">b4becd7d0e303dcf8a9c5defd7a01b72</property>
 </producer>
 <producer id="producer30" in="00:00:00.000" out="00:00:07.933">
  <property name="length">120</property>
  <property name="eof">pause</property>
  <property name="meta.media.progressive">1</property>
  <property name="aspect_ratio">1</property>
  <property name="seekable">1</property>
  <property name="mlt_service">kdenlivetitle</property>
  <property name="kdenlive:duration">00:00:05:00</property>
  <property name="kdenlive:clipname">These featur...</property>
  <property name="xmldata">&lt;kdenlivetitle duration="75" LC_NUMERIC="C" width="1596" height="894" out="74">
 &lt;item type="QGraphicsTextItem" z-index="0">
  &lt;position x="9" y="2">
   &lt;transform>1,0,0,0,1,0,0,0,1&lt;/transform>
  &lt;/position>
  &lt;content line-spacing="4" shadow="0;#64000000;3;3;3" font-underline="0" box-height="107" font="Cabin" letter-spacing="1" font-pixel-size="36" font-italic="0" typewriter="1;3;2;0;0" alignment="1" font-weight="50" box-width="1130.78" font-color="61,61,61,255">These features are designed to help you gain deeper insights into your 
finances and make informed decisions&lt;/content>
 &lt;/item>
 &lt;startviewport rect="0,0,1596,894"/>
 &lt;endviewport rect="0,0,1596,894"/>
 &lt;background color="0,0,0,0"/>
&lt;/kdenlivetitle>
</property>
  <property name="xml">was here</property>
  <property name="kdenlive:folderid">-1</property>
  <property name="kdenlive:id">60</property>
  <property name="kdenlive:clip_type">2</property>
  <property name="force_reload">0</property>
  <property name="meta.media.width">1596</property>
  <property name="meta.media.height">894</property>
  <property name="kdenlive:file_hash">2d5b5c8a1d7ea7165c36a8b803ee0261</property>
 </producer>
 <producer id="producer31" in="00:00:00.000" out="00:00:07.933">
  <property name="length">120</property>
  <property name="eof">pause</property>
  <property name="meta.media.progressive">1</property>
  <property name="aspect_ratio">1</property>
  <property name="seekable">1</property>
  <property name="mlt_service">kdenlivetitle</property>
  <property name="kdenlive:duration">00:00:05:00</property>
  <property name="kdenlive:clipname">Fingrom allo...</property>
  <property name="xmldata">&lt;kdenlivetitle duration="75" LC_NUMERIC="C" width="1596" height="894" out="74">
 &lt;item type="QGraphicsTextItem" z-index="0">
  &lt;position x="9" y="2">
   &lt;transform>1,0,0,0,1,0,0,0,1&lt;/transform>
  &lt;/position>
  &lt;content line-spacing="4" shadow="0;#64000000;3;3;3" font-underline="0" box-height="107" font="Cabin" letter-spacing="1" font-pixel-size="36" font-italic="0" typewriter="1;3;2;0;0" alignment="1" font-weight="50" box-width="1220.92" font-color="61,61,61,255">Fingrom allows you to configure the main page with multiple configurations 
per width and height set&lt;/content>
 &lt;/item>
 &lt;startviewport rect="0,0,1596,894"/>
 &lt;endviewport rect="0,0,1596,894"/>
 &lt;background color="0,0,0,0"/>
&lt;/kdenlivetitle>
</property>
  <property name="xml">was here</property>
  <property name="kdenlive:folderid">-1</property>
  <property name="kdenlive:id">61</property>
  <property name="kdenlive:clip_type">2</property>
  <property name="force_reload">0</property>
  <property name="meta.media.width">1596</property>
  <property name="meta.media.height">894</property>
  <property name="kdenlive:file_hash">b7242a09dbf2d09e7c22c2feec5a16de</property>
 </producer>
 <producer id="producer32" in="00:00:00.000" out="00:00:07.933">
  <property name="length">120</property>
  <property name="eof">pause</property>
  <property name="meta.media.progressive">1</property>
  <property name="aspect_ratio">1</property>
  <property name="seekable">1</property>
  <property name="mlt_service">kdenlivetitle</property>
  <property name="kdenlive:duration">00:00:05:00</property>
  <property name="kdenlive:clipname">It has an ad...</property>
  <property name="xmldata">&lt;kdenlivetitle duration="75" LC_NUMERIC="C" width="1596" height="894" out="74">
 &lt;item type="QGraphicsTextItem" z-index="0">
  &lt;position x="9" y="2">
   &lt;transform>1,0,0,0,1,0,0,0,1&lt;/transform>
  &lt;/position>
  &lt;content line-spacing="4" shadow="0;#64000000;3;3;3" font-underline="0" box-height="92" font="Cabin" letter-spacing="1" font-pixel-size="36" font-italic="0" typewriter="1;3;2;0;0" alignment="1" font-weight="50" box-width="1182.41" font-color="61,61,61,255">It has an adaptive navigation panel (top, bottom, right) and tabs (top, left) 
that adjust to your screen size&lt;/content>
 &lt;/item>
 &lt;startviewport rect="0,0,1596,894"/>
 &lt;endviewport rect="0,0,1596,894"/>
 &lt;background color="0,0,0,0"/>
&lt;/kdenlivetitle>
</property>
  <property name="xml">was here</property>
  <property name="kdenlive:folderid">-1</property>
  <property name="kdenlive:id">62</property>
  <property name="kdenlive:clip_type">2</property>
  <property name="force_reload">0</property>
  <property name="meta.media.width">1596</property>
  <property name="meta.media.height">894</property>
  <property name="kdenlive:file_hash">e00c21402c9aa3fc037d96002d206163</property>
 </producer>
 <producer id="producer33" in="00:00:00.000" out="00:00:07.933">
  <property name="length">120</property>
  <property name="eof">pause</property>
  <property name="meta.media.progressive">1</property>
  <property name="aspect_ratio">1</property>
  <property name="seekable">1</property>
  <property name="mlt_service">kdenlivetitle</property>
  <property name="kdenlive:duration">00:00:05:00</property>
  <property name="kdenlive:clipname">Offers a the...</property>
  <property name="xmldata">&lt;kdenlivetitle duration="75" LC_NUMERIC="C" width="1596" height="894" out="74">
 &lt;item type="QGraphicsTextItem" z-index="0">
  &lt;position x="9" y="2">
   &lt;transform>1,0,0,0,1,0,0,0,1&lt;/transform>
  &lt;/position>
  &lt;content line-spacing="4" shadow="0;#64000000;3;3;3" font-underline="0" box-height="107" font="Cabin" letter-spacing="1" font-pixel-size="36" font-italic="0" typewriter="1;3;2;0;0" alignment="1" font-weight="50" box-width="1182.72" font-color="61,61,61,255">Offers a theme mode (dark, light, system) with palette definition (system, 
custom, personal – colors selector)&lt;/content>
 &lt;/item>
 &lt;startviewport rect="0,0,1596,894"/>
 &lt;endviewport rect="0,0,1596,894"/>
 &lt;background color="0,0,0,0"/>
&lt;/kdenlivetitle>
</property>
  <property name="xml">was here</property>
  <property name="kdenlive:folderid">-1</property>
  <property name="kdenlive:id">63</property>
  <property name="kdenlive:clip_type">2</property>
  <property name="force_reload">0</property>
  <property name="meta.media.width">1596</property>
  <property name="meta.media.height">894</property>
  <property name="kdenlive:file_hash">412e4342f893502f664b962174e6d740</property>
 </producer>
 <producer id="producer34" in="00:00:00.000" out="00:00:07.933">
  <property name="length">120</property>
  <property name="eof">pause</property>
  <property name="meta.media.progressive">1</property>
  <property name="aspect_ratio">1</property>
  <property name="seekable">1</property>
  <property name="mlt_service">kdenlivetitle</property>
  <property name="kdenlive:duration">00:00:05:00</property>
  <property name="kdenlive:clipname">Preserves yo...</property>
  <property name="xmldata">&lt;kdenlivetitle duration="75" LC_NUMERIC="C" width="1596" height="894" out="74">
 &lt;item type="QGraphicsTextItem" z-index="0">
  &lt;position x="9" y="2">
   &lt;transform>1,0,0,0,1,0,0,0,1&lt;/transform>
  &lt;/position>
  &lt;content line-spacing="4" shadow="0;#64000000;3;3;3" font-underline="0" box-height="107" font="Cabin" letter-spacing="1" font-pixel-size="36" font-italic="0" typewriter="1;3;2;0;0" alignment="1" font-weight="50" box-width="962.625" font-color="61,61,61,255">Preserves your last choice for account, budget, and currency
Auto-scrolls to the focused element on form&lt;/content>
 &lt;/item>
 &lt;startviewport rect="0,0,1596,894"/>
 &lt;endviewport rect="0,0,1596,894"/>
 &lt;background color="0,0,0,0"/>
&lt;/kdenlivetitle>
</property>
  <property name="xml">was here</property>
  <property name="kdenlive:folderid">-1</property>
  <property name="kdenlive:id">64</property>
  <property name="kdenlive:clip_type">2</property>
  <property name="force_reload">0</property>
  <property name="meta.media.width">1596</property>
  <property name="meta.media.height">894</property>
  <property name="kdenlive:file_hash">57cbfacd87477db4253b1a051490db78</property>
 </producer>
 <producer id="producer35" in="00:00:00.000" out="00:00:07.933">
  <property name="length">120</property>
  <property name="eof">pause</property>
  <property name="meta.media.progressive">1</property>
  <property name="aspect_ratio">1</property>
  <property name="seekable">1</property>
  <property name="mlt_service">kdenlivetitle</property>
  <property name="kdenlive:duration">00:00:05:00</property>
  <property name="kdenlive:clipname">You can expa...</property>
  <property name="xmldata">&lt;kdenlivetitle duration="75" LC_NUMERIC="C" width="1596" height="894" out="74">
 &lt;item type="QGraphicsTextItem" z-index="0">
  &lt;position x="9" y="2">
   &lt;transform>1,0,0,0,1,0,0,0,1&lt;/transform>
  &lt;/position>
  &lt;content line-spacing="4" shadow="0;#64000000;3;3;3" font-underline="0" box-height="107" font="Cabin" letter-spacing="1" font-pixel-size="36" font-italic="0" typewriter="1;3;2;0;0" alignment="1" font-weight="50" box-width="1024.55" font-color="61,61,61,255">You can expand or collapse sections on the main page
It allows you to swipe for quick access to edit and delete actions&lt;/content>
 &lt;/item>
 &lt;startviewport rect="0,0,1596,894"/>
 &lt;endviewport rect="0,0,1596,894"/>
 &lt;background color="0,0,0,0"/>
&lt;/kdenlivetitle>
</property>
  <property name="xml">was here</property>
  <property name="kdenlive:folderid">-1</property>
  <property name="kdenlive:id">65</property>
  <property name="kdenlive:clip_type">2</property>
  <property name="force_reload">0</property>
  <property name="meta.media.width">1596</property>
  <property name="meta.media.height">894</property>
  <property name="kdenlive:file_hash">4de6ab79572b44a942a4ae48bdc056f6</property>
 </producer>
 <producer id="producer36" in="00:00:00.000" out="00:00:08.467">
  <property name="length">128</property>
  <property name="eof">pause</property>
  <property name="meta.media.progressive">1</property>
  <property name="aspect_ratio">1</property>
  <property name="seekable">1</property>
  <property name="mlt_service">kdenlivetitle</property>
  <property name="kdenlive:duration">00:00:05:00</property>
  <property name="kdenlive:clipname">You can zoom...</property>
  <property name="xmldata">&lt;kdenlivetitle duration="75" LC_NUMERIC="C" width="1596" height="894" out="74">
 &lt;item type="QGraphicsTextItem" z-index="0">
  &lt;position x="9" y="2">
   &lt;transform>1,0,0,0,1,0,0,0,1&lt;/transform>
  &lt;/position>
  &lt;content line-spacing="4" shadow="0;#64000000;3;3;3" font-underline="0" box-height="107" font="Cabin" letter-spacing="1" font-pixel-size="36" font-italic="0" typewriter="1;3;2;0;0" alignment="1" font-weight="50" box-width="1023.2" font-color="61,61,61,255">You can zoom in and out (from 60% up to 200%) via “Settings”
It provides shortcuts for various actions&lt;/content>
 &lt;/item>
 &lt;startviewport rect="0,0,1596,894"/>
 &lt;endviewport rect="0,0,1596,894"/>
 &lt;background color="0,0,0,0"/>
&lt;/kdenlivetitle>
</property>
  <property name="xml">was here</property>
  <property name="kdenlive:folderid">-1</property>
  <property name="kdenlive:id">66</property>
  <property name="kdenlive:clip_type">2</property>
  <property name="force_reload">0</property>
  <property name="meta.media.width">1596</property>
  <property name="meta.media.height">894</property>
  <property name="kdenlive:file_hash">66352a4754a02c511a23c69d376ee640</property>
 </producer>
 <producer id="producer37" in="00:00:00.000" out="00:00:08.600">
  <property name="length">130</property>
  <property name="eof">pause</property>
  <property name="meta.media.progressive">1</property>
  <property name="aspect_ratio">1</property>
  <property name="seekable">1</property>
  <property name="mlt_service">kdenlivetitle</property>
  <property name="kdenlive:duration">00:00:05:00</property>
  <property name="kdenlive:clipname">In conclusio...</property>
  <property name="xmldata">&lt;kdenlivetitle duration="75" LC_NUMERIC="C" width="1596" height="894" out="74">
 &lt;item type="QGraphicsTextItem" z-index="0">
  &lt;position x="9" y="2">
   &lt;transform>1,0,0,0,1,0,0,0,1&lt;/transform>
  &lt;/position>
  &lt;content line-spacing="4" shadow="0;#64000000;3;3;3" font-underline="0" box-height="107" font="Cabin" letter-spacing="1" font-pixel-size="36" font-italic="0" typewriter="1;3;2;0;0" alignment="1" font-weight="50" box-width="1296.78" font-color="61,61,61,255">In conclusion, Fingrom is an open-source platform-agnostic financial accounting 
application that offers a user-centric approach to managing finances&lt;/content>
 &lt;/item>
 &lt;startviewport rect="0,0,1596,894"/>
 &lt;endviewport rect="0,0,1596,894"/>
 &lt;background color="0,0,0,0"/>
&lt;/kdenlivetitle>
</property>
  <property name="xml">was here</property>
  <property name="kdenlive:folderid">-1</property>
  <property name="kdenlive:id">67</property>
  <property name="kdenlive:clip_type">2</property>
  <property name="force_reload">0</property>
  <property name="meta.media.width">1596</property>
  <property name="meta.media.height">894</property>
  <property name="kdenlive:file_hash">c99f6b64dfacbed70bf2a23a230274e6</property>
 </producer>
 <producer id="producer0" in="00:00:00.000" out="00:36:05.067">
  <property name="length">2147483647</property>
  <property name="eof">continue</property>
  <property name="resource">black</property>
  <property name="aspect_ratio">1</property>
  <property name="mlt_service">color</property>
  <property name="kdenlive:playlistid">black_track</property>
  <property name="mlt_image_format">rgba</property>
  <property name="set.test_audio">0</property>
 </producer>
 <chain id="chain0" out="00:02:45.933">
  <property name="length">2490</property>
  <property name="eof">pause</property>
  <property name="resource">back_Absurd-David_Fesliyan.mp3</property>
  <property name="mlt_service">avformat-novalidate</property>
  <property name="seekable">1</property>
  <property name="audio_index">0</property>
  <property name="video_index">-1</property>
  <property name="astream">0</property>
  <property name="kdenlive:folderid">-1</property>
  <property name="kdenlive:id">5</property>
  <property name="kdenlive:clip_type">1</property>
  <property name="kdenlive:file_size">6643743</property>
  <property name="kdenlive:file_hash">6d5b595db7134726039f90d798d5f726</property>
  <property name="kdenlive:audio_max0">214</property>
  <property name="meta.media.nb_streams">1</property>
  <property name="meta.media.0.stream.type">audio</property>
  <property name="meta.media.0.codec.sample_fmt">fltp</property>
  <property name="meta.media.0.codec.sample_rate">44100</property>
  <property name="meta.media.0.codec.channels">2</property>
  <property name="meta.media.0.codec.name">mp3float</property>
  <property name="meta.media.0.codec.long_name">MP3 (MPEG audio layer 3)</property>
  <property name="meta.media.0.codec.bit_rate">320000</property>
  <property name="meta.attr.album.markup">FesliyanStudios.com ASCAP IPI 792929876, 792929974</property>
  <property name="meta.attr.artist.markup">FesliyanStudios.com ASCAP IPI 792929876, 792929974</property>
  <property name="meta.attr.album_artist.markup">FesliyanStudios.com ASCAP IPI 792929876, 792929974</property>
  <property name="meta.attr.comment.markup">FesliyanStudios.com ASCAP IPI 792929876, 792929974</property>
  <property name="meta.attr.composer.markup">FesliyanStudios.com ASCAP IPI 792929876, 792929974</property>
  <property name="meta.attr.genre.markup">Soundtrack</property>
  <property name="meta.attr.title.markup">Absurd</property>
  <property name="meta.attr.track.markup">1</property>
  <property name="meta.attr.date.markup">2017</property>
  <property name="xml">was here</property>
  <property name="mute_on_pause">0</property>
  <property name="set.test_audio">0</property>
  <property name="set.test_image">1</property>
 </chain>
 <playlist id="playlist0">
  <property name="kdenlive:audio_track">1</property>
  <entry producer="chain0" in="00:00:00.933" out="00:02:45.933">
   <property name="kdenlive:id">5</property>
   <filter id="filter0">
    <property name="window">75</property>
    <property name="max_gain">20dB</property>
    <property name="level">00:00:00.933=-19</property>
    <property name="mlt_service">volume</property>
    <property name="kdenlive_id">volume</property>
    <property name="kdenlive:collapsed">0</property>
   </filter>
  </entry>
 </playlist>
 <playlist id="playlist1">
  <property name="kdenlive:audio_track">1</property>
 </playlist>
 <tractor id="tractor0" in="00:00:00.000" out="00:02:45.000">
  <property name="kdenlive:audio_track">1</property>
  <property name="kdenlive:trackheight">67</property>
  <property name="kdenlive:timeline_active">0</property>
  <property name="kdenlive:collapsed">0</property>
  <property name="kdenlive:track_name">Music</property>
  <property name="kdenlive:thumbs_format"/>
  <property name="kdenlive:audio_rec"/>
  <track hide="video" producer="playlist0"/>
  <track hide="video" producer="playlist1"/>
  <filter id="filter1">
   <property name="window">75</property>
   <property name="max_gain">20dB</property>
   <property name="mlt_service">volume</property>
   <property name="internal_added">237</property>
   <property name="disable">1</property>
  </filter>
  <filter id="filter2">
   <property name="channel">-1</property>
   <property name="mlt_service">panner</property>
   <property name="internal_added">237</property>
   <property name="start">0.5</property>
   <property name="disable">1</property>
  </filter>
  <filter id="filter3">
   <property name="iec_scale">0</property>
   <property name="mlt_service">audiolevel</property>
   <property name="dbpeak">1</property>
   <property name="disable">1</property>
  </filter>
 </tractor>
 <chain id="chain1" out="00:00:12.000">
  <property name="length">181</property>
  <property name="eof">pause</property>
  <property name="resource">ch00-s01-welcome_de.m4a</property>
  <property name="mlt_service">avformat-novalidate</property>
  <property name="seekable">1</property>
  <property name="audio_index">0</property>
  <property name="video_index">-1</property>
  <property name="astream">0</property>
  <property name="kdenlive:folderid">-1</property>
  <property name="kdenlive:id">86</property>
  <property name="kdenlive:clip_type">1</property>
  <property name="kdenlive:file_size">271124</property>
  <property name="kdenlive:file_hash">817a524003f0465503116a20007cb583</property>
  <property name="kdenlive:audio_max0">149</property>
  <property name="meta.media.nb_streams">1</property>
  <property name="meta.media.0.stream.type">audio</property>
  <property name="meta.media.0.codec.sample_fmt">fltp</property>
  <property name="meta.media.0.codec.sample_rate">48000</property>
  <property name="meta.media.0.codec.channels">2</property>
  <property name="meta.media.0.codec.name">aac</property>
  <property name="meta.media.0.codec.long_name">AAC (Advanced Audio Coding)</property>
  <property name="meta.media.0.codec.bit_rate">177409</property>
  <property name="meta.attr.0.stream.creation_time.markup">2023-11-04T09:51:44.000000Z</property>
  <property name="meta.attr.0.stream.handler_name.markup">SoundHandler</property>
  <property name="meta.attr.0.stream.vendor_id.markup">[0][0][0][0]</property>
  <property name="meta.attr.major_brand.markup">mp42</property>
  <property name="meta.attr.minor_version.markup">0</property>
  <property name="meta.attr.compatible_brands.markup">mp41isom</property>
  <property name="meta.attr.creation_time.markup">2023-11-04T09:51:44.000000Z</property>
  <property name="meta.attr.date.markup">2023</property>
  <property name="meta.attr.album_artist.markup">Запись голоса</property>
  <property name="meta.attr.title.markup">ch00-s01-welcome_de</property>
  <property name="xml">was here</property>
  <property name="mute_on_pause">0</property>
  <property name="set.test_audio">0</property>
  <property name="set.test_image">1</property>
 </chain>
 <chain id="chain2" out="00:00:12.067">
  <property name="length">182</property>
  <property name="eof">pause</property>
  <property name="resource">ch00-s02-inclusive_de.m4a</property>
  <property name="mlt_service">avformat-novalidate</property>
  <property name="seekable">1</property>
  <property name="audio_index">0</property>
  <property name="video_index">-1</property>
  <property name="astream">0</property>
  <property name="kdenlive:folderid">-1</property>
  <property name="kdenlive:id">85</property>
  <property name="kdenlive:clip_type">1</property>
  <property name="kdenlive:file_size">274213</property>
  <property name="kdenlive:file_hash">8edbd103bd229977d8d2163b3c938b3a</property>
  <property name="kdenlive:audio_max0">168</property>
  <property name="meta.media.nb_streams">1</property>
  <property name="meta.media.0.stream.type">audio</property>
  <property name="meta.media.0.codec.sample_fmt">fltp</property>
  <property name="meta.media.0.codec.sample_rate">48000</property>
  <property name="meta.media.0.codec.channels">2</property>
  <property name="meta.media.0.codec.name">aac</property>
  <property name="meta.media.0.codec.long_name">AAC (Advanced Audio Coding)</property>
  <property name="meta.media.0.codec.bit_rate">178755</property>
  <property name="meta.attr.0.stream.creation_time.markup">2023-11-04T10:12:32.000000Z</property>
  <property name="meta.attr.0.stream.handler_name.markup">SoundHandler</property>
  <property name="meta.attr.0.stream.vendor_id.markup">[0][0][0][0]</property>
  <property name="meta.attr.major_brand.markup">mp42</property>
  <property name="meta.attr.minor_version.markup">0</property>
  <property name="meta.attr.compatible_brands.markup">mp41isom</property>
  <property name="meta.attr.creation_time.markup">2023-11-04T10:12:32.000000Z</property>
  <property name="meta.attr.title.markup">ch00-s02-inclusive_de</property>
  <property name="meta.attr.date.markup">2023</property>
  <property name="meta.attr.album_artist.markup">Запись голоса</property>
  <property name="xml">was here</property>
  <property name="mute_on_pause">0</property>
  <property name="set.test_audio">0</property>
  <property name="set.test_image">1</property>
 </chain>
 <chain id="chain3" out="00:00:10.667">
  <property name="length">161</property>
  <property name="eof">pause</property>
  <property name="resource">ch00-s03-journey_de.m4a</property>
  <property name="mlt_service">avformat-novalidate</property>
  <property name="seekable">1</property>
  <property name="audio_index">0</property>
  <property name="video_index">-1</property>
  <property name="astream">0</property>
  <property name="kdenlive:folderid">-1</property>
  <property name="kdenlive:id">84</property>
  <property name="kdenlive:clip_type">1</property>
  <property name="kdenlive:file_size">247951</property>
  <property name="kdenlive:file_hash">488a8325630459d8eb9bd19c22199590</property>
  <property name="kdenlive:audio_max0">155</property>
  <property name="meta.media.nb_streams">1</property>
  <property name="meta.media.0.stream.type">audio</property>
  <property name="meta.media.0.codec.sample_fmt">fltp</property>
  <property name="meta.media.0.codec.sample_rate">48000</property>
  <property name="meta.media.0.codec.channels">2</property>
  <property name="meta.media.0.codec.name">aac</property>
  <property name="meta.media.0.codec.long_name">AAC (Advanced Audio Coding)</property>
  <property name="meta.media.0.codec.bit_rate">182687</property>
  <property name="meta.attr.0.stream.creation_time.markup">2023-11-04T11:06:01.000000Z</property>
  <property name="meta.attr.0.stream.handler_name.markup">SoundHandler</property>
  <property name="meta.attr.0.stream.vendor_id.markup">[0][0][0][0]</property>
  <property name="meta.attr.major_brand.markup">mp42</property>
  <property name="meta.attr.minor_version.markup">0</property>
  <property name="meta.attr.compatible_brands.markup">mp41isom</property>
  <property name="meta.attr.creation_time.markup">2023-11-04T11:06:01.000000Z</property>
  <property name="meta.attr.title.markup">ch00-s03-journey_de</property>
  <property name="meta.attr.date.markup">2023</property>
  <property name="meta.attr.album_artist.markup">Запись голоса</property>
  <property name="xml">was here</property>
  <property name="mute_on_pause">0</property>
  <property name="set.test_audio">0</property>
  <property name="set.test_image">1</property>
 </chain>
 <chain id="chain4" out="00:00:11.333">
  <property name="length">171</property>
  <property name="eof">pause</property>
  <property name="resource">ch01-s01-challenges_de.m4a</property>
  <property name="mlt_service">avformat-novalidate</property>
  <property name="seekable">1</property>
  <property name="audio_index">0</property>
  <property name="video_index">-1</property>
  <property name="astream">0</property>
  <property name="kdenlive:folderid">-1</property>
  <property name="kdenlive:id">83</property>
  <property name="kdenlive:clip_type">1</property>
  <property name="kdenlive:file_size">258802</property>
  <property name="kdenlive:file_hash">4cc5d3a96de2c508d73501c496ad5083</property>
  <property name="kdenlive:audio_max0">171</property>
  <property name="meta.media.nb_streams">1</property>
  <property name="meta.media.0.stream.type">audio</property>
  <property name="meta.media.0.codec.sample_fmt">fltp</property>
  <property name="meta.media.0.codec.sample_rate">48000</property>
  <property name="meta.media.0.codec.channels">2</property>
  <property name="meta.media.0.codec.name">aac</property>
  <property name="meta.media.0.codec.long_name">AAC (Advanced Audio Coding)</property>
  <property name="meta.media.0.codec.bit_rate">179952</property>
  <property name="meta.attr.0.stream.creation_time.markup">2023-11-04T13:23:30.000000Z</property>
  <property name="meta.attr.0.stream.handler_name.markup">SoundHandler</property>
  <property name="meta.attr.0.stream.vendor_id.markup">[0][0][0][0]</property>
  <property name="meta.attr.major_brand.markup">mp42</property>
  <property name="meta.attr.minor_version.markup">0</property>
  <property name="meta.attr.compatible_brands.markup">mp41isom</property>
  <property name="meta.attr.creation_time.markup">2023-11-04T13:23:30.000000Z</property>
  <property name="meta.attr.date.markup">2023</property>
  <property name="meta.attr.album_artist.markup">Запись голоса</property>
  <property name="meta.attr.title.markup">ch01-s01-challenges_de</property>
  <property name="xml">was here</property>
  <property name="mute_on_pause">0</property>
  <property name="set.test_audio">0</property>
  <property name="set.test_image">1</property>
 </chain>
 <chain id="chain5" out="00:00:09.467">
  <property name="length">143</property>
  <property name="eof">pause</property>
  <property name="resource">ch01-s02-complex_de.m4a</property>
  <property name="mlt_service">avformat-novalidate</property>
  <property name="seekable">1</property>
  <property name="audio_index">0</property>
  <property name="video_index">-1</property>
  <property name="astream">0</property>
  <property name="kdenlive:folderid">-1</property>
  <property name="kdenlive:id">82</property>
  <property name="kdenlive:clip_type">1</property>
  <property name="kdenlive:file_size">215314</property>
  <property name="kdenlive:file_hash">2f636a323af714d35e1fa448ea42c94a</property>
  <property name="kdenlive:audio_max0">145</property>
  <property name="meta.media.nb_streams">1</property>
  <property name="meta.media.0.stream.type">audio</property>
  <property name="meta.media.0.codec.sample_fmt">fltp</property>
  <property name="meta.media.0.codec.sample_rate">48000</property>
  <property name="meta.media.0.codec.channels">2</property>
  <property name="meta.media.0.codec.name">aac</property>
  <property name="meta.media.0.codec.long_name">AAC (Advanced Audio Coding)</property>
  <property name="meta.media.0.codec.bit_rate">177916</property>
  <property name="meta.attr.0.stream.creation_time.markup">2023-11-04T13:45:01.000000Z</property>
  <property name="meta.attr.0.stream.handler_name.markup">SoundHandler</property>
  <property name="meta.attr.0.stream.vendor_id.markup">[0][0][0][0]</property>
  <property name="meta.attr.major_brand.markup">mp42</property>
  <property name="meta.attr.minor_version.markup">0</property>
  <property name="meta.attr.compatible_brands.markup">mp41isom</property>
  <property name="meta.attr.creation_time.markup">2023-11-04T13:45:01.000000Z</property>
  <property name="meta.attr.date.markup">2023</property>
  <property name="meta.attr.album_artist.markup">Запись голоса</property>
  <property name="meta.attr.title.markup">ch01-s02-complex_de</property>
  <property name="xml">was here</property>
  <property name="mute_on_pause">0</property>
  <property name="set.test_audio">0</property>
  <property name="set.test_image">1</property>
 </chain>
 <chain id="chain6" out="00:00:09.867">
  <property name="length">149</property>
  <property name="eof">pause</property>
  <property name="resource">ch01-s03-centric_de.m4a</property>
  <property name="mlt_service">avformat-novalidate</property>
  <property name="seekable">1</property>
  <property name="audio_index">0</property>
  <property name="video_index">-1</property>
  <property name="astream">0</property>
  <property name="kdenlive:folderid">-1</property>
  <property name="kdenlive:id">81</property>
  <property name="kdenlive:clip_type">1</property>
  <property name="kdenlive:file_size">229642</property>
  <property name="kdenlive:file_hash">429cec058879126dd937f22cbacfc3e4</property>
  <property name="kdenlive:audio_max0">157</property>
  <property name="meta.media.nb_streams">1</property>
  <property name="meta.media.0.stream.type">audio</property>
  <property name="meta.media.0.codec.sample_fmt">fltp</property>
  <property name="meta.media.0.codec.sample_rate">48000</property>
  <property name="meta.media.0.codec.channels">2</property>
  <property name="meta.media.0.codec.name">aac</property>
  <property name="meta.media.0.codec.long_name">AAC (Advanced Audio Coding)</property>
  <property name="meta.media.0.codec.bit_rate">182536</property>
  <property name="meta.attr.0.stream.creation_time.markup">2023-11-04T14:27:19.000000Z</property>
  <property name="meta.attr.0.stream.handler_name.markup">SoundHandler</property>
  <property name="meta.attr.0.stream.vendor_id.markup">[0][0][0][0]</property>
  <property name="meta.attr.major_brand.markup">mp42</property>
  <property name="meta.attr.minor_version.markup">0</property>
  <property name="meta.attr.compatible_brands.markup">mp41isom</property>
  <property name="meta.attr.creation_time.markup">2023-11-04T14:27:19.000000Z</property>
  <property name="meta.attr.date.markup">2023</property>
  <property name="meta.attr.album_artist.markup">Запись голоса</property>
  <property name="meta.attr.title.markup">ch01-s03-centric_de</property>
  <property name="xml">was here</property>
  <property name="mute_on_pause">0</property>
  <property name="set.test_audio">0</property>
  <property name="set.test_image">1</property>
 </chain>
 <chain id="chain7" out="00:00:10.467">
  <property name="length">158</property>
  <property name="eof">pause</property>
  <property name="resource">ch02-s01-accounts_de.m4a</property>
  <property name="mlt_service">avformat-novalidate</property>
  <property name="seekable">1</property>
  <property name="audio_index">0</property>
  <property name="video_index">-1</property>
  <property name="astream">0</property>
  <property name="kdenlive:folderid">-1</property>
  <property name="kdenlive:id">80</property>
  <property name="kdenlive:clip_type">1</property>
  <property name="kdenlive:file_size">237528</property>
  <property name="kdenlive:file_hash">c1a0ba51bae5e791d34d3375ccabab4b</property>
  <property name="kdenlive:audio_max0">153</property>
  <property name="meta.media.nb_streams">1</property>
  <property name="meta.media.0.stream.type">audio</property>
  <property name="meta.media.0.codec.sample_fmt">fltp</property>
  <property name="meta.media.0.codec.sample_rate">48000</property>
  <property name="meta.media.0.codec.channels">2</property>
  <property name="meta.media.0.codec.name">aac</property>
  <property name="meta.media.0.codec.long_name">AAC (Advanced Audio Coding)</property>
  <property name="meta.media.0.codec.bit_rate">177997</property>
  <property name="meta.attr.0.stream.creation_time.markup">2023-11-04T15:03:18.000000Z</property>
  <property name="meta.attr.0.stream.handler_name.markup">SoundHandler</property>
  <property name="meta.attr.0.stream.vendor_id.markup">[0][0][0][0]</property>
  <property name="meta.attr.major_brand.markup">mp42</property>
  <property name="meta.attr.minor_version.markup">0</property>
  <property name="meta.attr.compatible_brands.markup">mp41isom</property>
  <property name="meta.attr.creation_time.markup">2023-11-04T15:03:18.000000Z</property>
  <property name="meta.attr.date.markup">2023</property>
  <property name="meta.attr.album_artist.markup">Запись голоса</property>
  <property name="meta.attr.title.markup">ch02-s01-accounts_de</property>
  <property name="xml">was here</property>
  <property name="mute_on_pause">0</property>
  <property name="set.test_audio">0</property>
  <property name="set.test_image">1</property>
 </chain>
 <chain id="chain8" out="00:00:06.133">
  <property name="length">93</property>
  <property name="eof">pause</property>
  <property name="resource">ch02-s03-categories1_de.m4a</property>
  <property name="mlt_service">avformat-novalidate</property>
  <property name="seekable">1</property>
  <property name="audio_index">0</property>
  <property name="video_index">-1</property>
  <property name="astream">0</property>
  <property name="kdenlive:folderid">-1</property>
  <property name="kdenlive:id">79</property>
  <property name="kdenlive:clip_type">1</property>
  <property name="kdenlive:file_size">142165</property>
  <property name="kdenlive:file_hash">7c73574293e7371a4125c42cceb16753</property>
  <property name="kdenlive:audio_max0">109</property>
  <property name="meta.media.nb_streams">1</property>
  <property name="meta.media.0.stream.type">audio</property>
  <property name="meta.media.0.codec.sample_fmt">fltp</property>
  <property name="meta.media.0.codec.sample_rate">48000</property>
  <property name="meta.media.0.codec.channels">2</property>
  <property name="meta.media.0.codec.name">aac</property>
  <property name="meta.media.0.codec.long_name">AAC (Advanced Audio Coding)</property>
  <property name="meta.media.0.codec.bit_rate">180567</property>
  <property name="meta.attr.0.stream.creation_time.markup">2023-11-04T15:53:12.000000Z</property>
  <property name="meta.attr.0.stream.handler_name.markup">SoundHandler</property>
  <property name="meta.attr.0.stream.vendor_id.markup">[0][0][0][0]</property>
  <property name="meta.attr.major_brand.markup">mp42</property>
  <property name="meta.attr.minor_version.markup">0</property>
  <property name="meta.attr.compatible_brands.markup">mp41isom</property>
  <property name="meta.attr.creation_time.markup">2023-11-04T15:53:12.000000Z</property>
  <property name="meta.attr.date.markup">2023</property>
  <property name="meta.attr.album_artist.markup">Запись голоса</property>
  <property name="meta.attr.title.markup">ch02-s03-categories1_de</property>
  <property name="xml">was here</property>
  <property name="mute_on_pause">0</property>
  <property name="set.test_audio">0</property>
  <property name="set.test_image">1</property>
 </chain>
 <chain id="chain9" out="00:00:04.867">
  <property name="length">74</property>
  <property name="eof">pause</property>
  <property name="resource">ch02-s03-categories2_de.m4a</property>
  <property name="mlt_service">avformat-novalidate</property>
  <property name="seekable">1</property>
  <property name="audio_index">0</property>
  <property name="video_index">-1</property>
  <property name="astream">0</property>
  <property name="kdenlive:folderid">-1</property>
  <property name="kdenlive:id">78</property>
  <property name="kdenlive:clip_type">1</property>
  <property name="kdenlive:file_size">113399</property>
  <property name="kdenlive:file_hash">590539ee76c27e9c226f964ea38c696d</property>
  <property name="kdenlive:audio_max0">149</property>
  <property name="meta.media.nb_streams">1</property>
  <property name="meta.media.0.stream.type">audio</property>
  <property name="meta.media.0.codec.sample_fmt">fltp</property>
  <property name="meta.media.0.codec.sample_rate">48000</property>
  <property name="meta.media.0.codec.channels">2</property>
  <property name="meta.media.0.codec.name">aac</property>
  <property name="meta.media.0.codec.long_name">AAC (Advanced Audio Coding)</property>
  <property name="meta.media.0.codec.bit_rate">181169</property>
  <property name="meta.attr.0.stream.creation_time.markup">2023-11-04T16:00:11.000000Z</property>
  <property name="meta.attr.0.stream.handler_name.markup">SoundHandler</property>
  <property name="meta.attr.0.stream.vendor_id.markup">[0][0][0][0]</property>
  <property name="meta.attr.major_brand.markup">mp42</property>
  <property name="meta.attr.minor_version.markup">0</property>
  <property name="meta.attr.compatible_brands.markup">mp41isom</property>
  <property name="meta.attr.creation_time.markup">2023-11-04T16:00:11.000000Z</property>
  <property name="meta.attr.title.markup">ch02-s03-categories2_de</property>
  <property name="meta.attr.date.markup">2023</property>
  <property name="meta.attr.album_artist.markup">Запись голоса</property>
  <property name="xml">was here</property>
  <property name="mute_on_pause">0</property>
  <property name="set.test_audio">0</property>
  <property name="set.test_image">1</property>
 </chain>
 <chain id="chain10" out="00:00:07.133">
  <property name="length">108</property>
  <property name="eof">pause</property>
  <property name="resource">ch03-s01-bills_de.m4a</property>
  <property name="mlt_service">avformat-novalidate</property>
  <property name="seekable">1</property>
  <property name="audio_index">0</property>
  <property name="video_index">-1</property>
  <property name="astream">0</property>
  <property name="kdenlive:folderid">-1</property>
  <property name="kdenlive:id">77</property>
  <property name="kdenlive:clip_type">1</property>
  <property name="kdenlive:file_size">161582</property>
  <property name="kdenlive:file_hash">fd86f66be2c2a07e1bef92cfa51b9d22</property>
  <property name="kdenlive:audio_max0">121</property>
  <property name="meta.media.nb_streams">1</property>
  <property name="meta.media.0.stream.type">audio</property>
  <property name="meta.media.0.codec.sample_fmt">fltp</property>
  <property name="meta.media.0.codec.sample_rate">48000</property>
  <property name="meta.media.0.codec.channels">2</property>
  <property name="meta.media.0.codec.name">aac</property>
  <property name="meta.media.0.codec.long_name">AAC (Advanced Audio Coding)</property>
  <property name="meta.media.0.codec.bit_rate">176661</property>
  <property name="meta.attr.0.stream.creation_time.markup">2023-11-15T10:03:33.000000Z</property>
  <property name="meta.attr.0.stream.handler_name.markup">SoundHandler</property>
  <property name="meta.attr.0.stream.vendor_id.markup">[0][0][0][0]</property>
  <property name="meta.attr.major_brand.markup">mp42</property>
  <property name="meta.attr.minor_version.markup">0</property>
  <property name="meta.attr.compatible_brands.markup">mp41isom</property>
  <property name="meta.attr.creation_time.markup">2023-11-15T10:03:33.000000Z</property>
  <property name="meta.attr.date.markup">2023</property>
  <property name="meta.attr.album_artist.markup">Запись голоса</property>
  <property name="meta.attr.title.markup">ch03-s01-bills_de</property>
  <property name="xml">was here</property>
  <property name="mute_on_pause">0</property>
  <property name="set.test_audio">0</property>
  <property name="set.test_image">1</property>
 </chain>
 <chain id="chain11" out="00:00:07.600">
  <property name="length">115</property>
  <property name="eof">pause</property>
  <property name="resource">ch04-s01-goals_de.m4a</property>
  <property name="mlt_service">avformat-novalidate</property>
  <property name="seekable">1</property>
  <property name="audio_index">0</property>
  <property name="video_index">-1</property>
  <property name="astream">0</property>
  <property name="kdenlive:folderid">-1</property>
  <property name="kdenlive:id">76</property>
  <property name="kdenlive:clip_type">1</property>
  <property name="kdenlive:file_size">177218</property>
  <property name="kdenlive:file_hash">a63b0641661c4c44603f584c2b4bf4f4</property>
  <property name="kdenlive:audio_max0">133</property>
  <property name="meta.media.nb_streams">1</property>
  <property name="meta.media.0.stream.type">audio</property>
  <property name="meta.media.0.codec.sample_fmt">fltp</property>
  <property name="meta.media.0.codec.sample_rate">48000</property>
  <property name="meta.media.0.codec.channels">2</property>
  <property name="meta.media.0.codec.name">aac</property>
  <property name="meta.media.0.codec.long_name">AAC (Advanced Audio Coding)</property>
  <property name="meta.media.0.codec.bit_rate">181861</property>
  <property name="meta.attr.0.stream.creation_time.markup">2023-11-15T10:14:23.000000Z</property>
  <property name="meta.attr.0.stream.handler_name.markup">SoundHandler</property>
  <property name="meta.attr.0.stream.vendor_id.markup">[0][0][0][0]</property>
  <property name="meta.attr.major_brand.markup">mp42</property>
  <property name="meta.attr.minor_version.markup">0</property>
  <property name="meta.attr.compatible_brands.markup">mp41isom</property>
  <property name="meta.attr.creation_time.markup">2023-11-15T10:14:23.000000Z</property>
  <property name="meta.attr.date.markup">2023</property>
  <property name="meta.attr.album_artist.markup">Запись голоса</property>
  <property name="meta.attr.title.markup">ch04-s01-goals_de</property>
  <property name="xml">was here</property>
  <property name="mute_on_pause">0</property>
  <property name="set.test_audio">0</property>
  <property name="set.test_image">1</property>
 </chain>
 <chain id="chain12" out="00:00:09.467">
  <property name="length">143</property>
  <property name="eof">pause</property>
  <property name="resource">ch05-s01-exchange_de.m4a</property>
  <property name="mlt_service">avformat-novalidate</property>
  <property name="seekable">1</property>
  <property name="audio_index">0</property>
  <property name="video_index">-1</property>
  <property name="astream">0</property>
  <property name="kdenlive:folderid">-1</property>
  <property name="kdenlive:id">75</property>
  <property name="kdenlive:clip_type">1</property>
  <property name="kdenlive:file_size">213751</property>
  <property name="kdenlive:file_hash">303e03f23b2090864ea389e9f96c9846</property>
  <property name="kdenlive:audio_max0">109</property>
  <property name="meta.media.nb_streams">1</property>
  <property name="meta.media.0.stream.type">audio</property>
  <property name="meta.media.0.codec.sample_fmt">fltp</property>
  <property name="meta.media.0.codec.sample_rate">48000</property>
  <property name="meta.media.0.codec.channels">2</property>
  <property name="meta.media.0.codec.name">aac</property>
  <property name="meta.media.0.codec.long_name">AAC (Advanced Audio Coding)</property>
  <property name="meta.media.0.codec.bit_rate">177006</property>
  <property name="meta.attr.0.stream.creation_time.markup">2023-11-15T10:27:43.000000Z</property>
  <property name="meta.attr.0.stream.handler_name.markup">SoundHandler</property>
  <property name="meta.attr.0.stream.vendor_id.markup">[0][0][0][0]</property>
  <property name="meta.attr.major_brand.markup">mp42</property>
  <property name="meta.attr.minor_version.markup">0</property>
  <property name="meta.attr.compatible_brands.markup">mp41isom</property>
  <property name="meta.attr.creation_time.markup">2023-11-15T10:27:43.000000Z</property>
  <property name="meta.attr.date.markup">2023</property>
  <property name="meta.attr.album_artist.markup">Запись голоса</property>
  <property name="meta.attr.title.markup">ch05-s01-exchange_de</property>
  <property name="xml">was here</property>
  <property name="mute_on_pause">0</property>
  <property name="set.test_audio">0</property>
  <property name="set.test_image">1</property>
 </chain>
 <chain id="chain13" out="00:00:04.733">
  <property name="length">72</property>
  <property name="eof">pause</property>
  <property name="resource">ch05-s01-metrics_de.m4a</property>
  <property name="mlt_service">avformat-novalidate</property>
  <property name="seekable">1</property>
  <property name="audio_index">0</property>
  <property name="video_index">-1</property>
  <property name="astream">0</property>
  <property name="kdenlive:folderid">-1</property>
  <property name="kdenlive:id">74</property>
  <property name="kdenlive:clip_type">1</property>
  <property name="kdenlive:file_size">107136</property>
  <property name="kdenlive:file_hash">19b37048b0b505183fc7ce2dffa66906</property>
  <property name="kdenlive:audio_max0">134</property>
  <property name="meta.media.nb_streams">1</property>
  <property name="meta.media.0.stream.type">audio</property>
  <property name="meta.media.0.codec.sample_fmt">fltp</property>
  <property name="meta.media.0.codec.sample_rate">48000</property>
  <property name="meta.media.0.codec.channels">2</property>
  <property name="meta.media.0.codec.name">aac</property>
  <property name="meta.media.0.codec.long_name">AAC (Advanced Audio Coding)</property>
  <property name="meta.media.0.codec.bit_rate">175503</property>
  <property name="meta.attr.0.stream.creation_time.markup">2023-11-15T11:03:52.000000Z</property>
  <property name="meta.attr.0.stream.handler_name.markup">SoundHandler</property>
  <property name="meta.attr.0.stream.vendor_id.markup">[0][0][0][0]</property>
  <property name="meta.attr.major_brand.markup">mp42</property>
  <property name="meta.attr.minor_version.markup">0</property>
  <property name="meta.attr.compatible_brands.markup">mp41isom</property>
  <property name="meta.attr.creation_time.markup">2023-11-15T11:03:52.000000Z</property>
  <property name="meta.attr.date.markup">2023</property>
  <property name="meta.attr.album_artist.markup">Запись голоса</property>
  <property name="meta.attr.title.markup">ch05-s01-metrics_de</property>
  <property name="xml">was here</property>
  <property name="mute_on_pause">0</property>
  <property name="set.test_audio">0</property>
  <property name="set.test_image">1</property>
 </chain>
 <chain id="chain14" out="00:00:06.267">
  <property name="length">95</property>
  <property name="eof">pause</property>
  <property name="resource">ch05-s02-list1_de.m4a</property>
  <property name="mlt_service">avformat-novalidate</property>
  <property name="seekable">1</property>
  <property name="audio_index">0</property>
  <property name="video_index">-1</property>
  <property name="astream">0</property>
  <property name="kdenlive:folderid">-1</property>
  <property name="kdenlive:id">73</property>
  <property name="kdenlive:clip_type">1</property>
  <property name="kdenlive:file_size">144405</property>
  <property name="kdenlive:file_hash">f2edc0029dde90364cf4455bd6dcd41a</property>
  <property name="kdenlive:audio_max0">130</property>
  <property name="meta.media.nb_streams">1</property>
  <property name="meta.media.0.stream.type">audio</property>
  <property name="meta.media.0.codec.sample_fmt">fltp</property>
  <property name="meta.media.0.codec.sample_rate">48000</property>
  <property name="meta.media.0.codec.channels">2</property>
  <property name="meta.media.0.codec.name">aac</property>
  <property name="meta.media.0.codec.long_name">AAC (Advanced Audio Coding)</property>
  <property name="meta.media.0.codec.bit_rate">178922</property>
  <property name="meta.attr.0.stream.creation_time.markup">2023-11-15T11:15:22.000000Z</property>
  <property name="meta.attr.0.stream.handler_name.markup">SoundHandler</property>
  <property name="meta.attr.0.stream.vendor_id.markup">[0][0][0][0]</property>
  <property name="meta.attr.major_brand.markup">mp42</property>
  <property name="meta.attr.minor_version.markup">0</property>
  <property name="meta.attr.compatible_brands.markup">mp41isom</property>
  <property name="meta.attr.creation_time.markup">2023-11-15T11:15:22.000000Z</property>
  <property name="meta.attr.date.markup">2023</property>
  <property name="meta.attr.album_artist.markup">Запись голоса</property>
  <property name="meta.attr.title.markup">ch05-s02-list1_de</property>
  <property name="xml">was here</property>
  <property name="mute_on_pause">0</property>
  <property name="set.test_audio">0</property>
  <property name="set.test_image">1</property>
 </chain>
 <chain id="chain15" out="00:00:06.933">
  <property name="length">105</property>
  <property name="eof">pause</property>
  <property name="resource">ch05-s02-list2_de.m4a</property>
  <property name="mlt_service">avformat-novalidate</property>
  <property name="seekable">1</property>
  <property name="audio_index">0</property>
  <property name="video_index">-1</property>
  <property name="astream">0</property>
  <property name="kdenlive:folderid">-1</property>
  <property name="kdenlive:id">72</property>
  <property name="kdenlive:clip_type">1</property>
  <property name="kdenlive:file_size">155463</property>
  <property name="kdenlive:file_hash">7c124f515d3df5fcbd0c5002f39f19e1</property>
  <property name="kdenlive:audio_max0">133</property>
  <property name="meta.media.nb_streams">1</property>
  <property name="meta.media.0.stream.type">audio</property>
  <property name="meta.media.0.codec.sample_fmt">fltp</property>
  <property name="meta.media.0.codec.sample_rate">48000</property>
  <property name="meta.media.0.codec.channels">2</property>
  <property name="meta.media.0.codec.name">aac</property>
  <property name="meta.media.0.codec.long_name">AAC (Advanced Audio Coding)</property>
  <property name="meta.media.0.codec.bit_rate">174530</property>
  <property name="meta.attr.0.stream.creation_time.markup">2023-11-15T11:24:06.000000Z</property>
  <property name="meta.attr.0.stream.handler_name.markup">SoundHandler</property>
  <property name="meta.attr.0.stream.vendor_id.markup">[0][0][0][0]</property>
  <property name="meta.attr.major_brand.markup">mp42</property>
  <property name="meta.attr.minor_version.markup">0</property>
  <property name="meta.attr.compatible_brands.markup">mp41isom</property>
  <property name="meta.attr.creation_time.markup">2023-11-15T11:24:06.000000Z</property>
  <property name="meta.attr.date.markup">2023</property>
  <property name="meta.attr.album_artist.markup">Запись голоса</property>
  <property name="meta.attr.title.markup">ch05-s02-list2_de</property>
  <property name="xml">was here</property>
  <property name="mute_on_pause">0</property>
  <property name="set.test_audio">0</property>
  <property name="set.test_image">1</property>
 </chain>
 <chain id="chain16" out="00:00:04.267">
  <property name="length">65</property>
  <property name="eof">pause</property>
  <property name="resource">ch05-s02-list3_de.m4a</property>
  <property name="mlt_service">avformat-novalidate</property>
  <property name="seekable">1</property>
  <property name="audio_index">0</property>
  <property name="video_index">-1</property>
  <property name="astream">0</property>
  <property name="kdenlive:folderid">-1</property>
  <property name="kdenlive:id">71</property>
  <property name="kdenlive:clip_type">1</property>
  <property name="kdenlive:file_size">96585</property>
  <property name="kdenlive:file_hash">5cc509134202625ca390aee3f9c6e3f0</property>
  <property name="kdenlive:audio_max0">114</property>
  <property name="meta.media.nb_streams">1</property>
  <property name="meta.media.0.stream.type">audio</property>
  <property name="meta.media.0.codec.sample_fmt">fltp</property>
  <property name="meta.media.0.codec.sample_rate">48000</property>
  <property name="meta.media.0.codec.channels">2</property>
  <property name="meta.media.0.codec.name">aac</property>
  <property name="meta.media.0.codec.long_name">AAC (Advanced Audio Coding)</property>
  <property name="meta.media.0.codec.bit_rate">175156</property>
  <property name="meta.attr.0.stream.creation_time.markup">2023-11-15T11:20:45.000000Z</property>
  <property name="meta.attr.0.stream.handler_name.markup">SoundHandler</property>
  <property name="meta.attr.0.stream.vendor_id.markup">[0][0][0][0]</property>
  <property name="meta.attr.major_brand.markup">mp42</property>
  <property name="meta.attr.minor_version.markup">0</property>
  <property name="meta.attr.compatible_brands.markup">mp41isom</property>
  <property name="meta.attr.creation_time.markup">2023-11-15T11:20:45.000000Z</property>
  <property name="meta.attr.date.markup">2023</property>
  <property name="meta.attr.album_artist.markup">Запись голоса</property>
  <property name="meta.attr.title.markup">ch05-s02-list3_de</property>
  <property name="xml">was here</property>
  <property name="mute_on_pause">0</property>
  <property name="set.test_audio">0</property>
  <property name="set.test_image">1</property>
 </chain>
 <chain id="chain17" out="00:00:08.400">
  <property name="length">127</property>
  <property name="eof">pause</property>
  <property name="resource">ch05-s03-insights_de.m4a</property>
  <property name="mlt_service">avformat-novalidate</property>
  <property name="seekable">1</property>
  <property name="audio_index">0</property>
  <property name="video_index">-1</property>
  <property name="astream">0</property>
  <property name="kdenlive:folderid">-1</property>
  <property name="kdenlive:id">70</property>
  <property name="kdenlive:clip_type">1</property>
  <property name="kdenlive:file_size">192015</property>
  <property name="kdenlive:file_hash">58b0d167588da49a7d210d817fd33523</property>
  <property name="kdenlive:audio_max0">135</property>
  <property name="meta.media.nb_streams">1</property>
  <property name="meta.media.0.stream.type">audio</property>
  <property name="meta.media.0.codec.sample_fmt">fltp</property>
  <property name="meta.media.0.codec.sample_rate">48000</property>
  <property name="meta.media.0.codec.channels">2</property>
  <property name="meta.media.0.codec.name">aac</property>
  <property name="meta.media.0.codec.long_name">AAC (Advanced Audio Coding)</property>
  <property name="meta.media.0.codec.bit_rate">178998</property>
  <property name="meta.attr.0.stream.creation_time.markup">2023-11-15T11:36:28.000000Z</property>
  <property name="meta.attr.0.stream.handler_name.markup">SoundHandler</property>
  <property name="meta.attr.0.stream.vendor_id.markup">[0][0][0][0]</property>
  <property name="meta.attr.major_brand.markup">mp42</property>
  <property name="meta.attr.minor_version.markup">0</property>
  <property name="meta.attr.compatible_brands.markup">mp41isom</property>
  <property name="meta.attr.creation_time.markup">2023-11-15T11:36:28.000000Z</property>
  <property name="meta.attr.date.markup">2023</property>
  <property name="meta.attr.album_artist.markup">Запись голоса</property>
  <property name="meta.attr.title.markup">ch05-s03-insights_de</property>
  <property name="xml">was here</property>
  <property name="mute_on_pause">0</property>
  <property name="set.test_audio">0</property>
  <property name="set.test_image">1</property>
 </chain>
 <chain id="chain18" out="00:00:03.067">
  <property name="length">47</property>
  <property name="eof">pause</property>
  <property name="resource">ch08-s03-thanks_de.m4a</property>
  <property name="mlt_service">avformat-novalidate</property>
  <property name="seekable">1</property>
  <property name="audio_index">0</property>
  <property name="video_index">-1</property>
  <property name="astream">0</property>
  <property name="kdenlive:folderid">-1</property>
  <property name="kdenlive:id">69</property>
  <property name="kdenlive:clip_type">1</property>
  <property name="kdenlive:file_size">70017</property>
  <property name="kdenlive:file_hash">eb2948a5c1df9fecd63a23c80a944a96</property>
  <property name="kdenlive:audio_max0">114</property>
  <property name="meta.media.nb_streams">1</property>
  <property name="meta.media.0.stream.type">audio</property>
  <property name="meta.media.0.codec.sample_fmt">fltp</property>
  <property name="meta.media.0.codec.sample_rate">48000</property>
  <property name="meta.media.0.codec.channels">2</property>
  <property name="meta.media.0.codec.name">aac</property>
  <property name="meta.media.0.codec.long_name">AAC (Advanced Audio Coding)</property>
  <property name="meta.media.0.codec.bit_rate">175186</property>
  <property name="meta.attr.0.stream.creation_time.markup">2023-11-15T10:39:04.000000Z</property>
  <property name="meta.attr.0.stream.handler_name.markup">SoundHandler</property>
  <property name="meta.attr.0.stream.vendor_id.markup">[0][0][0][0]</property>
  <property name="meta.attr.major_brand.markup">mp42</property>
  <property name="meta.attr.minor_version.markup">0</property>
  <property name="meta.attr.compatible_brands.markup">mp41isom</property>
  <property name="meta.attr.creation_time.markup">2023-11-15T10:39:04.000000Z</property>
  <property name="meta.attr.date.markup">2023</property>
  <property name="meta.attr.album_artist.markup">Запись голоса</property>
  <property name="meta.attr.title.markup">ch08-s03-thanks_de</property>
  <property name="xml">was here</property>
  <property name="mute_on_pause">0</property>
  <property name="set.test_audio">0</property>
  <property name="set.test_image">1</property>
 </chain>
 <playlist id="playlist2">
  <property name="kdenlive:audio_track">1</property>
  <blank length="00:00:02.267"/>
  <entry producer="chain1" in="00:00:00.000" out="00:00:12.000">
   <property name="kdenlive:id">86</property>
  </entry>
  <blank length="00:00:00.400"/>
  <entry producer="chain2" in="00:00:00.000" out="00:00:11.800">
   <property name="kdenlive:id">85</property>
  </entry>
  <blank length="00:00:02.800"/>
  <entry producer="chain3" in="00:00:00.400" out="00:00:10.267">
   <property name="kdenlive:id">84</property>
  </entry>
  <blank length="00:00:03.000"/>
  <entry producer="chain4" in="00:00:00.333" out="00:00:10.600">
   <property name="kdenlive:id">83</property>
  </entry>
  <blank length="00:00:01.667"/>
  <entry producer="chain5" in="00:00:00.000" out="00:00:09.467">
   <property name="kdenlive:id">82</property>
  </entry>
  <blank length="00:00:01.800"/>
  <entry producer="chain6" in="00:00:00.000" out="00:00:09.133">
   <property name="kdenlive:id">81</property>
  </entry>
  <blank length="00:00:01.400"/>
  <entry producer="chain7" in="00:00:00.133" out="00:00:09.667">
   <property name="kdenlive:id">80</property>
  </entry>
  <blank length="00:00:02.267"/>
  <entry producer="chain8" in="00:00:00.000" out="00:00:05.667">
   <property name="kdenlive:id">79</property>
   <property name="kdenlive:activeeffect">0</property>
   <filter id="filter4">
    <property name="window">75</property>
    <property name="max_gain">20dB</property>
    <property name="level">00:00:00.000=5</property>
    <property name="mlt_service">volume</property>
    <property name="kdenlive_id">volume</property>
    <property name="kdenlive:collapsed">0</property>
   </filter>
  </entry>
  <entry producer="chain9" in="00:00:00.000" out="00:00:04.867">
   <property name="kdenlive:id">78</property>
   <property name="kdenlive:activeeffect">0</property>
   <filter id="filter5">
    <property name="window">75</property>
    <property name="max_gain">20dB</property>
    <property name="level">00:00:00.000=5</property>
    <property name="mlt_service">volume</property>
    <property name="kdenlive_id">volume</property>
    <property name="kdenlive:collapsed">0</property>
   </filter>
  </entry>
  <blank length="00:00:04.067"/>
  <entry producer="chain10" in="00:00:00.533" out="00:00:06.267">
   <property name="kdenlive:id">77</property>
   <property name="kdenlive:activeeffect">0</property>
   <filter id="filter6">
    <property name="window">75</property>
    <property name="max_gain">20dB</property>
    <property name="level">00:00:00.533=7</property>
    <property name="mlt_service">volume</property>
    <property name="kdenlive_id">volume</property>
    <property name="kdenlive:collapsed">0</property>
   </filter>
  </entry>
  <blank length="00:00:00.333"/>
  <entry producer="chain11" in="00:00:00.000" out="00:00:07.600">
   <property name="kdenlive:id">76</property>
   <property name="kdenlive:activeeffect">0</property>
   <filter id="filter7">
    <property name="window">75</property>
    <property name="max_gain">20dB</property>
    <property name="level">00:00:00.000=7</property>
    <property name="mlt_service">volume</property>
    <property name="kdenlive_id">volume</property>
    <property name="kdenlive:collapsed">0</property>
   </filter>
  </entry>
  <blank length="00:00:03.267"/>
  <entry producer="chain12" in="00:00:00.000" out="00:00:09.467">
   <property name="kdenlive:id">75</property>
   <property name="kdenlive:activeeffect">0</property>
   <filter id="filter8">
    <property name="window">75</property>
    <property name="max_gain">20dB</property>
    <property name="level">00:00:00.000=7</property>
    <property name="mlt_service">volume</property>
    <property name="kdenlive_id">volume</property>
    <property name="kdenlive:collapsed">0</property>
   </filter>
  </entry>
  <entry producer="chain13" in="00:00:00.000" out="00:00:04.200">
   <property name="kdenlive:id">74</property>
   <property name="kdenlive:activeeffect">0</property>
   <filter id="filter9">
    <property name="window">75</property>
    <property name="max_gain">20dB</property>
    <property name="level">00:00:00.000=10</property>
    <property name="mlt_service">volume</property>
    <property name="kdenlive_id">volume</property>
    <property name="kdenlive:collapsed">0</property>
   </filter>
  </entry>
  <entry producer="chain14" in="00:00:00.667" out="00:00:06.267">
   <property name="kdenlive:id">73</property>
   <property name="kdenlive:activeeffect">0</property>
   <filter id="filter10">
    <property name="window">75</property>
    <property name="max_gain">20dB</property>
    <property name="level">00:00:00.667=10</property>
    <property name="mlt_service">volume</property>
    <property name="kdenlive_id">volume</property>
    <property name="kdenlive:collapsed">0</property>
   </filter>
  </entry>
  <entry producer="chain15" in="00:00:00.000" out="00:00:06.467">
   <property name="kdenlive:id">72</property>
   <property name="kdenlive:activeeffect">0</property>
   <filter id="filter11">
    <property name="window">75</property>
    <property name="max_gain">20dB</property>
    <property name="level">00:00:00.000=10</property>
    <property name="mlt_service">volume</property>
    <property name="kdenlive_id">volume</property>
    <property name="kdenlive:collapsed">0</property>
   </filter>
  </entry>
  <entry producer="chain16" in="00:00:00.333" out="00:00:03.733">
   <property name="kdenlive:id">71</property>
   <filter id="filter12">
    <property name="window">75</property>
    <property name="max_gain">20dB</property>
    <property name="level">00:00:00.333=10</property>
    <property name="mlt_service">volume</property>
    <property name="kdenlive_id">volume</property>
    <property name="kdenlive:collapsed">0</property>
   </filter>
  </entry>
  <blank length="00:00:00.467"/>
  <entry producer="chain17" in="00:00:00.333" out="00:00:08.400">
   <property name="kdenlive:id">70</property>
   <filter id="filter13">
    <property name="window">75</property>
    <property name="max_gain">20dB</property>
    <property name="level">00:00:00.333=10</property>
    <property name="mlt_service">volume</property>
    <property name="kdenlive_id">volume</property>
    <property name="kdenlive:collapsed">0</property>
   </filter>
  </entry>
  <blank length="00:00:02.467"/>
  <entry producer="chain18" in="00:00:00.000" out="00:00:03.067">
   <property name="kdenlive:id">69</property>
   <property name="kdenlive:activeeffect">0</property>
   <filter id="filter14">
    <property name="window">75</property>
    <property name="max_gain">20dB</property>
    <property name="level">00:00:00.000=15</property>
    <property name="mlt_service">volume</property>
    <property name="kdenlive_id">volume</property>
    <property name="kdenlive:collapsed">0</property>
   </filter>
  </entry>
 </playlist>
 <playlist id="playlist3">
  <property name="kdenlive:audio_track">1</property>
 </playlist>
 <tractor id="tractor1" in="00:00:00.000" out="00:02:43.533">
  <property name="kdenlive:audio_track">1</property>
  <property name="kdenlive:trackheight">67</property>
  <property name="kdenlive:timeline_active">0</property>
  <property name="kdenlive:collapsed">0</property>
  <property name="kdenlive:track_name">Text</property>
  <property name="kdenlive:thumbs_format"/>
  <property name="kdenlive:audio_rec"/>
  <track hide="video" producer="playlist2"/>
  <track hide="video" producer="playlist3"/>
  <filter id="filter15">
   <property name="window">75</property>
   <property name="max_gain">20dB</property>
   <property name="mlt_service">volume</property>
   <property name="internal_added">237</property>
   <property name="disable">1</property>
  </filter>
  <filter id="filter16">
   <property name="channel">-1</property>
   <property name="mlt_service">panner</property>
   <property name="internal_added">237</property>
   <property name="start">0.5</property>
   <property name="disable">1</property>
  </filter>
  <filter id="filter17">
   <property name="iec_scale">0</property>
   <property name="mlt_service">audiolevel</property>
   <property name="dbpeak">1</property>
   <property name="disable">1</property>
  </filter>
 </tractor>
 <chain id="chain19" out="00:04:16.533">
  <property name="length">3849</property>
  <property name="eof">pause</property>
  <property name="resource">background_de.mp4</property>
  <property name="mlt_service">avformat-novalidate</property>
  <property name="seekable">1</property>
  <property name="audio_index">-1</property>
  <property name="video_index">0</property>
  <property name="vstream">0</property>
  <property name="kdenlive:folderid">-1</property>
  <property name="kdenlive:id">68</property>
  <property name="mute_on_pause">0</property>
  <property name="kdenlive:clip_type">2</property>
  <property name="kdenlive:file_size">13644259</property>
  <property name="kdenlive:file_hash">93a7b81b3a3150eed1b112c4c4aeceb2</property>
  <property name="meta.media.nb_streams">1</property>
  <property name="meta.media.0.stream.type">video</property>
  <property name="meta.media.0.stream.frame_rate">15</property>
  <property name="meta.media.0.stream.sample_aspect_ratio">1</property>
  <property name="meta.media.0.codec.width">1594</property>
  <property name="meta.media.0.codec.height">896</property>
  <property name="meta.media.0.codec.rotate">0</property>
  <property name="meta.media.0.codec.pix_fmt">yuv444p</property>
  <property name="meta.media.0.codec.sample_aspect_ratio">1</property>
  <property name="meta.media.0.codec.colorspace">709</property>
  <property name="meta.media.0.codec.color_trc">1</property>
  <property name="meta.media.0.codec.name">h264</property>
  <property name="meta.media.0.codec.long_name">H.264 / AVC / MPEG-4 AVC / MPEG-4 part 10</property>
  <property name="meta.media.0.codec.bit_rate">424874</property>
  <property name="meta.attr.0.stream.creation_time.markup">2023-11-15T12:13:52.000000Z</property>
  <property name="meta.attr.0.stream.handler_name.markup">VideoHandler</property>
  <property name="meta.attr.0.stream.vendor_id.markup">[0][0][0][0]</property>
  <property name="meta.attr.major_brand.markup">mp42</property>
  <property name="meta.attr.minor_version.markup">0</property>
  <property name="meta.attr.compatible_brands.markup">mp42mp41isomiso2</property>
  <property name="meta.attr.creation_time.markup">2023-11-15T12:13:52.000000Z</property>
  <property name="meta.attr.encoder.markup">x264</property>
  <property name="meta.media.sample_aspect_num">1</property>
  <property name="meta.media.sample_aspect_den">1</property>
  <property name="meta.media.frame_rate_num">15</property>
  <property name="meta.media.frame_rate_den">1</property>
  <property name="meta.media.colorspace">709</property>
  <property name="meta.media.color_trc">1</property>
  <property name="meta.media.has_b_frames">0</property>
  <property name="meta.media.width">1594</property>
  <property name="meta.media.height">896</property>
  <property name="meta.media.color_range">mpeg</property>
  <property name="xml">was here</property>
  <property name="meta.media.top_field_first">0</property>
  <property name="meta.media.progressive">1</property>
  <property name="set.test_audio">1</property>
  <property name="set.test_image">0</property>
 </chain>
 <producer id="producer1" in="00:00:00.000" out="00:02:22.467">
  <property name="length">2138</property>
  <property name="eof">pause</property>
  <property name="resource">1.800000:background_de.mp4</property>
  <property name="aspect_ratio">1</property>
  <property name="meta.media.nb_streams">1</property>
  <property name="meta.media.0.stream.type">video</property>
  <property name="meta.media.0.stream.frame_rate">15</property>
  <property name="meta.media.0.stream.sample_aspect_ratio">1</property>
  <property name="meta.media.0.codec.width">1594</property>
  <property name="meta.media.0.codec.height">896</property>
  <property name="meta.media.0.codec.rotate">0</property>
  <property name="meta.media.0.codec.pix_fmt">yuv444p</property>
  <property name="meta.media.0.codec.sample_aspect_ratio">1</property>
  <property name="meta.media.0.codec.colorspace">709</property>
  <property name="meta.media.0.codec.color_trc">1</property>
  <property name="meta.media.0.codec.name">h264</property>
  <property name="meta.media.0.codec.long_name">H.264 / AVC / MPEG-4 AVC / MPEG-4 part 10</property>
  <property name="meta.media.0.codec.bit_rate">424874</property>
  <property name="meta.attr.0.stream.creation_time.markup">2023-11-15T12:13:52.000000Z</property>
  <property name="meta.attr.0.stream.handler_name.markup">VideoHandler</property>
  <property name="meta.attr.0.stream.vendor_id.markup">[0][0][0][0]</property>
  <property name="meta.attr.major_brand.markup">mp42</property>
  <property name="meta.attr.minor_version.markup">0</property>
  <property name="meta.attr.compatible_brands.markup">mp42mp41isomiso2</property>
  <property name="meta.attr.creation_time.markup">2023-11-15T12:13:52.000000Z</property>
  <property name="meta.attr.encoder.markup">x264</property>
  <property name="seekable">1</property>
  <property name="meta.media.sample_aspect_num">1</property>
  <property name="meta.media.sample_aspect_den">1</property>
  <property name="audio_index">-1</property>
  <property name="video_index">0</property>
  <property name="warp_speed">1.8</property>
  <property name="warp_resource">background_de.mp4</property>
  <property name="mlt_service">timewarp</property>
  <property name="vstream">0</property>
  <property name="astream">-1</property>
  <property name="set.test_audio">1</property>
  <property name="set.test_image">0</property>
  <property name="kdenlive:id">68</property>
  <property name="warp_pitch">0</property>
  <property name="meta.media.frame_rate_num">15</property>
  <property name="meta.media.frame_rate_den">1</property>
  <property name="meta.media.colorspace">709</property>
  <property name="meta.media.color_trc">1</property>
  <property name="meta.media.has_b_frames">0</property>
  <property name="meta.media.width">1594</property>
  <property name="meta.media.height">896</property>
  <property name="meta.media.color_range">mpeg</property>
  <property name="meta.media.top_field_first">0</property>
  <property name="meta.media.progressive">1</property>
 </producer>
 <producer id="producer2" in="00:00:00.000" out="00:03:33.800">
  <property name="length">3208</property>
  <property name="eof">pause</property>
  <property name="resource">1.200000:background_de.mp4</property>
  <property name="aspect_ratio">1</property>
  <property name="meta.media.nb_streams">1</property>
  <property name="meta.media.0.stream.type">video</property>
  <property name="meta.media.0.stream.frame_rate">15</property>
  <property name="meta.media.0.stream.sample_aspect_ratio">1</property>
  <property name="meta.media.0.codec.width">1594</property>
  <property name="meta.media.0.codec.height">896</property>
  <property name="meta.media.0.codec.rotate">0</property>
  <property name="meta.media.0.codec.pix_fmt">yuv444p</property>
  <property name="meta.media.0.codec.sample_aspect_ratio">1</property>
  <property name="meta.media.0.codec.colorspace">709</property>
  <property name="meta.media.0.codec.color_trc">1</property>
  <property name="meta.media.0.codec.name">h264</property>
  <property name="meta.media.0.codec.long_name">H.264 / AVC / MPEG-4 AVC / MPEG-4 part 10</property>
  <property name="meta.media.0.codec.bit_rate">424874</property>
  <property name="meta.attr.0.stream.creation_time.markup">2023-11-15T12:13:52.000000Z</property>
  <property name="meta.attr.0.stream.handler_name.markup">VideoHandler</property>
  <property name="meta.attr.0.stream.vendor_id.markup">[0][0][0][0]</property>
  <property name="meta.attr.major_brand.markup">mp42</property>
  <property name="meta.attr.minor_version.markup">0</property>
  <property name="meta.attr.compatible_brands.markup">mp42mp41isomiso2</property>
  <property name="meta.attr.creation_time.markup">2023-11-15T12:13:52.000000Z</property>
  <property name="meta.attr.encoder.markup">x264</property>
  <property name="seekable">1</property>
  <property name="meta.media.sample_aspect_num">1</property>
  <property name="meta.media.sample_aspect_den">1</property>
  <property name="audio_index">-1</property>
  <property name="video_index">0</property>
  <property name="warp_speed">1.2</property>
  <property name="warp_resource">background_de.mp4</property>
  <property name="mlt_service">timewarp</property>
  <property name="vstream">0</property>
  <property name="astream">-1</property>
  <property name="set.test_audio">1</property>
  <property name="set.test_image">0</property>
  <property name="kdenlive:id">68</property>
  <property name="warp_pitch">0</property>
  <property name="meta.media.frame_rate_num">15</property>
  <property name="meta.media.frame_rate_den">1</property>
  <property name="meta.media.colorspace">709</property>
  <property name="meta.media.color_trc">1</property>
  <property name="meta.media.has_b_frames">0</property>
  <property name="meta.media.width">1594</property>
  <property name="meta.media.height">896</property>
  <property name="meta.media.color_range">mpeg</property>
  <property name="meta.media.top_field_first">0</property>
  <property name="meta.media.progressive">1</property>
 </producer>
 <playlist id="playlist4">
  <entry producer="chain19" in="00:00:00.000" out="00:00:08.867">
   <property name="kdenlive:id">68</property>
  </entry>
  <entry producer="producer1" in="00:00:04.933" out="00:00:08.000">
   <property name="kdenlive:id">68</property>
  </entry>
  <entry producer="chain19" in="00:00:14.600" out="00:00:39.933">
   <property name="kdenlive:id">68</property>
  </entry>
  <entry producer="chain19" in="00:01:57.733" out="00:03:59.933">
   <property name="kdenlive:id">68</property>
  </entry>
  <entry producer="producer2" in="00:03:24.000" out="00:03:29.267">
   <property name="kdenlive:id">68</property>
  </entry>
 </playlist>
 <playlist id="playlist5"/>
 <tractor id="tractor2" in="00:00:00.000" out="00:02:45.000">
  <property name="kdenlive:trackheight">67</property>
  <property name="kdenlive:timeline_active">0</property>
  <property name="kdenlive:collapsed">0</property>
  <property name="kdenlive:track_name">Background</property>
  <property name="kdenlive:thumbs_format"/>
  <property name="kdenlive:audio_rec"/>
  <track hide="audio" producer="playlist4"/>
  <track hide="audio" producer="playlist5"/>
 </tractor>
 <producer id="producer3" in="00:00:00.000" out="00:00:54.667">
  <property name="length">821</property>
  <property name="eof">pause</property>
  <property name="resource">3.250000:00_intro_de.mp4</property>
  <property name="aspect_ratio">1</property>
  <property name="meta.media.nb_streams">1</property>
  <property name="meta.media.0.stream.type">video</property>
  <property name="meta.media.0.stream.frame_rate">15</property>
  <property name="meta.media.0.stream.sample_aspect_ratio">1</property>
  <property name="meta.media.0.codec.width">1284</property>
  <property name="meta.media.0.codec.height">722</property>
  <property name="meta.media.0.codec.rotate">0</property>
  <property name="meta.media.0.codec.pix_fmt">yuv444p</property>
  <property name="meta.media.0.codec.sample_aspect_ratio">1</property>
  <property name="meta.media.0.codec.colorspace">709</property>
  <property name="meta.media.0.codec.color_trc">1</property>
  <property name="meta.media.0.codec.name">h264</property>
  <property name="meta.media.0.codec.long_name">H.264 / AVC / MPEG-4 AVC / MPEG-4 part 10</property>
  <property name="meta.media.0.codec.bit_rate">513708</property>
  <property name="meta.attr.0.stream.creation_time.markup">2023-11-15T14:00:21.000000Z</property>
  <property name="meta.attr.0.stream.handler_name.markup">VideoHandler</property>
  <property name="meta.attr.0.stream.vendor_id.markup">[0][0][0][0]</property>
  <property name="meta.attr.major_brand.markup">mp42</property>
  <property name="meta.attr.minor_version.markup">0</property>
  <property name="meta.attr.compatible_brands.markup">mp42mp41isomiso2</property>
  <property name="meta.attr.creation_time.markup">2023-11-15T14:00:21.000000Z</property>
  <property name="meta.attr.encoder.markup">x264</property>
  <property name="seekable">1</property>
  <property name="meta.media.sample_aspect_num">1</property>
  <property name="meta.media.sample_aspect_den">1</property>
  <property name="audio_index">-1</property>
  <property name="video_index">0</property>
  <property name="warp_speed">3.25</property>
  <property name="warp_resource">00_intro_de.mp4</property>
  <property name="mlt_service">timewarp</property>
  <property name="vstream">0</property>
  <property name="astream">-1</property>
  <property name="set.test_audio">1</property>
  <property name="set.test_image">0</property>
  <property name="kdenlive:id">102</property>
  <property name="warp_pitch">0</property>
  <property name="meta.media.frame_rate_num">15</property>
  <property name="meta.media.frame_rate_den">1</property>
  <property name="meta.media.colorspace">709</property>
  <property name="meta.media.color_trc">1</property>
  <property name="meta.media.has_b_frames">0</property>
  <property name="meta.media.width">1284</property>
  <property name="meta.media.height">722</property>
  <property name="meta.media.color_range">mpeg</property>
  <property name="meta.media.top_field_first">0</property>
  <property name="meta.media.progressive">1</property>
 </producer>
 <producer id="producer4" in="00:00:00.000" out="00:00:12.067">
  <property name="length">183</property>
  <property name="eof">pause</property>
  <property name="resource">2.000000:01_account_de.mp4</property>
  <property name="aspect_ratio">1</property>
  <property name="meta.media.nb_streams">1</property>
  <property name="meta.media.0.stream.type">video</property>
  <property name="meta.media.0.stream.frame_rate">15</property>
  <property name="meta.media.0.stream.sample_aspect_ratio">1</property>
  <property name="meta.media.0.codec.width">1284</property>
  <property name="meta.media.0.codec.height">722</property>
  <property name="meta.media.0.codec.rotate">0</property>
  <property name="meta.media.0.codec.pix_fmt">yuv444p</property>
  <property name="meta.media.0.codec.sample_aspect_ratio">1</property>
  <property name="meta.media.0.codec.colorspace">709</property>
  <property name="meta.media.0.codec.color_trc">1</property>
  <property name="meta.media.0.codec.name">h264</property>
  <property name="meta.media.0.codec.long_name">H.264 / AVC / MPEG-4 AVC / MPEG-4 part 10</property>
  <property name="meta.media.0.codec.bit_rate">447950</property>
  <property name="meta.attr.0.stream.creation_time.markup">2023-11-15T14:10:17.000000Z</property>
  <property name="meta.attr.0.stream.handler_name.markup">VideoHandler</property>
  <property name="meta.attr.0.stream.vendor_id.markup">[0][0][0][0]</property>
  <property name="meta.attr.major_brand.markup">mp42</property>
  <property name="meta.attr.minor_version.markup">0</property>
  <property name="meta.attr.compatible_brands.markup">mp42mp41isomiso2</property>
  <property name="meta.attr.creation_time.markup">2023-11-15T14:10:17.000000Z</property>
  <property name="meta.attr.encoder.markup">x264</property>
  <property name="seekable">1</property>
  <property name="meta.media.sample_aspect_num">1</property>
  <property name="meta.media.sample_aspect_den">1</property>
  <property name="audio_index">-1</property>
  <property name="video_index">0</property>
  <property name="warp_speed">2</property>
  <property name="warp_resource">01_account_de.mp4</property>
  <property name="mlt_service">timewarp</property>
  <property name="vstream">0</property>
  <property name="astream">-1</property>
  <property name="set.test_audio">1</property>
  <property name="set.test_image">0</property>
  <property name="kdenlive:id">103</property>
  <property name="warp_pitch">0</property>
  <property name="meta.media.frame_rate_num">15</property>
  <property name="meta.media.frame_rate_den">1</property>
  <property name="meta.media.colorspace">709</property>
  <property name="meta.media.color_trc">1</property>
  <property name="meta.media.has_b_frames">0</property>
  <property name="meta.media.width">1284</property>
  <property name="meta.media.height">722</property>
  <property name="meta.media.color_range">mpeg</property>
  <property name="meta.media.top_field_first">0</property>
  <property name="meta.media.progressive">1</property>
 </producer>
 <producer id="producer5" in="00:00:00.000" out="00:00:16.400">
  <property name="length">247</property>
  <property name="eof">pause</property>
  <property name="resource">2.800000:02_budget_de.mp4</property>
  <property name="aspect_ratio">1</property>
  <property name="meta.media.nb_streams">1</property>
  <property name="meta.media.0.stream.type">video</property>
  <property name="meta.media.0.stream.frame_rate">15</property>
  <property name="meta.media.0.stream.sample_aspect_ratio">1</property>
  <property name="meta.media.0.codec.width">1284</property>
  <property name="meta.media.0.codec.height">722</property>
  <property name="meta.media.0.codec.rotate">0</property>
  <property name="meta.media.0.codec.pix_fmt">yuv444p</property>
  <property name="meta.media.0.codec.sample_aspect_ratio">1</property>
  <property name="meta.media.0.codec.colorspace">709</property>
  <property name="meta.media.0.codec.color_trc">1</property>
  <property name="meta.media.0.codec.name">h264</property>
  <property name="meta.media.0.codec.long_name">H.264 / AVC / MPEG-4 AVC / MPEG-4 part 10</property>
  <property name="meta.media.0.codec.bit_rate">150565</property>
  <property name="meta.attr.0.stream.creation_time.markup">2023-11-15T14:13:14.000000Z</property>
  <property name="meta.attr.0.stream.handler_name.markup">VideoHandler</property>
  <property name="meta.attr.0.stream.vendor_id.markup">[0][0][0][0]</property>
  <property name="meta.attr.major_brand.markup">mp42</property>
  <property name="meta.attr.minor_version.markup">0</property>
  <property name="meta.attr.compatible_brands.markup">mp42mp41isomiso2</property>
  <property name="meta.attr.creation_time.markup">2023-11-15T14:13:14.000000Z</property>
  <property name="meta.attr.encoder.markup">x264</property>
  <property name="seekable">1</property>
  <property name="meta.media.sample_aspect_num">1</property>
  <property name="meta.media.sample_aspect_den">1</property>
  <property name="audio_index">-1</property>
  <property name="video_index">0</property>
  <property name="warp_speed">2.8</property>
  <property name="warp_resource">02_budget_de.mp4</property>
  <property name="mlt_service">timewarp</property>
  <property name="vstream">0</property>
  <property name="astream">-1</property>
  <property name="set.test_audio">1</property>
  <property name="set.test_image">0</property>
  <property name="kdenlive:id">104</property>
  <property name="warp_pitch">0</property>
  <property name="meta.media.frame_rate_num">15</property>
  <property name="meta.media.frame_rate_den">1</property>
  <property name="meta.media.colorspace">709</property>
  <property name="meta.media.color_trc">1</property>
  <property name="meta.media.has_b_frames">0</property>
  <property name="meta.media.width">1284</property>
  <property name="meta.media.height">722</property>
  <property name="meta.media.color_range">mpeg</property>
  <property name="meta.media.top_field_first">0</property>
  <property name="meta.media.progressive">1</property>
 </producer>
 <producer id="producer6" in="00:00:00.000" out="00:00:18.400">
  <property name="length">277</property>
  <property name="eof">pause</property>
  <property name="resource">3.500000:03_bills_de.mp4</property>
  <property name="aspect_ratio">1</property>
  <property name="meta.media.nb_streams">1</property>
  <property name="meta.media.0.stream.type">video</property>
  <property name="meta.media.0.stream.frame_rate">15</property>
  <property name="meta.media.0.stream.sample_aspect_ratio">1</property>
  <property name="meta.media.0.codec.width">1284</property>
  <property name="meta.media.0.codec.height">722</property>
  <property name="meta.media.0.codec.rotate">0</property>
  <property name="meta.media.0.codec.pix_fmt">yuv444p</property>
  <property name="meta.media.0.codec.sample_aspect_ratio">1</property>
  <property name="meta.media.0.codec.colorspace">709</property>
  <property name="meta.media.0.codec.color_trc">1</property>
  <property name="meta.media.0.codec.name">h264</property>
  <property name="meta.media.0.codec.long_name">H.264 / AVC / MPEG-4 AVC / MPEG-4 part 10</property>
  <property name="meta.media.0.codec.bit_rate">285295</property>
  <property name="meta.attr.0.stream.creation_time.markup">2023-11-15T14:17:43.000000Z</property>
  <property name="meta.attr.0.stream.handler_name.markup">VideoHandler</property>
  <property name="meta.attr.0.stream.vendor_id.markup">[0][0][0][0]</property>
  <property name="meta.attr.major_brand.markup">mp42</property>
  <property name="meta.attr.minor_version.markup">0</property>
  <property name="meta.attr.compatible_brands.markup">mp42mp41isomiso2</property>
  <property name="meta.attr.creation_time.markup">2023-11-15T14:17:43.000000Z</property>
  <property name="meta.attr.encoder.markup">x264</property>
  <property name="seekable">1</property>
  <property name="meta.media.sample_aspect_num">1</property>
  <property name="meta.media.sample_aspect_den">1</property>
  <property name="audio_index">-1</property>
  <property name="video_index">0</property>
  <property name="warp_speed">3.5</property>
  <property name="warp_resource">03_bills_de.mp4</property>
  <property name="mlt_service">timewarp</property>
  <property name="vstream">0</property>
  <property name="astream">-1</property>
  <property name="set.test_audio">1</property>
  <property name="set.test_image">0</property>
  <property name="kdenlive:id">106</property>
  <property name="warp_pitch">0</property>
  <property name="meta.media.frame_rate_num">15</property>
  <property name="meta.media.frame_rate_den">1</property>
  <property name="meta.media.colorspace">709</property>
  <property name="meta.media.color_trc">1</property>
  <property name="meta.media.has_b_frames">0</property>
  <property name="meta.media.width">1284</property>
  <property name="meta.media.height">722</property>
  <property name="meta.media.color_range">mpeg</property>
  <property name="meta.media.top_field_first">0</property>
  <property name="meta.media.progressive">1</property>
 </producer>
 <producer id="producer7" in="00:00:00.000" out="00:00:09.467">
  <property name="length">143</property>
  <property name="eof">pause</property>
  <property name="resource">3.500000:04_exchange_de.mp4</property>
  <property name="aspect_ratio">1</property>
  <property name="meta.media.nb_streams">1</property>
  <property name="meta.media.0.stream.type">video</property>
  <property name="meta.media.0.stream.frame_rate">15</property>
  <property name="meta.media.0.stream.sample_aspect_ratio">1</property>
  <property name="meta.media.0.codec.width">1284</property>
  <property name="meta.media.0.codec.height">722</property>
  <property name="meta.media.0.codec.rotate">0</property>
  <property name="meta.media.0.codec.pix_fmt">yuv444p</property>
  <property name="meta.media.0.codec.sample_aspect_ratio">1</property>
  <property name="meta.media.0.codec.colorspace">709</property>
  <property name="meta.media.0.codec.color_trc">1</property>
  <property name="meta.media.0.codec.name">h264</property>
  <property name="meta.media.0.codec.long_name">H.264 / AVC / MPEG-4 AVC / MPEG-4 part 10</property>
  <property name="meta.media.0.codec.bit_rate">332019</property>
  <property name="meta.attr.0.stream.creation_time.markup">2023-11-15T14:20:58.000000Z</property>
  <property name="meta.attr.0.stream.handler_name.markup">VideoHandler</property>
  <property name="meta.attr.0.stream.vendor_id.markup">[0][0][0][0]</property>
  <property name="meta.attr.major_brand.markup">mp42</property>
  <property name="meta.attr.minor_version.markup">0</property>
  <property name="meta.attr.compatible_brands.markup">mp42mp41isomiso2</property>
  <property name="meta.attr.creation_time.markup">2023-11-15T14:20:58.000000Z</property>
  <property name="meta.attr.encoder.markup">x264</property>
  <property name="seekable">1</property>
  <property name="meta.media.sample_aspect_num">1</property>
  <property name="meta.media.sample_aspect_den">1</property>
  <property name="audio_index">-1</property>
  <property name="video_index">0</property>
  <property name="warp_speed">3.5</property>
  <property name="warp_resource">04_exchange_de.mp4</property>
  <property name="mlt_service">timewarp</property>
  <property name="vstream">0</property>
  <property name="astream">-1</property>
  <property name="set.test_audio">1</property>
  <property name="set.test_image">0</property>
  <property name="kdenlive:id">107</property>
  <property name="warp_pitch">0</property>
  <property name="meta.media.frame_rate_num">15</property>
  <property name="meta.media.frame_rate_den">1</property>
  <property name="meta.media.colorspace">709</property>
  <property name="meta.media.color_trc">1</property>
  <property name="meta.media.has_b_frames">0</property>
  <property name="meta.media.width">1284</property>
  <property name="meta.media.height">722</property>
  <property name="meta.media.color_range">mpeg</property>
  <property name="meta.media.top_field_first">0</property>
  <property name="meta.media.progressive">1</property>
 </producer>
 <chain id="chain20" out="00:00:22.800">
  <property name="length">343</property>
  <property name="eof">pause</property>
  <property name="resource">05_metrics_de.mp4</property>
  <property name="mlt_service">avformat-novalidate</property>
  <property name="seekable">1</property>
  <property name="audio_index">-1</property>
  <property name="video_index">0</property>
  <property name="vstream">0</property>
  <property name="kdenlive:folderid">-1</property>
  <property name="kdenlive:id">108</property>
  <property name="mute_on_pause">0</property>
  <property name="kdenlive:clip_type">2</property>
  <property name="kdenlive:file_size">738107</property>
  <property name="kdenlive:file_hash">34568617dda768d380b9defbc969dc8b</property>
  <property name="meta.media.nb_streams">1</property>
  <property name="meta.media.0.stream.type">video</property>
  <property name="meta.media.0.stream.frame_rate">15</property>
  <property name="meta.media.0.stream.sample_aspect_ratio">1</property>
  <property name="meta.media.0.codec.width">1284</property>
  <property name="meta.media.0.codec.height">722</property>
  <property name="meta.media.0.codec.rotate">0</property>
  <property name="meta.media.0.codec.pix_fmt">yuv444p</property>
  <property name="meta.media.0.codec.sample_aspect_ratio">1</property>
  <property name="meta.media.0.codec.colorspace">709</property>
  <property name="meta.media.0.codec.color_trc">1</property>
  <property name="meta.media.0.codec.name">h264</property>
  <property name="meta.media.0.codec.long_name">H.264 / AVC / MPEG-4 AVC / MPEG-4 part 10</property>
  <property name="meta.media.0.codec.bit_rate">257424</property>
  <property name="meta.attr.0.stream.creation_time.markup">2023-11-15T14:25:02.000000Z</property>
  <property name="meta.attr.0.stream.handler_name.markup">VideoHandler</property>
  <property name="meta.attr.0.stream.vendor_id.markup">[0][0][0][0]</property>
  <property name="meta.attr.major_brand.markup">mp42</property>
  <property name="meta.attr.minor_version.markup">0</property>
  <property name="meta.attr.compatible_brands.markup">mp42mp41isomiso2</property>
  <property name="meta.attr.creation_time.markup">2023-11-15T14:25:02.000000Z</property>
  <property name="meta.attr.encoder.markup">x264</property>
  <property name="meta.media.sample_aspect_num">1</property>
  <property name="meta.media.sample_aspect_den">1</property>
  <property name="meta.media.frame_rate_num">15</property>
  <property name="meta.media.frame_rate_den">1</property>
  <property name="meta.media.colorspace">709</property>
  <property name="meta.media.color_trc">1</property>
  <property name="meta.media.has_b_frames">0</property>
  <property name="meta.media.width">1284</property>
  <property name="meta.media.height">722</property>
  <property name="meta.media.color_range">mpeg</property>
  <property name="xml">was here</property>
  <property name="meta.media.top_field_first">0</property>
  <property name="meta.media.progressive">1</property>
  <property name="set.test_audio">1</property>
  <property name="set.test_image">0</property>
 </chain>
 <producer id="producer8" in="00:00:00.000" out="00:01:54.267">
  <property name="length">1715</property>
  <property name="eof">pause</property>
  <property name="resource">0.200000:05_metrics_de.mp4</property>
  <property name="aspect_ratio">1</property>
  <property name="meta.media.nb_streams">1</property>
  <property name="meta.media.0.stream.type">video</property>
  <property name="meta.media.0.stream.frame_rate">15</property>
  <property name="meta.media.0.stream.sample_aspect_ratio">1</property>
  <property name="meta.media.0.codec.width">1284</property>
  <property name="meta.media.0.codec.height">722</property>
  <property name="meta.media.0.codec.rotate">0</property>
  <property name="meta.media.0.codec.pix_fmt">yuv444p</property>
  <property name="meta.media.0.codec.sample_aspect_ratio">1</property>
  <property name="meta.media.0.codec.colorspace">709</property>
  <property name="meta.media.0.codec.color_trc">1</property>
  <property name="meta.media.0.codec.name">h264</property>
  <property name="meta.media.0.codec.long_name">H.264 / AVC / MPEG-4 AVC / MPEG-4 part 10</property>
  <property name="meta.media.0.codec.bit_rate">257424</property>
  <property name="meta.attr.0.stream.creation_time.markup">2023-11-15T14:25:02.000000Z</property>
  <property name="meta.attr.0.stream.handler_name.markup">VideoHandler</property>
  <property name="meta.attr.0.stream.vendor_id.markup">[0][0][0][0]</property>
  <property name="meta.attr.major_brand.markup">mp42</property>
  <property name="meta.attr.minor_version.markup">0</property>
  <property name="meta.attr.compatible_brands.markup">mp42mp41isomiso2</property>
  <property name="meta.attr.creation_time.markup">2023-11-15T14:25:02.000000Z</property>
  <property name="meta.attr.encoder.markup">x264</property>
  <property name="seekable">1</property>
  <property name="meta.media.sample_aspect_num">1</property>
  <property name="meta.media.sample_aspect_den">1</property>
  <property name="audio_index">-1</property>
  <property name="video_index">0</property>
  <property name="warp_speed">0.2</property>
  <property name="warp_resource">05_metrics_de.mp4</property>
  <property name="mlt_service">timewarp</property>
  <property name="vstream">0</property>
  <property name="astream">-1</property>
  <property name="set.test_audio">1</property>
  <property name="set.test_image">0</property>
  <property name="kdenlive:id">108</property>
  <property name="warp_pitch">0</property>
  <property name="meta.media.frame_rate_num">15</property>
  <property name="meta.media.frame_rate_den">1</property>
  <property name="meta.media.colorspace">709</property>
  <property name="meta.media.color_trc">1</property>
  <property name="meta.media.has_b_frames">0</property>
  <property name="meta.media.width">1284</property>
  <property name="meta.media.height">722</property>
  <property name="meta.media.color_range">mpeg</property>
  <property name="meta.media.top_field_first">0</property>
  <property name="meta.media.progressive">1</property>
 </producer>
 <playlist id="playlist6">
  <blank length="00:00:21.400"/>
  <entry producer="producer3" in="00:00:00.000" out="00:00:54.600">
   <property name="kdenlive:id">102</property>
   <filter id="filter18">
    <property name="version">0.1</property>
    <property name="mlt_service">frei0r.scale0tilt</property>
    <property name="kdenlive_id">frei0r.scale0tilt</property>
    <property name="Clip left">00:00:00.000=0</property>
    <property name="Clip right">00:00:00.000=0</property>
    <property name="Clip top">00:00:00.000=0</property>
    <property name="Clip bottom">00:00:00.000=0</property>
    <property name="Scale X">00:00:00.000=0.4</property>
    <property name="Scale Y">00:00:00.000=0.4</property>
    <property name="Tilt X">00:00:00.000=0.507519</property>
    <property name="Tilt Y">00:00:00.000=0.581655</property>
    <property name="kdenlive:collapsed">0</property>
   </filter>
  </entry>
  <entry producer="producer4" in="00:00:00.000" out="00:00:11.200">
   <property name="kdenlive:id">103</property>
   <filter id="filter19">
    <property name="version">0.1</property>
    <property name="mlt_service">frei0r.scale0tilt</property>
    <property name="kdenlive_id">frei0r.scale0tilt</property>
    <property name="Clip left">00:00:00.000=0</property>
    <property name="Clip right">00:00:00.000=0</property>
    <property name="Clip top">00:00:00.000=0</property>
    <property name="Clip bottom">00:00:00.000=0</property>
    <property name="Scale X">00:00:00.000=0.4</property>
    <property name="Scale Y">00:00:00.000=0.4</property>
    <property name="Tilt X">00:00:00.000=0.507519</property>
    <property name="Tilt Y">00:00:00.000=0.581655</property>
    <property name="kdenlive:collapsed">0</property>
   </filter>
  </entry>
  <entry producer="producer5" in="00:00:00.000" out="00:00:15.533">
   <property name="kdenlive:id">104</property>
   <filter id="filter20">
    <property name="version">0.1</property>
    <property name="mlt_service">frei0r.scale0tilt</property>
    <property name="kdenlive_id">frei0r.scale0tilt</property>
    <property name="Clip left">00:00:00.000=0</property>
    <property name="Clip right">00:00:00.000=0</property>
    <property name="Clip top">00:00:00.000=0</property>
    <property name="Clip bottom">00:00:00.000=0</property>
    <property name="Scale X">00:00:00.000=0.4</property>
    <property name="Scale Y">00:00:00.000=0.4</property>
    <property name="Tilt X">00:00:00.000=0.507519</property>
    <property name="Tilt Y">00:00:00.000=0.581655</property>
    <property name="kdenlive:collapsed">0</property>
   </filter>
  </entry>
  <entry producer="producer6" in="00:00:00.000" out="00:00:18.400">
   <property name="kdenlive:id">106</property>
   <filter id="filter21">
    <property name="version">0.1</property>
    <property name="mlt_service">frei0r.scale0tilt</property>
    <property name="kdenlive_id">frei0r.scale0tilt</property>
    <property name="Clip left">00:00:00.000=0</property>
    <property name="Clip right">00:00:00.000=0</property>
    <property name="Clip top">00:00:00.000=0</property>
    <property name="Clip bottom">00:00:00.000=0</property>
    <property name="Scale X">00:00:00.000=0.4</property>
    <property name="Scale Y">00:00:00.000=0.4</property>
    <property name="Tilt X">00:00:00.000=0.507519</property>
    <property name="Tilt Y">00:00:00.000=0.581655</property>
    <property name="kdenlive:collapsed">0</property>
   </filter>
  </entry>
  <entry producer="producer7" in="00:00:00.000" out="00:00:09.467">
   <property name="kdenlive:id">107</property>
   <filter id="filter22">
    <property name="version">0.1</property>
    <property name="mlt_service">frei0r.scale0tilt</property>
    <property name="kdenlive_id">frei0r.scale0tilt</property>
    <property name="Clip left">00:00:00.000=0</property>
    <property name="Clip right">00:00:00.000=0</property>
    <property name="Clip top">00:00:00.000=0</property>
    <property name="Clip bottom">00:00:00.000=0</property>
    <property name="Scale X">00:00:00.000=0.4</property>
    <property name="Scale Y">00:00:00.000=0.4</property>
    <property name="Tilt X">00:00:00.000=0.507519</property>
    <property name="Tilt Y">00:00:00.000=0.581655</property>
    <property name="kdenlive:collapsed">0</property>
   </filter>
  </entry>
  <entry producer="chain20" in="00:00:00.000" out="00:00:21.133">
   <property name="kdenlive:id">108</property>
   <filter id="filter23">
    <property name="version">0.1</property>
    <property name="mlt_service">frei0r.scale0tilt</property>
    <property name="kdenlive_id">frei0r.scale0tilt</property>
    <property name="Clip left">00:00:00.000=0</property>
    <property name="Clip right">00:00:00.000=0</property>
    <property name="Clip top">00:00:00.000=0</property>
    <property name="Clip bottom">00:00:00.000=0</property>
    <property name="Scale X">00:00:00.000=0.4</property>
    <property name="Scale Y">00:00:00.000=0.4</property>
    <property name="Tilt X">00:00:00.000=0.507519</property>
    <property name="Tilt Y">00:00:00.000=0.581655</property>
    <property name="kdenlive:collapsed">0</property>
   </filter>
  </entry>
  <entry producer="producer8" in="00:01:46.000" out="00:01:53.933">
   <property name="kdenlive:id">108</property>
   <property name="kdenlive:activeeffect">1</property>
   <filter id="filter24">
    <property name="version">0.1</property>
    <property name="mlt_service">frei0r.scale0tilt</property>
    <property name="kdenlive_id">frei0r.scale0tilt</property>
    <property name="Clip left">00:01:46.000=0</property>
    <property name="Clip right">00:01:46.000=0</property>
    <property name="Clip top">00:01:46.000=0</property>
    <property name="Clip bottom">00:01:46.000=0</property>
    <property name="Scale X">00:01:46.000=0.4</property>
    <property name="Scale Y">00:01:46.000=0.4</property>
    <property name="Tilt X">00:01:46.000=0.507519</property>
    <property name="Tilt Y">00:01:46.000=0.581655</property>
    <property name="kdenlive:collapsed">0</property>
   </filter>
   <filter id="filter25">
    <property name="version">0.9</property>
    <property name="mlt_service">frei0r.transparency</property>
    <property name="kdenlive_id">frei0r.transparency</property>
    <property name="0">00:01:46.000=1;00:01:48.733=0.333333;00:01:51.933=0.031746</property>
    <property name="kdenlive:collapsed">0</property>
   </filter>
  </entry>
  <blank length="00:00:03.000"/>
  <entry producer="producer20" in="00:00:00.000" out="00:00:01.867">
   <property name="kdenlive:id">48</property>
  </entry>
 </playlist>
 <playlist id="playlist7"/>
 <tractor id="tractor3" in="00:00:00.000" out="00:02:45.000">
  <property name="kdenlive:trackheight">67</property>
  <property name="kdenlive:timeline_active">0</property>
  <property name="kdenlive:collapsed">0</property>
  <property name="kdenlive:track_name">Application</property>
  <property name="kdenlive:thumbs_format"/>
  <property name="kdenlive:audio_rec"/>
  <track hide="audio" producer="playlist6"/>
  <track hide="audio" producer="playlist7"/>
 </tractor>
 <producer id="producer9" in="00:00:00.000" out="00:00:10.200">
  <property name="length">154</property>
  <property name="eof">pause</property>
  <property name="resource"/>
  <property name="meta.media.progressive">1</property>
  <property name="aspect_ratio">1</property>
  <property name="seekable">1</property>
  <property name="mlt_service">kdenlivetitle</property>
  <property name="kdenlive:duration">00:00:05:00</property>
  <property name="kdenlive:clipname">z_de_01</property>
  <property name="xmldata">&lt;kdenlivetitle duration="75" LC_NUMERIC="C" width="1596" height="894" out="74">
 &lt;item type="QGraphicsTextItem" z-index="0">
  &lt;position x="36" y="38">
   &lt;transform>1,0,0,0,1,0,0,0,1&lt;/transform>
  &lt;/position>
  &lt;content line-spacing="4" shadow="0;#64000000;3;3;3" font-underline="0" box-height="46" font="Cabin" letter-spacing="2" font-pixel-size="34" font-italic="0" typewriter="0;3;2;0;0" alignment="1" font-weight="50" box-width="1027.06" font-color="61,61,61,255">Fingrom             ... intuitiv, effizient und umfassend zu gestalten&lt;/content>
 &lt;/item>
 &lt;startviewport rect="0,0,1596,894"/>
 &lt;endviewport rect="0,0,1596,894"/>
 &lt;background color="0,0,0,0"/>
&lt;/kdenlivetitle>
</property>
  <property name="xml">was here</property>
  <property name="kdenlive:folderid">-1</property>
  <property name="kdenlive:id">88</property>
  <property name="kdenlive:clip_type">2</property>
  <property name="force_reload">0</property>
  <property name="kdenlive:file_hash">eacf1a2e99c6ed4d3205d7adb89a680f</property>
  <property name="meta.media.width">1596</property>
  <property name="meta.media.height">894</property>
 </producer>
 <producer id="producer10" in="00:00:00.000" out="00:00:10.200">
  <property name="length">154</property>
  <property name="eof">pause</property>
  <property name="resource"/>
  <property name="meta.media.progressive">1</property>
  <property name="aspect_ratio">1</property>
  <property name="seekable">1</property>
  <property name="mlt_service">kdenlivetitle</property>
  <property name="kdenlive:duration">00:00:05:00</property>
  <property name="kdenlive:clipname">z_de_02</property>
  <property name="xmldata">&lt;kdenlivetitle duration="75" LC_NUMERIC="C" width="1596" height="894" out="74">
 &lt;item type="QGraphicsTextItem" z-index="0">
  &lt;position x="12" y="5">
   &lt;transform>1,0,0,0,1,0,0,0,1&lt;/transform>
  &lt;/position>
  &lt;content line-spacing="4" shadow="0;#64000000;3;3;3" font-underline="0" box-height="86" font="Cabin" letter-spacing="1" font-pixel-size="34" font-italic="0" typewriter="1;4;2;0;0" alignment="1" font-weight="50" box-width="1208.7" font-color="61,61,61,255">Das Beste daran ist, dass Fingrom völlig frei von Werbung und Einschränkungen
 ist, so dass niemand auf seinem finanziellen Weg zurückgelassen wird.&lt;/content>
 &lt;/item>
 &lt;startviewport rect="0,0,1596,894"/>
 &lt;endviewport rect="0,0,1596,894"/>
 &lt;background color="0,0,0,0"/>
&lt;/kdenlivetitle>
</property>
  <property name="xml">was here</property>
  <property name="kdenlive:folderid">-1</property>
  <property name="kdenlive:id">87</property>
  <property name="kdenlive:clip_type">2</property>
  <property name="force_reload">0</property>
  <property name="kdenlive:file_hash">66352a4754a02c511a23c69d376ee640</property>
  <property name="meta.media.width">1596</property>
  <property name="meta.media.height">894</property>
 </producer>
 <producer id="producer11" in="00:00:00.000" out="00:00:11.000">
  <property name="length">166</property>
  <property name="eof">pause</property>
  <property name="resource"/>
  <property name="meta.media.progressive">1</property>
  <property name="aspect_ratio">1</property>
  <property name="seekable">1</property>
  <property name="mlt_service">kdenlivetitle</property>
  <property name="kdenlive:duration">00:00:05:00</property>
  <property name="kdenlive:clipname">z_de_03</property>
  <property name="xmldata">&lt;kdenlivetitle duration="75" LC_NUMERIC="C" width="1596" height="894" out="74">
 &lt;item type="QGraphicsTextItem" z-index="0">
  &lt;position x="15" y="12">
   &lt;transform>1,0,0,0,1,0,0,0,1&lt;/transform>
  &lt;/position>
  &lt;content line-spacing="4" shadow="0;#64000000;3;3;3" font-underline="0" box-height="82" font="Cabin" letter-spacing="1" font-pixel-size="32" font-italic="0" typewriter="1;4;2;0;0" alignment="1" font-weight="50" box-width="1315.53" font-color="61,61,61,255">Bevor wir uns mit den Details befassen, sollten wir uns mit den Herausforderungen 
befassen, die viele Menschen mit herkömmlichen Finanzbuchhaltungsanwendungen haben.&lt;/content>
 &lt;/item>
 &lt;startviewport rect="0,0,1596,894"/>
 &lt;endviewport rect="0,0,1596,894"/>
 &lt;background color="0,0,0,0"/>
&lt;/kdenlivetitle>
</property>
  <property name="xml">was here</property>
  <property name="kdenlive:folderid">-1</property>
  <property name="kdenlive:id">89</property>
  <property name="kdenlive:clip_type">2</property>
  <property name="force_reload">0</property>
  <property name="kdenlive:file_hash">eacf1a2e99c6ed4d3205d7adb89a680f</property>
  <property name="meta.media.width">1596</property>
  <property name="meta.media.height">894</property>
 </producer>
 <producer id="producer12" in="00:00:00.000" out="00:00:10.733">
  <property name="length">162</property>
  <property name="eof">pause</property>
  <property name="resource"/>
  <property name="meta.media.progressive">1</property>
  <property name="aspect_ratio">1</property>
  <property name="seekable">1</property>
  <property name="mlt_service">kdenlivetitle</property>
  <property name="kdenlive:duration">00:00:05:00</property>
  <property name="kdenlive:clipname">z_de_04</property>
  <property name="xmldata">&lt;kdenlivetitle duration="75" LC_NUMERIC="C" width="1596" height="894" out="74">
 &lt;item type="QGraphicsTextItem" z-index="0">
  &lt;position x="12" y="5">
   &lt;transform>1,0,0,0,1,0,0,0,1&lt;/transform>
  &lt;/position>
  &lt;content line-spacing="4" shadow="0;#64000000;3;3;3" font-underline="0" box-height="176" font="Cabin" letter-spacing="1" font-pixel-size="34" font-italic="0" typewriter="1;4;2;0;0" alignment="1" font-weight="50" box-width="1263.31" font-color="61,61,61,255">Komplexe Schnittstellen, Einschränkungen und mangelnde Inklusivität haben dazu 
geführt, dass die Nutzer nach einer besseren Lösung suchen.

&lt;/content>
 &lt;/item>
 &lt;startviewport rect="0,0,1596,894"/>
 &lt;endviewport rect="0,0,1596,894"/>
 &lt;background color="0,0,0,0"/>
&lt;/kdenlivetitle>
</property>
  <property name="xml">was here</property>
  <property name="kdenlive:folderid">-1</property>
  <property name="kdenlive:id">90</property>
  <property name="kdenlive:clip_type">2</property>
  <property name="force_reload">0</property>
  <property name="kdenlive:file_hash">eacf1a2e99c6ed4d3205d7adb89a680f</property>
  <property name="meta.media.width">1596</property>
  <property name="meta.media.height">894</property>
 </producer>
 <producer id="producer13" in="00:00:00.000" out="00:00:10.733">
  <property name="length">162</property>
  <property name="eof">pause</property>
  <property name="resource"/>
  <property name="meta.media.progressive">1</property>
  <property name="aspect_ratio">1</property>
  <property name="seekable">1</property>
  <property name="mlt_service">kdenlivetitle</property>
  <property name="kdenlive:duration">00:00:05:00</property>
  <property name="kdenlive:clipname">z_de_05</property>
  <property name="xmldata">&lt;kdenlivetitle duration="75" LC_NUMERIC="C" width="1596" height="894" out="74">
 &lt;item type="QGraphicsTextItem" z-index="0">
  &lt;position x="12" y="5">
   &lt;transform>1,0,0,0,1,0,0,0,1&lt;/transform>
  &lt;/position>
  &lt;content line-spacing="4" shadow="0;#64000000;3;3;3" font-underline="0" box-height="176" font="Cabin" letter-spacing="1" font-pixel-size="34" font-italic="0" typewriter="1;4;2;0;0" alignment="1" font-weight="50" box-width="1044.16" font-color="61,61,61,255">Fingrom hat sich zum Ziel gesetzt, diese Lücke zu schließen und ein 
Finanzmanagement-Tool anzubieten, das wirklich nutzerzentriert ist.

&lt;/content>
 &lt;/item>
 &lt;startviewport rect="0,0,1596,894"/>
 &lt;endviewport rect="0,0,1596,894"/>
 &lt;background color="0,0,0,0"/>
&lt;/kdenlivetitle>
</property>
  <property name="xml">was here</property>
  <property name="kdenlive:folderid">-1</property>
  <property name="kdenlive:id">91</property>
  <property name="kdenlive:clip_type">2</property>
  <property name="force_reload">0</property>
  <property name="kdenlive:file_hash">714c849cf50e2bbbdb8cfb5358dc403a</property>
  <property name="meta.media.width">1596</property>
  <property name="meta.media.height">894</property>
 </producer>
 <producer id="producer14" in="00:00:00.000" out="00:00:11.333">
  <property name="length">171</property>
  <property name="eof">pause</property>
  <property name="resource"/>
  <property name="meta.media.progressive">1</property>
  <property name="aspect_ratio">1</property>
  <property name="seekable">1</property>
  <property name="mlt_service">kdenlivetitle</property>
  <property name="kdenlive:duration">00:00:05:00</property>
  <property name="kdenlive:clipname">z_de_06</property>
  <property name="xmldata">&lt;kdenlivetitle duration="75" LC_NUMERIC="C" width="1596" height="894" out="74">
 &lt;item type="QGraphicsTextItem" z-index="0">
  &lt;position x="12" y="5">
   &lt;transform>1,0,0,0,1,0,0,0,1&lt;/transform>
  &lt;/position>
  &lt;content line-spacing="4" shadow="0;#64000000;3;3;3" font-underline="0" box-height="86" font="Cabin" letter-spacing="1" font-pixel-size="34" font-italic="0" typewriter="1;4;2;0;0" alignment="1" font-weight="50" box-width="1204.55" font-color="61,61,61,255">Es ermöglicht Ihnen die Verwaltung Ihrer Konten, einschließlich verschiedener 
Kontotypen und Unterstützung für mehrere Währungen und Kryptowährungen.&lt;/content>
 &lt;/item>
 &lt;startviewport rect="0,0,1596,894"/>
 &lt;endviewport rect="0,0,1596,894"/>
 &lt;background color="0,0,0,0"/>
&lt;/kdenlivetitle>
</property>
  <property name="xml">was here</property>
  <property name="kdenlive:folderid">-1</property>
  <property name="kdenlive:id">92</property>
  <property name="kdenlive:clip_type">2</property>
  <property name="force_reload">0</property>
  <property name="kdenlive:file_hash">c3680f3db8c69fa102522cee908e4fe5</property>
  <property name="meta.media.width">1596</property>
  <property name="meta.media.height">894</property>
 </producer>
 <producer id="producer15" in="00:00:00.000" out="00:00:12.667">
  <property name="length">191</property>
  <property name="eof">pause</property>
  <property name="resource"/>
  <property name="meta.media.progressive">1</property>
  <property name="aspect_ratio">1</property>
  <property name="seekable">1</property>
  <property name="mlt_service">kdenlivetitle</property>
  <property name="kdenlive:duration">00:00:05:00</property>
  <property name="kdenlive:clipname">z_de_07</property>
  <property name="xmldata">&lt;kdenlivetitle duration="75" LC_NUMERIC="C" width="1596" height="894" out="74">
 &lt;item type="QGraphicsTextItem" z-index="0">
  &lt;position x="12" y="5">
   &lt;transform>1,0,0,0,1,0,0,0,1&lt;/transform>
  &lt;/position>
  &lt;content line-spacing="3" shadow="0;#64000000;3;3;3" font-underline="0" box-height="85" font-outline-color="47,47,47,255" font="Cabin" letter-spacing="1" font-pixel-size="34" font-italic="0" typewriter="1;4;2;0;0" alignment="1" font-weight="50" font-outline="0" box-width="1280.47" font-color="61,61,61,255">Erstellen Sie mühelos Budgetkategorien und legen Sie konfigurierbare Grenzen fest, 
die monatlich erneuert werden oder auf Ihrem relativen Einkommen basieren.&lt;/content>
 &lt;/item>
 &lt;startviewport rect="0,0,1596,894"/>
 &lt;endviewport rect="0,0,1596,894"/>
 &lt;background color="0,0,0,0"/>
&lt;/kdenlivetitle>
</property>
  <property name="xml">was here</property>
  <property name="kdenlive:folderid">-1</property>
  <property name="kdenlive:id">93</property>
  <property name="kdenlive:clip_type">2</property>
  <property name="force_reload">0</property>
  <property name="kdenlive:file_hash">4f2d8e6829c0ba0bed594bea5349e5cf</property>
  <property name="meta.media.width">1596</property>
  <property name="meta.media.height">894</property>
 </producer>
 <producer id="producer16" in="00:00:00.000" out="00:00:12.667">
  <property name="length">191</property>
  <property name="eof">pause</property>
  <property name="resource"/>
  <property name="meta.media.progressive">1</property>
  <property name="aspect_ratio">1</property>
  <property name="seekable">1</property>
  <property name="mlt_service">kdenlivetitle</property>
  <property name="kdenlive:duration">00:00:05:00</property>
  <property name="kdenlive:clipname">z_de_08</property>
  <property name="xmldata">&lt;kdenlivetitle duration="75" LC_NUMERIC="C" width="1596" height="894" out="74">
 &lt;item type="QGraphicsTextItem" z-index="0">
  &lt;position x="12" y="5">
   &lt;transform>1,0,0,0,1,0,0,0,1&lt;/transform>
  &lt;/position>
  &lt;content line-spacing="4" shadow="0;#64000000;3;3;3" font-underline="0" box-height="131" font="Cabin" letter-spacing="1" font-pixel-size="34" font-italic="0" typewriter="1;4;2;0;0" alignment="1" font-weight="50" box-width="1293.67" font-color="61,61,61,255">Verwalten Sie mühelos Rechnungen, Überweisungen und Einkommenstransaktionen.

&lt;/content>
 &lt;/item>
 &lt;startviewport rect="0,0,1596,894"/>
 &lt;endviewport rect="0,0,1596,894"/>
 &lt;background color="0,0,0,0"/>
&lt;/kdenlivetitle>
</property>
  <property name="xml">was here</property>
  <property name="kdenlive:folderid">-1</property>
  <property name="kdenlive:id">94</property>
  <property name="kdenlive:clip_type">2</property>
  <property name="force_reload">0</property>
  <property name="kdenlive:file_hash">6dc7e97e436369875f65da123c097dbd</property>
  <property name="meta.media.width">1596</property>
  <property name="meta.media.height">894</property>
 </producer>
 <producer id="producer17" in="00:00:00.000" out="00:00:12.667">
  <property name="length">191</property>
  <property name="eof">pause</property>
  <property name="resource"/>
  <property name="meta.media.progressive">1</property>
  <property name="aspect_ratio">1</property>
  <property name="seekable">1</property>
  <property name="mlt_service">kdenlivetitle</property>
  <property name="kdenlive:duration">00:00:05:00</property>
  <property name="kdenlive:clipname">z_de_09</property>
  <property name="xmldata">&lt;kdenlivetitle duration="75" LC_NUMERIC="C" width="1596" height="894" out="74">
 &lt;item type="QGraphicsTextItem" z-index="0">
  &lt;position x="12" y="5">
   &lt;transform>1,0,0,0,1,0,0,0,1&lt;/transform>
  &lt;/position>
  &lt;content line-spacing="4" shadow="0;#64000000;3;3;3" font-underline="0" box-height="86" font="Cabin" letter-spacing="1" font-pixel-size="34" font-italic="0" typewriter="1;4;2;0;0" alignment="1" font-weight="50" box-width="1254.45" font-color="61,61,61,255">Setzen Sie sich finanzielle Ziele und verfolgen Sie diese, um Ihre finanziellen Ziele 
nicht aus den Augen zu verlieren.&lt;/content>
 &lt;/item>
 &lt;startviewport rect="0,0,1596,894"/>
 &lt;endviewport rect="0,0,1596,894"/>
 &lt;background color="0,0,0,0"/>
&lt;/kdenlivetitle>
</property>
  <property name="xml">was here</property>
  <property name="kdenlive:folderid">-1</property>
  <property name="kdenlive:id">95</property>
  <property name="kdenlive:clip_type">2</property>
  <property name="force_reload">0</property>
  <property name="kdenlive:file_hash">9b7378adeeb09d7a3be606fd9b7301e1</property>
  <property name="meta.media.width">1596</property>
  <property name="meta.media.height">894</property>
 </producer>
 <producer id="producer18" in="00:00:00.000" out="00:00:12.667">
  <property name="length">191</property>
  <property name="eof">pause</property>
  <property name="resource"/>
  <property name="meta.media.progressive">1</property>
  <property name="aspect_ratio">1</property>
  <property name="seekable">1</property>
  <property name="mlt_service">kdenlivetitle</property>
  <property name="kdenlive:duration">00:00:05:00</property>
  <property name="kdenlive:clipname">z_de_10</property>
  <property name="xmldata">&lt;kdenlivetitle duration="75" LC_NUMERIC="C" width="1596" height="894" out="74">
 &lt;item type="QGraphicsTextItem" z-index="0">
  &lt;position x="12" y="5">
   &lt;transform>1,0,0,0,1,0,0,0,1&lt;/transform>
  &lt;/position>
  &lt;content line-spacing="4" shadow="0;#64000000;3;3;3" font-underline="0" box-height="164" font="Cabin" letter-spacing="1" font-pixel-size="34" font-italic="0" typewriter="1;4;2;0;0" alignment="1" font-weight="50" box-width="1201.08" font-color="61,61,61,255">Halten Sie sich über die Wechselkurse auf dem Laufenden und wählen Sie Ihre 
Standardwährung, um eine umfassende Finanzübersicht zu erhalten.

&lt;/content>
 &lt;/item>
 &lt;startviewport rect="0,0,1596,894"/>
 &lt;endviewport rect="0,0,1596,894"/>
 &lt;background color="0,0,0,0"/>
&lt;/kdenlivetitle>
</property>
  <property name="xml">was here</property>
  <property name="kdenlive:folderid">-1</property>
  <property name="kdenlive:id">96</property>
  <property name="kdenlive:clip_type">2</property>
  <property name="force_reload">0</property>
  <property name="kdenlive:file_hash">4f2bc04f92bf7df5cc9ec14e378b7f34</property>
  <property name="meta.media.width">1596</property>
  <property name="meta.media.height">894</property>
 </producer>
 <producer id="producer19" in="00:00:00.000" out="00:00:12.667">
  <property name="length">191</property>
  <property name="eof">pause</property>
  <property name="resource"/>
  <property name="meta.media.progressive">1</property>
  <property name="aspect_ratio">1</property>
  <property name="seekable">1</property>
  <property name="mlt_service">kdenlivetitle</property>
  <property name="kdenlive:duration">00:00:05:00</property>
  <property name="kdenlive:clipname">z_de_11</property>
  <property name="xmldata">&lt;kdenlivetitle duration="75" LC_NUMERIC="C" width="1596" height="894" out="74">
 &lt;item type="QGraphicsTextItem" z-index="0">
  &lt;position x="12" y="5">
   &lt;transform>1,0,0,0,1,0,0,0,1&lt;/transform>
  &lt;/position>
  &lt;content line-spacing="4" shadow="0;#64000000;3;3;3" font-underline="0" box-height="42" font="Cabin" letter-spacing="1" font-pixel-size="34" font-italic="0" typewriter="1;4;2;0;0" alignment="1" font-weight="50" box-width="928.969" font-color="61,61,61,255">Fingrom begnügt sich nicht mit einer einfachen Buchführung.&lt;/content>
 &lt;/item>
 &lt;startviewport rect="0,0,1596,894"/>
 &lt;endviewport rect="0,0,1596,894"/>
 &lt;background color="0,0,0,0"/>
&lt;/kdenlivetitle>
</property>
  <property name="xml">was here</property>
  <property name="kdenlive:folderid">-1</property>
  <property name="kdenlive:id">97</property>
  <property name="kdenlive:clip_type">2</property>
  <property name="force_reload">0</property>
  <property name="kdenlive:file_hash">4e6d67d8bd1296afcba8f1c6c8374197</property>
  <property name="meta.media.width">1596</property>
  <property name="meta.media.height">894</property>
 </producer>
 <producer id="producer39" in="00:00:00.000" out="00:00:12.667">
  <property name="length">191</property>
  <property name="eof">pause</property>
  <property name="resource"/>
  <property name="meta.media.progressive">1</property>
  <property name="aspect_ratio">1</property>
  <property name="seekable">1</property>
  <property name="mlt_service">kdenlivetitle</property>
  <property name="kdenlive:duration">00:00:05:00</property>
  <property name="kdenlive:clipname">z_de_12</property>
  <property name="xmldata">&lt;kdenlivetitle duration="75" LC_NUMERIC="C" width="1596" height="894" out="74">
 &lt;item type="QGraphicsTextItem" z-index="0">
  &lt;position x="12" y="5">
   &lt;transform>1,0,0,0,1,0,0,0,1&lt;/transform>
  &lt;/position>
  &lt;content line-spacing="4" shadow="0;#64000000;3;3;3" font-underline="0" box-height="46" font="Cabin" letter-spacing="1" font-pixel-size="34" font-italic="0" typewriter="1;4;2;0;0" alignment="1" font-weight="50" box-width="1288.88" font-color="61,61,61,255">Es bietet fortschrittliche Metriken wie Budgetprognosen mit Monte-Carlo-Simulation&lt;/content>
 &lt;/item>
 &lt;startviewport rect="0,0,1596,894"/>
 &lt;endviewport rect="0,0,1596,894"/>
 &lt;background color="0,0,0,0"/>
&lt;/kdenlivetitle>
</property>
  <property name="xml">was here</property>
  <property name="kdenlive:folderid">-1</property>
  <property name="kdenlive:id">98</property>
  <property name="kdenlive:clip_type">2</property>
  <property name="force_reload">0</property>
  <property name="kdenlive:file_hash">f204da2824f9d75d34f8c5666f037144</property>
  <property name="meta.media.width">1596</property>
  <property name="meta.media.height">894</property>
 </producer>
 <producer id="producer40" in="00:00:00.000" out="00:00:12.667">
  <property name="length">191</property>
  <property name="eof">pause</property>
  <property name="resource"/>
  <property name="meta.media.progressive">1</property>
  <property name="aspect_ratio">1</property>
  <property name="seekable">1</property>
  <property name="mlt_service">kdenlivetitle</property>
  <property name="kdenlive:duration">00:00:05:00</property>
  <property name="kdenlive:clipname">z_de_13</property>
  <property name="xmldata">&lt;kdenlivetitle duration="75" LC_NUMERIC="C" width="1596" height="894" out="74">
 &lt;item type="QGraphicsTextItem" z-index="0">
  &lt;position x="12" y="5">
   &lt;transform>1,0,0,0,1,0,0,0,1&lt;/transform>
  &lt;/position>
  &lt;content line-spacing="4" shadow="0;#64000000;3;3;3" font-underline="0" box-height="101" font="Cabin" letter-spacing="1" font-pixel-size="34" font-italic="0" typewriter="1;4;2;0;0" alignment="1" font-weight="50" box-width="1227.28" font-color="61,61,61,255">Candlestick-Diagramm, Einkommensradar, Währungsverteilung, YTD-Ausgaben, 
Balkenrennen für Kategorien und mehr.&lt;/content>
 &lt;/item>
 &lt;startviewport rect="0,0,1596,894"/>
 &lt;endviewport rect="0,0,1596,894"/>
 &lt;background color="0,0,0,0"/>
&lt;/kdenlivetitle>
</property>
  <property name="xml">was here</property>
  <property name="kdenlive:folderid">-1</property>
  <property name="kdenlive:id">99</property>
  <property name="kdenlive:clip_type">2</property>
  <property name="force_reload">0</property>
  <property name="kdenlive:file_hash">0e39275a85c4ffcb128b01d1f7545fbb</property>
  <property name="meta.media.width">1596</property>
  <property name="meta.media.height">894</property>
 </producer>
 <producer id="producer41" in="00:00:00.000" out="00:00:12.667">
  <property name="length">191</property>
  <property name="eof">pause</property>
  <property name="resource"/>
  <property name="meta.media.progressive">1</property>
  <property name="aspect_ratio">1</property>
  <property name="seekable">1</property>
  <property name="mlt_service">kdenlivetitle</property>
  <property name="kdenlive:duration">00:00:05:00</property>
  <property name="kdenlive:clipname">z_de_15</property>
  <property name="xmldata">&lt;kdenlivetitle duration="75" LC_NUMERIC="C" width="1596" height="894" out="74">
 &lt;item type="QGraphicsTextItem" z-index="0">
  &lt;position x="12" y="5">
   &lt;transform>1,0,0,0,1,0,0,0,1&lt;/transform>
  &lt;/position>
  &lt;content line-spacing="4" shadow="0;#64000000;3;3;3" font-underline="0" box-height="101" font="Cabin" letter-spacing="1" font-pixel-size="34" font-italic="0" typewriter="1;4;2;0;0" alignment="1" font-weight="50" box-width="1280.5" font-color="61,61,61,255">Diese Funktionen sollen Ihnen helfen, tiefere Einblicke in Ihre Finanzen zu gewinnen 
und fundierte Entscheidungen zu treffen.&lt;/content>
 &lt;/item>
 &lt;startviewport rect="0,0,1596,894"/>
 &lt;endviewport rect="0,0,1596,894"/>
 &lt;background color="0,0,0,0"/>
&lt;/kdenlivetitle>
</property>
  <property name="xml">was here</property>
  <property name="kdenlive:folderid">-1</property>
  <property name="kdenlive:id">101</property>
  <property name="kdenlive:clip_type">2</property>
  <property name="force_reload">0</property>
  <property name="kdenlive:file_hash">c403690406c226a2d62880d3811218fd</property>
  <property name="meta.media.width">1596</property>
  <property name="meta.media.height">894</property>
 </producer>
 <playlist id="playlist8">
  <blank length="00:00:15.267"/>
  <entry producer="producer22" in="00:00:00.000" out="00:00:09.333">
   <property name="kdenlive:id">50</property>
  </entry>
  <blank length="00:00:00.467"/>
  <entry producer="producer9" in="00:00:00.000" out="00:00:04.200">
   <property name="kdenlive:id">88</property>
  </entry>
  <blank length="00:00:00.267"/>
  <entry producer="producer10" in="00:00:00.000" out="00:00:10.200">
   <property name="kdenlive:id">87</property>
  </entry>
  <blank length="00:00:02.400"/>
  <entry producer="producer11" in="00:00:00.000" out="00:00:11.000">
   <property name="kdenlive:id">89</property>
  </entry>
  <blank length="00:00:01.333"/>
  <entry producer="producer12" in="00:00:00.000" out="00:00:09.800">
   <property name="kdenlive:id">90</property>
  </entry>
  <blank length="00:00:01.067"/>
  <entry producer="producer13" in="00:00:00.000" out="00:00:09.667">
   <property name="kdenlive:id">91</property>
  </entry>
  <blank length="00:00:00.867"/>
  <entry producer="producer14" in="00:00:00.000" out="00:00:10.400">
   <property name="kdenlive:id">92</property>
  </entry>
  <blank length="00:00:01.400"/>
  <entry producer="producer15" in="00:00:00.000" out="00:00:12.267">
   <property name="kdenlive:id">93</property>
  </entry>
  <blank length="00:00:02.400"/>
  <entry producer="producer16" in="00:00:00.000" out="00:00:05.733">
   <property name="kdenlive:id">94</property>
  </entry>
  <entry producer="producer17" in="00:00:00.000" out="00:00:08.800">
   <property name="kdenlive:id">95</property>
  </entry>
  <blank length="00:00:02.400"/>
  <entry producer="producer18" in="00:00:00.000" out="00:00:09.467">
   <property name="kdenlive:id">96</property>
  </entry>
  <entry producer="producer19" in="00:00:00.000" out="00:00:04.200">
   <property name="kdenlive:id">97</property>
  </entry>
  <entry producer="producer39" in="00:00:00.000" out="00:00:05.600">
   <property name="kdenlive:id">98</property>
  </entry>
  <entry producer="producer40" in="00:00:00.000" out="00:00:09.933">
   <property name="kdenlive:id">99</property>
  </entry>
  <blank length="00:00:00.467"/>
  <entry producer="producer41" in="00:00:00.000" out="00:00:08.067">
   <property name="kdenlive:id">101</property>
  </entry>
 </playlist>
 <playlist id="playlist9"/>
 <tractor id="tractor4" in="00:00:00.000" out="00:02:37.933">
  <property name="kdenlive:trackheight">67</property>
  <property name="kdenlive:timeline_active">0</property>
  <property name="kdenlive:collapsed">0</property>
  <property name="kdenlive:track_name">Text</property>
  <property name="kdenlive:thumbs_format"/>
  <property name="kdenlive:audio_rec"/>
  <track hide="audio" producer="playlist8"/>
  <track hide="audio" producer="playlist9"/>
 </tractor>
 <tractor id="tractor5" in="00:00:00.000" out="00:02:45.000">
  <property name="kdenlive:duration">00:02:45:01</property>
  <property name="kdenlive:maxduration">2476</property>
  <property name="kdenlive:clipname">Sequence 1</property>
  <property name="kdenlive:description"/>
  <property name="kdenlive:uuid">{ff20d2f2-8ff5-4477-ab01-973293a4bf18}</property>
  <property name="kdenlive:producer_type">17</property>
  <property name="kdenlive:id">3</property>
  <property name="kdenlive:clip_type">0</property>
  <property name="kdenlive:file_hash">5a19ad36812dc33d8b2067cf5ef8c1c3</property>
  <property name="kdenlive:folderid">2</property>
  <property name="kdenlive:sequenceproperties.activeTrack">3</property>
  <property name="kdenlive:sequenceproperties.audioTarget">1</property>
  <property name="kdenlive:sequenceproperties.disablepreview">0</property>
  <property name="kdenlive:sequenceproperties.documentuuid">{ff20d2f2-8ff5-4477-ab01-973293a4bf18}</property>
  <property name="kdenlive:sequenceproperties.hasAudio">1</property>
  <property name="kdenlive:sequenceproperties.hasVideo">1</property>
  <property name="kdenlive:sequenceproperties.position">2475</property>
  <property name="kdenlive:sequenceproperties.scrollPos">223</property>
  <property name="kdenlive:sequenceproperties.tracks">4</property>
  <property name="kdenlive:sequenceproperties.tracksCount">5</property>
  <property name="kdenlive:sequenceproperties.verticalzoom">1</property>
  <property name="kdenlive:sequenceproperties.videoTarget">2</property>
  <property name="kdenlive:sequenceproperties.zonein">0</property>
  <property name="kdenlive:sequenceproperties.zoneout">75</property>
  <property name="kdenlive:sequenceproperties.zoom">8</property>
  <property name="kdenlive:sequenceproperties.groups">[
]
</property>
  <property name="kdenlive:sequenceproperties.guides">[
]
</property>
  <track producer="producer0"/>
  <track producer="tractor0"/>
  <track producer="tractor1"/>
  <track producer="tractor2"/>
  <track producer="tractor3"/>
  <track producer="tractor4"/>
  <transition id="transition0">
   <property name="a_track">0</property>
   <property name="b_track">1</property>
   <property name="mlt_service">mix</property>
   <property name="kdenlive_id">mix</property>
   <property name="internal_added">237</property>
   <property name="always_active">1</property>
   <property name="accepts_blanks">1</property>
   <property name="sum">1</property>
  </transition>
  <transition id="transition1">
   <property name="a_track">0</property>
   <property name="b_track">2</property>
   <property name="mlt_service">mix</property>
   <property name="kdenlive_id">mix</property>
   <property name="internal_added">237</property>
   <property name="always_active">1</property>
   <property name="accepts_blanks">1</property>
   <property name="sum">1</property>
  </transition>
  <transition id="transition2">
   <property name="a_track">0</property>
   <property name="b_track">3</property>
   <property name="compositing">0</property>
   <property name="distort">0</property>
   <property name="rotate_center">0</property>
   <property name="mlt_service">qtblend</property>
   <property name="always_active">1</property>
   <property name="internal_added">237</property>
  </transition>
  <transition id="transition3">
   <property name="a_track">0</property>
   <property name="b_track">4</property>
   <property name="compositing">0</property>
   <property name="distort">0</property>
   <property name="rotate_center">0</property>
   <property name="mlt_service">qtblend</property>
   <property name="always_active">1</property>
   <property name="internal_added">237</property>
  </transition>
  <transition id="transition4">
   <property name="a_track">0</property>
   <property name="b_track">5</property>
   <property name="compositing">0</property>
   <property name="distort">0</property>
   <property name="rotate_center">0</property>
   <property name="mlt_service">qtblend</property>
   <property name="always_active">1</property>
   <property name="internal_added">237</property>
  </transition>
  <filter id="filter36">
   <property name="window">75</property>
   <property name="max_gain">20dB</property>
   <property name="mlt_service">volume</property>
   <property name="internal_added">237</property>
   <property name="disable">1</property>
  </filter>
  <filter id="filter37">
   <property name="channel">-1</property>
   <property name="mlt_service">panner</property>
   <property name="internal_added">237</property>
   <property name="start">0.5</property>
   <property name="disable">1</property>
  </filter>
 </tractor>
 <chain id="chain21" out="00:04:16.533">
  <property name="length">3849</property>
  <property name="eof">pause</property>
  <property name="resource">background_de.mp4</property>
  <property name="mlt_service">avformat-novalidate</property>
  <property name="meta.media.nb_streams">1</property>
  <property name="meta.media.0.stream.type">video</property>
  <property name="meta.media.0.stream.frame_rate">15</property>
  <property name="meta.media.0.stream.sample_aspect_ratio">1</property>
  <property name="meta.media.0.codec.width">1594</property>
  <property name="meta.media.0.codec.height">896</property>
  <property name="meta.media.0.codec.rotate">0</property>
  <property name="meta.media.0.codec.pix_fmt">yuv444p</property>
  <property name="meta.media.0.codec.sample_aspect_ratio">1</property>
  <property name="meta.media.0.codec.colorspace">709</property>
  <property name="meta.media.0.codec.color_trc">1</property>
  <property name="meta.media.0.codec.name">h264</property>
  <property name="meta.media.0.codec.long_name">H.264 / AVC / MPEG-4 AVC / MPEG-4 part 10</property>
  <property name="meta.media.0.codec.bit_rate">424874</property>
  <property name="meta.attr.0.stream.creation_time.markup">2023-11-15T12:13:52.000000Z</property>
  <property name="meta.attr.0.stream.handler_name.markup">VideoHandler</property>
  <property name="meta.attr.0.stream.vendor_id.markup">[0][0][0][0]</property>
  <property name="meta.attr.major_brand.markup">mp42</property>
  <property name="meta.attr.minor_version.markup">0</property>
  <property name="meta.attr.compatible_brands.markup">mp42mp41isomiso2</property>
  <property name="meta.attr.creation_time.markup">2023-11-15T12:13:52.000000Z</property>
  <property name="meta.attr.encoder.markup">x264</property>
  <property name="seekable">1</property>
  <property name="meta.media.sample_aspect_num">1</property>
  <property name="meta.media.sample_aspect_den">1</property>
  <property name="audio_index">-1</property>
  <property name="video_index">0</property>
  <property name="vstream">0</property>
  <property name="meta.media.frame_rate_num">15</property>
  <property name="meta.media.frame_rate_den">1</property>
  <property name="meta.media.colorspace">709</property>
  <property name="meta.media.color_trc">1</property>
  <property name="meta.media.has_b_frames">0</property>
  <property name="meta.media.width">1594</property>
  <property name="meta.media.height">896</property>
  <property name="meta.media.color_range">mpeg</property>
  <property name="meta.media.top_field_first">0</property>
  <property name="meta.media.progressive">1</property>
  <property name="kdenlive:folderid">-1</property>
  <property name="kdenlive:id">68</property>
  <property name="mute_on_pause">0</property>
  <property name="kdenlive:clip_type">2</property>
  <property name="kdenlive:file_size">13644259</property>
  <property name="kdenlive:file_hash">93a7b81b3a3150eed1b112c4c4aeceb2</property>
 </chain>
 <chain id="chain22" out="00:00:03.067">
  <property name="length">47</property>
  <property name="eof">pause</property>
  <property name="resource">ch08-s03-thanks_de.m4a</property>
  <property name="mlt_service">avformat</property>
  <property name="meta.media.nb_streams">1</property>
  <property name="meta.media.0.stream.type">audio</property>
  <property name="meta.media.0.codec.sample_fmt">fltp</property>
  <property name="meta.media.0.codec.sample_rate">48000</property>
  <property name="meta.media.0.codec.channels">2</property>
  <property name="meta.media.0.codec.name">aac</property>
  <property name="meta.media.0.codec.long_name">AAC (Advanced Audio Coding)</property>
  <property name="meta.media.0.codec.bit_rate">175186</property>
  <property name="meta.attr.0.stream.creation_time.markup">2023-11-15T10:39:04.000000Z</property>
  <property name="meta.attr.0.stream.handler_name.markup">SoundHandler</property>
  <property name="meta.attr.0.stream.vendor_id.markup">[0][0][0][0]</property>
  <property name="meta.attr.major_brand.markup">mp42</property>
  <property name="meta.attr.minor_version.markup">0</property>
  <property name="meta.attr.compatible_brands.markup">mp41isom</property>
  <property name="meta.attr.creation_time.markup">2023-11-15T10:39:04.000000Z</property>
  <property name="meta.attr.date.markup">2023</property>
  <property name="meta.attr.album_artist.markup">Запись голоса</property>
  <property name="meta.attr.title.markup">ch08-s03-thanks_de</property>
  <property name="seekable">1</property>
  <property name="audio_index">0</property>
  <property name="video_index">-1</property>
  <property name="astream">0</property>
  <property name="kdenlive:folderid">-1</property>
  <property name="kdenlive:id">69</property>
  <property name="kdenlive:clip_type">1</property>
  <property name="kdenlive:file_size">70017</property>
  <property name="kdenlive:file_hash">eb2948a5c1df9fecd63a23c80a944a96</property>
  <property name="kdenlive:audio_max0">114</property>
 </chain>
 <chain id="chain23" out="00:00:08.400">
  <property name="length">127</property>
  <property name="eof">pause</property>
  <property name="resource">ch05-s03-insights_de.m4a</property>
  <property name="mlt_service">avformat</property>
  <property name="meta.media.nb_streams">1</property>
  <property name="meta.media.0.stream.type">audio</property>
  <property name="meta.media.0.codec.sample_fmt">fltp</property>
  <property name="meta.media.0.codec.sample_rate">48000</property>
  <property name="meta.media.0.codec.channels">2</property>
  <property name="meta.media.0.codec.name">aac</property>
  <property name="meta.media.0.codec.long_name">AAC (Advanced Audio Coding)</property>
  <property name="meta.media.0.codec.bit_rate">178998</property>
  <property name="meta.attr.0.stream.creation_time.markup">2023-11-15T11:36:28.000000Z</property>
  <property name="meta.attr.0.stream.handler_name.markup">SoundHandler</property>
  <property name="meta.attr.0.stream.vendor_id.markup">[0][0][0][0]</property>
  <property name="meta.attr.major_brand.markup">mp42</property>
  <property name="meta.attr.minor_version.markup">0</property>
  <property name="meta.attr.compatible_brands.markup">mp41isom</property>
  <property name="meta.attr.creation_time.markup">2023-11-15T11:36:28.000000Z</property>
  <property name="meta.attr.date.markup">2023</property>
  <property name="meta.attr.album_artist.markup">Запись голоса</property>
  <property name="meta.attr.title.markup">ch05-s03-insights_de</property>
  <property name="seekable">1</property>
  <property name="audio_index">0</property>
  <property name="video_index">-1</property>
  <property name="astream">0</property>
  <property name="kdenlive:folderid">-1</property>
  <property name="kdenlive:id">70</property>
  <property name="kdenlive:clip_type">1</property>
  <property name="kdenlive:file_size">192015</property>
  <property name="kdenlive:file_hash">58b0d167588da49a7d210d817fd33523</property>
  <property name="kdenlive:audio_max0">135</property>
 </chain>
 <chain id="chain24" out="00:00:04.267">
  <property name="length">65</property>
  <property name="eof">pause</property>
  <property name="resource">ch05-s02-list3_de.m4a</property>
  <property name="mlt_service">avformat</property>
  <property name="meta.media.nb_streams">1</property>
  <property name="meta.media.0.stream.type">audio</property>
  <property name="meta.media.0.codec.sample_fmt">fltp</property>
  <property name="meta.media.0.codec.sample_rate">48000</property>
  <property name="meta.media.0.codec.channels">2</property>
  <property name="meta.media.0.codec.name">aac</property>
  <property name="meta.media.0.codec.long_name">AAC (Advanced Audio Coding)</property>
  <property name="meta.media.0.codec.bit_rate">175156</property>
  <property name="meta.attr.0.stream.creation_time.markup">2023-11-15T11:20:45.000000Z</property>
  <property name="meta.attr.0.stream.handler_name.markup">SoundHandler</property>
  <property name="meta.attr.0.stream.vendor_id.markup">[0][0][0][0]</property>
  <property name="meta.attr.major_brand.markup">mp42</property>
  <property name="meta.attr.minor_version.markup">0</property>
  <property name="meta.attr.compatible_brands.markup">mp41isom</property>
  <property name="meta.attr.creation_time.markup">2023-11-15T11:20:45.000000Z</property>
  <property name="meta.attr.date.markup">2023</property>
  <property name="meta.attr.album_artist.markup">Запись голоса</property>
  <property name="meta.attr.title.markup">ch05-s02-list3_de</property>
  <property name="seekable">1</property>
  <property name="audio_index">0</property>
  <property name="video_index">-1</property>
  <property name="astream">0</property>
  <property name="kdenlive:folderid">-1</property>
  <property name="kdenlive:id">71</property>
  <property name="kdenlive:clip_type">1</property>
  <property name="kdenlive:file_size">96585</property>
  <property name="kdenlive:file_hash">5cc509134202625ca390aee3f9c6e3f0</property>
  <property name="kdenlive:audio_max0">114</property>
 </chain>
 <chain id="chain25" out="00:00:04.733">
  <property name="length">72</property>
  <property name="eof">pause</property>
  <property name="resource">ch05-s01-metrics_de.m4a</property>
  <property name="mlt_service">avformat</property>
  <property name="meta.media.nb_streams">1</property>
  <property name="meta.media.0.stream.type">audio</property>
  <property name="meta.media.0.codec.sample_fmt">fltp</property>
  <property name="meta.media.0.codec.sample_rate">48000</property>
  <property name="meta.media.0.codec.channels">2</property>
  <property name="meta.media.0.codec.name">aac</property>
  <property name="meta.media.0.codec.long_name">AAC (Advanced Audio Coding)</property>
  <property name="meta.media.0.codec.bit_rate">175503</property>
  <property name="meta.attr.0.stream.creation_time.markup">2023-11-15T11:03:52.000000Z</property>
  <property name="meta.attr.0.stream.handler_name.markup">SoundHandler</property>
  <property name="meta.attr.0.stream.vendor_id.markup">[0][0][0][0]</property>
  <property name="meta.attr.major_brand.markup">mp42</property>
  <property name="meta.attr.minor_version.markup">0</property>
  <property name="meta.attr.compatible_brands.markup">mp41isom</property>
  <property name="meta.attr.creation_time.markup">2023-11-15T11:03:52.000000Z</property>
  <property name="meta.attr.date.markup">2023</property>
  <property name="meta.attr.album_artist.markup">Запись голоса</property>
  <property name="meta.attr.title.markup">ch05-s01-metrics_de</property>
  <property name="seekable">1</property>
  <property name="audio_index">0</property>
  <property name="video_index">-1</property>
  <property name="astream">0</property>
  <property name="kdenlive:folderid">-1</property>
  <property name="kdenlive:id">74</property>
  <property name="kdenlive:clip_type">1</property>
  <property name="kdenlive:file_size">107136</property>
  <property name="kdenlive:file_hash">19b37048b0b505183fc7ce2dffa66906</property>
  <property name="kdenlive:audio_max0">134</property>
 </chain>
 <chain id="chain26" out="00:00:06.933">
  <property name="length">105</property>
  <property name="eof">pause</property>
  <property name="resource">ch05-s02-list2_de.m4a</property>
  <property name="mlt_service">avformat</property>
  <property name="meta.media.nb_streams">1</property>
  <property name="meta.media.0.stream.type">audio</property>
  <property name="meta.media.0.codec.sample_fmt">fltp</property>
  <property name="meta.media.0.codec.sample_rate">48000</property>
  <property name="meta.media.0.codec.channels">2</property>
  <property name="meta.media.0.codec.name">aac</property>
  <property name="meta.media.0.codec.long_name">AAC (Advanced Audio Coding)</property>
  <property name="meta.media.0.codec.bit_rate">174530</property>
  <property name="meta.attr.0.stream.creation_time.markup">2023-11-15T11:24:06.000000Z</property>
  <property name="meta.attr.0.stream.handler_name.markup">SoundHandler</property>
  <property name="meta.attr.0.stream.vendor_id.markup">[0][0][0][0]</property>
  <property name="meta.attr.major_brand.markup">mp42</property>
  <property name="meta.attr.minor_version.markup">0</property>
  <property name="meta.attr.compatible_brands.markup">mp41isom</property>
  <property name="meta.attr.creation_time.markup">2023-11-15T11:24:06.000000Z</property>
  <property name="meta.attr.date.markup">2023</property>
  <property name="meta.attr.album_artist.markup">Запись голоса</property>
  <property name="meta.attr.title.markup">ch05-s02-list2_de</property>
  <property name="seekable">1</property>
  <property name="audio_index">0</property>
  <property name="video_index">-1</property>
  <property name="astream">0</property>
  <property name="kdenlive:folderid">-1</property>
  <property name="kdenlive:id">72</property>
  <property name="kdenlive:clip_type">1</property>
  <property name="kdenlive:file_size">155463</property>
  <property name="kdenlive:file_hash">7c124f515d3df5fcbd0c5002f39f19e1</property>
  <property name="kdenlive:audio_max0">133</property>
 </chain>
 <chain id="chain27" out="00:00:06.267">
  <property name="length">95</property>
  <property name="eof">pause</property>
  <property name="resource">ch05-s02-list1_de.m4a</property>
  <property name="mlt_service">avformat</property>
  <property name="meta.media.nb_streams">1</property>
  <property name="meta.media.0.stream.type">audio</property>
  <property name="meta.media.0.codec.sample_fmt">fltp</property>
  <property name="meta.media.0.codec.sample_rate">48000</property>
  <property name="meta.media.0.codec.channels">2</property>
  <property name="meta.media.0.codec.name">aac</property>
  <property name="meta.media.0.codec.long_name">AAC (Advanced Audio Coding)</property>
  <property name="meta.media.0.codec.bit_rate">178922</property>
  <property name="meta.attr.0.stream.creation_time.markup">2023-11-15T11:15:22.000000Z</property>
  <property name="meta.attr.0.stream.handler_name.markup">SoundHandler</property>
  <property name="meta.attr.0.stream.vendor_id.markup">[0][0][0][0]</property>
  <property name="meta.attr.major_brand.markup">mp42</property>
  <property name="meta.attr.minor_version.markup">0</property>
  <property name="meta.attr.compatible_brands.markup">mp41isom</property>
  <property name="meta.attr.creation_time.markup">2023-11-15T11:15:22.000000Z</property>
  <property name="meta.attr.date.markup">2023</property>
  <property name="meta.attr.album_artist.markup">Запись голоса</property>
  <property name="meta.attr.title.markup">ch05-s02-list1_de</property>
  <property name="seekable">1</property>
  <property name="audio_index">0</property>
  <property name="video_index">-1</property>
  <property name="astream">0</property>
  <property name="kdenlive:folderid">-1</property>
  <property name="kdenlive:id">73</property>
  <property name="kdenlive:clip_type">1</property>
  <property name="kdenlive:file_size">144405</property>
  <property name="kdenlive:file_hash">f2edc0029dde90364cf4455bd6dcd41a</property>
  <property name="kdenlive:audio_max0">130</property>
 </chain>
 <chain id="chain72" out="00:00:09.467">
  <property name="length">143</property>
  <property name="eof">pause</property>
  <property name="resource">ch05-s01-exchange_de.m4a</property>
  <property name="mlt_service">avformat</property>
  <property name="meta.media.nb_streams">1</property>
  <property name="meta.media.0.stream.type">audio</property>
  <property name="meta.media.0.codec.sample_fmt">fltp</property>
  <property name="meta.media.0.codec.sample_rate">48000</property>
  <property name="meta.media.0.codec.channels">2</property>
  <property name="meta.media.0.codec.name">aac</property>
  <property name="meta.media.0.codec.long_name">AAC (Advanced Audio Coding)</property>
  <property name="meta.media.0.codec.bit_rate">177006</property>
  <property name="meta.attr.0.stream.creation_time.markup">2023-11-15T10:27:43.000000Z</property>
  <property name="meta.attr.0.stream.handler_name.markup">SoundHandler</property>
  <property name="meta.attr.0.stream.vendor_id.markup">[0][0][0][0]</property>
  <property name="meta.attr.major_brand.markup">mp42</property>
  <property name="meta.attr.minor_version.markup">0</property>
  <property name="meta.attr.compatible_brands.markup">mp41isom</property>
  <property name="meta.attr.creation_time.markup">2023-11-15T10:27:43.000000Z</property>
  <property name="meta.attr.date.markup">2023</property>
  <property name="meta.attr.album_artist.markup">Запись голоса</property>
  <property name="meta.attr.title.markup">ch05-s01-exchange_de</property>
  <property name="seekable">1</property>
  <property name="audio_index">0</property>
  <property name="video_index">-1</property>
  <property name="astream">0</property>
  <property name="kdenlive:folderid">-1</property>
  <property name="kdenlive:id">75</property>
  <property name="kdenlive:clip_type">1</property>
  <property name="kdenlive:file_size">213751</property>
  <property name="kdenlive:file_hash">303e03f23b2090864ea389e9f96c9846</property>
  <property name="kdenlive:audio_max0">109</property>
 </chain>
 <chain id="chain73" out="00:00:07.133">
  <property name="length">108</property>
  <property name="eof">pause</property>
  <property name="resource">ch03-s01-bills_de.m4a</property>
  <property name="mlt_service">avformat</property>
  <property name="meta.media.nb_streams">1</property>
  <property name="meta.media.0.stream.type">audio</property>
  <property name="meta.media.0.codec.sample_fmt">fltp</property>
  <property name="meta.media.0.codec.sample_rate">48000</property>
  <property name="meta.media.0.codec.channels">2</property>
  <property name="meta.media.0.codec.name">aac</property>
  <property name="meta.media.0.codec.long_name">AAC (Advanced Audio Coding)</property>
  <property name="meta.media.0.codec.bit_rate">176661</property>
  <property name="meta.attr.0.stream.creation_time.markup">2023-11-15T10:03:33.000000Z</property>
  <property name="meta.attr.0.stream.handler_name.markup">SoundHandler</property>
  <property name="meta.attr.0.stream.vendor_id.markup">[0][0][0][0]</property>
  <property name="meta.attr.major_brand.markup">mp42</property>
  <property name="meta.attr.minor_version.markup">0</property>
  <property name="meta.attr.compatible_brands.markup">mp41isom</property>
  <property name="meta.attr.creation_time.markup">2023-11-15T10:03:33.000000Z</property>
  <property name="meta.attr.date.markup">2023</property>
  <property name="meta.attr.album_artist.markup">Запись голоса</property>
  <property name="meta.attr.title.markup">ch03-s01-bills_de</property>
  <property name="seekable">1</property>
  <property name="audio_index">0</property>
  <property name="video_index">-1</property>
  <property name="astream">0</property>
  <property name="kdenlive:folderid">-1</property>
  <property name="kdenlive:id">77</property>
  <property name="kdenlive:clip_type">1</property>
  <property name="kdenlive:file_size">161582</property>
  <property name="kdenlive:file_hash">fd86f66be2c2a07e1bef92cfa51b9d22</property>
  <property name="kdenlive:audio_max0">121</property>
 </chain>
 <chain id="chain74" out="00:00:07.600">
  <property name="length">115</property>
  <property name="eof">pause</property>
  <property name="resource">ch04-s01-goals_de.m4a</property>
  <property name="mlt_service">avformat</property>
  <property name="meta.media.nb_streams">1</property>
  <property name="meta.media.0.stream.type">audio</property>
  <property name="meta.media.0.codec.sample_fmt">fltp</property>
  <property name="meta.media.0.codec.sample_rate">48000</property>
  <property name="meta.media.0.codec.channels">2</property>
  <property name="meta.media.0.codec.name">aac</property>
  <property name="meta.media.0.codec.long_name">AAC (Advanced Audio Coding)</property>
  <property name="meta.media.0.codec.bit_rate">181861</property>
  <property name="meta.attr.0.stream.creation_time.markup">2023-11-15T10:14:23.000000Z</property>
  <property name="meta.attr.0.stream.handler_name.markup">SoundHandler</property>
  <property name="meta.attr.0.stream.vendor_id.markup">[0][0][0][0]</property>
  <property name="meta.attr.major_brand.markup">mp42</property>
  <property name="meta.attr.minor_version.markup">0</property>
  <property name="meta.attr.compatible_brands.markup">mp41isom</property>
  <property name="meta.attr.creation_time.markup">2023-11-15T10:14:23.000000Z</property>
  <property name="meta.attr.date.markup">2023</property>
  <property name="meta.attr.album_artist.markup">Запись голоса</property>
  <property name="meta.attr.title.markup">ch04-s01-goals_de</property>
  <property name="seekable">1</property>
  <property name="audio_index">0</property>
  <property name="video_index">-1</property>
  <property name="astream">0</property>
  <property name="kdenlive:folderid">-1</property>
  <property name="kdenlive:id">76</property>
  <property name="kdenlive:clip_type">1</property>
  <property name="kdenlive:file_size">177218</property>
  <property name="kdenlive:file_hash">a63b0641661c4c44603f584c2b4bf4f4</property>
  <property name="kdenlive:audio_max0">133</property>
 </chain>
 <chain id="chain75" out="00:00:04.867">
  <property name="length">74</property>
  <property name="eof">pause</property>
  <property name="resource">ch02-s03-categories2_de.m4a</property>
  <property name="mlt_service">avformat</property>
  <property name="meta.media.nb_streams">1</property>
  <property name="meta.media.0.stream.type">audio</property>
  <property name="meta.media.0.codec.sample_fmt">fltp</property>
  <property name="meta.media.0.codec.sample_rate">48000</property>
  <property name="meta.media.0.codec.channels">2</property>
  <property name="meta.media.0.codec.name">aac</property>
  <property name="meta.media.0.codec.long_name">AAC (Advanced Audio Coding)</property>
  <property name="meta.media.0.codec.bit_rate">181169</property>
  <property name="meta.attr.0.stream.creation_time.markup">2023-11-04T16:00:11.000000Z</property>
  <property name="meta.attr.0.stream.handler_name.markup">SoundHandler</property>
  <property name="meta.attr.0.stream.vendor_id.markup">[0][0][0][0]</property>
  <property name="meta.attr.major_brand.markup">mp42</property>
  <property name="meta.attr.minor_version.markup">0</property>
  <property name="meta.attr.compatible_brands.markup">mp41isom</property>
  <property name="meta.attr.creation_time.markup">2023-11-04T16:00:11.000000Z</property>
  <property name="meta.attr.title.markup">ch02-s03-categories2_de</property>
  <property name="meta.attr.date.markup">2023</property>
  <property name="meta.attr.album_artist.markup">Запись голоса</property>
  <property name="seekable">1</property>
  <property name="audio_index">0</property>
  <property name="video_index">-1</property>
  <property name="astream">0</property>
  <property name="kdenlive:folderid">-1</property>
  <property name="kdenlive:id">78</property>
  <property name="kdenlive:clip_type">1</property>
  <property name="kdenlive:file_size">113399</property>
  <property name="kdenlive:file_hash">590539ee76c27e9c226f964ea38c696d</property>
  <property name="kdenlive:audio_max0">149</property>
 </chain>
 <chain id="chain76" out="00:00:06.133">
  <property name="length">93</property>
  <property name="eof">pause</property>
  <property name="resource">ch02-s03-categories1_de.m4a</property>
  <property name="mlt_service">avformat</property>
  <property name="meta.media.nb_streams">1</property>
  <property name="meta.media.0.stream.type">audio</property>
  <property name="meta.media.0.codec.sample_fmt">fltp</property>
  <property name="meta.media.0.codec.sample_rate">48000</property>
  <property name="meta.media.0.codec.channels">2</property>
  <property name="meta.media.0.codec.name">aac</property>
  <property name="meta.media.0.codec.long_name">AAC (Advanced Audio Coding)</property>
  <property name="meta.media.0.codec.bit_rate">180567</property>
  <property name="meta.attr.0.stream.creation_time.markup">2023-11-04T15:53:12.000000Z</property>
  <property name="meta.attr.0.stream.handler_name.markup">SoundHandler</property>
  <property name="meta.attr.0.stream.vendor_id.markup">[0][0][0][0]</property>
  <property name="meta.attr.major_brand.markup">mp42</property>
  <property name="meta.attr.minor_version.markup">0</property>
  <property name="meta.attr.compatible_brands.markup">mp41isom</property>
  <property name="meta.attr.creation_time.markup">2023-11-04T15:53:12.000000Z</property>
  <property name="meta.attr.date.markup">2023</property>
  <property name="meta.attr.album_artist.markup">Запись голоса</property>
  <property name="meta.attr.title.markup">ch02-s03-categories1_de</property>
  <property name="seekable">1</property>
  <property name="audio_index">0</property>
  <property name="video_index">-1</property>
  <property name="astream">0</property>
  <property name="kdenlive:folderid">-1</property>
  <property name="kdenlive:id">79</property>
  <property name="kdenlive:clip_type">1</property>
  <property name="kdenlive:file_size">142165</property>
  <property name="kdenlive:file_hash">7c73574293e7371a4125c42cceb16753</property>
  <property name="kdenlive:audio_max0">109</property>
 </chain>
 <chain id="chain77" out="00:00:10.467">
  <property name="length">158</property>
  <property name="eof">pause</property>
  <property name="resource">ch02-s01-accounts_de.m4a</property>
  <property name="mlt_service">avformat</property>
  <property name="meta.media.nb_streams">1</property>
  <property name="meta.media.0.stream.type">audio</property>
  <property name="meta.media.0.codec.sample_fmt">fltp</property>
  <property name="meta.media.0.codec.sample_rate">48000</property>
  <property name="meta.media.0.codec.channels">2</property>
  <property name="meta.media.0.codec.name">aac</property>
  <property name="meta.media.0.codec.long_name">AAC (Advanced Audio Coding)</property>
  <property name="meta.media.0.codec.bit_rate">177997</property>
  <property name="meta.attr.0.stream.creation_time.markup">2023-11-04T15:03:18.000000Z</property>
  <property name="meta.attr.0.stream.handler_name.markup">SoundHandler</property>
  <property name="meta.attr.0.stream.vendor_id.markup">[0][0][0][0]</property>
  <property name="meta.attr.major_brand.markup">mp42</property>
  <property name="meta.attr.minor_version.markup">0</property>
  <property name="meta.attr.compatible_brands.markup">mp41isom</property>
  <property name="meta.attr.creation_time.markup">2023-11-04T15:03:18.000000Z</property>
  <property name="meta.attr.date.markup">2023</property>
  <property name="meta.attr.album_artist.markup">Запись голоса</property>
  <property name="meta.attr.title.markup">ch02-s01-accounts_de</property>
  <property name="seekable">1</property>
  <property name="audio_index">0</property>
  <property name="video_index">-1</property>
  <property name="astream">0</property>
  <property name="kdenlive:folderid">-1</property>
  <property name="kdenlive:id">80</property>
  <property name="kdenlive:clip_type">1</property>
  <property name="kdenlive:file_size">237528</property>
  <property name="kdenlive:file_hash">c1a0ba51bae5e791d34d3375ccabab4b</property>
  <property name="kdenlive:audio_max0">153</property>
 </chain>
 <chain id="chain78" out="00:00:09.867">
  <property name="length">149</property>
  <property name="eof">pause</property>
  <property name="resource">ch01-s03-centric_de.m4a</property>
  <property name="mlt_service">avformat</property>
  <property name="meta.media.nb_streams">1</property>
  <property name="meta.media.0.stream.type">audio</property>
  <property name="meta.media.0.codec.sample_fmt">fltp</property>
  <property name="meta.media.0.codec.sample_rate">48000</property>
  <property name="meta.media.0.codec.channels">2</property>
  <property name="meta.media.0.codec.name">aac</property>
  <property name="meta.media.0.codec.long_name">AAC (Advanced Audio Coding)</property>
  <property name="meta.media.0.codec.bit_rate">182536</property>
  <property name="meta.attr.0.stream.creation_time.markup">2023-11-04T14:27:19.000000Z</property>
  <property name="meta.attr.0.stream.handler_name.markup">SoundHandler</property>
  <property name="meta.attr.0.stream.vendor_id.markup">[0][0][0][0]</property>
  <property name="meta.attr.major_brand.markup">mp42</property>
  <property name="meta.attr.minor_version.markup">0</property>
  <property name="meta.attr.compatible_brands.markup">mp41isom</property>
  <property name="meta.attr.creation_time.markup">2023-11-04T14:27:19.000000Z</property>
  <property name="meta.attr.date.markup">2023</property>
  <property name="meta.attr.album_artist.markup">Запись голоса</property>
  <property name="meta.attr.title.markup">ch01-s03-centric_de</property>
  <property name="seekable">1</property>
  <property name="audio_index">0</property>
  <property name="video_index">-1</property>
  <property name="astream">0</property>
  <property name="kdenlive:folderid">-1</property>
  <property name="kdenlive:id">81</property>
  <property name="kdenlive:clip_type">1</property>
  <property name="kdenlive:file_size">229642</property>
  <property name="kdenlive:file_hash">429cec058879126dd937f22cbacfc3e4</property>
  <property name="kdenlive:audio_max0">157</property>
 </chain>
 <chain id="chain79" out="00:00:09.467">
  <property name="length">143</property>
  <property name="eof">pause</property>
  <property name="resource">ch01-s02-complex_de.m4a</property>
  <property name="mlt_service">avformat</property>
  <property name="meta.media.nb_streams">1</property>
  <property name="meta.media.0.stream.type">audio</property>
  <property name="meta.media.0.codec.sample_fmt">fltp</property>
  <property name="meta.media.0.codec.sample_rate">48000</property>
  <property name="meta.media.0.codec.channels">2</property>
  <property name="meta.media.0.codec.name">aac</property>
  <property name="meta.media.0.codec.long_name">AAC (Advanced Audio Coding)</property>
  <property name="meta.media.0.codec.bit_rate">177916</property>
  <property name="meta.attr.0.stream.creation_time.markup">2023-11-04T13:45:01.000000Z</property>
  <property name="meta.attr.0.stream.handler_name.markup">SoundHandler</property>
  <property name="meta.attr.0.stream.vendor_id.markup">[0][0][0][0]</property>
  <property name="meta.attr.major_brand.markup">mp42</property>
  <property name="meta.attr.minor_version.markup">0</property>
  <property name="meta.attr.compatible_brands.markup">mp41isom</property>
  <property name="meta.attr.creation_time.markup">2023-11-04T13:45:01.000000Z</property>
  <property name="meta.attr.date.markup">2023</property>
  <property name="meta.attr.album_artist.markup">Запись голоса</property>
  <property name="meta.attr.title.markup">ch01-s02-complex_de</property>
  <property name="seekable">1</property>
  <property name="audio_index">0</property>
  <property name="video_index">-1</property>
  <property name="astream">0</property>
  <property name="kdenlive:folderid">-1</property>
  <property name="kdenlive:id">82</property>
  <property name="kdenlive:clip_type">1</property>
  <property name="kdenlive:file_size">215314</property>
  <property name="kdenlive:file_hash">2f636a323af714d35e1fa448ea42c94a</property>
  <property name="kdenlive:audio_max0">145</property>
 </chain>
 <chain id="chain80" out="00:00:11.333">
  <property name="length">171</property>
  <property name="eof">pause</property>
  <property name="resource">ch01-s01-challenges_de.m4a</property>
  <property name="mlt_service">avformat</property>
  <property name="meta.media.nb_streams">1</property>
  <property name="meta.media.0.stream.type">audio</property>
  <property name="meta.media.0.codec.sample_fmt">fltp</property>
  <property name="meta.media.0.codec.sample_rate">48000</property>
  <property name="meta.media.0.codec.channels">2</property>
  <property name="meta.media.0.codec.name">aac</property>
  <property name="meta.media.0.codec.long_name">AAC (Advanced Audio Coding)</property>
  <property name="meta.media.0.codec.bit_rate">179952</property>
  <property name="meta.attr.0.stream.creation_time.markup">2023-11-04T13:23:30.000000Z</property>
  <property name="meta.attr.0.stream.handler_name.markup">SoundHandler</property>
  <property name="meta.attr.0.stream.vendor_id.markup">[0][0][0][0]</property>
  <property name="meta.attr.major_brand.markup">mp42</property>
  <property name="meta.attr.minor_version.markup">0</property>
  <property name="meta.attr.compatible_brands.markup">mp41isom</property>
  <property name="meta.attr.creation_time.markup">2023-11-04T13:23:30.000000Z</property>
  <property name="meta.attr.date.markup">2023</property>
  <property name="meta.attr.album_artist.markup">Запись голоса</property>
  <property name="meta.attr.title.markup">ch01-s01-challenges_de</property>
  <property name="seekable">1</property>
  <property name="audio_index">0</property>
  <property name="video_index">-1</property>
  <property name="astream">0</property>
  <property name="kdenlive:folderid">-1</property>
  <property name="kdenlive:id">83</property>
  <property name="kdenlive:clip_type">1</property>
  <property name="kdenlive:file_size">258802</property>
  <property name="kdenlive:file_hash">4cc5d3a96de2c508d73501c496ad5083</property>
  <property name="kdenlive:audio_max0">171</property>
 </chain>
 <chain id="chain81" out="00:00:10.667">
  <property name="length">161</property>
  <property name="eof">pause</property>
  <property name="resource">ch00-s03-journey_de.m4a</property>
  <property name="mlt_service">avformat</property>
  <property name="meta.media.nb_streams">1</property>
  <property name="meta.media.0.stream.type">audio</property>
  <property name="meta.media.0.codec.sample_fmt">fltp</property>
  <property name="meta.media.0.codec.sample_rate">48000</property>
  <property name="meta.media.0.codec.channels">2</property>
  <property name="meta.media.0.codec.name">aac</property>
  <property name="meta.media.0.codec.long_name">AAC (Advanced Audio Coding)</property>
  <property name="meta.media.0.codec.bit_rate">182687</property>
  <property name="meta.attr.0.stream.creation_time.markup">2023-11-04T11:06:01.000000Z</property>
  <property name="meta.attr.0.stream.handler_name.markup">SoundHandler</property>
  <property name="meta.attr.0.stream.vendor_id.markup">[0][0][0][0]</property>
  <property name="meta.attr.major_brand.markup">mp42</property>
  <property name="meta.attr.minor_version.markup">0</property>
  <property name="meta.attr.compatible_brands.markup">mp41isom</property>
  <property name="meta.attr.creation_time.markup">2023-11-04T11:06:01.000000Z</property>
  <property name="meta.attr.title.markup">ch00-s03-journey_de</property>
  <property name="meta.attr.date.markup">2023</property>
  <property name="meta.attr.album_artist.markup">Запись голоса</property>
  <property name="seekable">1</property>
  <property name="audio_index">0</property>
  <property name="video_index">-1</property>
  <property name="astream">0</property>
  <property name="kdenlive:folderid">-1</property>
  <property name="kdenlive:id">84</property>
  <property name="kdenlive:clip_type">1</property>
  <property name="kdenlive:file_size">247951</property>
  <property name="kdenlive:file_hash">488a8325630459d8eb9bd19c22199590</property>
  <property name="kdenlive:audio_max0">155</property>
 </chain>
 <chain id="chain82" out="00:00:12.067">
  <property name="length">182</property>
  <property name="eof">pause</property>
  <property name="resource">ch00-s02-inclusive_de.m4a</property>
  <property name="mlt_service">avformat</property>
  <property name="meta.media.nb_streams">1</property>
  <property name="meta.media.0.stream.type">audio</property>
  <property name="meta.media.0.codec.sample_fmt">fltp</property>
  <property name="meta.media.0.codec.sample_rate">48000</property>
  <property name="meta.media.0.codec.channels">2</property>
  <property name="meta.media.0.codec.name">aac</property>
  <property name="meta.media.0.codec.long_name">AAC (Advanced Audio Coding)</property>
  <property name="meta.media.0.codec.bit_rate">178755</property>
  <property name="meta.attr.0.stream.creation_time.markup">2023-11-04T10:12:32.000000Z</property>
  <property name="meta.attr.0.stream.handler_name.markup">SoundHandler</property>
  <property name="meta.attr.0.stream.vendor_id.markup">[0][0][0][0]</property>
  <property name="meta.attr.major_brand.markup">mp42</property>
  <property name="meta.attr.minor_version.markup">0</property>
  <property name="meta.attr.compatible_brands.markup">mp41isom</property>
  <property name="meta.attr.creation_time.markup">2023-11-04T10:12:32.000000Z</property>
  <property name="meta.attr.title.markup">ch00-s02-inclusive_de</property>
  <property name="meta.attr.date.markup">2023</property>
  <property name="meta.attr.album_artist.markup">Запись голоса</property>
  <property name="seekable">1</property>
  <property name="audio_index">0</property>
  <property name="video_index">-1</property>
  <property name="astream">0</property>
  <property name="kdenlive:folderid">-1</property>
  <property name="kdenlive:id">85</property>
  <property name="kdenlive:clip_type">1</property>
  <property name="kdenlive:file_size">274213</property>
  <property name="kdenlive:file_hash">8edbd103bd229977d8d2163b3c938b3a</property>
  <property name="kdenlive:audio_max0">168</property>
 </chain>
 <chain id="chain83" out="00:00:12.000">
  <property name="length">181</property>
  <property name="eof">pause</property>
  <property name="resource">ch00-s01-welcome_de.m4a</property>
  <property name="mlt_service">avformat</property>
  <property name="meta.media.nb_streams">1</property>
  <property name="meta.media.0.stream.type">audio</property>
  <property name="meta.media.0.codec.sample_fmt">fltp</property>
  <property name="meta.media.0.codec.sample_rate">48000</property>
  <property name="meta.media.0.codec.channels">2</property>
  <property name="meta.media.0.codec.name">aac</property>
  <property name="meta.media.0.codec.long_name">AAC (Advanced Audio Coding)</property>
  <property name="meta.media.0.codec.bit_rate">177409</property>
  <property name="meta.attr.0.stream.creation_time.markup">2023-11-04T09:51:44.000000Z</property>
  <property name="meta.attr.0.stream.handler_name.markup">SoundHandler</property>
  <property name="meta.attr.0.stream.vendor_id.markup">[0][0][0][0]</property>
  <property name="meta.attr.major_brand.markup">mp42</property>
  <property name="meta.attr.minor_version.markup">0</property>
  <property name="meta.attr.compatible_brands.markup">mp41isom</property>
  <property name="meta.attr.creation_time.markup">2023-11-04T09:51:44.000000Z</property>
  <property name="meta.attr.date.markup">2023</property>
  <property name="meta.attr.album_artist.markup">Запись голоса</property>
  <property name="meta.attr.title.markup">ch00-s01-welcome_de</property>
  <property name="seekable">1</property>
  <property name="audio_index">0</property>
  <property name="video_index">-1</property>
  <property name="astream">0</property>
  <property name="kdenlive:folderid">-1</property>
  <property name="kdenlive:id">86</property>
  <property name="kdenlive:clip_type">1</property>
  <property name="kdenlive:file_size">271124</property>
  <property name="kdenlive:file_hash">817a524003f0465503116a20007cb583</property>
  <property name="kdenlive:audio_max0">149</property>
 </chain>
 <producer id="producer42" in="00:00:00.000" out="00:00:12.667">
  <property name="length">191</property>
  <property name="eof">pause</property>
  <property name="resource"/>
  <property name="meta.media.progressive">1</property>
  <property name="aspect_ratio">1</property>
  <property name="seekable">1</property>
  <property name="mlt_service">kdenlivetitle</property>
  <property name="kdenlive:duration">00:00:05:00</property>
  <property name="kdenlive:clipname">z_de_14</property>
  <property name="xmldata">&lt;kdenlivetitle duration="75" LC_NUMERIC="C" width="1596" height="894" out="74">
 &lt;item type="QGraphicsTextItem" z-index="0">
  &lt;position x="12" y="5">
   &lt;transform>1,0,0,0,1,0,0,0,1&lt;/transform>
  &lt;/position>
  &lt;content line-spacing="4" shadow="0;#64000000;3;3;3" font-underline="0" box-height="101" font="Cabin" letter-spacing="1" font-pixel-size="34" font-italic="0" typewriter="1;4;2;0;0" alignment="1" font-weight="50" box-width="1227.28" font-color="61,61,61,255">Candlestick-Diagramm, Einkommensradar, Währungsverteilung, YTD-Ausgaben, 
Balkenrennen für Kategorien und mehr.&lt;/content>
 &lt;/item>
 &lt;startviewport rect="0,0,1596,894"/>
 &lt;endviewport rect="0,0,1596,894"/>
 &lt;background color="0,0,0,0"/>
&lt;/kdenlivetitle>
</property>
  <property name="xml">was here</property>
  <property name="kdenlive:folderid">-1</property>
  <property name="kdenlive:id">100</property>
  <property name="kdenlive:clip_type">2</property>
  <property name="force_reload">0</property>
  <property name="kdenlive:file_hash">c403690406c226a2d62880d3811218fd</property>
  <property name="meta.media.width">1596</property>
  <property name="meta.media.height">894</property>
 </producer>
 <chain id="chain84" out="00:02:57.733">
  <property name="length">2667</property>
  <property name="eof">pause</property>
  <property name="resource">00_intro_de.mp4</property>
  <property name="mlt_service">avformat-novalidate</property>
  <property name="meta.media.nb_streams">1</property>
  <property name="meta.media.0.stream.type">video</property>
  <property name="meta.media.0.stream.frame_rate">15</property>
  <property name="meta.media.0.stream.sample_aspect_ratio">1</property>
  <property name="meta.media.0.codec.width">1284</property>
  <property name="meta.media.0.codec.height">722</property>
  <property name="meta.media.0.codec.rotate">0</property>
  <property name="meta.media.0.codec.pix_fmt">yuv444p</property>
  <property name="meta.media.0.codec.sample_aspect_ratio">1</property>
  <property name="meta.media.0.codec.colorspace">709</property>
  <property name="meta.media.0.codec.color_trc">1</property>
  <property name="meta.media.0.codec.name">h264</property>
  <property name="meta.media.0.codec.long_name">H.264 / AVC / MPEG-4 AVC / MPEG-4 part 10</property>
  <property name="meta.media.0.codec.bit_rate">513708</property>
  <property name="meta.attr.0.stream.creation_time.markup">2023-11-15T14:00:21.000000Z</property>
  <property name="meta.attr.0.stream.handler_name.markup">VideoHandler</property>
  <property name="meta.attr.0.stream.vendor_id.markup">[0][0][0][0]</property>
  <property name="meta.attr.major_brand.markup">mp42</property>
  <property name="meta.attr.minor_version.markup">0</property>
  <property name="meta.attr.compatible_brands.markup">mp42mp41isomiso2</property>
  <property name="meta.attr.creation_time.markup">2023-11-15T14:00:21.000000Z</property>
  <property name="meta.attr.encoder.markup">x264</property>
  <property name="seekable">1</property>
  <property name="meta.media.sample_aspect_num">1</property>
  <property name="meta.media.sample_aspect_den">1</property>
  <property name="audio_index">-1</property>
  <property name="video_index">0</property>
  <property name="vstream">0</property>
  <property name="meta.media.frame_rate_num">15</property>
  <property name="meta.media.frame_rate_den">1</property>
  <property name="meta.media.colorspace">709</property>
  <property name="meta.media.color_trc">1</property>
  <property name="meta.media.has_b_frames">0</property>
  <property name="meta.media.width">1284</property>
  <property name="meta.media.height">722</property>
  <property name="meta.media.color_range">mpeg</property>
  <property name="meta.media.top_field_first">0</property>
  <property name="meta.media.progressive">1</property>
  <property name="kdenlive:folderid">-1</property>
  <property name="kdenlive:id">102</property>
  <property name="mute_on_pause">0</property>
  <property name="kdenlive:clip_type">2</property>
  <property name="kdenlive:file_size">11428830</property>
  <property name="kdenlive:file_hash">8da70a47be3a6c6fcf01bc6c2da30327</property>
 </chain>
 <chain id="chain85" out="00:00:24.267">
  <property name="length">365</property>
  <property name="eof">pause</property>
  <property name="resource">01_account_de.mp4</property>
  <property name="mlt_service">avformat-novalidate</property>
  <property name="meta.media.nb_streams">1</property>
  <property name="meta.media.0.stream.type">video</property>
  <property name="meta.media.0.stream.frame_rate">15</property>
  <property name="meta.media.0.stream.sample_aspect_ratio">1</property>
  <property name="meta.media.0.codec.width">1284</property>
  <property name="meta.media.0.codec.height">722</property>
  <property name="meta.media.0.codec.rotate">0</property>
  <property name="meta.media.0.codec.pix_fmt">yuv444p</property>
  <property name="meta.media.0.codec.sample_aspect_ratio">1</property>
  <property name="meta.media.0.codec.colorspace">709</property>
  <property name="meta.media.0.codec.color_trc">1</property>
  <property name="meta.media.0.codec.name">h264</property>
  <property name="meta.media.0.codec.long_name">H.264 / AVC / MPEG-4 AVC / MPEG-4 part 10</property>
  <property name="meta.media.0.codec.bit_rate">447950</property>
  <property name="meta.attr.0.stream.creation_time.markup">2023-11-15T14:10:17.000000Z</property>
  <property name="meta.attr.0.stream.handler_name.markup">VideoHandler</property>
  <property name="meta.attr.0.stream.vendor_id.markup">[0][0][0][0]</property>
  <property name="meta.attr.major_brand.markup">mp42</property>
  <property name="meta.attr.minor_version.markup">0</property>
  <property name="meta.attr.compatible_brands.markup">mp42mp41isomiso2</property>
  <property name="meta.attr.creation_time.markup">2023-11-15T14:10:17.000000Z</property>
  <property name="meta.attr.encoder.markup">x264</property>
  <property name="seekable">1</property>
  <property name="meta.media.sample_aspect_num">1</property>
  <property name="meta.media.sample_aspect_den">1</property>
  <property name="audio_index">-1</property>
  <property name="video_index">0</property>
  <property name="vstream">0</property>
  <property name="meta.media.frame_rate_num">15</property>
  <property name="meta.media.frame_rate_den">1</property>
  <property name="meta.media.colorspace">709</property>
  <property name="meta.media.color_trc">1</property>
  <property name="meta.media.has_b_frames">0</property>
  <property name="meta.media.width">1284</property>
  <property name="meta.media.height">722</property>
  <property name="meta.media.color_range">mpeg</property>
  <property name="meta.media.top_field_first">0</property>
  <property name="meta.media.progressive">1</property>
  <property name="kdenlive:folderid">-1</property>
  <property name="kdenlive:id">103</property>
  <property name="mute_on_pause">0</property>
  <property name="kdenlive:clip_type">2</property>
  <property name="kdenlive:file_size">1364905</property>
  <property name="kdenlive:file_hash">5f3188e9e36ac36f399ce9b80c370fe0</property>
 </chain>
 <chain id="chain86" out="00:00:46.000">
  <property name="length">691</property>
  <property name="eof">pause</property>
  <property name="resource">02_budget_de.mp4</property>
  <property name="mlt_service">avformat-novalidate</property>
  <property name="meta.media.nb_streams">1</property>
  <property name="meta.media.0.stream.type">video</property>
  <property name="meta.media.0.stream.frame_rate">15</property>
  <property name="meta.media.0.stream.sample_aspect_ratio">1</property>
  <property name="meta.media.0.codec.width">1284</property>
  <property name="meta.media.0.codec.height">722</property>
  <property name="meta.media.0.codec.rotate">0</property>
  <property name="meta.media.0.codec.pix_fmt">yuv444p</property>
  <property name="meta.media.0.codec.sample_aspect_ratio">1</property>
  <property name="meta.media.0.codec.colorspace">709</property>
  <property name="meta.media.0.codec.color_trc">1</property>
  <property name="meta.media.0.codec.name">h264</property>
  <property name="meta.media.0.codec.long_name">H.264 / AVC / MPEG-4 AVC / MPEG-4 part 10</property>
  <property name="meta.media.0.codec.bit_rate">150565</property>
  <property name="meta.attr.0.stream.creation_time.markup">2023-11-15T14:13:14.000000Z</property>
  <property name="meta.attr.0.stream.handler_name.markup">VideoHandler</property>
  <property name="meta.attr.0.stream.vendor_id.markup">[0][0][0][0]</property>
  <property name="meta.attr.major_brand.markup">mp42</property>
  <property name="meta.attr.minor_version.markup">0</property>
  <property name="meta.attr.compatible_brands.markup">mp42mp41isomiso2</property>
  <property name="meta.attr.creation_time.markup">2023-11-15T14:13:14.000000Z</property>
  <property name="meta.attr.encoder.markup">x264</property>
  <property name="seekable">1</property>
  <property name="meta.media.sample_aspect_num">1</property>
  <property name="meta.media.sample_aspect_den">1</property>
  <property name="audio_index">-1</property>
  <property name="video_index">0</property>
  <property name="vstream">0</property>
  <property name="meta.media.frame_rate_num">15</property>
  <property name="meta.media.frame_rate_den">1</property>
  <property name="meta.media.colorspace">709</property>
  <property name="meta.media.color_trc">1</property>
  <property name="meta.media.has_b_frames">0</property>
  <property name="meta.media.width">1284</property>
  <property name="meta.media.height">722</property>
  <property name="meta.media.color_range">mpeg</property>
  <property name="meta.media.top_field_first">0</property>
  <property name="meta.media.progressive">1</property>
  <property name="kdenlive:folderid">-1</property>
  <property name="kdenlive:id">104</property>
  <property name="mute_on_pause">0</property>
  <property name="kdenlive:clip_type">2</property>
  <property name="kdenlive:file_size">870710</property>
  <property name="kdenlive:file_hash">bb52f0b89083385180a328072d604d35</property>
 </chain>
 <chain id="chain87" out="00:01:04.600">
  <property name="length">970</property>
  <property name="eof">pause</property>
  <property name="resource">03_bills_de.mp4</property>
  <property name="mlt_service">avformat-novalidate</property>
  <property name="meta.media.nb_streams">1</property>
  <property name="meta.media.0.stream.type">video</property>
  <property name="meta.media.0.stream.frame_rate">15</property>
  <property name="meta.media.0.stream.sample_aspect_ratio">1</property>
  <property name="meta.media.0.codec.width">1284</property>
  <property name="meta.media.0.codec.height">722</property>
  <property name="meta.media.0.codec.rotate">0</property>
  <property name="meta.media.0.codec.pix_fmt">yuv444p</property>
  <property name="meta.media.0.codec.sample_aspect_ratio">1</property>
  <property name="meta.media.0.codec.colorspace">709</property>
  <property name="meta.media.0.codec.color_trc">1</property>
  <property name="meta.media.0.codec.name">h264</property>
  <property name="meta.media.0.codec.long_name">H.264 / AVC / MPEG-4 AVC / MPEG-4 part 10</property>
  <property name="meta.media.0.codec.bit_rate">285295</property>
  <property name="meta.attr.0.stream.creation_time.markup">2023-11-15T14:17:43.000000Z</property>
  <property name="meta.attr.0.stream.handler_name.markup">VideoHandler</property>
  <property name="meta.attr.0.stream.vendor_id.markup">[0][0][0][0]</property>
  <property name="meta.attr.major_brand.markup">mp42</property>
  <property name="meta.attr.minor_version.markup">0</property>
  <property name="meta.attr.compatible_brands.markup">mp42mp41isomiso2</property>
  <property name="meta.attr.creation_time.markup">2023-11-15T14:17:43.000000Z</property>
  <property name="meta.attr.encoder.markup">x264</property>
  <property name="seekable">1</property>
  <property name="meta.media.sample_aspect_num">1</property>
  <property name="meta.media.sample_aspect_den">1</property>
  <property name="audio_index">-1</property>
  <property name="video_index">0</property>
  <property name="vstream">0</property>
  <property name="meta.media.frame_rate_num">15</property>
  <property name="meta.media.frame_rate_den">1</property>
  <property name="meta.media.colorspace">709</property>
  <property name="meta.media.color_trc">1</property>
  <property name="meta.media.has_b_frames">0</property>
  <property name="meta.media.width">1284</property>
  <property name="meta.media.height">722</property>
  <property name="meta.media.color_range">mpeg</property>
  <property name="meta.media.top_field_first">0</property>
  <property name="meta.media.progressive">1</property>
  <property name="kdenlive:folderid">-1</property>
  <property name="kdenlive:id">106</property>
  <property name="mute_on_pause">0</property>
  <property name="kdenlive:clip_type">2</property>
  <property name="kdenlive:file_size">2310967</property>
  <property name="kdenlive:file_hash">e571ce8f760e611a5eaa7ebec0192c49</property>
 </chain>
 <chain id="chain88" out="00:00:33.400">
  <property name="length">502</property>
  <property name="eof">pause</property>
  <property name="resource">04_exchange_de.mp4</property>
  <property name="mlt_service">avformat-novalidate</property>
  <property name="meta.media.nb_streams">1</property>
  <property name="meta.media.0.stream.type">video</property>
  <property name="meta.media.0.stream.frame_rate">15</property>
  <property name="meta.media.0.stream.sample_aspect_ratio">1</property>
  <property name="meta.media.0.codec.width">1284</property>
  <property name="meta.media.0.codec.height">722</property>
  <property name="meta.media.0.codec.rotate">0</property>
  <property name="meta.media.0.codec.pix_fmt">yuv444p</property>
  <property name="meta.media.0.codec.sample_aspect_ratio">1</property>
  <property name="meta.media.0.codec.colorspace">709</property>
  <property name="meta.media.0.codec.color_trc">1</property>
  <property name="meta.media.0.codec.name">h264</property>
  <property name="meta.media.0.codec.long_name">H.264 / AVC / MPEG-4 AVC / MPEG-4 part 10</property>
  <property name="meta.media.0.codec.bit_rate">332019</property>
  <property name="meta.attr.0.stream.creation_time.markup">2023-11-15T14:20:58.000000Z</property>
  <property name="meta.attr.0.stream.handler_name.markup">VideoHandler</property>
  <property name="meta.attr.0.stream.vendor_id.markup">[0][0][0][0]</property>
  <property name="meta.attr.major_brand.markup">mp42</property>
  <property name="meta.attr.minor_version.markup">0</property>
  <property name="meta.attr.compatible_brands.markup">mp42mp41isomiso2</property>
  <property name="meta.attr.creation_time.markup">2023-11-15T14:20:58.000000Z</property>
  <property name="meta.attr.encoder.markup">x264</property>
  <property name="seekable">1</property>
  <property name="meta.media.sample_aspect_num">1</property>
  <property name="meta.media.sample_aspect_den">1</property>
  <property name="audio_index">-1</property>
  <property name="video_index">0</property>
  <property name="vstream">0</property>
  <property name="meta.media.frame_rate_num">15</property>
  <property name="meta.media.frame_rate_den">1</property>
  <property name="meta.media.colorspace">709</property>
  <property name="meta.media.color_trc">1</property>
  <property name="meta.media.has_b_frames">0</property>
  <property name="meta.media.width">1284</property>
  <property name="meta.media.height">722</property>
  <property name="meta.media.color_range">mpeg</property>
  <property name="meta.media.top_field_first">0</property>
  <property name="meta.media.progressive">1</property>
  <property name="kdenlive:folderid">-1</property>
  <property name="kdenlive:id">107</property>
  <property name="mute_on_pause">0</property>
  <property name="kdenlive:clip_type">2</property>
  <property name="kdenlive:file_size">1391892</property>
  <property name="kdenlive:file_hash">3361d20192ddb562cfce8252b4604e91</property>
 </chain>
 <chain id="chain89" out="00:00:22.800">
  <property name="length">343</property>
  <property name="eof">pause</property>
  <property name="resource">05_metrics_de.mp4</property>
  <property name="mlt_service">avformat-novalidate</property>
  <property name="meta.media.nb_streams">1</property>
  <property name="meta.media.0.stream.type">video</property>
  <property name="meta.media.0.stream.frame_rate">15</property>
  <property name="meta.media.0.stream.sample_aspect_ratio">1</property>
  <property name="meta.media.0.codec.width">1284</property>
  <property name="meta.media.0.codec.height">722</property>
  <property name="meta.media.0.codec.rotate">0</property>
  <property name="meta.media.0.codec.pix_fmt">yuv444p</property>
  <property name="meta.media.0.codec.sample_aspect_ratio">1</property>
  <property name="meta.media.0.codec.colorspace">709</property>
  <property name="meta.media.0.codec.color_trc">1</property>
  <property name="meta.media.0.codec.name">h264</property>
  <property name="meta.media.0.codec.long_name">H.264 / AVC / MPEG-4 AVC / MPEG-4 part 10</property>
  <property name="meta.media.0.codec.bit_rate">257424</property>
  <property name="meta.attr.0.stream.creation_time.markup">2023-11-15T14:25:02.000000Z</property>
  <property name="meta.attr.0.stream.handler_name.markup">VideoHandler</property>
  <property name="meta.attr.0.stream.vendor_id.markup">[0][0][0][0]</property>
  <property name="meta.attr.major_brand.markup">mp42</property>
  <property name="meta.attr.minor_version.markup">0</property>
  <property name="meta.attr.compatible_brands.markup">mp42mp41isomiso2</property>
  <property name="meta.attr.creation_time.markup">2023-11-15T14:25:02.000000Z</property>
  <property name="meta.attr.encoder.markup">x264</property>
  <property name="seekable">1</property>
  <property name="meta.media.sample_aspect_num">1</property>
  <property name="meta.media.sample_aspect_den">1</property>
  <property name="audio_index">-1</property>
  <property name="video_index">0</property>
  <property name="vstream">0</property>
  <property name="meta.media.frame_rate_num">15</property>
  <property name="meta.media.frame_rate_den">1</property>
  <property name="meta.media.colorspace">709</property>
  <property name="meta.media.color_trc">1</property>
  <property name="meta.media.has_b_frames">0</property>
  <property name="meta.media.width">1284</property>
  <property name="meta.media.height">722</property>
  <property name="meta.media.color_range">mpeg</property>
  <property name="meta.media.top_field_first">0</property>
  <property name="meta.media.progressive">1</property>
  <property name="kdenlive:folderid">-1</property>
  <property name="kdenlive:id">108</property>
  <property name="mute_on_pause">0</property>
  <property name="kdenlive:clip_type">2</property>
  <property name="kdenlive:file_size">738107</property>
  <property name="kdenlive:file_hash">34568617dda768d380b9defbc969dc8b</property>
 </chain>
 <playlist id="main_bin">
  <property name="kdenlive:folder.-1.2">Sequences</property>
  <property name="kdenlive:folder.-1.54">Pasted clips</property>
  <property name="kdenlive:docproperties.activetimeline">{ff20d2f2-8ff5-4477-ab01-973293a4bf18}</property>
  <property name="kdenlive:docproperties.audioChannels">2</property>
  <property name="kdenlive:docproperties.browserurl">/home/vlyskouski/Videos/</property>
  <property name="kdenlive:docproperties.compositing">1</property>
  <property name="kdenlive:docproperties.documentid">1698950411065</property>
  <property name="kdenlive:docproperties.enableTimelineZone">0</property>
  <property name="kdenlive:docproperties.enableexternalproxy">0</property>
  <property name="kdenlive:docproperties.enableproxy">0</property>
  <property name="kdenlive:docproperties.externalproxyparams"/>
  <property name="kdenlive:docproperties.generateimageproxy">0</property>
  <property name="kdenlive:docproperties.generateproxy">0</property>
  <property name="kdenlive:docproperties.guidesCategories">[
    {
        "color": "#9b59b6",
        "comment": "Category 1",
        "index": 0
    },
    {
        "color": "#3daee9",
        "comment": "Category 2",
        "index": 1
    },
    {
        "color": "#1abc9c",
        "comment": "Category 3",
        "index": 2
    },
    {
        "color": "#1cdc9a",
        "comment": "Category 4",
        "index": 3
    },
    {
        "color": "#c9ce3b",
        "comment": "Category 5",
        "index": 4
    },
    {
        "color": "#fdbc4b",
        "comment": "Category 6",
        "index": 5
    },
    {
        "color": "#f39c1f",
        "comment": "Category 7",
        "index": 6
    },
    {
        "color": "#f47750",
        "comment": "Category 8",
        "index": 7
    },
    {
        "color": "#da4453",
        "comment": "Category 9",
        "index": 8
    }
]
</property>
  <property name="kdenlive:docproperties.kdenliveversion">23.08.3</property>
  <property name="kdenlive:docproperties.opensequences">{ff20d2f2-8ff5-4477-ab01-973293a4bf18}</property>
  <property name="kdenlive:docproperties.previewextension"/>
  <property name="kdenlive:docproperties.previewparameters"/>
  <property name="kdenlive:docproperties.profile">/home/vlyskouski/.var/app/org.kde.kdenlive/data/kdenlive/profiles/customprofile3</property>
  <property name="kdenlive:docproperties.proxyextension"/>
  <property name="kdenlive:docproperties.proxyimageminsize">2000</property>
  <property name="kdenlive:docproperties.proxyimagesize">800</property>
  <property name="kdenlive:docproperties.proxyminsize">1000</property>
  <property name="kdenlive:docproperties.proxyparams"/>
  <property name="kdenlive:docproperties.proxyresize">640</property>
  <property name="kdenlive:docproperties.rendercategory">Generic (HD for web, mobile devices...)</property>
  <property name="kdenlive:docproperties.rendercustomquality">-1</property>
  <property name="kdenlive:docproperties.renderendguide">-1</property>
  <property name="kdenlive:docproperties.renderexportaudio">0</property>
  <property name="kdenlive:docproperties.renderfullcolorrange">0</property>
  <property name="kdenlive:docproperties.rendermode">0</property>
  <property name="kdenlive:docproperties.renderplay">0</property>
  <property name="kdenlive:docproperties.renderpreview">0</property>
  <property name="kdenlive:docproperties.renderprofile">MP4-H264/AAC</property>
  <property name="kdenlive:docproperties.renderrescale">0</property>
  <property name="kdenlive:docproperties.renderrescaleheight">447</property>
  <property name="kdenlive:docproperties.renderrescalewidth">798</property>
  <property name="kdenlive:docproperties.renderspeed">6</property>
  <property name="kdenlive:docproperties.renderstartguide">-1</property>
  <property name="kdenlive:docproperties.rendertcoverlay">0</property>
  <property name="kdenlive:docproperties.rendertctype">-1</property>
  <property name="kdenlive:docproperties.rendertwopass">0</property>
  <property name="kdenlive:docproperties.renderurl">/home/vlyskouski/Videos/index_de.mp4</property>
  <property name="kdenlive:docproperties.seekOffset">30000</property>
  <property name="kdenlive:docproperties.uuid">{ff20d2f2-8ff5-4477-ab01-973293a4bf18}</property>
  <property name="kdenlive:docproperties.version">1.1</property>
  <property name="kdenlive:expandedFolders"/>
  <property name="kdenlive:binZoom">4</property>
  <property name="kdenlive:documentnotes"/>
  <property name="xml_retain">1</property>
  <entry producer="chain28" in="00:00:00.000" out="00:04:25.200"/>
  <entry producer="chain29" in="00:00:00.000" out="00:02:45.933"/>
  <entry producer="chain31" in="00:00:00.000" out="00:00:11.533"/>
  <entry producer="chain32" in="00:00:00.000" out="00:00:09.867"/>
  <entry producer="chain30" in="00:00:00.000" out="00:00:09.133"/>
  <entry producer="chain34" in="00:00:00.000" out="00:00:09.067"/>
  <entry producer="chain33" in="00:00:00.000" out="00:00:08.267"/>
  <entry producer="chain35" in="00:00:00.000" out="00:00:07.000"/>
  <entry producer="chain36" in="00:00:00.000" out="00:00:07.467"/>
  <entry producer="chain37" in="00:00:00.000" out="00:00:06.933"/>
  <entry producer="chain38" in="00:00:00.000" out="00:00:05.600"/>
  <entry producer="chain39" in="00:00:00.000" out="00:00:06.467"/>
  <entry producer="chain40" in="00:00:00.000" out="00:00:06.000"/>
  <entry producer="chain41" in="00:00:00.000" out="00:00:02.867"/>
  <entry producer="chain42" in="00:00:00.000" out="00:00:11.933"/>
  <entry producer="chain43" in="00:00:00.000" out="00:00:06.600"/>
  <entry producer="chain45" in="00:00:00.000" out="00:00:06.000"/>
  <entry producer="chain44" in="00:00:00.000" out="00:00:07.667"/>
  <entry producer="chain46" in="00:00:00.000" out="00:00:08.867"/>
  <entry producer="chain47" in="00:00:00.000" out="00:00:04.267"/>
  <entry producer="chain48" in="00:00:00.000" out="00:00:04.000"/>
  <entry producer="chain49" in="00:00:00.000" out="00:00:04.933"/>
  <entry producer="chain50" in="00:00:00.000" out="00:00:05.533"/>
  <entry producer="chain51" in="00:00:00.000" out="00:00:07.400"/>
  <entry producer="chain52" in="00:00:00.000" out="00:00:03.067"/>
  <entry producer="chain53" in="00:00:00.000" out="00:00:10.267"/>
  <entry producer="chain54" in="00:00:00.000" out="00:00:06.600"/>
  <entry producer="chain56" in="00:00:00.000" out="00:00:05.400"/>
  <entry producer="chain55" in="00:00:00.000" out="00:00:01.600"/>
  <entry producer="chain57" in="00:00:00.000" out="00:01:20.933"/>
  <entry producer="chain58" in="00:00:00.000" out="00:01:06.667"/>
  <entry producer="chain59" in="00:00:00.000" out="00:00:23.733"/>
  <entry producer="chain60" in="00:00:00.000" out="00:00:16.533"/>
  <entry producer="chain61" in="00:00:00.000" out="00:00:10.600"/>
  <entry producer="chain63" in="00:00:00.000" out="00:00:36.867"/>
  <entry producer="chain62" in="00:00:00.000" out="00:00:34.800"/>
  <entry producer="chain64" in="00:00:00.000" out="00:00:31.867"/>
  <entry producer="chain65" in="00:00:00.000" out="00:00:19.667"/>
  <entry producer="chain66" in="00:00:00.000" out="00:00:50.867"/>
  <entry producer="chain67" in="00:00:00.000" out="00:00:35.667"/>
  <entry producer="chain68" in="00:00:00.000" out="00:00:09.267"/>
  <entry producer="chain69" in="00:00:00.000" out="00:00:10.600"/>
  <entry producer="chain70" in="00:00:00.000" out="00:00:14.533"/>
  <entry producer="chain71" in="00:00:00.000" out="00:00:03.133"/>
  <entry producer="producer20" in="00:00:00.000" out="00:00:04.933"/>
  <entry producer="producer21" in="00:00:00.000" out="00:00:06.467"/>
  <entry producer="producer22" in="00:00:00.000" out="00:00:07.933"/>
  <entry producer="producer23" in="00:00:00.000" out="00:00:07.933"/>
  <entry producer="producer38" in="00:00:00.000" out="00:00:07.933"/>
  <entry producer="producer24" in="00:00:00.000" out="00:00:07.933"/>
  <entry producer="producer25" in="00:00:00.000" out="00:00:07.933"/>
  <entry producer="producer26" in="00:00:00.000" out="00:00:07.933"/>
  <entry producer="producer27" in="00:00:00.000" out="00:00:07.933"/>
  <entry producer="producer28" in="00:00:00.000" out="00:00:09.467"/>
  <entry producer="producer29" in="00:00:00.000" out="00:00:09.467"/>
  <entry producer="producer30" in="00:00:00.000" out="00:00:07.933"/>
  <entry producer="producer31" in="00:00:00.000" out="00:00:07.933"/>
  <entry producer="producer32" in="00:00:00.000" out="00:00:07.933"/>
  <entry producer="producer33" in="00:00:00.000" out="00:00:07.933"/>
  <entry producer="producer34" in="00:00:00.000" out="00:00:07.933"/>
  <entry producer="producer35" in="00:00:00.000" out="00:00:07.933"/>
  <entry producer="producer36" in="00:00:00.000" out="00:00:08.467"/>
  <entry producer="producer37" in="00:00:00.000" out="00:00:08.600"/>
  <entry producer="tractor5" in="00:00:00.000" out="00:02:46.000"/>
  <entry producer="chain21" in="00:00:00.000" out="00:04:16.533"/>
  <entry producer="chain22" in="00:00:00.000" out="00:00:03.067"/>
  <entry producer="chain23" in="00:00:00.000" out="00:00:08.400"/>
  <entry producer="chain24" in="00:00:00.000" out="00:00:04.267"/>
  <entry producer="chain25" in="00:00:00.000" out="00:00:04.733"/>
  <entry producer="chain26" in="00:00:00.000" out="00:00:06.933"/>
  <entry producer="chain27" in="00:00:00.000" out="00:00:06.267"/>
  <entry producer="chain72" in="00:00:00.000" out="00:00:09.467"/>
  <entry producer="chain73" in="00:00:00.000" out="00:00:07.133"/>
  <entry producer="chain74" in="00:00:00.000" out="00:00:07.600"/>
  <entry producer="chain75" in="00:00:00.000" out="00:00:04.867"/>
  <entry producer="chain76" in="00:00:00.000" out="00:00:06.133"/>
  <entry producer="chain77" in="00:00:00.000" out="00:00:10.467"/>
  <entry producer="chain78" in="00:00:00.000" out="00:00:09.867"/>
  <entry producer="chain79" in="00:00:00.000" out="00:00:09.467"/>
  <entry producer="chain80" in="00:00:00.000" out="00:00:11.333"/>
  <entry producer="chain81" in="00:00:00.000" out="00:00:10.667"/>
  <entry producer="chain82" in="00:00:00.000" out="00:00:12.067"/>
  <entry producer="chain83" in="00:00:00.000" out="00:00:12.000"/>
  <entry producer="producer10" in="00:00:00.000" out="00:00:08.467"/>
  <entry producer="producer9" in="00:00:00.000" out="00:00:10.200"/>
  <entry producer="producer11" in="00:00:00.000" out="00:00:10.200"/>
  <entry producer="producer12" in="00:00:00.000" out="00:00:10.200"/>
  <entry producer="producer13" in="00:00:00.000" out="00:00:10.733"/>
  <entry producer="producer14" in="00:00:00.000" out="00:00:10.733"/>
  <entry producer="producer15" in="00:00:00.000" out="00:00:11.333"/>
  <entry producer="producer16" in="00:00:00.000" out="00:00:12.667"/>
  <entry producer="producer17" in="00:00:00.000" out="00:00:12.667"/>
  <entry producer="producer18" in="00:00:00.000" out="00:00:12.667"/>
  <entry producer="producer19" in="00:00:00.000" out="00:00:12.667"/>
  <entry producer="producer39" in="00:00:00.000" out="00:00:12.667"/>
  <entry producer="producer40" in="00:00:00.000" out="00:00:12.667"/>
  <entry producer="producer42" in="00:00:00.000" out="00:00:12.667"/>
  <entry producer="producer41" in="00:00:00.000" out="00:00:12.667"/>
  <entry producer="chain84" in="00:00:00.000" out="00:02:57.733"/>
  <entry producer="chain85" in="00:00:00.000" out="00:00:24.267"/>
  <entry producer="chain86" in="00:00:00.000" out="00:00:46.000"/>
  <entry producer="chain87" in="00:00:00.000" out="00:01:04.600"/>
  <entry producer="chain88" in="00:00:00.000" out="00:00:33.400"/>
  <entry producer="chain89" in="00:00:00.000" out="00:00:22.800"/>
 </playlist>
 <tractor id="tractor6" in="00:00:00.000" out="00:02:45.000">
  <property name="kdenlive:projectTractor">1</property>
  <track producer="tractor5" in="00:00:00.000" out="00:02:45.000"/>
 </tractor>
</mlt>
