<?xml version='1.0' encoding='utf-8'?>
<mlt LC_NUMERIC="C" producer="main_bin" version="7.21.0" root="/home/vlyskouski/Work/_tercad/fingrom/docs/marketing-flow/presentation">
 <profile frame_rate_num="15" sample_aspect_num="1" display_aspect_den="149" colorspace="709" progressive="1" description="1596x894 15.00fps" display_aspect_num="266" frame_rate_den="1" width="1596" height="894" sample_aspect_den="1"/>
 <producer id="producer0" in="00:00:00.000" out="00:36:06.067">
  <property name="length">2147483647</property>
  <property name="eof">continue</property>
  <property name="resource">black</property>
  <property name="aspect_ratio">1</property>
  <property name="mlt_service">color</property>
  <property name="kdenlive:playlistid">black_track</property>
  <property name="mlt_image_format">rgba</property>
  <property name="set.test_audio">0</property>
 </producer>
 <chain id="chain0" out="00:02:45.933">
  <property name="length">2490</property>
  <property name="eof">pause</property>
  <property name="resource">back_Absurd-David_Fesliyan.mp3</property>
  <property name="mlt_service">avformat-novalidate</property>
  <property name="seekable">1</property>
  <property name="audio_index">0</property>
  <property name="video_index">-1</property>
  <property name="astream">0</property>
  <property name="kdenlive:folderid">-1</property>
  <property name="kdenlive:id">5</property>
  <property name="kdenlive:clip_type">1</property>
  <property name="kdenlive:file_size">6643743</property>
  <property name="kdenlive:file_hash">6d5b595db7134726039f90d798d5f726</property>
  <property name="kdenlive:audio_max0">214</property>
  <property name="meta.media.nb_streams">1</property>
  <property name="meta.media.0.stream.type">audio</property>
  <property name="meta.media.0.codec.sample_fmt">fltp</property>
  <property name="meta.media.0.codec.sample_rate">44100</property>
  <property name="meta.media.0.codec.channels">2</property>
  <property name="meta.media.0.codec.name">mp3float</property>
  <property name="meta.media.0.codec.long_name">MP3 (MPEG audio layer 3)</property>
  <property name="meta.media.0.codec.bit_rate">320000</property>
  <property name="meta.attr.album.markup">FesliyanStudios.com ASCAP IPI 792929876, 792929974</property>
  <property name="meta.attr.artist.markup">FesliyanStudios.com ASCAP IPI 792929876, 792929974</property>
  <property name="meta.attr.album_artist.markup">FesliyanStudios.com ASCAP IPI 792929876, 792929974</property>
  <property name="meta.attr.comment.markup">FesliyanStudios.com ASCAP IPI 792929876, 792929974</property>
  <property name="meta.attr.composer.markup">FesliyanStudios.com ASCAP IPI 792929876, 792929974</property>
  <property name="meta.attr.genre.markup">Soundtrack</property>
  <property name="meta.attr.title.markup">Absurd</property>
  <property name="meta.attr.track.markup">1</property>
  <property name="meta.attr.date.markup">2017</property>
  <property name="xml">was here</property>
  <property name="mute_on_pause">0</property>
  <property name="set.test_audio">0</property>
  <property name="set.test_image">1</property>
 </chain>
 <playlist id="playlist0">
  <property name="kdenlive:audio_track">1</property>
  <entry producer="chain0" in="00:00:00.000" out="00:02:45.933">
   <property name="kdenlive:id">5</property>
   <property name="kdenlive:activeeffect">0</property>
   <filter id="filter0">
    <property name="window">75</property>
    <property name="max_gain">20dB</property>
    <property name="level">00:00:00.000=-20</property>
    <property name="mlt_service">volume</property>
    <property name="kdenlive_id">volume</property>
    <property name="kdenlive:collapsed">0</property>
   </filter>
  </entry>
 </playlist>
 <playlist id="playlist1">
  <property name="kdenlive:audio_track">1</property>
 </playlist>
 <tractor id="tractor0" in="00:00:00.000" out="00:02:45.933">
  <property name="kdenlive:audio_track">1</property>
  <property name="kdenlive:trackheight">67</property>
  <property name="kdenlive:timeline_active">0</property>
  <property name="kdenlive:collapsed">0</property>
  <property name="kdenlive:thumbs_format"/>
  <property name="kdenlive:audio_rec"/>
  <property name="kdenlive:track_name">Music</property>
  <track hide="video" producer="playlist0"/>
  <track hide="video" producer="playlist1"/>
  <filter id="filter1">
   <property name="window">75</property>
   <property name="max_gain">20dB</property>
   <property name="mlt_service">volume</property>
   <property name="internal_added">237</property>
   <property name="disable">1</property>
  </filter>
  <filter id="filter2">
   <property name="channel">-1</property>
   <property name="mlt_service">panner</property>
   <property name="internal_added">237</property>
   <property name="start">0.5</property>
   <property name="disable">1</property>
  </filter>
  <filter id="filter3">
   <property name="iec_scale">0</property>
   <property name="mlt_service">audiolevel</property>
   <property name="dbpeak">1</property>
   <property name="disable">1</property>
  </filter>
 </tractor>
 <chain id="chain1" out="00:00:11.533">
  <property name="length">174</property>
  <property name="eof">pause</property>
  <property name="resource">ch00-s01-welcome_en.m4a</property>
  <property name="mlt_service">avformat-novalidate</property>
  <property name="seekable">1</property>
  <property name="audio_index">0</property>
  <property name="video_index">-1</property>
  <property name="astream">0</property>
  <property name="kdenlive:folderid">-1</property>
  <property name="kdenlive:id">6</property>
  <property name="kdenlive:clip_type">1</property>
  <property name="kdenlive:file_size">256212</property>
  <property name="kdenlive:file_hash">df207f46ca025f866f4414c53a4f281e</property>
  <property name="kdenlive:audio_max0">136</property>
  <property name="meta.media.nb_streams">1</property>
  <property name="meta.media.0.stream.type">audio</property>
  <property name="meta.media.0.codec.sample_fmt">fltp</property>
  <property name="meta.media.0.codec.sample_rate">48000</property>
  <property name="meta.media.0.codec.channels">2</property>
  <property name="meta.media.0.codec.name">aac</property>
  <property name="meta.media.0.codec.long_name">AAC (Advanced Audio Coding)</property>
  <property name="meta.media.0.codec.bit_rate">174871</property>
  <property name="meta.attr.0.stream.creation_time.markup">2023-11-01T17:21:37.000000Z</property>
  <property name="meta.attr.0.stream.handler_name.markup">SoundHandler</property>
  <property name="meta.attr.0.stream.vendor_id.markup">[0][0][0][0]</property>
  <property name="meta.attr.major_brand.markup">mp42</property>
  <property name="meta.attr.minor_version.markup">0</property>
  <property name="meta.attr.compatible_brands.markup">mp41isom</property>
  <property name="meta.attr.creation_time.markup">2023-11-01T17:21:37.000000Z</property>
  <property name="meta.attr.date.markup">2023</property>
  <property name="meta.attr.album_artist.markup">Запись голоса</property>
  <property name="meta.attr.title.markup">ch00-s01-welcome</property>
  <property name="xml">was here</property>
  <property name="mute_on_pause">0</property>
  <property name="set.test_audio">0</property>
  <property name="set.test_image">1</property>
 </chain>
 <chain id="chain2" out="00:00:09.867">
  <property name="length">149</property>
  <property name="eof">pause</property>
  <property name="resource">ch00-s02-inclusive_en.m4a</property>
  <property name="mlt_service">avformat-novalidate</property>
  <property name="seekable">1</property>
  <property name="audio_index">0</property>
  <property name="video_index">-1</property>
  <property name="astream">0</property>
  <property name="kdenlive:folderid">-1</property>
  <property name="kdenlive:id">7</property>
  <property name="kdenlive:clip_type">1</property>
  <property name="kdenlive:file_size">224173</property>
  <property name="kdenlive:file_hash">6996858f5bbae41f7ce40f2b3a7aba74</property>
  <property name="kdenlive:audio_max0">159</property>
  <property name="meta.media.nb_streams">1</property>
  <property name="meta.media.0.stream.type">audio</property>
  <property name="meta.media.0.codec.sample_fmt">fltp</property>
  <property name="meta.media.0.codec.sample_rate">48000</property>
  <property name="meta.media.0.codec.channels">2</property>
  <property name="meta.media.0.codec.name">aac</property>
  <property name="meta.media.0.codec.long_name">AAC (Advanced Audio Coding)</property>
  <property name="meta.media.0.codec.bit_rate">178060</property>
  <property name="meta.attr.0.stream.creation_time.markup">2023-11-01T17:39:56.000000Z</property>
  <property name="meta.attr.0.stream.handler_name.markup">SoundHandler</property>
  <property name="meta.attr.0.stream.vendor_id.markup">[0][0][0][0]</property>
  <property name="meta.attr.major_brand.markup">mp42</property>
  <property name="meta.attr.minor_version.markup">0</property>
  <property name="meta.attr.compatible_brands.markup">mp41isom</property>
  <property name="meta.attr.creation_time.markup">2023-11-01T17:39:56.000000Z</property>
  <property name="meta.attr.title.markup">ch00-s02-inclusive</property>
  <property name="meta.attr.date.markup">2023</property>
  <property name="meta.attr.album_artist.markup">Запись голоса</property>
  <property name="xml">was here</property>
  <property name="mute_on_pause">0</property>
  <property name="set.test_audio">0</property>
  <property name="set.test_image">1</property>
 </chain>
 <chain id="chain3" out="00:00:09.133">
  <property name="length">138</property>
  <property name="eof">pause</property>
  <property name="resource">ch00-s03-journey_en.m4a</property>
  <property name="mlt_service">avformat-novalidate</property>
  <property name="seekable">1</property>
  <property name="audio_index">0</property>
  <property name="video_index">-1</property>
  <property name="astream">0</property>
  <property name="kdenlive:folderid">-1</property>
  <property name="kdenlive:id">8</property>
  <property name="kdenlive:clip_type">1</property>
  <property name="kdenlive:file_size">202377</property>
  <property name="kdenlive:file_hash">e5ced1e50c64447adfcc3a0ffda3e986</property>
  <property name="kdenlive:audio_max0">120</property>
  <property name="meta.media.nb_streams">1</property>
  <property name="meta.media.0.stream.type">audio</property>
  <property name="meta.media.0.codec.sample_fmt">fltp</property>
  <property name="meta.media.0.codec.sample_rate">48000</property>
  <property name="meta.media.0.codec.channels">2</property>
  <property name="meta.media.0.codec.name">aac</property>
  <property name="meta.media.0.codec.long_name">AAC (Advanced Audio Coding)</property>
  <property name="meta.media.0.codec.bit_rate">173862</property>
  <property name="meta.attr.0.stream.creation_time.markup">2023-11-01T17:32:34.000000Z</property>
  <property name="meta.attr.0.stream.handler_name.markup">SoundHandler</property>
  <property name="meta.attr.0.stream.vendor_id.markup">[0][0][0][0]</property>
  <property name="meta.attr.major_brand.markup">mp42</property>
  <property name="meta.attr.minor_version.markup">0</property>
  <property name="meta.attr.compatible_brands.markup">mp41isom</property>
  <property name="meta.attr.creation_time.markup">2023-11-01T17:32:34.000000Z</property>
  <property name="meta.attr.date.markup">2023</property>
  <property name="meta.attr.album_artist.markup">Запись голоса</property>
  <property name="meta.attr.title.markup">ch00-s03-journey</property>
  <property name="xml">was here</property>
  <property name="mute_on_pause">0</property>
  <property name="set.test_audio">0</property>
  <property name="set.test_image">1</property>
 </chain>
 <chain id="chain4" out="00:00:09.067">
  <property name="length">137</property>
  <property name="eof">pause</property>
  <property name="resource">ch01-s01-challenges_en.m4a</property>
  <property name="mlt_service">avformat-novalidate</property>
  <property name="seekable">1</property>
  <property name="audio_index">0</property>
  <property name="video_index">-1</property>
  <property name="astream">0</property>
  <property name="kdenlive:folderid">-1</property>
  <property name="kdenlive:id">9</property>
  <property name="kdenlive:clip_type">1</property>
  <property name="kdenlive:file_size">196725</property>
  <property name="kdenlive:file_hash">42d65966e3c3a6204032ea627a1e8c92</property>
  <property name="kdenlive:audio_max0">126</property>
  <property name="meta.media.nb_streams">1</property>
  <property name="meta.media.0.stream.type">audio</property>
  <property name="meta.media.0.codec.sample_fmt">fltp</property>
  <property name="meta.media.0.codec.sample_rate">48000</property>
  <property name="meta.media.0.codec.channels">2</property>
  <property name="meta.media.0.codec.name">aac</property>
  <property name="meta.media.0.codec.long_name">AAC (Advanced Audio Coding)</property>
  <property name="meta.media.0.codec.bit_rate">170137</property>
  <property name="meta.attr.0.stream.creation_time.markup">2023-11-01T17:44:41.000000Z</property>
  <property name="meta.attr.0.stream.handler_name.markup">SoundHandler</property>
  <property name="meta.attr.0.stream.vendor_id.markup">[0][0][0][0]</property>
  <property name="meta.attr.major_brand.markup">mp42</property>
  <property name="meta.attr.minor_version.markup">0</property>
  <property name="meta.attr.compatible_brands.markup">mp41isom</property>
  <property name="meta.attr.creation_time.markup">2023-11-01T17:44:41.000000Z</property>
  <property name="meta.attr.date.markup">2023</property>
  <property name="meta.attr.album_artist.markup">Запись голоса</property>
  <property name="meta.attr.title.markup">ch01-s01-challenges</property>
  <property name="xml">was here</property>
  <property name="mute_on_pause">0</property>
  <property name="set.test_audio">0</property>
  <property name="set.test_image">1</property>
 </chain>
 <chain id="chain5" out="00:00:08.267">
  <property name="length">125</property>
  <property name="eof">pause</property>
  <property name="resource">ch01-s02-complex_en.m4a</property>
  <property name="mlt_service">avformat-novalidate</property>
  <property name="seekable">1</property>
  <property name="audio_index">0</property>
  <property name="video_index">-1</property>
  <property name="astream">0</property>
  <property name="kdenlive:folderid">-1</property>
  <property name="kdenlive:id">10</property>
  <property name="kdenlive:clip_type">1</property>
  <property name="kdenlive:file_size">185774</property>
  <property name="kdenlive:file_hash">a99b0029bca6aec19e936f7311916514</property>
  <property name="kdenlive:audio_max0">119</property>
  <property name="meta.media.nb_streams">1</property>
  <property name="meta.media.0.stream.type">audio</property>
  <property name="meta.media.0.codec.sample_fmt">fltp</property>
  <property name="meta.media.0.codec.sample_rate">48000</property>
  <property name="meta.media.0.codec.channels">2</property>
  <property name="meta.media.0.codec.name">aac</property>
  <property name="meta.media.0.codec.long_name">AAC (Advanced Audio Coding)</property>
  <property name="meta.media.0.codec.bit_rate">176334</property>
  <property name="meta.attr.0.stream.creation_time.markup">2023-11-01T17:47:19.000000Z</property>
  <property name="meta.attr.0.stream.handler_name.markup">SoundHandler</property>
  <property name="meta.attr.0.stream.vendor_id.markup">[0][0][0][0]</property>
  <property name="meta.attr.major_brand.markup">mp42</property>
  <property name="meta.attr.minor_version.markup">0</property>
  <property name="meta.attr.compatible_brands.markup">mp41isom</property>
  <property name="meta.attr.creation_time.markup">2023-11-01T17:47:19.000000Z</property>
  <property name="meta.attr.date.markup">2023</property>
  <property name="meta.attr.album_artist.markup">Запись голоса</property>
  <property name="meta.attr.title.markup">ch01-s02-complex</property>
  <property name="xml">was here</property>
  <property name="mute_on_pause">0</property>
  <property name="set.test_audio">0</property>
  <property name="set.test_image">1</property>
 </chain>
 <chain id="chain6" out="00:00:07.000">
  <property name="length">106</property>
  <property name="eof">pause</property>
  <property name="resource">ch01-s03-centric_en.m4a</property>
  <property name="mlt_service">avformat-novalidate</property>
  <property name="seekable">1</property>
  <property name="audio_index">0</property>
  <property name="video_index">-1</property>
  <property name="astream">0</property>
  <property name="kdenlive:folderid">-1</property>
  <property name="kdenlive:id">11</property>
  <property name="kdenlive:clip_type">1</property>
  <property name="kdenlive:file_size">158634</property>
  <property name="kdenlive:file_hash">33f416122ca52272825869e6fc24188e</property>
  <property name="kdenlive:audio_max0">182</property>
  <property name="meta.media.nb_streams">1</property>
  <property name="meta.media.0.stream.type">audio</property>
  <property name="meta.media.0.codec.sample_fmt">fltp</property>
  <property name="meta.media.0.codec.sample_rate">48000</property>
  <property name="meta.media.0.codec.channels">38</property>
  <property name="meta.media.0.codec.name">aac</property>
  <property name="meta.media.0.codec.long_name">AAC (Advanced Audio Coding)</property>
  <property name="meta.media.0.codec.bit_rate">177487</property>
  <property name="meta.attr.0.stream.creation_time.markup">2023-11-01T17:52:22.000000Z</property>
  <property name="meta.attr.0.stream.handler_name.markup">SoundHandler</property>
  <property name="meta.attr.0.stream.vendor_id.markup">[0][0][0][0]</property>
  <property name="meta.attr.major_brand.markup">mp42</property>
  <property name="meta.attr.minor_version.markup">0</property>
  <property name="meta.attr.compatible_brands.markup">mp41isom</property>
  <property name="meta.attr.creation_time.markup">2023-11-01T17:52:22.000000Z</property>
  <property name="meta.attr.date.markup">2023</property>
  <property name="meta.attr.album_artist.markup">Запись голоса</property>
  <property name="meta.attr.title.markup">ch01-s03-centric</property>
  <property name="xml">was here</property>
  <property name="mute_on_pause">0</property>
  <property name="set.test_audio">0</property>
  <property name="set.test_image">1</property>
 </chain>
 <chain id="chain7" out="00:00:07.467">
  <property name="length">113</property>
  <property name="eof">pause</property>
  <property name="resource">ch02-s01-accounts_en.m4a</property>
  <property name="mlt_service">avformat-novalidate</property>
  <property name="seekable">1</property>
  <property name="audio_index">0</property>
  <property name="video_index">-1</property>
  <property name="astream">0</property>
  <property name="kdenlive:folderid">-1</property>
  <property name="kdenlive:id">12</property>
  <property name="kdenlive:clip_type">1</property>
  <property name="kdenlive:file_size">168021</property>
  <property name="kdenlive:file_hash">69b362155bf9318cb1ebc450d2dd19cb</property>
  <property name="kdenlive:audio_max0">127</property>
  <property name="meta.media.nb_streams">1</property>
  <property name="meta.media.0.stream.type">audio</property>
  <property name="meta.media.0.codec.sample_fmt">fltp</property>
  <property name="meta.media.0.codec.sample_rate">48000</property>
  <property name="meta.media.0.codec.channels">2</property>
  <property name="meta.media.0.codec.name">aac</property>
  <property name="meta.media.0.codec.long_name">AAC (Advanced Audio Coding)</property>
  <property name="meta.media.0.codec.bit_rate">176618</property>
  <property name="meta.attr.0.stream.creation_time.markup">2023-11-01T17:57:02.000000Z</property>
  <property name="meta.attr.0.stream.handler_name.markup">SoundHandler</property>
  <property name="meta.attr.0.stream.vendor_id.markup">[0][0][0][0]</property>
  <property name="meta.attr.major_brand.markup">mp42</property>
  <property name="meta.attr.minor_version.markup">0</property>
  <property name="meta.attr.compatible_brands.markup">mp41isom</property>
  <property name="meta.attr.creation_time.markup">2023-11-01T17:57:02.000000Z</property>
  <property name="meta.attr.date.markup">2023</property>
  <property name="meta.attr.album_artist.markup">Запись голоса</property>
  <property name="meta.attr.title.markup">ch02-s01-accounts</property>
  <property name="xml">was here</property>
  <property name="mute_on_pause">0</property>
  <property name="set.test_audio">0</property>
  <property name="set.test_image">1</property>
 </chain>
 <chain id="chain8" out="00:00:06.933">
  <property name="length">105</property>
  <property name="eof">pause</property>
  <property name="resource">ch02-s03-categories_en.m4a</property>
  <property name="mlt_service">avformat-novalidate</property>
  <property name="seekable">1</property>
  <property name="audio_index">0</property>
  <property name="video_index">-1</property>
  <property name="astream">0</property>
  <property name="kdenlive:folderid">-1</property>
  <property name="kdenlive:id">13</property>
  <property name="kdenlive:clip_type">1</property>
  <property name="kdenlive:file_size">160901</property>
  <property name="kdenlive:file_hash">4cef8f18303ec93e65226a259f4f3362</property>
  <property name="kdenlive:audio_max0">120</property>
  <property name="meta.media.nb_streams">1</property>
  <property name="meta.media.0.stream.type">audio</property>
  <property name="meta.media.0.codec.sample_fmt">fltp</property>
  <property name="meta.media.0.codec.sample_rate">48000</property>
  <property name="meta.media.0.codec.channels">2</property>
  <property name="meta.media.0.codec.name">aac</property>
  <property name="meta.media.0.codec.long_name">AAC (Advanced Audio Coding)</property>
  <property name="meta.media.0.codec.bit_rate">180509</property>
  <property name="meta.attr.0.stream.creation_time.markup">2023-11-01T18:03:02.000000Z</property>
  <property name="meta.attr.0.stream.handler_name.markup">SoundHandler</property>
  <property name="meta.attr.0.stream.vendor_id.markup">[0][0][0][0]</property>
  <property name="meta.attr.major_brand.markup">mp42</property>
  <property name="meta.attr.minor_version.markup">0</property>
  <property name="meta.attr.compatible_brands.markup">mp41isom</property>
  <property name="meta.attr.creation_time.markup">2023-11-01T18:03:02.000000Z</property>
  <property name="meta.attr.date.markup">2023</property>
  <property name="meta.attr.album_artist.markup">Запись голоса</property>
  <property name="meta.attr.title.markup">ch02-s03-categories</property>
  <property name="xml">was here</property>
  <property name="mute_on_pause">0</property>
  <property name="set.test_audio">0</property>
  <property name="set.test_image">1</property>
 </chain>
 <chain id="chain9" out="00:00:05.600">
  <property name="length">85</property>
  <property name="eof">pause</property>
  <property name="resource">ch03-s01-bills_en.m4a</property>
  <property name="mlt_service">avformat-novalidate</property>
  <property name="seekable">1</property>
  <property name="audio_index">0</property>
  <property name="video_index">-1</property>
  <property name="astream">0</property>
  <property name="kdenlive:folderid">-1</property>
  <property name="kdenlive:id">14</property>
  <property name="kdenlive:clip_type">1</property>
  <property name="kdenlive:file_size">117602</property>
  <property name="kdenlive:file_hash">ac608d3e60931a2d0dd5150d634f4a07</property>
  <property name="kdenlive:audio_max0">131</property>
  <property name="meta.media.nb_streams">1</property>
  <property name="meta.media.0.stream.type">audio</property>
  <property name="meta.media.0.codec.sample_fmt">fltp</property>
  <property name="meta.media.0.codec.sample_rate">48000</property>
  <property name="meta.media.0.codec.channels">2</property>
  <property name="meta.media.0.codec.name">aac</property>
  <property name="meta.media.0.codec.long_name">AAC (Advanced Audio Coding)</property>
  <property name="meta.media.0.codec.bit_rate">163129</property>
  <property name="meta.attr.0.stream.creation_time.markup">2023-11-01T18:08:17.000000Z</property>
  <property name="meta.attr.0.stream.handler_name.markup">SoundHandler</property>
  <property name="meta.attr.0.stream.vendor_id.markup">[0][0][0][0]</property>
  <property name="meta.attr.major_brand.markup">mp42</property>
  <property name="meta.attr.minor_version.markup">0</property>
  <property name="meta.attr.compatible_brands.markup">mp41isom</property>
  <property name="meta.attr.creation_time.markup">2023-11-01T18:08:17.000000Z</property>
  <property name="meta.attr.date.markup">2023</property>
  <property name="meta.attr.album_artist.markup">Запись голоса</property>
  <property name="meta.attr.title.markup">ch03-s01-bills</property>
  <property name="xml">was here</property>
  <property name="mute_on_pause">0</property>
  <property name="set.test_audio">0</property>
  <property name="set.test_image">1</property>
 </chain>
 <chain id="chain10" out="00:00:06.467">
  <property name="length">98</property>
  <property name="eof">pause</property>
  <property name="resource">ch04-s01-goals_en.m4a</property>
  <property name="mlt_service">avformat-novalidate</property>
  <property name="seekable">1</property>
  <property name="audio_index">0</property>
  <property name="video_index">-1</property>
  <property name="astream">0</property>
  <property name="kdenlive:folderid">-1</property>
  <property name="kdenlive:id">15</property>
  <property name="kdenlive:clip_type">1</property>
  <property name="kdenlive:file_size">136120</property>
  <property name="kdenlive:file_hash">d22814e7ce7f7b26b29f561264b62d93</property>
  <property name="kdenlive:audio_max0">129</property>
  <property name="meta.media.nb_streams">1</property>
  <property name="meta.media.0.stream.type">audio</property>
  <property name="meta.media.0.codec.sample_fmt">fltp</property>
  <property name="meta.media.0.codec.sample_rate">48000</property>
  <property name="meta.media.0.codec.channels">2</property>
  <property name="meta.media.0.codec.name">aac</property>
  <property name="meta.media.0.codec.long_name">AAC (Advanced Audio Coding)</property>
  <property name="meta.media.0.codec.bit_rate">164846</property>
  <property name="meta.attr.0.stream.creation_time.markup">2023-11-01T18:11:20.000000Z</property>
  <property name="meta.attr.0.stream.handler_name.markup">SoundHandler</property>
  <property name="meta.attr.0.stream.vendor_id.markup">[0][0][0][0]</property>
  <property name="meta.attr.major_brand.markup">mp42</property>
  <property name="meta.attr.minor_version.markup">0</property>
  <property name="meta.attr.compatible_brands.markup">mp41isom</property>
  <property name="meta.attr.creation_time.markup">2023-11-01T18:11:20.000000Z</property>
  <property name="meta.attr.date.markup">2023</property>
  <property name="meta.attr.album_artist.markup">Запись голоса</property>
  <property name="meta.attr.title.markup">ch04-s01-goals</property>
  <property name="xml">was here</property>
  <property name="mute_on_pause">0</property>
  <property name="set.test_audio">0</property>
  <property name="set.test_image">1</property>
 </chain>
 <chain id="chain11" out="00:00:06.000">
  <property name="length">91</property>
  <property name="eof">pause</property>
  <property name="resource">ch05-s01-exchange_en.m4a</property>
  <property name="mlt_service">avformat-novalidate</property>
  <property name="seekable">1</property>
  <property name="audio_index">0</property>
  <property name="video_index">-1</property>
  <property name="astream">0</property>
  <property name="kdenlive:folderid">-1</property>
  <property name="kdenlive:id">16</property>
  <property name="kdenlive:clip_type">1</property>
  <property name="kdenlive:file_size">136462</property>
  <property name="kdenlive:file_hash">fcd21e8932989136bd8d7db2fb175447</property>
  <property name="kdenlive:audio_max0">122</property>
  <property name="meta.media.nb_streams">1</property>
  <property name="meta.media.0.stream.type">audio</property>
  <property name="meta.media.0.codec.sample_fmt">fltp</property>
  <property name="meta.media.0.codec.sample_rate">48000</property>
  <property name="meta.media.0.codec.channels">19</property>
  <property name="meta.media.0.codec.name">aac</property>
  <property name="meta.media.0.codec.long_name">AAC (Advanced Audio Coding)</property>
  <property name="meta.media.0.codec.bit_rate">176327</property>
  <property name="meta.attr.0.stream.creation_time.markup">2023-11-01T18:15:50.000000Z</property>
  <property name="meta.attr.0.stream.handler_name.markup">SoundHandler</property>
  <property name="meta.attr.0.stream.vendor_id.markup">[0][0][0][0]</property>
  <property name="meta.attr.major_brand.markup">mp42</property>
  <property name="meta.attr.minor_version.markup">0</property>
  <property name="meta.attr.compatible_brands.markup">mp41isom</property>
  <property name="meta.attr.creation_time.markup">2023-11-01T18:15:50.000000Z</property>
  <property name="meta.attr.date.markup">2023</property>
  <property name="meta.attr.album_artist.markup">Запись голоса</property>
  <property name="meta.attr.title.markup">ch05-s01-exchange</property>
  <property name="xml">was here</property>
  <property name="mute_on_pause">0</property>
  <property name="set.test_audio">0</property>
  <property name="set.test_image">1</property>
 </chain>
 <chain id="chain12" out="00:00:02.867">
  <property name="length">44</property>
  <property name="eof">pause</property>
  <property name="resource">ch05-s01-metrics_en.m4a</property>
  <property name="mlt_service">avformat-novalidate</property>
  <property name="seekable">1</property>
  <property name="audio_index">0</property>
  <property name="video_index">-1</property>
  <property name="astream">0</property>
  <property name="kdenlive:folderid">-1</property>
  <property name="kdenlive:id">17</property>
  <property name="kdenlive:clip_type">1</property>
  <property name="kdenlive:file_size">68489</property>
  <property name="kdenlive:file_hash">a45ee9db81cffea341a1ed49fd002c61</property>
  <property name="kdenlive:audio_max0">151</property>
  <property name="meta.media.nb_streams">1</property>
  <property name="meta.media.0.stream.type">audio</property>
  <property name="meta.media.0.codec.sample_fmt">fltp</property>
  <property name="meta.media.0.codec.sample_rate">48000</property>
  <property name="meta.media.0.codec.channels">2</property>
  <property name="meta.media.0.codec.name">aac</property>
  <property name="meta.media.0.codec.long_name">AAC (Advanced Audio Coding)</property>
  <property name="meta.media.0.codec.bit_rate">182869</property>
  <property name="meta.attr.0.stream.creation_time.markup">2023-11-01T18:19:19.000000Z</property>
  <property name="meta.attr.0.stream.handler_name.markup">SoundHandler</property>
  <property name="meta.attr.0.stream.vendor_id.markup">[0][0][0][0]</property>
  <property name="meta.attr.major_brand.markup">mp42</property>
  <property name="meta.attr.minor_version.markup">0</property>
  <property name="meta.attr.compatible_brands.markup">mp41isom</property>
  <property name="meta.attr.creation_time.markup">2023-11-01T18:19:19.000000Z</property>
  <property name="meta.attr.date.markup">2023</property>
  <property name="meta.attr.album_artist.markup">Запись голоса</property>
  <property name="meta.attr.title.markup">ch05-s01-metrics</property>
  <property name="xml">was here</property>
  <property name="mute_on_pause">0</property>
  <property name="set.test_audio">0</property>
  <property name="set.test_image">1</property>
 </chain>
 <chain id="chain13" out="00:00:11.933">
  <property name="length">180</property>
  <property name="eof">pause</property>
  <property name="resource">ch05-s02-list_en.m4a</property>
  <property name="mlt_service">avformat-novalidate</property>
  <property name="seekable">1</property>
  <property name="audio_index">0</property>
  <property name="video_index">-1</property>
  <property name="astream">0</property>
  <property name="kdenlive:folderid">-1</property>
  <property name="kdenlive:id">18</property>
  <property name="kdenlive:clip_type">1</property>
  <property name="kdenlive:file_size">278698</property>
  <property name="kdenlive:file_hash">d4fb312fba70e8c13921aafb3c0f0eea</property>
  <property name="kdenlive:audio_max0">127</property>
  <property name="meta.media.nb_streams">1</property>
  <property name="meta.media.0.stream.type">audio</property>
  <property name="meta.media.0.codec.sample_fmt">fltp</property>
  <property name="meta.media.0.codec.sample_rate">48000</property>
  <property name="meta.media.0.codec.channels">2</property>
  <property name="meta.media.0.codec.name">aac</property>
  <property name="meta.media.0.codec.long_name">AAC (Advanced Audio Coding)</property>
  <property name="meta.media.0.codec.bit_rate">183600</property>
  <property name="meta.attr.0.stream.creation_time.markup">2023-11-01T18:23:34.000000Z</property>
  <property name="meta.attr.0.stream.handler_name.markup">SoundHandler</property>
  <property name="meta.attr.0.stream.vendor_id.markup">[0][0][0][0]</property>
  <property name="meta.attr.major_brand.markup">mp42</property>
  <property name="meta.attr.minor_version.markup">0</property>
  <property name="meta.attr.compatible_brands.markup">mp41isom</property>
  <property name="meta.attr.creation_time.markup">2023-11-01T18:23:34.000000Z</property>
  <property name="meta.attr.date.markup">2023</property>
  <property name="meta.attr.album_artist.markup">Запись голоса</property>
  <property name="meta.attr.title.markup">ch05-s02-list</property>
  <property name="xml">was here</property>
  <property name="mute_on_pause">0</property>
  <property name="set.test_audio">0</property>
  <property name="set.test_image">1</property>
 </chain>
 <chain id="chain14" out="00:00:06.600">
  <property name="length">100</property>
  <property name="eof">pause</property>
  <property name="resource">ch05-s03-insights_en.m4a</property>
  <property name="mlt_service">avformat-novalidate</property>
  <property name="seekable">1</property>
  <property name="audio_index">0</property>
  <property name="video_index">-1</property>
  <property name="astream">0</property>
  <property name="kdenlive:folderid">-1</property>
  <property name="kdenlive:id">19</property>
  <property name="kdenlive:clip_type">1</property>
  <property name="kdenlive:file_size">154047</property>
  <property name="kdenlive:file_hash">584034e23228b07c4b24fe749167b735</property>
  <property name="kdenlive:audio_max0">142</property>
  <property name="meta.media.nb_streams">1</property>
  <property name="meta.media.0.stream.type">audio</property>
  <property name="meta.media.0.codec.sample_fmt">fltp</property>
  <property name="meta.media.0.codec.sample_rate">48000</property>
  <property name="meta.media.0.codec.channels">2</property>
  <property name="meta.media.0.codec.name">aac</property>
  <property name="meta.media.0.codec.long_name">AAC (Advanced Audio Coding)</property>
  <property name="meta.media.0.codec.bit_rate">183191</property>
  <property name="meta.attr.0.stream.creation_time.markup">2023-11-01T18:28:56.000000Z</property>
  <property name="meta.attr.0.stream.handler_name.markup">SoundHandler</property>
  <property name="meta.attr.0.stream.vendor_id.markup">[0][0][0][0]</property>
  <property name="meta.attr.major_brand.markup">mp42</property>
  <property name="meta.attr.minor_version.markup">0</property>
  <property name="meta.attr.compatible_brands.markup">mp41isom</property>
  <property name="meta.attr.creation_time.markup">2023-11-01T18:28:56.000000Z</property>
  <property name="meta.attr.date.markup">2023</property>
  <property name="meta.attr.album_artist.markup">Запись голоса</property>
  <property name="meta.attr.title.markup">ch05-s03-insights</property>
  <property name="xml">was here</property>
  <property name="mute_on_pause">0</property>
  <property name="set.test_audio">0</property>
  <property name="set.test_image">1</property>
 </chain>
 <chain id="chain15" out="00:00:06.000">
  <property name="length">91</property>
  <property name="eof">pause</property>
  <property name="resource">ch06-s01-main-page_en.m4a</property>
  <property name="mlt_service">avformat-novalidate</property>
  <property name="seekable">1</property>
  <property name="audio_index">0</property>
  <property name="video_index">-1</property>
  <property name="astream">0</property>
  <property name="kdenlive:folderid">-1</property>
  <property name="kdenlive:id">20</property>
  <property name="kdenlive:clip_type">1</property>
  <property name="kdenlive:file_size">137911</property>
  <property name="kdenlive:file_hash">3473cb86709a6f48db7da8757baa7e83</property>
  <property name="kdenlive:audio_max0">166</property>
  <property name="meta.media.nb_streams">1</property>
  <property name="meta.media.0.stream.type">audio</property>
  <property name="meta.media.0.codec.sample_fmt">fltp</property>
  <property name="meta.media.0.codec.sample_rate">48000</property>
  <property name="meta.media.0.codec.channels">2</property>
  <property name="meta.media.0.codec.name">aac</property>
  <property name="meta.media.0.codec.long_name">AAC (Advanced Audio Coding)</property>
  <property name="meta.media.0.codec.bit_rate">178582</property>
  <property name="meta.attr.0.stream.creation_time.markup">2023-11-01T18:41:49.000000Z</property>
  <property name="meta.attr.0.stream.handler_name.markup">SoundHandler</property>
  <property name="meta.attr.0.stream.vendor_id.markup">[0][0][0][0]</property>
  <property name="meta.attr.major_brand.markup">mp42</property>
  <property name="meta.attr.minor_version.markup">0</property>
  <property name="meta.attr.compatible_brands.markup">mp41isom</property>
  <property name="meta.attr.creation_time.markup">2023-11-01T18:41:49.000000Z</property>
  <property name="meta.attr.date.markup">2023</property>
  <property name="meta.attr.album_artist.markup">Запись голоса</property>
  <property name="meta.attr.title.markup">ch06-s01-main-page</property>
  <property name="xml">was here</property>
  <property name="mute_on_pause">0</property>
  <property name="set.test_audio">0</property>
  <property name="set.test_image">1</property>
 </chain>
 <chain id="chain16" out="00:00:07.667">
  <property name="length">116</property>
  <property name="eof">pause</property>
  <property name="resource">ch06-s02-navigation-panel_en.m4a</property>
  <property name="mlt_service">avformat-novalidate</property>
  <property name="seekable">1</property>
  <property name="audio_index">0</property>
  <property name="video_index">-1</property>
  <property name="astream">0</property>
  <property name="kdenlive:folderid">-1</property>
  <property name="kdenlive:id">21</property>
  <property name="kdenlive:clip_type">1</property>
  <property name="kdenlive:file_size">179642</property>
  <property name="kdenlive:file_hash">f944b578d5c2cd2fff1ef020179d7ed5</property>
  <property name="kdenlive:audio_max0">143</property>
  <property name="meta.media.nb_streams">1</property>
  <property name="meta.media.0.stream.type">audio</property>
  <property name="meta.media.0.codec.sample_fmt">fltp</property>
  <property name="meta.media.0.codec.sample_rate">48000</property>
  <property name="meta.media.0.codec.channels">2</property>
  <property name="meta.media.0.codec.name">aac</property>
  <property name="meta.media.0.codec.long_name">AAC (Advanced Audio Coding)</property>
  <property name="meta.media.0.codec.bit_rate">182659</property>
  <property name="meta.attr.0.stream.creation_time.markup">2023-11-01T18:46:13.000000Z</property>
  <property name="meta.attr.0.stream.handler_name.markup">SoundHandler</property>
  <property name="meta.attr.0.stream.vendor_id.markup">[0][0][0][0]</property>
  <property name="meta.attr.major_brand.markup">mp42</property>
  <property name="meta.attr.minor_version.markup">0</property>
  <property name="meta.attr.compatible_brands.markup">mp41isom</property>
  <property name="meta.attr.creation_time.markup">2023-11-01T18:46:13.000000Z</property>
  <property name="meta.attr.date.markup">2023</property>
  <property name="meta.attr.album_artist.markup">Запись голоса</property>
  <property name="meta.attr.title.markup">ch06-s02-navigation-panel</property>
  <property name="xml">was here</property>
  <property name="mute_on_pause">0</property>
  <property name="set.test_audio">0</property>
  <property name="set.test_image">1</property>
 </chain>
 <chain id="chain17" out="00:00:08.867">
  <property name="length">134</property>
  <property name="eof">pause</property>
  <property name="resource">ch06-s03-colors_en.m4a</property>
  <property name="mlt_service">avformat-novalidate</property>
  <property name="seekable">1</property>
  <property name="audio_index">0</property>
  <property name="video_index">-1</property>
  <property name="astream">0</property>
  <property name="kdenlive:folderid">-1</property>
  <property name="kdenlive:id">22</property>
  <property name="kdenlive:clip_type">1</property>
  <property name="kdenlive:file_size">192075</property>
  <property name="kdenlive:file_hash">d69fd86750d00faad304d78d6cf21b5f</property>
  <property name="kdenlive:audio_max0">132</property>
  <property name="meta.media.nb_streams">1</property>
  <property name="meta.media.0.stream.type">audio</property>
  <property name="meta.media.0.codec.sample_fmt">fltp</property>
  <property name="meta.media.0.codec.sample_rate">48000</property>
  <property name="meta.media.0.codec.channels">2</property>
  <property name="meta.media.0.codec.name">aac</property>
  <property name="meta.media.0.codec.long_name">AAC (Advanced Audio Coding)</property>
  <property name="meta.media.0.codec.bit_rate">169665</property>
  <property name="meta.attr.0.stream.creation_time.markup">2023-11-01T18:49:26.000000Z</property>
  <property name="meta.attr.0.stream.handler_name.markup">SoundHandler</property>
  <property name="meta.attr.0.stream.vendor_id.markup">[0][0][0][0]</property>
  <property name="meta.attr.major_brand.markup">mp42</property>
  <property name="meta.attr.minor_version.markup">0</property>
  <property name="meta.attr.compatible_brands.markup">mp41isom</property>
  <property name="meta.attr.creation_time.markup">2023-11-01T18:49:26.000000Z</property>
  <property name="meta.attr.date.markup">2023</property>
  <property name="meta.attr.album_artist.markup">Запись голоса</property>
  <property name="meta.attr.title.markup">ch06-s03-colors</property>
  <property name="xml">was here</property>
  <property name="mute_on_pause">0</property>
  <property name="set.test_audio">0</property>
  <property name="set.test_image">1</property>
 </chain>
 <chain id="chain18" out="00:00:04.267">
  <property name="length">65</property>
  <property name="eof">pause</property>
  <property name="resource">ch06-s04-last-choice_en.m4a</property>
  <property name="mlt_service">avformat-novalidate</property>
  <property name="seekable">1</property>
  <property name="audio_index">0</property>
  <property name="video_index">-1</property>
  <property name="astream">0</property>
  <property name="kdenlive:folderid">-1</property>
  <property name="kdenlive:id">23</property>
  <property name="kdenlive:clip_type">1</property>
  <property name="kdenlive:file_size">99937</property>
  <property name="kdenlive:file_hash">38889c46410b883e6aebc6eb3802c062</property>
  <property name="kdenlive:audio_max0">123</property>
  <property name="meta.media.nb_streams">1</property>
  <property name="meta.media.0.stream.type">audio</property>
  <property name="meta.media.0.codec.sample_fmt">fltp</property>
  <property name="meta.media.0.codec.sample_rate">48000</property>
  <property name="meta.media.0.codec.channels">2</property>
  <property name="meta.media.0.codec.name">aac</property>
  <property name="meta.media.0.codec.long_name">AAC (Advanced Audio Coding)</property>
  <property name="meta.media.0.codec.bit_rate">182268</property>
  <property name="meta.attr.0.stream.creation_time.markup">2023-11-01T19:22:00.000000Z</property>
  <property name="meta.attr.0.stream.handler_name.markup">SoundHandler</property>
  <property name="meta.attr.0.stream.vendor_id.markup">[0][0][0][0]</property>
  <property name="meta.attr.major_brand.markup">mp42</property>
  <property name="meta.attr.minor_version.markup">0</property>
  <property name="meta.attr.compatible_brands.markup">mp41isom</property>
  <property name="meta.attr.creation_time.markup">2023-11-01T19:22:00.000000Z</property>
  <property name="meta.attr.date.markup">2023</property>
  <property name="meta.attr.album_artist.markup">Запись голоса</property>
  <property name="meta.attr.title.markup">ch06-s04-last-choice</property>
  <property name="xml">was here</property>
  <property name="mute_on_pause">0</property>
  <property name="set.test_audio">0</property>
  <property name="set.test_image">1</property>
 </chain>
 <chain id="chain19" out="00:00:04.000">
  <property name="length">61</property>
  <property name="eof">pause</property>
  <property name="resource">ch06-s05-scroll-to_en.m4a</property>
  <property name="mlt_service">avformat-novalidate</property>
  <property name="seekable">1</property>
  <property name="audio_index">0</property>
  <property name="video_index">-1</property>
  <property name="astream">0</property>
  <property name="kdenlive:folderid">-1</property>
  <property name="kdenlive:id">24</property>
  <property name="kdenlive:clip_type">1</property>
  <property name="kdenlive:file_size">84713</property>
  <property name="kdenlive:file_hash">7bfdc6d3233e5d1d07a45ba084642951</property>
  <property name="kdenlive:audio_max0">132</property>
  <property name="meta.media.nb_streams">1</property>
  <property name="meta.media.0.stream.type">audio</property>
  <property name="meta.media.0.codec.sample_fmt">fltp</property>
  <property name="meta.media.0.codec.sample_rate">48000</property>
  <property name="meta.media.0.codec.channels">2</property>
  <property name="meta.media.0.codec.name">aac</property>
  <property name="meta.media.0.codec.long_name">AAC (Advanced Audio Coding)</property>
  <property name="meta.media.0.codec.bit_rate">162535</property>
  <property name="meta.attr.0.stream.creation_time.markup">2023-11-01T19:24:12.000000Z</property>
  <property name="meta.attr.0.stream.handler_name.markup">SoundHandler</property>
  <property name="meta.attr.0.stream.vendor_id.markup">[0][0][0][0]</property>
  <property name="meta.attr.major_brand.markup">mp42</property>
  <property name="meta.attr.minor_version.markup">0</property>
  <property name="meta.attr.compatible_brands.markup">mp41isom</property>
  <property name="meta.attr.creation_time.markup">2023-11-01T19:24:12.000000Z</property>
  <property name="meta.attr.date.markup">2023</property>
  <property name="meta.attr.album_artist.markup">Запись голоса</property>
  <property name="meta.attr.title.markup">ch06-s05-scroll-to</property>
  <property name="xml">was here</property>
  <property name="mute_on_pause">0</property>
  <property name="set.test_audio">0</property>
  <property name="set.test_image">1</property>
 </chain>
 <chain id="chain20" out="00:00:04.933">
  <property name="length">75</property>
  <property name="eof">pause</property>
  <property name="resource">ch06-s06-expand_en.m4a</property>
  <property name="mlt_service">avformat-novalidate</property>
  <property name="seekable">1</property>
  <property name="audio_index">0</property>
  <property name="video_index">-1</property>
  <property name="astream">0</property>
  <property name="kdenlive:folderid">-1</property>
  <property name="kdenlive:id">25</property>
  <property name="kdenlive:clip_type">1</property>
  <property name="kdenlive:file_size">106541</property>
  <property name="kdenlive:file_hash">5e0fc971a90e3b7853cf5f3605a1547f</property>
  <property name="kdenlive:audio_max0">112</property>
  <property name="meta.media.nb_streams">1</property>
  <property name="meta.media.0.stream.type">audio</property>
  <property name="meta.media.0.codec.sample_fmt">fltp</property>
  <property name="meta.media.0.codec.sample_rate">48000</property>
  <property name="meta.media.0.codec.channels">2</property>
  <property name="meta.media.0.codec.name">aac</property>
  <property name="meta.media.0.codec.long_name">AAC (Advanced Audio Coding)</property>
  <property name="meta.media.0.codec.bit_rate">167194</property>
  <property name="meta.attr.0.stream.creation_time.markup">2023-11-01T19:28:31.000000Z</property>
  <property name="meta.attr.0.stream.handler_name.markup">SoundHandler</property>
  <property name="meta.attr.0.stream.vendor_id.markup">[0][0][0][0]</property>
  <property name="meta.attr.major_brand.markup">mp42</property>
  <property name="meta.attr.minor_version.markup">0</property>
  <property name="meta.attr.compatible_brands.markup">mp41isom</property>
  <property name="meta.attr.creation_time.markup">2023-11-01T19:28:31.000000Z</property>
  <property name="meta.attr.date.markup">2023</property>
  <property name="meta.attr.album_artist.markup">Запись голоса</property>
  <property name="meta.attr.title.markup">ch06-s06-expand</property>
  <property name="xml">was here</property>
  <property name="mute_on_pause">0</property>
  <property name="set.test_audio">0</property>
  <property name="set.test_image">1</property>
 </chain>
 <chain id="chain21" out="00:00:05.533">
  <property name="length">84</property>
  <property name="eof">pause</property>
  <property name="resource">ch06-s07-swipe_en.m4a</property>
  <property name="mlt_service">avformat-novalidate</property>
  <property name="seekable">1</property>
  <property name="audio_index">0</property>
  <property name="video_index">-1</property>
  <property name="astream">0</property>
  <property name="kdenlive:folderid">-1</property>
  <property name="kdenlive:id">26</property>
  <property name="kdenlive:clip_type">1</property>
  <property name="kdenlive:file_size">129052</property>
  <property name="kdenlive:file_hash">770de80d22e6f82e473f57467ffd1527</property>
  <property name="kdenlive:audio_max0">171</property>
  <property name="meta.media.nb_streams">1</property>
  <property name="meta.media.0.stream.type">audio</property>
  <property name="meta.media.0.codec.sample_fmt">fltp</property>
  <property name="meta.media.0.codec.sample_rate">48000</property>
  <property name="meta.media.0.codec.channels">2</property>
  <property name="meta.media.0.codec.name">aac</property>
  <property name="meta.media.0.codec.long_name">AAC (Advanced Audio Coding)</property>
  <property name="meta.media.0.codec.bit_rate">180641</property>
  <property name="meta.attr.0.stream.creation_time.markup">2023-11-01T19:31:14.000000Z</property>
  <property name="meta.attr.0.stream.handler_name.markup">SoundHandler</property>
  <property name="meta.attr.0.stream.vendor_id.markup">[0][0][0][0]</property>
  <property name="meta.attr.major_brand.markup">mp42</property>
  <property name="meta.attr.minor_version.markup">0</property>
  <property name="meta.attr.compatible_brands.markup">mp41isom</property>
  <property name="meta.attr.creation_time.markup">2023-11-01T19:31:14.000000Z</property>
  <property name="meta.attr.date.markup">2023</property>
  <property name="meta.attr.album_artist.markup">Запись голоса</property>
  <property name="meta.attr.title.markup">ch06-s07-swipe</property>
  <property name="xml">was here</property>
  <property name="mute_on_pause">0</property>
  <property name="set.test_audio">0</property>
  <property name="set.test_image">1</property>
 </chain>
 <chain id="chain22" out="00:00:07.400">
  <property name="length">112</property>
  <property name="eof">pause</property>
  <property name="resource">ch06-s08-zoom_en.m4a</property>
  <property name="mlt_service">avformat-novalidate</property>
  <property name="seekable">1</property>
  <property name="audio_index">0</property>
  <property name="video_index">-1</property>
  <property name="astream">0</property>
  <property name="kdenlive:folderid">-1</property>
  <property name="kdenlive:id">27</property>
  <property name="kdenlive:clip_type">1</property>
  <property name="kdenlive:file_size">157782</property>
  <property name="kdenlive:file_hash">79b533e4607275e1044b4c2309ec5804</property>
  <property name="kdenlive:audio_max0">149</property>
  <property name="meta.media.nb_streams">1</property>
  <property name="meta.media.0.stream.type">audio</property>
  <property name="meta.media.0.codec.sample_fmt">fltp</property>
  <property name="meta.media.0.codec.sample_rate">48000</property>
  <property name="meta.media.0.codec.channels">2</property>
  <property name="meta.media.0.codec.name">aac</property>
  <property name="meta.media.0.codec.long_name">AAC (Advanced Audio Coding)</property>
  <property name="meta.media.0.codec.bit_rate">166669</property>
  <property name="meta.attr.0.stream.creation_time.markup">2023-11-01T19:33:39.000000Z</property>
  <property name="meta.attr.0.stream.handler_name.markup">SoundHandler</property>
  <property name="meta.attr.0.stream.vendor_id.markup">[0][0][0][0]</property>
  <property name="meta.attr.major_brand.markup">mp42</property>
  <property name="meta.attr.minor_version.markup">0</property>
  <property name="meta.attr.compatible_brands.markup">mp41isom</property>
  <property name="meta.attr.creation_time.markup">2023-11-01T19:33:39.000000Z</property>
  <property name="meta.attr.date.markup">2023</property>
  <property name="meta.attr.album_artist.markup">Запись голоса</property>
  <property name="meta.attr.title.markup">ch06-s08-zoom</property>
  <property name="xml">was here</property>
  <property name="mute_on_pause">0</property>
  <property name="set.test_audio">0</property>
  <property name="set.test_image">1</property>
 </chain>
 <chain id="chain23" out="00:00:03.067">
  <property name="length">47</property>
  <property name="eof">pause</property>
  <property name="resource">ch07-s09-shortcuts_en.m4a</property>
  <property name="mlt_service">avformat-novalidate</property>
  <property name="seekable">1</property>
  <property name="audio_index">0</property>
  <property name="video_index">-1</property>
  <property name="astream">0</property>
  <property name="kdenlive:folderid">-1</property>
  <property name="kdenlive:id">28</property>
  <property name="kdenlive:clip_type">1</property>
  <property name="kdenlive:file_size">68292</property>
  <property name="kdenlive:file_hash">5d6aa71d0d9703260d3f23a21eb7567d</property>
  <property name="kdenlive:audio_max0">129</property>
  <property name="meta.media.nb_streams">1</property>
  <property name="meta.media.0.stream.type">audio</property>
  <property name="meta.media.0.codec.sample_fmt">fltp</property>
  <property name="meta.media.0.codec.sample_rate">48000</property>
  <property name="meta.media.0.codec.channels">2</property>
  <property name="meta.media.0.codec.name">aac</property>
  <property name="meta.media.0.codec.long_name">AAC (Advanced Audio Coding)</property>
  <property name="meta.media.0.codec.bit_rate">171414</property>
  <property name="meta.attr.0.stream.creation_time.markup">2023-11-01T19:36:10.000000Z</property>
  <property name="meta.attr.0.stream.handler_name.markup">SoundHandler</property>
  <property name="meta.attr.0.stream.vendor_id.markup">[0][0][0][0]</property>
  <property name="meta.attr.major_brand.markup">mp42</property>
  <property name="meta.attr.minor_version.markup">0</property>
  <property name="meta.attr.compatible_brands.markup">mp41isom</property>
  <property name="meta.attr.creation_time.markup">2023-11-01T19:36:10.000000Z</property>
  <property name="meta.attr.date.markup">2023</property>
  <property name="meta.attr.album_artist.markup">Запись голоса</property>
  <property name="meta.attr.title.markup">ch07-s09-shortcuts</property>
  <property name="xml">was here</property>
  <property name="mute_on_pause">0</property>
  <property name="set.test_audio">0</property>
  <property name="set.test_image">1</property>
 </chain>
 <chain id="chain24" out="00:00:10.267">
  <property name="length">155</property>
  <property name="eof">pause</property>
  <property name="resource">ch08-s01-conclusion_en.m4a</property>
  <property name="mlt_service">avformat-novalidate</property>
  <property name="seekable">1</property>
  <property name="audio_index">0</property>
  <property name="video_index">-1</property>
  <property name="astream">0</property>
  <property name="kdenlive:folderid">-1</property>
  <property name="kdenlive:id">29</property>
  <property name="kdenlive:clip_type">1</property>
  <property name="kdenlive:file_size">233019</property>
  <property name="kdenlive:file_hash">b29338b04fa1d2daea097972ca8ec678</property>
  <property name="kdenlive:audio_max0">148</property>
  <property name="meta.media.nb_streams">1</property>
  <property name="meta.media.0.stream.type">audio</property>
  <property name="meta.media.0.codec.sample_fmt">fltp</property>
  <property name="meta.media.0.codec.sample_rate">48000</property>
  <property name="meta.media.0.codec.channels">2</property>
  <property name="meta.media.0.codec.name">aac</property>
  <property name="meta.media.0.codec.long_name">AAC (Advanced Audio Coding)</property>
  <property name="meta.media.0.codec.bit_rate">178027</property>
  <property name="meta.attr.0.stream.creation_time.markup">2023-11-01T19:40:16.000000Z</property>
  <property name="meta.attr.0.stream.handler_name.markup">SoundHandler</property>
  <property name="meta.attr.0.stream.vendor_id.markup">[0][0][0][0]</property>
  <property name="meta.attr.major_brand.markup">mp42</property>
  <property name="meta.attr.minor_version.markup">0</property>
  <property name="meta.attr.compatible_brands.markup">mp41isom</property>
  <property name="meta.attr.creation_time.markup">2023-11-01T19:40:16.000000Z</property>
  <property name="meta.attr.date.markup">2023</property>
  <property name="meta.attr.album_artist.markup">Запись голоса</property>
  <property name="meta.attr.title.markup">ch08-s01-conclusion</property>
  <property name="xml">was here</property>
  <property name="mute_on_pause">0</property>
  <property name="set.test_audio">0</property>
  <property name="set.test_image">1</property>
 </chain>
 <chain id="chain25" out="00:00:01.600">
  <property name="length">25</property>
  <property name="eof">pause</property>
  <property name="resource">ch08-s03-thanks_en.m4a</property>
  <property name="mlt_service">avformat-novalidate</property>
  <property name="seekable">1</property>
  <property name="audio_index">0</property>
  <property name="video_index">-1</property>
  <property name="astream">0</property>
  <property name="kdenlive:folderid">-1</property>
  <property name="kdenlive:id">32</property>
  <property name="kdenlive:clip_type">1</property>
  <property name="kdenlive:file_size">38423</property>
  <property name="kdenlive:file_hash">9827404a712a2348e6c25ec7c7d68d97</property>
  <property name="kdenlive:audio_max0">124</property>
  <property name="meta.media.nb_streams">1</property>
  <property name="meta.media.0.stream.type">audio</property>
  <property name="meta.media.0.codec.sample_fmt">fltp</property>
  <property name="meta.media.0.codec.sample_rate">48000</property>
  <property name="meta.media.0.codec.channels">2</property>
  <property name="meta.media.0.codec.name">aac</property>
  <property name="meta.media.0.codec.long_name">AAC (Advanced Audio Coding)</property>
  <property name="meta.media.0.codec.bit_rate">178813</property>
  <property name="meta.attr.0.stream.creation_time.markup">2023-11-01T19:48:26.000000Z</property>
  <property name="meta.attr.0.stream.handler_name.markup">SoundHandler</property>
  <property name="meta.attr.0.stream.vendor_id.markup">[0][0][0][0]</property>
  <property name="meta.attr.major_brand.markup">mp42</property>
  <property name="meta.attr.minor_version.markup">0</property>
  <property name="meta.attr.compatible_brands.markup">mp41isom</property>
  <property name="meta.attr.creation_time.markup">2023-11-01T19:48:26.000000Z</property>
  <property name="meta.attr.date.markup">2023</property>
  <property name="meta.attr.album_artist.markup">Запись голоса</property>
  <property name="meta.attr.title.markup">ch08-s03-thanks</property>
  <property name="xml">was here</property>
  <property name="mute_on_pause">0</property>
  <property name="set.test_audio">0</property>
  <property name="set.test_image">1</property>
 </chain>
 <playlist id="playlist2">
  <property name="kdenlive:audio_track">1</property>
  <blank length="00:00:03.467"/>
  <entry producer="chain1" in="00:00:01.400" out="00:00:11.533">
   <property name="kdenlive:id">6</property>
  </entry>
  <blank length="00:00:01.467"/>
  <entry producer="chain2" in="00:00:00.400" out="00:00:09.533">
   <property name="kdenlive:id">7</property>
  </entry>
  <entry producer="chain3" in="00:00:00.933" out="00:00:08.533">
   <property name="kdenlive:id">8</property>
  </entry>
  <blank length="00:00:01.933"/>
  <entry producer="chain4" in="00:00:01.333" out="00:00:08.267">
   <property name="kdenlive:id">9</property>
  </entry>
  <blank length="00:00:00.400"/>
  <entry producer="chain5" in="00:00:01.333" out="00:00:08.267">
   <property name="kdenlive:id">10</property>
  </entry>
  <blank length="00:00:00.867"/>
  <entry producer="chain6" in="00:00:00.000" out="00:00:05.933">
   <property name="kdenlive:id">11</property>
  </entry>
  <blank length="00:00:00.867"/>
  <entry producer="chain7" in="00:00:00.800" out="00:00:07.133">
   <property name="kdenlive:id">12</property>
  </entry>
  <entry producer="chain7" in="00:00:07.200" out="00:00:07.200">
   <property name="kdenlive:id">12</property>
  </entry>
  <entry producer="chain7" in="00:00:07.267" out="00:00:07.267">
   <property name="kdenlive:id">12</property>
  </entry>
  <entry producer="chain7" in="00:00:07.333" out="00:00:07.333">
   <property name="kdenlive:id">12</property>
  </entry>
  <entry producer="chain7" in="00:00:07.400" out="00:00:07.400">
   <property name="kdenlive:id">12</property>
  </entry>
  <blank length="00:00:01.333"/>
  <entry producer="chain8" in="00:00:00.000" out="00:00:06.667">
   <property name="kdenlive:id">13</property>
  </entry>
  <blank length="00:00:00.467"/>
  <entry producer="chain9" in="00:00:01.400" out="00:00:05.600">
   <property name="kdenlive:id">14</property>
  </entry>
  <entry producer="chain10" in="00:00:01.933" out="00:00:06.200">
   <property name="kdenlive:id">15</property>
  </entry>
  <blank length="00:00:00.067"/>
  <entry producer="chain11" in="00:00:00.267" out="00:00:05.800">
   <property name="kdenlive:id">16</property>
  </entry>
  <entry producer="chain12" in="00:00:00.133" out="00:00:02.867">
   <property name="kdenlive:id">17</property>
  </entry>
  <blank length="00:00:00.133"/>
  <entry producer="chain13" in="00:00:00.000" out="00:00:11.933">
   <property name="kdenlive:id">18</property>
  </entry>
  <blank length="00:00:00.867"/>
  <entry producer="chain14" in="00:00:00.333" out="00:00:06.600">
   <property name="kdenlive:id">19</property>
  </entry>
  <entry producer="chain15" in="00:00:00.133" out="00:00:05.800">
   <property name="kdenlive:id">20</property>
  </entry>
  <blank length="00:00:00.200"/>
  <entry producer="chain16" in="00:00:00.067" out="00:00:07.400">
   <property name="kdenlive:id">21</property>
  </entry>
  <blank length="00:00:00.333"/>
  <entry producer="chain17" in="00:00:01.333" out="00:00:08.600">
   <property name="kdenlive:id">22</property>
  </entry>
  <blank length="00:00:00.067"/>
  <entry producer="chain18" in="00:00:00.133" out="00:00:04.067">
   <property name="kdenlive:id">23</property>
  </entry>
  <blank length="00:00:00.267"/>
  <entry producer="chain19" in="00:00:01.133" out="00:00:03.733">
   <property name="kdenlive:id">24</property>
  </entry>
  <blank length="00:00:00.400"/>
  <entry producer="chain20" in="00:00:01.533" out="00:00:04.933">
   <property name="kdenlive:id">25</property>
  </entry>
  <blank length="00:00:00.067"/>
  <entry producer="chain21" in="00:00:01.133" out="00:00:05.533">
   <property name="kdenlive:id">26</property>
  </entry>
  <blank length="00:00:00.067"/>
  <entry producer="chain22" in="00:00:01.400" out="00:00:06.733">
   <property name="kdenlive:id">27</property>
  </entry>
  <blank length="00:00:00.333"/>
  <entry producer="chain23" in="00:00:00.400" out="00:00:03.067">
   <property name="kdenlive:id">28</property>
  </entry>
  <blank length="00:00:00.667"/>
  <entry producer="chain24" in="00:00:01.333" out="00:00:09.933">
   <property name="kdenlive:id">29</property>
  </entry>
  <blank length="00:00:01.933"/>
  <entry producer="chain25" in="00:00:00.200" out="00:00:01.600">
   <property name="kdenlive:id">32</property>
  </entry>
 </playlist>
 <playlist id="playlist3">
  <property name="kdenlive:audio_track">1</property>
 </playlist>
 <tractor id="tractor1" in="00:00:00.000" out="00:02:45.267">
  <property name="kdenlive:audio_track">1</property>
  <property name="kdenlive:trackheight">67</property>
  <property name="kdenlive:timeline_active">0</property>
  <property name="kdenlive:collapsed">0</property>
  <property name="kdenlive:thumbs_format"/>
  <property name="kdenlive:audio_rec"/>
  <property name="kdenlive:track_name">Text</property>
  <track hide="video" producer="playlist2"/>
  <track hide="video" producer="playlist3"/>
  <filter id="filter4">
   <property name="window">75</property>
   <property name="max_gain">20dB</property>
   <property name="mlt_service">volume</property>
   <property name="internal_added">237</property>
   <property name="disable">1</property>
  </filter>
  <filter id="filter5">
   <property name="channel">-1</property>
   <property name="mlt_service">panner</property>
   <property name="internal_added">237</property>
   <property name="start">0.5</property>
   <property name="disable">1</property>
  </filter>
  <filter id="filter6">
   <property name="iec_scale">0</property>
   <property name="mlt_service">audiolevel</property>
   <property name="dbpeak">1</property>
   <property name="disable">1</property>
  </filter>
 </tractor>
 <chain id="chain26" out="00:04:25.200">
  <property name="length">3979</property>
  <property name="eof">pause</property>
  <property name="resource">background.mp4</property>
  <property name="mlt_service">avformat-novalidate</property>
  <property name="seekable">1</property>
  <property name="audio_index">-1</property>
  <property name="video_index">0</property>
  <property name="vstream">0</property>
  <property name="kdenlive:id">4</property>
  <property name="kdenlive:clip_type">2</property>
  <property name="kdenlive:file_size">14430340</property>
  <property name="kdenlive:file_hash">4c3c04a531ad7830b95d1c7b3f04c495</property>
  <property name="kdenlive:folderid">-1</property>
  <property name="meta.media.nb_streams">1</property>
  <property name="meta.media.0.stream.type">video</property>
  <property name="meta.media.0.stream.frame_rate">15</property>
  <property name="meta.media.0.stream.sample_aspect_ratio">1</property>
  <property name="meta.media.0.codec.width">1596</property>
  <property name="meta.media.0.codec.height">894</property>
  <property name="meta.media.0.codec.rotate">0</property>
  <property name="meta.media.0.codec.pix_fmt">yuv444p</property>
  <property name="meta.media.0.codec.sample_aspect_ratio">1</property>
  <property name="meta.media.0.codec.colorspace">709</property>
  <property name="meta.media.0.codec.color_trc">1</property>
  <property name="meta.media.0.codec.name">h264</property>
  <property name="meta.media.0.codec.long_name">H.264 / AVC / MPEG-4 AVC / MPEG-4 part 10</property>
  <property name="meta.media.0.codec.bit_rate">434684</property>
  <property name="meta.attr.0.stream.creation_time.markup">2023-11-02T18:30:54.000000Z</property>
  <property name="meta.attr.0.stream.handler_name.markup">VideoHandler</property>
  <property name="meta.attr.0.stream.vendor_id.markup">[0][0][0][0]</property>
  <property name="meta.attr.major_brand.markup">mp42</property>
  <property name="meta.attr.minor_version.markup">0</property>
  <property name="meta.attr.compatible_brands.markup">mp42mp41isomiso2</property>
  <property name="meta.attr.creation_time.markup">2023-11-02T18:30:54.000000Z</property>
  <property name="meta.attr.encoder.markup">x264</property>
  <property name="meta.media.sample_aspect_num">1</property>
  <property name="meta.media.sample_aspect_den">1</property>
  <property name="meta.media.frame_rate_num">15</property>
  <property name="meta.media.frame_rate_den">1</property>
  <property name="meta.media.colorspace">709</property>
  <property name="meta.media.color_trc">1</property>
  <property name="meta.media.has_b_frames">0</property>
  <property name="meta.media.width">1596</property>
  <property name="meta.media.height">894</property>
  <property name="meta.media.color_range">mpeg</property>
  <property name="xml">was here</property>
  <property name="mute_on_pause">0</property>
  <property name="meta.media.top_field_first">0</property>
  <property name="meta.media.progressive">1</property>
  <property name="set.test_audio">1</property>
  <property name="set.test_image">0</property>
 </chain>
 <playlist id="playlist4">
  <entry producer="chain26" in="00:00:00.000" out="00:00:38.200">
   <property name="kdenlive:id">4</property>
  </entry>
  <entry producer="chain26" in="00:00:38.267" out="00:00:50.200">
   <property name="kdenlive:id">4</property>
  </entry>
  <entry producer="chain26" in="00:00:50.267" out="00:02:34.667">
   <property name="kdenlive:id">4</property>
  </entry>
  <entry producer="chain26" in="00:03:59.733" out="00:04:11.000">
   <property name="kdenlive:id">4</property>
  </entry>
 </playlist>
 <playlist id="playlist5"/>
 <tractor id="tractor2" in="00:00:00.000" out="00:02:46.000">
  <property name="kdenlive:trackheight">67</property>
  <property name="kdenlive:timeline_active">0</property>
  <property name="kdenlive:collapsed">0</property>
  <property name="kdenlive:thumbs_format"/>
  <property name="kdenlive:audio_rec"/>
  <property name="kdenlive:track_name">Background</property>
  <track hide="audio" producer="playlist4"/>
  <track hide="audio" producer="playlist5"/>
 </tractor>
 <producer id="producer1" in="00:00:00.000" out="00:00:21.600">
  <property name="length">325</property>
  <property name="eof">pause</property>
  <property name="resource">1.100000:accounts.mp4</property>
  <property name="aspect_ratio">1</property>
  <property name="meta.media.nb_streams">1</property>
  <property name="meta.media.0.stream.type">video</property>
  <property name="meta.media.0.stream.frame_rate">15</property>
  <property name="meta.media.0.stream.sample_aspect_ratio">1</property>
  <property name="meta.media.0.codec.width">1156</property>
  <property name="meta.media.0.codec.height">724</property>
  <property name="meta.media.0.codec.rotate">0</property>
  <property name="meta.media.0.codec.pix_fmt">yuv444p</property>
  <property name="meta.media.0.codec.sample_aspect_ratio">1</property>
  <property name="meta.media.0.codec.colorspace">709</property>
  <property name="meta.media.0.codec.color_trc">1</property>
  <property name="meta.media.0.codec.name">h264</property>
  <property name="meta.media.0.codec.long_name">H.264 / AVC / MPEG-4 AVC / MPEG-4 part 10</property>
  <property name="meta.media.0.codec.bit_rate">887387</property>
  <property name="meta.attr.0.stream.creation_time.markup">2023-11-02T20:21:45.000000Z</property>
  <property name="meta.attr.0.stream.handler_name.markup">VideoHandler</property>
  <property name="meta.attr.0.stream.vendor_id.markup">[0][0][0][0]</property>
  <property name="meta.attr.major_brand.markup">mp42</property>
  <property name="meta.attr.minor_version.markup">0</property>
  <property name="meta.attr.compatible_brands.markup">mp42mp41isomiso2</property>
  <property name="meta.attr.creation_time.markup">2023-11-02T20:21:45.000000Z</property>
  <property name="meta.attr.encoder.markup">x264</property>
  <property name="seekable">1</property>
  <property name="meta.media.sample_aspect_num">1</property>
  <property name="meta.media.sample_aspect_den">1</property>
  <property name="audio_index">-1</property>
  <property name="video_index">0</property>
  <property name="warp_speed">1.1</property>
  <property name="warp_resource">accounts.mp4</property>
  <property name="mlt_service">timewarp</property>
  <property name="astream">-1</property>
  <property name="set.test_audio">1</property>
  <property name="set.test_image">0</property>
  <property name="kdenlive:id">35</property>
  <property name="warp_pitch">0</property>
  <property name="vstream">0</property>
  <property name="meta.media.frame_rate_num">15</property>
  <property name="meta.media.frame_rate_den">1</property>
  <property name="meta.media.colorspace">709</property>
  <property name="meta.media.color_trc">1</property>
  <property name="meta.media.has_b_frames">0</property>
  <property name="meta.media.width">1156</property>
  <property name="meta.media.height">724</property>
  <property name="meta.media.color_range">mpeg</property>
  <property name="meta.media.top_field_first">0</property>
  <property name="meta.media.progressive">1</property>
 </producer>
 <producer id="producer2" in="00:00:00.000" out="00:00:11.800">
  <property name="length">179</property>
  <property name="eof">pause</property>
  <property name="resource">2.000000:accounts.mp4</property>
  <property name="aspect_ratio">1</property>
  <property name="meta.media.nb_streams">1</property>
  <property name="meta.media.0.stream.type">video</property>
  <property name="meta.media.0.stream.frame_rate">15</property>
  <property name="meta.media.0.stream.sample_aspect_ratio">1</property>
  <property name="meta.media.0.codec.width">1156</property>
  <property name="meta.media.0.codec.height">724</property>
  <property name="meta.media.0.codec.rotate">0</property>
  <property name="meta.media.0.codec.pix_fmt">yuv444p</property>
  <property name="meta.media.0.codec.sample_aspect_ratio">1</property>
  <property name="meta.media.0.codec.colorspace">709</property>
  <property name="meta.media.0.codec.color_trc">1</property>
  <property name="meta.media.0.codec.name">h264</property>
  <property name="meta.media.0.codec.long_name">H.264 / AVC / MPEG-4 AVC / MPEG-4 part 10</property>
  <property name="meta.media.0.codec.bit_rate">887387</property>
  <property name="meta.attr.0.stream.creation_time.markup">2023-11-02T20:21:45.000000Z</property>
  <property name="meta.attr.0.stream.handler_name.markup">VideoHandler</property>
  <property name="meta.attr.0.stream.vendor_id.markup">[0][0][0][0]</property>
  <property name="meta.attr.major_brand.markup">mp42</property>
  <property name="meta.attr.minor_version.markup">0</property>
  <property name="meta.attr.compatible_brands.markup">mp42mp41isomiso2</property>
  <property name="meta.attr.creation_time.markup">2023-11-02T20:21:45.000000Z</property>
  <property name="meta.attr.encoder.markup">x264</property>
  <property name="seekable">1</property>
  <property name="meta.media.sample_aspect_num">1</property>
  <property name="meta.media.sample_aspect_den">1</property>
  <property name="audio_index">-1</property>
  <property name="video_index">0</property>
  <property name="warp_speed">2</property>
  <property name="warp_resource">accounts.mp4</property>
  <property name="mlt_service">timewarp</property>
  <property name="astream">-1</property>
  <property name="set.test_audio">1</property>
  <property name="set.test_image">0</property>
  <property name="kdenlive:id">35</property>
  <property name="warp_pitch">0</property>
  <property name="vstream">0</property>
  <property name="meta.media.frame_rate_num">15</property>
  <property name="meta.media.frame_rate_den">1</property>
  <property name="meta.media.colorspace">709</property>
  <property name="meta.media.color_trc">1</property>
  <property name="meta.media.has_b_frames">0</property>
  <property name="meta.media.width">1156</property>
  <property name="meta.media.height">724</property>
  <property name="meta.media.color_range">mpeg</property>
  <property name="meta.media.top_field_first">0</property>
  <property name="meta.media.progressive">1</property>
 </producer>
 <producer id="producer3" in="00:00:00.000" out="00:00:05.200">
  <property name="length">79</property>
  <property name="eof">pause</property>
  <property name="resource">4.500000:accounts.mp4</property>
  <property name="aspect_ratio">1</property>
  <property name="meta.media.nb_streams">1</property>
  <property name="meta.media.0.stream.type">video</property>
  <property name="meta.media.0.stream.frame_rate">15</property>
  <property name="meta.media.0.stream.sample_aspect_ratio">1</property>
  <property name="meta.media.0.codec.width">1156</property>
  <property name="meta.media.0.codec.height">724</property>
  <property name="meta.media.0.codec.rotate">0</property>
  <property name="meta.media.0.codec.pix_fmt">yuv444p</property>
  <property name="meta.media.0.codec.sample_aspect_ratio">1</property>
  <property name="meta.media.0.codec.colorspace">709</property>
  <property name="meta.media.0.codec.color_trc">1</property>
  <property name="meta.media.0.codec.name">h264</property>
  <property name="meta.media.0.codec.long_name">H.264 / AVC / MPEG-4 AVC / MPEG-4 part 10</property>
  <property name="meta.media.0.codec.bit_rate">887387</property>
  <property name="meta.attr.0.stream.creation_time.markup">2023-11-02T20:21:45.000000Z</property>
  <property name="meta.attr.0.stream.handler_name.markup">VideoHandler</property>
  <property name="meta.attr.0.stream.vendor_id.markup">[0][0][0][0]</property>
  <property name="meta.attr.major_brand.markup">mp42</property>
  <property name="meta.attr.minor_version.markup">0</property>
  <property name="meta.attr.compatible_brands.markup">mp42mp41isomiso2</property>
  <property name="meta.attr.creation_time.markup">2023-11-02T20:21:45.000000Z</property>
  <property name="meta.attr.encoder.markup">x264</property>
  <property name="seekable">1</property>
  <property name="meta.media.sample_aspect_num">1</property>
  <property name="meta.media.sample_aspect_den">1</property>
  <property name="audio_index">-1</property>
  <property name="video_index">0</property>
  <property name="warp_speed">4.5</property>
  <property name="warp_resource">accounts.mp4</property>
  <property name="mlt_service">timewarp</property>
  <property name="astream">-1</property>
  <property name="set.test_audio">1</property>
  <property name="set.test_image">0</property>
  <property name="kdenlive:id">35</property>
  <property name="warp_pitch">0</property>
  <property name="vstream">0</property>
  <property name="meta.media.frame_rate_num">15</property>
  <property name="meta.media.frame_rate_den">1</property>
  <property name="meta.media.colorspace">709</property>
  <property name="meta.media.color_trc">1</property>
  <property name="meta.media.has_b_frames">0</property>
  <property name="meta.media.width">1156</property>
  <property name="meta.media.height">724</property>
  <property name="meta.media.color_range">mpeg</property>
  <property name="meta.media.top_field_first">0</property>
  <property name="meta.media.progressive">1</property>
 </producer>
 <chain id="chain27" out="00:00:23.733">
  <property name="length">357</property>
  <property name="eof">pause</property>
  <property name="resource">accounts.mp4</property>
  <property name="mlt_service">avformat-novalidate</property>
  <property name="seekable">1</property>
  <property name="audio_index">-1</property>
  <property name="video_index">0</property>
  <property name="vstream">0</property>
  <property name="kdenlive:folderid">-1</property>
  <property name="kdenlive:id">35</property>
  <property name="mute_on_pause">0</property>
  <property name="kdenlive:clip_type">2</property>
  <property name="kdenlive:file_size">2642336</property>
  <property name="kdenlive:file_hash">22751f535e921504d517dd339e8043e3</property>
  <property name="meta.media.nb_streams">1</property>
  <property name="meta.media.0.stream.type">video</property>
  <property name="meta.media.0.stream.frame_rate">15</property>
  <property name="meta.media.0.stream.sample_aspect_ratio">1</property>
  <property name="meta.media.0.codec.width">1156</property>
  <property name="meta.media.0.codec.height">724</property>
  <property name="meta.media.0.codec.rotate">0</property>
  <property name="meta.media.0.codec.pix_fmt">yuv444p</property>
  <property name="meta.media.0.codec.sample_aspect_ratio">1</property>
  <property name="meta.media.0.codec.colorspace">709</property>
  <property name="meta.media.0.codec.color_trc">1</property>
  <property name="meta.media.0.codec.name">h264</property>
  <property name="meta.media.0.codec.long_name">H.264 / AVC / MPEG-4 AVC / MPEG-4 part 10</property>
  <property name="meta.media.0.codec.bit_rate">887387</property>
  <property name="meta.attr.0.stream.creation_time.markup">2023-11-02T20:21:45.000000Z</property>
  <property name="meta.attr.0.stream.handler_name.markup">VideoHandler</property>
  <property name="meta.attr.0.stream.vendor_id.markup">[0][0][0][0]</property>
  <property name="meta.attr.major_brand.markup">mp42</property>
  <property name="meta.attr.minor_version.markup">0</property>
  <property name="meta.attr.compatible_brands.markup">mp42mp41isomiso2</property>
  <property name="meta.attr.creation_time.markup">2023-11-02T20:21:45.000000Z</property>
  <property name="meta.attr.encoder.markup">x264</property>
  <property name="meta.media.sample_aspect_num">1</property>
  <property name="meta.media.sample_aspect_den">1</property>
  <property name="meta.media.frame_rate_num">15</property>
  <property name="meta.media.frame_rate_den">1</property>
  <property name="meta.media.colorspace">709</property>
  <property name="meta.media.color_trc">1</property>
  <property name="meta.media.has_b_frames">0</property>
  <property name="meta.media.width">1156</property>
  <property name="meta.media.height">724</property>
  <property name="meta.media.color_range">mpeg</property>
  <property name="xml">was here</property>
  <property name="meta.media.top_field_first">0</property>
  <property name="meta.media.progressive">1</property>
  <property name="set.test_audio">1</property>
  <property name="set.test_image">0</property>
 </chain>
 <producer id="producer4" in="00:00:00.000" out="00:00:07.000">
  <property name="length">106</property>
  <property name="eof">pause</property>
  <property name="resource">2.350000:budgets.mp4</property>
  <property name="aspect_ratio">1</property>
  <property name="meta.media.nb_streams">1</property>
  <property name="meta.media.0.stream.type">video</property>
  <property name="meta.media.0.stream.frame_rate">15</property>
  <property name="meta.media.0.stream.sample_aspect_ratio">1</property>
  <property name="meta.media.0.codec.width">1156</property>
  <property name="meta.media.0.codec.height">724</property>
  <property name="meta.media.0.codec.rotate">0</property>
  <property name="meta.media.0.codec.pix_fmt">yuv444p</property>
  <property name="meta.media.0.codec.sample_aspect_ratio">1</property>
  <property name="meta.media.0.codec.colorspace">709</property>
  <property name="meta.media.0.codec.color_trc">1</property>
  <property name="meta.media.0.codec.name">h264</property>
  <property name="meta.media.0.codec.long_name">H.264 / AVC / MPEG-4 AVC / MPEG-4 part 10</property>
  <property name="meta.media.0.codec.bit_rate">170457</property>
  <property name="meta.attr.0.stream.creation_time.markup">2023-11-02T20:36:10.000000Z</property>
  <property name="meta.attr.0.stream.handler_name.markup">VideoHandler</property>
  <property name="meta.attr.0.stream.vendor_id.markup">[0][0][0][0]</property>
  <property name="meta.attr.major_brand.markup">mp42</property>
  <property name="meta.attr.minor_version.markup">0</property>
  <property name="meta.attr.compatible_brands.markup">mp42mp41isomiso2</property>
  <property name="meta.attr.creation_time.markup">2023-11-02T20:36:10.000000Z</property>
  <property name="meta.attr.encoder.markup">x264</property>
  <property name="seekable">1</property>
  <property name="meta.media.sample_aspect_num">1</property>
  <property name="meta.media.sample_aspect_den">1</property>
  <property name="audio_index">-1</property>
  <property name="video_index">0</property>
  <property name="warp_speed">2.35</property>
  <property name="warp_resource">budgets.mp4</property>
  <property name="mlt_service">timewarp</property>
  <property name="astream">-1</property>
  <property name="set.test_audio">1</property>
  <property name="set.test_image">0</property>
  <property name="kdenlive:id">36</property>
  <property name="warp_pitch">0</property>
  <property name="vstream">0</property>
  <property name="meta.media.frame_rate_num">15</property>
  <property name="meta.media.frame_rate_den">1</property>
  <property name="meta.media.colorspace">709</property>
  <property name="meta.media.color_trc">1</property>
  <property name="meta.media.has_b_frames">0</property>
  <property name="meta.media.width">1156</property>
  <property name="meta.media.height">724</property>
  <property name="meta.media.color_range">mpeg</property>
  <property name="meta.media.top_field_first">0</property>
  <property name="meta.media.progressive">1</property>
 </producer>
 <producer id="producer5" in="00:00:00.000" out="00:00:04.400">
  <property name="length">67</property>
  <property name="eof">pause</property>
  <property name="resource">2.400000:bills.mp4</property>
  <property name="aspect_ratio">1</property>
  <property name="meta.media.nb_streams">1</property>
  <property name="meta.media.0.stream.type">video</property>
  <property name="meta.media.0.stream.frame_rate">15</property>
  <property name="meta.media.0.stream.sample_aspect_ratio">1</property>
  <property name="meta.media.0.codec.width">1156</property>
  <property name="meta.media.0.codec.height">724</property>
  <property name="meta.media.0.codec.rotate">0</property>
  <property name="meta.media.0.codec.pix_fmt">yuv444p</property>
  <property name="meta.media.0.codec.sample_aspect_ratio">1</property>
  <property name="meta.media.0.codec.colorspace">709</property>
  <property name="meta.media.0.codec.color_trc">1</property>
  <property name="meta.media.0.codec.name">h264</property>
  <property name="meta.media.0.codec.long_name">H.264 / AVC / MPEG-4 AVC / MPEG-4 part 10</property>
  <property name="meta.media.0.codec.bit_rate">362804</property>
  <property name="meta.attr.0.stream.creation_time.markup">2023-11-02T20:39:57.000000Z</property>
  <property name="meta.attr.0.stream.handler_name.markup">VideoHandler</property>
  <property name="meta.attr.0.stream.vendor_id.markup">[0][0][0][0]</property>
  <property name="meta.attr.major_brand.markup">mp42</property>
  <property name="meta.attr.minor_version.markup">0</property>
  <property name="meta.attr.compatible_brands.markup">mp42mp41isomiso2</property>
  <property name="meta.attr.creation_time.markup">2023-11-02T20:39:57.000000Z</property>
  <property name="meta.attr.encoder.markup">x264</property>
  <property name="seekable">1</property>
  <property name="meta.media.sample_aspect_num">1</property>
  <property name="meta.media.sample_aspect_den">1</property>
  <property name="audio_index">-1</property>
  <property name="video_index">0</property>
  <property name="warp_speed">2.4</property>
  <property name="warp_resource">bills.mp4</property>
  <property name="mlt_service">timewarp</property>
  <property name="astream">-1</property>
  <property name="set.test_audio">1</property>
  <property name="set.test_image">0</property>
  <property name="kdenlive:id">37</property>
  <property name="warp_pitch">0</property>
  <property name="vstream">0</property>
  <property name="meta.media.frame_rate_num">15</property>
  <property name="meta.media.frame_rate_den">1</property>
  <property name="meta.media.colorspace">709</property>
  <property name="meta.media.color_trc">1</property>
  <property name="meta.media.has_b_frames">0</property>
  <property name="meta.media.width">1156</property>
  <property name="meta.media.height">724</property>
  <property name="meta.media.color_range">mpeg</property>
  <property name="meta.media.top_field_first">0</property>
  <property name="meta.media.progressive">1</property>
 </producer>
 <producer id="producer6" in="00:00:00.000" out="00:00:03.000">
  <property name="length">46</property>
  <property name="eof">pause</property>
  <property name="resource">12.000000:goal_1.mp4</property>
  <property name="aspect_ratio">1</property>
  <property name="meta.media.nb_streams">1</property>
  <property name="meta.media.0.stream.type">video</property>
  <property name="meta.media.0.stream.frame_rate">15</property>
  <property name="meta.media.0.stream.sample_aspect_ratio">1</property>
  <property name="meta.media.0.codec.width">1156</property>
  <property name="meta.media.0.codec.height">724</property>
  <property name="meta.media.0.codec.rotate">0</property>
  <property name="meta.media.0.codec.pix_fmt">yuv444p</property>
  <property name="meta.media.0.codec.sample_aspect_ratio">1</property>
  <property name="meta.media.0.codec.colorspace">709</property>
  <property name="meta.media.0.codec.color_trc">1</property>
  <property name="meta.media.0.codec.name">h264</property>
  <property name="meta.media.0.codec.long_name">H.264 / AVC / MPEG-4 AVC / MPEG-4 part 10</property>
  <property name="meta.media.0.codec.bit_rate">392699</property>
  <property name="meta.attr.0.stream.creation_time.markup">2023-11-02T20:42:36.000000Z</property>
  <property name="meta.attr.0.stream.handler_name.markup">VideoHandler</property>
  <property name="meta.attr.0.stream.vendor_id.markup">[0][0][0][0]</property>
  <property name="meta.attr.major_brand.markup">mp42</property>
  <property name="meta.attr.minor_version.markup">0</property>
  <property name="meta.attr.compatible_brands.markup">mp42mp41isomiso2</property>
  <property name="meta.attr.creation_time.markup">2023-11-02T20:42:36.000000Z</property>
  <property name="meta.attr.encoder.markup">x264</property>
  <property name="seekable">1</property>
  <property name="meta.media.sample_aspect_num">1</property>
  <property name="meta.media.sample_aspect_den">1</property>
  <property name="audio_index">-1</property>
  <property name="video_index">0</property>
  <property name="warp_speed">12</property>
  <property name="warp_resource">goal_1.mp4</property>
  <property name="mlt_service">timewarp</property>
  <property name="astream">-1</property>
  <property name="set.test_audio">1</property>
  <property name="set.test_image">0</property>
  <property name="kdenlive:id">38</property>
  <property name="warp_pitch">0</property>
  <property name="vstream">0</property>
  <property name="meta.media.frame_rate_num">15</property>
  <property name="meta.media.frame_rate_den">1</property>
  <property name="meta.media.colorspace">709</property>
  <property name="meta.media.color_trc">1</property>
  <property name="meta.media.has_b_frames">0</property>
  <property name="meta.media.width">1156</property>
  <property name="meta.media.height">724</property>
  <property name="meta.media.color_range">mpeg</property>
  <property name="meta.media.top_field_first">0</property>
  <property name="meta.media.progressive">1</property>
 </producer>
 <producer id="producer7" in="00:00:00.000" out="00:00:02.400">
  <property name="length">37</property>
  <property name="eof">pause</property>
  <property name="resource">14.000000:goal_2.mp4</property>
  <property name="aspect_ratio">1</property>
  <property name="meta.media.nb_streams">1</property>
  <property name="meta.media.0.stream.type">video</property>
  <property name="meta.media.0.stream.frame_rate">15</property>
  <property name="meta.media.0.stream.sample_aspect_ratio">1</property>
  <property name="meta.media.0.codec.width">1156</property>
  <property name="meta.media.0.codec.height">724</property>
  <property name="meta.media.0.codec.rotate">0</property>
  <property name="meta.media.0.codec.pix_fmt">yuv444p</property>
  <property name="meta.media.0.codec.sample_aspect_ratio">1</property>
  <property name="meta.media.0.codec.colorspace">709</property>
  <property name="meta.media.0.codec.color_trc">1</property>
  <property name="meta.media.0.codec.name">h264</property>
  <property name="meta.media.0.codec.long_name">H.264 / AVC / MPEG-4 AVC / MPEG-4 part 10</property>
  <property name="meta.media.0.codec.bit_rate">169390</property>
  <property name="meta.attr.0.stream.creation_time.markup">2023-11-02T20:47:09.000000Z</property>
  <property name="meta.attr.0.stream.handler_name.markup">VideoHandler</property>
  <property name="meta.attr.0.stream.vendor_id.markup">[0][0][0][0]</property>
  <property name="meta.attr.major_brand.markup">mp42</property>
  <property name="meta.attr.minor_version.markup">0</property>
  <property name="meta.attr.compatible_brands.markup">mp42mp41isomiso2</property>
  <property name="meta.attr.creation_time.markup">2023-11-02T20:47:09.000000Z</property>
  <property name="meta.attr.encoder.markup">x264</property>
  <property name="seekable">1</property>
  <property name="meta.media.sample_aspect_num">1</property>
  <property name="meta.media.sample_aspect_den">1</property>
  <property name="audio_index">-1</property>
  <property name="video_index">0</property>
  <property name="warp_speed">14</property>
  <property name="warp_resource">goal_2.mp4</property>
  <property name="mlt_service">timewarp</property>
  <property name="astream">-1</property>
  <property name="set.test_audio">1</property>
  <property name="set.test_image">0</property>
  <property name="kdenlive:id">39</property>
  <property name="warp_pitch">0</property>
  <property name="vstream">0</property>
  <property name="meta.media.frame_rate_num">15</property>
  <property name="meta.media.frame_rate_den">1</property>
  <property name="meta.media.colorspace">709</property>
  <property name="meta.media.color_trc">1</property>
  <property name="meta.media.has_b_frames">0</property>
  <property name="meta.media.width">1156</property>
  <property name="meta.media.height">724</property>
  <property name="meta.media.color_range">mpeg</property>
  <property name="meta.media.top_field_first">0</property>
  <property name="meta.media.progressive">1</property>
 </producer>
 <producer id="producer8" in="00:00:00.000" out="00:00:06.333">
  <property name="length">96</property>
  <property name="eof">pause</property>
  <property name="resource">5.000000:currencies.mp4</property>
  <property name="aspect_ratio">1</property>
  <property name="meta.media.nb_streams">1</property>
  <property name="meta.media.0.stream.type">video</property>
  <property name="meta.media.0.stream.frame_rate">15</property>
  <property name="meta.media.0.stream.sample_aspect_ratio">1</property>
  <property name="meta.media.0.codec.width">1156</property>
  <property name="meta.media.0.codec.height">724</property>
  <property name="meta.media.0.codec.rotate">0</property>
  <property name="meta.media.0.codec.pix_fmt">yuv444p</property>
  <property name="meta.media.0.codec.sample_aspect_ratio">1</property>
  <property name="meta.media.0.codec.colorspace">709</property>
  <property name="meta.media.0.codec.color_trc">1</property>
  <property name="meta.media.0.codec.name">h264</property>
  <property name="meta.media.0.codec.long_name">H.264 / AVC / MPEG-4 AVC / MPEG-4 part 10</property>
  <property name="meta.media.0.codec.bit_rate">318641</property>
  <property name="meta.attr.0.stream.creation_time.markup">2023-11-02T20:56:42.000000Z</property>
  <property name="meta.attr.0.stream.handler_name.markup">VideoHandler</property>
  <property name="meta.attr.0.stream.vendor_id.markup">[0][0][0][0]</property>
  <property name="meta.attr.major_brand.markup">mp42</property>
  <property name="meta.attr.minor_version.markup">0</property>
  <property name="meta.attr.compatible_brands.markup">mp42mp41isomiso2</property>
  <property name="meta.attr.creation_time.markup">2023-11-02T20:56:42.000000Z</property>
  <property name="meta.attr.encoder.markup">x264</property>
  <property name="seekable">1</property>
  <property name="meta.media.sample_aspect_num">1</property>
  <property name="meta.media.sample_aspect_den">1</property>
  <property name="audio_index">-1</property>
  <property name="video_index">0</property>
  <property name="warp_speed">5</property>
  <property name="warp_resource">currencies.mp4</property>
  <property name="mlt_service">timewarp</property>
  <property name="astream">-1</property>
  <property name="set.test_audio">1</property>
  <property name="set.test_image">0</property>
  <property name="kdenlive:id">40</property>
  <property name="warp_pitch">0</property>
  <property name="vstream">0</property>
  <property name="meta.media.frame_rate_num">15</property>
  <property name="meta.media.frame_rate_den">1</property>
  <property name="meta.media.colorspace">709</property>
  <property name="meta.media.color_trc">1</property>
  <property name="meta.media.has_b_frames">0</property>
  <property name="meta.media.width">1156</property>
  <property name="meta.media.height">724</property>
  <property name="meta.media.color_range">mpeg</property>
  <property name="meta.media.top_field_first">0</property>
  <property name="meta.media.progressive">1</property>
 </producer>
 <producer id="producer9" in="00:00:00.000" out="00:00:07.933">
  <property name="length">120</property>
  <property name="eof">pause</property>
  <property name="resource">4.000000:currencies.mp4</property>
  <property name="aspect_ratio">1</property>
  <property name="meta.media.nb_streams">1</property>
  <property name="meta.media.0.stream.type">video</property>
  <property name="meta.media.0.stream.frame_rate">15</property>
  <property name="meta.media.0.stream.sample_aspect_ratio">1</property>
  <property name="meta.media.0.codec.width">1156</property>
  <property name="meta.media.0.codec.height">724</property>
  <property name="meta.media.0.codec.rotate">0</property>
  <property name="meta.media.0.codec.pix_fmt">yuv444p</property>
  <property name="meta.media.0.codec.sample_aspect_ratio">1</property>
  <property name="meta.media.0.codec.colorspace">709</property>
  <property name="meta.media.0.codec.color_trc">1</property>
  <property name="meta.media.0.codec.name">h264</property>
  <property name="meta.media.0.codec.long_name">H.264 / AVC / MPEG-4 AVC / MPEG-4 part 10</property>
  <property name="meta.media.0.codec.bit_rate">318641</property>
  <property name="meta.attr.0.stream.creation_time.markup">2023-11-02T20:56:42.000000Z</property>
  <property name="meta.attr.0.stream.handler_name.markup">VideoHandler</property>
  <property name="meta.attr.0.stream.vendor_id.markup">[0][0][0][0]</property>
  <property name="meta.attr.major_brand.markup">mp42</property>
  <property name="meta.attr.minor_version.markup">0</property>
  <property name="meta.attr.compatible_brands.markup">mp42mp41isomiso2</property>
  <property name="meta.attr.creation_time.markup">2023-11-02T20:56:42.000000Z</property>
  <property name="meta.attr.encoder.markup">x264</property>
  <property name="seekable">1</property>
  <property name="meta.media.sample_aspect_num">1</property>
  <property name="meta.media.sample_aspect_den">1</property>
  <property name="audio_index">-1</property>
  <property name="video_index">0</property>
  <property name="warp_speed">4</property>
  <property name="warp_resource">currencies.mp4</property>
  <property name="mlt_service">timewarp</property>
  <property name="astream">-1</property>
  <property name="set.test_audio">1</property>
  <property name="set.test_image">0</property>
  <property name="kdenlive:id">40</property>
  <property name="warp_pitch">0</property>
  <property name="vstream">0</property>
  <property name="meta.media.frame_rate_num">15</property>
  <property name="meta.media.frame_rate_den">1</property>
  <property name="meta.media.colorspace">709</property>
  <property name="meta.media.color_trc">1</property>
  <property name="meta.media.has_b_frames">0</property>
  <property name="meta.media.width">1156</property>
  <property name="meta.media.height">724</property>
  <property name="meta.media.color_range">mpeg</property>
  <property name="meta.media.top_field_first">0</property>
  <property name="meta.media.progressive">1</property>
 </producer>
 <producer id="producer10" in="00:00:00.000" out="00:00:12.267">
  <property name="length">185</property>
  <property name="eof">pause</property>
  <property name="resource">1.600000:metrics.mp4</property>
  <property name="aspect_ratio">1</property>
  <property name="meta.media.nb_streams">1</property>
  <property name="meta.media.0.stream.type">video</property>
  <property name="meta.media.0.stream.frame_rate">15</property>
  <property name="meta.media.0.stream.sample_aspect_ratio">1</property>
  <property name="meta.media.0.codec.width">1156</property>
  <property name="meta.media.0.codec.height">724</property>
  <property name="meta.media.0.codec.rotate">0</property>
  <property name="meta.media.0.codec.pix_fmt">yuv444p</property>
  <property name="meta.media.0.codec.sample_aspect_ratio">1</property>
  <property name="meta.media.0.codec.colorspace">709</property>
  <property name="meta.media.0.codec.color_trc">1</property>
  <property name="meta.media.0.codec.name">h264</property>
  <property name="meta.media.0.codec.long_name">H.264 / AVC / MPEG-4 AVC / MPEG-4 part 10</property>
  <property name="meta.media.0.codec.bit_rate">256341</property>
  <property name="meta.attr.0.stream.creation_time.markup">2023-11-02T21:06:35.000000Z</property>
  <property name="meta.attr.0.stream.handler_name.markup">VideoHandler</property>
  <property name="meta.attr.0.stream.vendor_id.markup">[0][0][0][0]</property>
  <property name="meta.attr.major_brand.markup">mp42</property>
  <property name="meta.attr.minor_version.markup">0</property>
  <property name="meta.attr.compatible_brands.markup">mp42mp41isomiso2</property>
  <property name="meta.attr.creation_time.markup">2023-11-02T21:06:35.000000Z</property>
  <property name="meta.attr.encoder.markup">x264</property>
  <property name="seekable">1</property>
  <property name="meta.media.sample_aspect_num">1</property>
  <property name="meta.media.sample_aspect_den">1</property>
  <property name="audio_index">-1</property>
  <property name="video_index">0</property>
  <property name="warp_speed">1.6</property>
  <property name="warp_resource">metrics.mp4</property>
  <property name="mlt_service">timewarp</property>
  <property name="astream">-1</property>
  <property name="set.test_audio">1</property>
  <property name="set.test_image">0</property>
  <property name="kdenlive:id">41</property>
  <property name="warp_pitch">0</property>
  <property name="vstream">0</property>
  <property name="meta.media.frame_rate_num">15</property>
  <property name="meta.media.frame_rate_den">1</property>
  <property name="meta.media.colorspace">709</property>
  <property name="meta.media.color_trc">1</property>
  <property name="meta.media.has_b_frames">0</property>
  <property name="meta.media.width">1156</property>
  <property name="meta.media.height">724</property>
  <property name="meta.media.color_range">mpeg</property>
  <property name="meta.media.top_field_first">0</property>
  <property name="meta.media.progressive">1</property>
 </producer>
 <producer id="producer11" in="00:00:00.000" out="00:00:09.867">
  <property name="length">149</property>
  <property name="eof">pause</property>
  <property name="resource">8.150000:adaptive-design.mp4</property>
  <property name="aspect_ratio">1</property>
  <property name="meta.media.nb_streams">2</property>
  <property name="meta.media.0.stream.type">video</property>
  <property name="meta.media.0.stream.frame_rate">15</property>
  <property name="meta.media.0.stream.sample_aspect_ratio">1</property>
  <property name="meta.media.0.codec.width">1816</property>
  <property name="meta.media.0.codec.height">1028</property>
  <property name="meta.media.0.codec.rotate">0</property>
  <property name="meta.media.0.codec.pix_fmt">yuv420p</property>
  <property name="meta.media.0.codec.sample_aspect_ratio">1</property>
  <property name="meta.media.0.codec.colorspace">709</property>
  <property name="meta.media.0.codec.color_trc">1</property>
  <property name="meta.media.0.codec.name">h264</property>
  <property name="meta.media.0.codec.long_name">H.264 / AVC / MPEG-4 AVC / MPEG-4 part 10</property>
  <property name="meta.media.0.codec.bit_rate">292958</property>
  <property name="meta.attr.0.stream.handler_name.markup">VideoHandler</property>
  <property name="meta.attr.0.stream.vendor_id.markup">[0][0][0][0]</property>
  <property name="meta.media.1.stream.type">audio</property>
  <property name="meta.media.1.codec.sample_fmt">fltp</property>
  <property name="meta.media.1.codec.sample_rate">48000</property>
  <property name="meta.media.1.codec.channels">2</property>
  <property name="meta.media.1.codec.name">aac</property>
  <property name="meta.media.1.codec.long_name">AAC (Advanced Audio Coding)</property>
  <property name="meta.media.1.codec.bit_rate">2272</property>
  <property name="meta.attr.1.stream.handler_name.markup">SoundHandler</property>
  <property name="meta.attr.1.stream.vendor_id.markup">[0][0][0][0]</property>
  <property name="meta.attr.major_brand.markup">isom</property>
  <property name="meta.attr.minor_version.markup">512</property>
  <property name="meta.attr.compatible_brands.markup">isomiso2avc1mp41</property>
  <property name="meta.attr.encoder.markup">Lavf60.3.100</property>
  <property name="seekable">1</property>
  <property name="meta.media.sample_aspect_num">1</property>
  <property name="meta.media.sample_aspect_den">1</property>
  <property name="audio_index">1</property>
  <property name="video_index">0</property>
  <property name="warp_speed">8.15</property>
  <property name="warp_resource">adaptive-design.mp4</property>
  <property name="mlt_service">timewarp</property>
  <property name="astream">0</property>
  <property name="set.test_audio">1</property>
  <property name="set.test_image">0</property>
  <property name="kdenlive:id">33</property>
  <property name="warp_pitch">0</property>
  <property name="vstream">0</property>
  <property name="meta.media.frame_rate_num">15</property>
  <property name="meta.media.frame_rate_den">1</property>
  <property name="meta.media.colorspace">709</property>
  <property name="meta.media.color_trc">1</property>
  <property name="meta.media.has_b_frames">2</property>
  <property name="meta.media.width">1816</property>
  <property name="meta.media.height">1028</property>
  <property name="meta.media.color_range">mpeg</property>
  <property name="meta.media.top_field_first">0</property>
  <property name="meta.media.progressive">1</property>
 </producer>
 <producer id="producer12" in="00:00:00.000" out="00:00:18.800">
  <property name="length">283</property>
  <property name="eof">pause</property>
  <property name="resource">4.300000:adaptive-design.mp4</property>
  <property name="aspect_ratio">1</property>
  <property name="meta.media.nb_streams">2</property>
  <property name="meta.media.0.stream.type">video</property>
  <property name="meta.media.0.stream.frame_rate">15</property>
  <property name="meta.media.0.stream.sample_aspect_ratio">1</property>
  <property name="meta.media.0.codec.width">1816</property>
  <property name="meta.media.0.codec.height">1028</property>
  <property name="meta.media.0.codec.rotate">0</property>
  <property name="meta.media.0.codec.pix_fmt">yuv420p</property>
  <property name="meta.media.0.codec.sample_aspect_ratio">1</property>
  <property name="meta.media.0.codec.colorspace">709</property>
  <property name="meta.media.0.codec.color_trc">1</property>
  <property name="meta.media.0.codec.name">h264</property>
  <property name="meta.media.0.codec.long_name">H.264 / AVC / MPEG-4 AVC / MPEG-4 part 10</property>
  <property name="meta.media.0.codec.bit_rate">292958</property>
  <property name="meta.attr.0.stream.handler_name.markup">VideoHandler</property>
  <property name="meta.attr.0.stream.vendor_id.markup">[0][0][0][0]</property>
  <property name="meta.media.1.stream.type">audio</property>
  <property name="meta.media.1.codec.sample_fmt">fltp</property>
  <property name="meta.media.1.codec.sample_rate">48000</property>
  <property name="meta.media.1.codec.channels">2</property>
  <property name="meta.media.1.codec.name">aac</property>
  <property name="meta.media.1.codec.long_name">AAC (Advanced Audio Coding)</property>
  <property name="meta.media.1.codec.bit_rate">2272</property>
  <property name="meta.attr.1.stream.handler_name.markup">SoundHandler</property>
  <property name="meta.attr.1.stream.vendor_id.markup">[0][0][0][0]</property>
  <property name="meta.attr.major_brand.markup">isom</property>
  <property name="meta.attr.minor_version.markup">512</property>
  <property name="meta.attr.compatible_brands.markup">isomiso2avc1mp41</property>
  <property name="meta.attr.encoder.markup">Lavf60.3.100</property>
  <property name="seekable">1</property>
  <property name="meta.media.sample_aspect_num">1</property>
  <property name="meta.media.sample_aspect_den">1</property>
  <property name="audio_index">1</property>
  <property name="video_index">0</property>
  <property name="warp_speed">4.3</property>
  <property name="warp_resource">adaptive-design.mp4</property>
  <property name="mlt_service">timewarp</property>
  <property name="astream">0</property>
  <property name="set.test_audio">1</property>
  <property name="set.test_image">0</property>
  <property name="kdenlive:id">33</property>
  <property name="warp_pitch">0</property>
  <property name="vstream">0</property>
  <property name="meta.media.frame_rate_num">15</property>
  <property name="meta.media.frame_rate_den">1</property>
  <property name="meta.media.colorspace">709</property>
  <property name="meta.media.color_trc">1</property>
  <property name="meta.media.has_b_frames">2</property>
  <property name="meta.media.width">1816</property>
  <property name="meta.media.height">1028</property>
  <property name="meta.media.color_range">mpeg</property>
  <property name="meta.media.top_field_first">0</property>
  <property name="meta.media.progressive">1</property>
 </producer>
 <producer id="producer13" in="00:00:00.000" out="00:00:10.133">
  <property name="length">153</property>
  <property name="eof">pause</property>
  <property name="resource">5.000000:settings.mp4</property>
  <property name="aspect_ratio">1</property>
  <property name="meta.media.nb_streams">1</property>
  <property name="meta.media.0.stream.type">video</property>
  <property name="meta.media.0.stream.frame_rate">15</property>
  <property name="meta.media.0.stream.sample_aspect_ratio">1</property>
  <property name="meta.media.0.codec.width">1156</property>
  <property name="meta.media.0.codec.height">724</property>
  <property name="meta.media.0.codec.rotate">0</property>
  <property name="meta.media.0.codec.pix_fmt">yuv444p</property>
  <property name="meta.media.0.codec.sample_aspect_ratio">1</property>
  <property name="meta.media.0.codec.colorspace">709</property>
  <property name="meta.media.0.codec.color_trc">1</property>
  <property name="meta.media.0.codec.name">h264</property>
  <property name="meta.media.0.codec.long_name">H.264 / AVC / MPEG-4 AVC / MPEG-4 part 10</property>
  <property name="meta.media.0.codec.bit_rate">225872</property>
  <property name="meta.attr.0.stream.creation_time.markup">2023-11-02T21:22:36.000000Z</property>
  <property name="meta.attr.0.stream.handler_name.markup">VideoHandler</property>
  <property name="meta.attr.0.stream.vendor_id.markup">[0][0][0][0]</property>
  <property name="meta.attr.major_brand.markup">mp42</property>
  <property name="meta.attr.minor_version.markup">0</property>
  <property name="meta.attr.compatible_brands.markup">mp42mp41isomiso2</property>
  <property name="meta.attr.creation_time.markup">2023-11-02T21:22:36.000000Z</property>
  <property name="meta.attr.encoder.markup">x264</property>
  <property name="seekable">1</property>
  <property name="meta.media.sample_aspect_num">1</property>
  <property name="meta.media.sample_aspect_den">1</property>
  <property name="audio_index">-1</property>
  <property name="video_index">0</property>
  <property name="warp_speed">5</property>
  <property name="warp_resource">settings.mp4</property>
  <property name="mlt_service">timewarp</property>
  <property name="astream">-1</property>
  <property name="set.test_audio">1</property>
  <property name="set.test_image">0</property>
  <property name="kdenlive:id">42</property>
  <property name="warp_pitch">0</property>
  <property name="vstream">0</property>
  <property name="meta.media.frame_rate_num">15</property>
  <property name="meta.media.frame_rate_den">1</property>
  <property name="meta.media.colorspace">709</property>
  <property name="meta.media.color_trc">1</property>
  <property name="meta.media.has_b_frames">0</property>
  <property name="meta.media.width">1156</property>
  <property name="meta.media.height">724</property>
  <property name="meta.media.color_range">mpeg</property>
  <property name="meta.media.top_field_first">0</property>
  <property name="meta.media.progressive">1</property>
 </producer>
 <producer id="producer14" in="00:00:00.000" out="00:00:03.200">
  <property name="length">49</property>
  <property name="eof">pause</property>
  <property name="resource">11.000000:autoscroll.mp4</property>
  <property name="aspect_ratio">1</property>
  <property name="meta.media.nb_streams">1</property>
  <property name="meta.media.0.stream.type">video</property>
  <property name="meta.media.0.stream.frame_rate">15</property>
  <property name="meta.media.0.stream.sample_aspect_ratio">1</property>
  <property name="meta.media.0.codec.width">1156</property>
  <property name="meta.media.0.codec.height">724</property>
  <property name="meta.media.0.codec.rotate">0</property>
  <property name="meta.media.0.codec.pix_fmt">yuv444p</property>
  <property name="meta.media.0.codec.sample_aspect_ratio">1</property>
  <property name="meta.media.0.codec.colorspace">709</property>
  <property name="meta.media.0.codec.color_trc">1</property>
  <property name="meta.media.0.codec.name">h264</property>
  <property name="meta.media.0.codec.long_name">H.264 / AVC / MPEG-4 AVC / MPEG-4 part 10</property>
  <property name="meta.media.0.codec.bit_rate">288514</property>
  <property name="meta.attr.0.stream.creation_time.markup">2023-11-02T21:28:53.000000Z</property>
  <property name="meta.attr.0.stream.handler_name.markup">VideoHandler</property>
  <property name="meta.attr.0.stream.vendor_id.markup">[0][0][0][0]</property>
  <property name="meta.attr.major_brand.markup">mp42</property>
  <property name="meta.attr.minor_version.markup">0</property>
  <property name="meta.attr.compatible_brands.markup">mp42mp41isomiso2</property>
  <property name="meta.attr.creation_time.markup">2023-11-02T21:28:53.000000Z</property>
  <property name="meta.attr.encoder.markup">x264</property>
  <property name="seekable">1</property>
  <property name="meta.media.sample_aspect_num">1</property>
  <property name="meta.media.sample_aspect_den">1</property>
  <property name="audio_index">-1</property>
  <property name="video_index">0</property>
  <property name="warp_speed">11</property>
  <property name="warp_resource">autoscroll.mp4</property>
  <property name="mlt_service">timewarp</property>
  <property name="astream">-1</property>
  <property name="set.test_audio">1</property>
  <property name="set.test_image">0</property>
  <property name="kdenlive:id">43</property>
  <property name="warp_pitch">0</property>
  <property name="vstream">0</property>
  <property name="meta.media.frame_rate_num">15</property>
  <property name="meta.media.frame_rate_den">1</property>
  <property name="meta.media.colorspace">709</property>
  <property name="meta.media.color_trc">1</property>
  <property name="meta.media.has_b_frames">0</property>
  <property name="meta.media.width">1156</property>
  <property name="meta.media.height">724</property>
  <property name="meta.media.color_range">mpeg</property>
  <property name="meta.media.top_field_first">0</property>
  <property name="meta.media.progressive">1</property>
 </producer>
 <producer id="producer15" in="00:00:00.000" out="00:00:05.067">
  <property name="length">77</property>
  <property name="eof">pause</property>
  <property name="resource">7.000000:autoscroll.mp4</property>
  <property name="aspect_ratio">1</property>
  <property name="meta.media.nb_streams">1</property>
  <property name="meta.media.0.stream.type">video</property>
  <property name="meta.media.0.stream.frame_rate">15</property>
  <property name="meta.media.0.stream.sample_aspect_ratio">1</property>
  <property name="meta.media.0.codec.width">1156</property>
  <property name="meta.media.0.codec.height">724</property>
  <property name="meta.media.0.codec.rotate">0</property>
  <property name="meta.media.0.codec.pix_fmt">yuv444p</property>
  <property name="meta.media.0.codec.sample_aspect_ratio">1</property>
  <property name="meta.media.0.codec.colorspace">709</property>
  <property name="meta.media.0.codec.color_trc">1</property>
  <property name="meta.media.0.codec.name">h264</property>
  <property name="meta.media.0.codec.long_name">H.264 / AVC / MPEG-4 AVC / MPEG-4 part 10</property>
  <property name="meta.media.0.codec.bit_rate">288514</property>
  <property name="meta.attr.0.stream.creation_time.markup">2023-11-02T21:28:53.000000Z</property>
  <property name="meta.attr.0.stream.handler_name.markup">VideoHandler</property>
  <property name="meta.attr.0.stream.vendor_id.markup">[0][0][0][0]</property>
  <property name="meta.attr.major_brand.markup">mp42</property>
  <property name="meta.attr.minor_version.markup">0</property>
  <property name="meta.attr.compatible_brands.markup">mp42mp41isomiso2</property>
  <property name="meta.attr.creation_time.markup">2023-11-02T21:28:53.000000Z</property>
  <property name="meta.attr.encoder.markup">x264</property>
  <property name="seekable">1</property>
  <property name="meta.media.sample_aspect_num">1</property>
  <property name="meta.media.sample_aspect_den">1</property>
  <property name="audio_index">-1</property>
  <property name="video_index">0</property>
  <property name="warp_speed">7</property>
  <property name="warp_resource">autoscroll.mp4</property>
  <property name="mlt_service">timewarp</property>
  <property name="astream">-1</property>
  <property name="set.test_audio">1</property>
  <property name="set.test_image">0</property>
  <property name="kdenlive:id">43</property>
  <property name="warp_pitch">0</property>
  <property name="vstream">0</property>
  <property name="meta.media.frame_rate_num">15</property>
  <property name="meta.media.frame_rate_den">1</property>
  <property name="meta.media.colorspace">709</property>
  <property name="meta.media.color_trc">1</property>
  <property name="meta.media.has_b_frames">0</property>
  <property name="meta.media.width">1156</property>
  <property name="meta.media.height">724</property>
  <property name="meta.media.color_range">mpeg</property>
  <property name="meta.media.top_field_first">0</property>
  <property name="meta.media.progressive">1</property>
 </producer>
 <producer id="producer16" in="00:00:00.000" out="00:00:03.267">
  <property name="length">50</property>
  <property name="eof">pause</property>
  <property name="resource">2.800000:collapse.mp4</property>
  <property name="aspect_ratio">1</property>
  <property name="meta.media.nb_streams">1</property>
  <property name="meta.media.0.stream.type">video</property>
  <property name="meta.media.0.stream.frame_rate">15</property>
  <property name="meta.media.0.stream.sample_aspect_ratio">1</property>
  <property name="meta.media.0.codec.width">1158</property>
  <property name="meta.media.0.codec.height">720</property>
  <property name="meta.media.0.codec.rotate">0</property>
  <property name="meta.media.0.codec.pix_fmt">yuv444p</property>
  <property name="meta.media.0.codec.sample_aspect_ratio">1</property>
  <property name="meta.media.0.codec.colorspace">709</property>
  <property name="meta.media.0.codec.color_trc">1</property>
  <property name="meta.media.0.codec.name">h264</property>
  <property name="meta.media.0.codec.long_name">H.264 / AVC / MPEG-4 AVC / MPEG-4 part 10</property>
  <property name="meta.media.0.codec.bit_rate">280768</property>
  <property name="meta.attr.0.stream.creation_time.markup">2023-11-02T21:35:22.000000Z</property>
  <property name="meta.attr.0.stream.handler_name.markup">VideoHandler</property>
  <property name="meta.attr.0.stream.vendor_id.markup">[0][0][0][0]</property>
  <property name="meta.attr.major_brand.markup">mp42</property>
  <property name="meta.attr.minor_version.markup">0</property>
  <property name="meta.attr.compatible_brands.markup">mp42mp41isomiso2</property>
  <property name="meta.attr.creation_time.markup">2023-11-02T21:35:22.000000Z</property>
  <property name="meta.attr.encoder.markup">x264</property>
  <property name="seekable">1</property>
  <property name="meta.media.sample_aspect_num">1</property>
  <property name="meta.media.sample_aspect_den">1</property>
  <property name="audio_index">-1</property>
  <property name="video_index">0</property>
  <property name="warp_speed">2.8</property>
  <property name="warp_resource">collapse.mp4</property>
  <property name="mlt_service">timewarp</property>
  <property name="astream">-1</property>
  <property name="set.test_audio">1</property>
  <property name="set.test_image">0</property>
  <property name="kdenlive:id">44</property>
  <property name="warp_pitch">0</property>
  <property name="vstream">0</property>
  <property name="meta.media.frame_rate_num">15</property>
  <property name="meta.media.frame_rate_den">1</property>
  <property name="meta.media.colorspace">709</property>
  <property name="meta.media.color_trc">1</property>
  <property name="meta.media.has_b_frames">0</property>
  <property name="meta.media.width">1158</property>
  <property name="meta.media.height">720</property>
  <property name="meta.media.color_range">mpeg</property>
  <property name="meta.media.top_field_first">0</property>
  <property name="meta.media.progressive">1</property>
 </producer>
 <producer id="producer17" in="00:00:00.000" out="00:00:04.600">
  <property name="length">70</property>
  <property name="eof">pause</property>
  <property name="resource">2.300000:swipe.mp4</property>
  <property name="aspect_ratio">1</property>
  <property name="meta.media.nb_streams">1</property>
  <property name="meta.media.0.stream.type">video</property>
  <property name="meta.media.0.stream.frame_rate">15</property>
  <property name="meta.media.0.stream.sample_aspect_ratio">1</property>
  <property name="meta.media.0.codec.width">1280</property>
  <property name="meta.media.0.codec.height">720</property>
  <property name="meta.media.0.codec.rotate">0</property>
  <property name="meta.media.0.codec.pix_fmt">yuv444p</property>
  <property name="meta.media.0.codec.sample_aspect_ratio">1</property>
  <property name="meta.media.0.codec.colorspace">709</property>
  <property name="meta.media.0.codec.color_trc">1</property>
  <property name="meta.media.0.codec.name">h264</property>
  <property name="meta.media.0.codec.long_name">H.264 / AVC / MPEG-4 AVC / MPEG-4 part 10</property>
  <property name="meta.media.0.codec.bit_rate">305474</property>
  <property name="meta.attr.0.stream.creation_time.markup">2023-11-02T21:39:27.000000Z</property>
  <property name="meta.attr.0.stream.handler_name.markup">VideoHandler</property>
  <property name="meta.attr.0.stream.vendor_id.markup">[0][0][0][0]</property>
  <property name="meta.attr.major_brand.markup">mp42</property>
  <property name="meta.attr.minor_version.markup">0</property>
  <property name="meta.attr.compatible_brands.markup">mp42mp41isomiso2</property>
  <property name="meta.attr.creation_time.markup">2023-11-02T21:39:27.000000Z</property>
  <property name="meta.attr.encoder.markup">x264</property>
  <property name="seekable">1</property>
  <property name="meta.media.sample_aspect_num">1</property>
  <property name="meta.media.sample_aspect_den">1</property>
  <property name="audio_index">-1</property>
  <property name="video_index">0</property>
  <property name="warp_speed">2.3</property>
  <property name="warp_resource">swipe.mp4</property>
  <property name="mlt_service">timewarp</property>
  <property name="astream">-1</property>
  <property name="set.test_audio">1</property>
  <property name="set.test_image">0</property>
  <property name="kdenlive:id">46</property>
  <property name="warp_pitch">0</property>
  <property name="vstream">0</property>
  <property name="meta.media.frame_rate_num">15</property>
  <property name="meta.media.frame_rate_den">1</property>
  <property name="meta.media.colorspace">709</property>
  <property name="meta.media.color_trc">1</property>
  <property name="meta.media.has_b_frames">0</property>
  <property name="meta.media.width">1280</property>
  <property name="meta.media.height">720</property>
  <property name="meta.media.color_range">mpeg</property>
  <property name="meta.media.top_field_first">0</property>
  <property name="meta.media.progressive">1</property>
 </producer>
 <producer id="producer18" in="00:00:00.000" out="00:00:05.133">
  <property name="length">78</property>
  <property name="eof">pause</property>
  <property name="resource">2.800000:zoom.mp4</property>
  <property name="aspect_ratio">1</property>
  <property name="meta.media.nb_streams">1</property>
  <property name="meta.media.0.stream.type">video</property>
  <property name="meta.media.0.stream.frame_rate">15</property>
  <property name="meta.media.0.stream.sample_aspect_ratio">1</property>
  <property name="meta.media.0.codec.width">1280</property>
  <property name="meta.media.0.codec.height">720</property>
  <property name="meta.media.0.codec.rotate">0</property>
  <property name="meta.media.0.codec.pix_fmt">yuv444p</property>
  <property name="meta.media.0.codec.sample_aspect_ratio">1</property>
  <property name="meta.media.0.codec.colorspace">709</property>
  <property name="meta.media.0.codec.color_trc">1</property>
  <property name="meta.media.0.codec.name">h264</property>
  <property name="meta.media.0.codec.long_name">H.264 / AVC / MPEG-4 AVC / MPEG-4 part 10</property>
  <property name="meta.media.0.codec.bit_rate">966739</property>
  <property name="meta.attr.0.stream.creation_time.markup">2023-11-02T21:46:58.000000Z</property>
  <property name="meta.attr.0.stream.handler_name.markup">VideoHandler</property>
  <property name="meta.attr.0.stream.vendor_id.markup">[0][0][0][0]</property>
  <property name="meta.attr.major_brand.markup">mp42</property>
  <property name="meta.attr.minor_version.markup">0</property>
  <property name="meta.attr.compatible_brands.markup">mp42mp41isomiso2</property>
  <property name="meta.attr.creation_time.markup">2023-11-02T21:46:58.000000Z</property>
  <property name="meta.attr.encoder.markup">x264</property>
  <property name="seekable">1</property>
  <property name="meta.media.sample_aspect_num">1</property>
  <property name="meta.media.sample_aspect_den">1</property>
  <property name="audio_index">-1</property>
  <property name="video_index">0</property>
  <property name="warp_speed">2.8</property>
  <property name="warp_resource">zoom.mp4</property>
  <property name="mlt_service">timewarp</property>
  <property name="astream">-1</property>
  <property name="set.test_audio">1</property>
  <property name="set.test_image">0</property>
  <property name="kdenlive:id">47</property>
  <property name="warp_pitch">0</property>
  <property name="vstream">0</property>
  <property name="meta.media.frame_rate_num">15</property>
  <property name="meta.media.frame_rate_den">1</property>
  <property name="meta.media.colorspace">709</property>
  <property name="meta.media.color_trc">1</property>
  <property name="meta.media.has_b_frames">0</property>
  <property name="meta.media.width">1280</property>
  <property name="meta.media.height">720</property>
  <property name="meta.media.color_range">mpeg</property>
  <property name="meta.media.top_field_first">0</property>
  <property name="meta.media.progressive">1</property>
 </producer>
 <producer id="producer19" in="00:00:00.000" out="00:00:06.333">
  <property name="length">96</property>
  <property name="eof">pause</property>
  <property name="resource">0.500000:keys.mp4</property>
  <property name="aspect_ratio">1</property>
  <property name="meta.media.nb_streams">1</property>
  <property name="meta.media.0.stream.type">video</property>
  <property name="meta.media.0.stream.frame_rate">15</property>
  <property name="meta.media.0.stream.sample_aspect_ratio">1</property>
  <property name="meta.media.0.codec.width">508</property>
  <property name="meta.media.0.codec.height">472</property>
  <property name="meta.media.0.codec.rotate">0</property>
  <property name="meta.media.0.codec.pix_fmt">yuv444p</property>
  <property name="meta.media.0.codec.sample_aspect_ratio">1</property>
  <property name="meta.media.0.codec.colorspace">601</property>
  <property name="meta.media.0.codec.color_trc">6</property>
  <property name="meta.media.0.codec.name">h264</property>
  <property name="meta.media.0.codec.long_name">H.264 / AVC / MPEG-4 AVC / MPEG-4 part 10</property>
  <property name="meta.media.0.codec.bit_rate">160165</property>
  <property name="meta.attr.0.stream.creation_time.markup">2023-11-02T21:49:42.000000Z</property>
  <property name="meta.attr.0.stream.handler_name.markup">VideoHandler</property>
  <property name="meta.attr.0.stream.vendor_id.markup">[0][0][0][0]</property>
  <property name="meta.attr.major_brand.markup">mp42</property>
  <property name="meta.attr.minor_version.markup">0</property>
  <property name="meta.attr.compatible_brands.markup">mp42mp41isomiso2</property>
  <property name="meta.attr.creation_time.markup">2023-11-02T21:49:42.000000Z</property>
  <property name="meta.attr.encoder.markup">x264</property>
  <property name="seekable">1</property>
  <property name="meta.media.sample_aspect_num">1</property>
  <property name="meta.media.sample_aspect_den">1</property>
  <property name="audio_index">-1</property>
  <property name="video_index">0</property>
  <property name="warp_speed">0.5</property>
  <property name="warp_resource">keys.mp4</property>
  <property name="mlt_service">timewarp</property>
  <property name="astream">-1</property>
  <property name="set.test_audio">1</property>
  <property name="set.test_image">0</property>
  <property name="kdenlive:id">48</property>
  <property name="warp_pitch">0</property>
  <property name="vstream">0</property>
  <property name="meta.media.frame_rate_num">15</property>
  <property name="meta.media.frame_rate_den">1</property>
  <property name="meta.media.colorspace">601</property>
  <property name="meta.media.color_trc">6</property>
  <property name="meta.media.has_b_frames">0</property>
  <property name="meta.media.width">508</property>
  <property name="meta.media.height">472</property>
  <property name="meta.media.color_range">mpeg</property>
  <property name="meta.media.top_field_first">0</property>
  <property name="meta.media.progressive">1</property>
 </producer>
 <producer id="producer20" in="00:00:00.000" out="00:00:04.933">
  <property name="length">75</property>
  <property name="eof">pause</property>
  <property name="resource"/>
  <property name="meta.media.progressive">1</property>
  <property name="aspect_ratio">1</property>
  <property name="seekable">1</property>
  <property name="mlt_service">kdenlivetitle</property>
  <property name="kdenlive:duration">00:00:05:00</property>
  <property name="kdenlive:clipname">Thank you fo...</property>
  <property name="xmldata">&lt;kdenlivetitle duration="75" LC_NUMERIC="C" width="1596" height="894" out="74">
 &lt;item type="QGraphicsTextItem" z-index="0">
  &lt;position x="1019" y="416">
   &lt;transform>1,0,0,0,1,0,0,0,1&lt;/transform>
  &lt;/position>
  &lt;content line-spacing="19" shadow="0;#64000000;3;3;3" font-underline="0" box-height="133" font-outline-color="0,0,0,255" font="Century Schoolbook L" letter-spacing="0" font-pixel-size="44" font-italic="0" typewriter="0;2;1;0;0" alignment="1" font-weight="50" font-outline="0" box-width="304.609" font-color="255,255,255,255">Thank you for 
your attention!&lt;/content>
 &lt;/item>
 &lt;startviewport rect="0,0,1596,894"/>
 &lt;endviewport rect="0,0,1596,894"/>
 &lt;background color="0,0,0,0"/>
&lt;/kdenlivetitle>
</property>
  <property name="xml">was here</property>
  <property name="kdenlive:folderid">-1</property>
  <property name="kdenlive:id">49</property>
  <property name="kdenlive:clip_type">2</property>
  <property name="kdenlive:file_hash">e6c1d66feacf8964e0bce9789b459ef7</property>
  <property name="force_reload">0</property>
  <property name="meta.media.width">1596</property>
  <property name="meta.media.height">894</property>
 </producer>
 <playlist id="playlist6">
  <blank length="00:00:56.067"/>
  <entry producer="producer1" in="00:00:00.000" out="00:00:03.933">
   <property name="kdenlive:id">35</property>
   <property name="kdenlive:activeeffect">1</property>
   <filter id="filter7">
    <property name="version">0.9</property>
    <property name="mlt_service">frei0r.transparency</property>
    <property name="kdenlive_id">frei0r.transparency</property>
    <property name="0">00:00:00.000=0;00:00:01.067=1</property>
    <property name="kdenlive:collapsed">0</property>
   </filter>
   <filter id="filter8">
    <property name="version">0.1</property>
    <property name="mlt_service">frei0r.scale0tilt</property>
    <property name="kdenlive_id">frei0r.scale0tilt</property>
    <property name="Clip left">00:00:00.000=0</property>
    <property name="Clip right">00:00:00.000=0</property>
    <property name="Clip top">00:00:00.000=0</property>
    <property name="Clip bottom">00:00:00.000=0</property>
    <property name="Scale X">00:00:00.000=0.35</property>
    <property name="Scale Y">00:00:00.000=0.39</property>
    <property name="Tilt X">00:00:00.000=0.494987</property>
    <property name="Tilt Y">00:00:00.000=0.581655</property>
    <property name="kdenlive:collapsed">0</property>
   </filter>
  </entry>
  <entry producer="producer2" in="00:00:04.533" out="00:00:04.933">
   <property name="kdenlive:id">35</property>
   <property name="kdenlive:activeeffect">1</property>
   <filter id="filter9">
    <property name="version">0.9</property>
    <property name="mlt_service">frei0r.transparency</property>
    <property name="kdenlive_id">frei0r.transparency</property>
    <property name="0">00:00:04.533=1</property>
    <property name="kdenlive:collapsed">0</property>
   </filter>
   <filter id="filter10">
    <property name="version">0.1</property>
    <property name="mlt_service">frei0r.scale0tilt</property>
    <property name="kdenlive_id">frei0r.scale0tilt</property>
    <property name="Clip left">00:00:04.533=0</property>
    <property name="Clip right">00:00:04.533=0</property>
    <property name="Clip top">00:00:04.533=0</property>
    <property name="Clip bottom">00:00:04.533=0</property>
    <property name="Scale X">00:00:04.533=0.35</property>
    <property name="Scale Y">00:00:04.533=0.39</property>
    <property name="Tilt X">00:00:04.533=0.494361</property>
    <property name="Tilt Y">00:00:04.533=0.580537</property>
    <property name="kdenlive:collapsed">0</property>
   </filter>
  </entry>
  <entry producer="producer3" in="00:00:02.200" out="00:00:03.867">
   <property name="kdenlive:id">35</property>
   <property name="kdenlive:activeeffect">1</property>
   <filter id="filter11">
    <property name="version">0.9</property>
    <property name="mlt_service">frei0r.transparency</property>
    <property name="kdenlive_id">frei0r.transparency</property>
    <property name="0">00:00:02.200=1</property>
    <property name="kdenlive:collapsed">0</property>
   </filter>
   <filter id="filter12">
    <property name="version">0.1</property>
    <property name="mlt_service">frei0r.scale0tilt</property>
    <property name="kdenlive_id">frei0r.scale0tilt</property>
    <property name="Clip left">00:00:02.200=0</property>
    <property name="Clip right">00:00:02.200=0</property>
    <property name="Clip top">00:00:02.200=0</property>
    <property name="Clip bottom">00:00:02.200=0</property>
    <property name="Scale X">00:00:02.200=0.35</property>
    <property name="Scale Y">00:00:02.200=0.39</property>
    <property name="Tilt X">00:00:02.200=0.494361</property>
    <property name="Tilt Y">00:00:02.200=0.580537</property>
    <property name="kdenlive:collapsed">0</property>
   </filter>
  </entry>
  <entry producer="chain27" in="00:00:17.667" out="00:00:19.200">
   <property name="kdenlive:id">35</property>
   <property name="kdenlive:activeeffect">0</property>
   <filter id="filter13">
    <property name="version">0.1</property>
    <property name="mlt_service">frei0r.scale0tilt</property>
    <property name="kdenlive_id">frei0r.scale0tilt</property>
    <property name="Clip left">00:00:17.667=0</property>
    <property name="Clip right">00:00:17.667=0</property>
    <property name="Clip top">00:00:17.667=0</property>
    <property name="Clip bottom">00:00:17.667=0</property>
    <property name="Scale X">00:00:17.667=0.35</property>
    <property name="Scale Y">00:00:17.667=0.39</property>
    <property name="Tilt X">00:00:17.667=0.494361</property>
    <property name="Tilt Y">00:00:17.667=0.580537</property>
    <property name="kdenlive:collapsed">0</property>
   </filter>
  </entry>
  <entry producer="producer4" in="00:00:00.000" out="00:00:07.000">
   <property name="kdenlive:id">36</property>
   <filter id="filter14">
    <property name="version">0.1</property>
    <property name="mlt_service">frei0r.scale0tilt</property>
    <property name="kdenlive_id">frei0r.scale0tilt</property>
    <property name="Clip left">00:00:00.000=0</property>
    <property name="Clip right">00:00:00.000=0</property>
    <property name="Clip top">00:00:00.000=0</property>
    <property name="Clip bottom">00:00:00.000=0</property>
    <property name="Scale X">00:00:00.000=0.35</property>
    <property name="Scale Y">00:00:00.000=0.39</property>
    <property name="Tilt X">00:00:00.000=0.488095</property>
    <property name="Tilt Y">00:00:00.000=0.572707</property>
    <property name="kdenlive:collapsed">0</property>
   </filter>
  </entry>
  <entry producer="producer5" in="00:00:00.000" out="00:00:04.400">
   <property name="kdenlive:id">37</property>
   <filter id="filter15">
    <property name="version">0.1</property>
    <property name="mlt_service">frei0r.scale0tilt</property>
    <property name="kdenlive_id">frei0r.scale0tilt</property>
    <property name="Clip left">00:00:00.000=0</property>
    <property name="Clip right">00:00:00.000=0</property>
    <property name="Clip top">00:00:00.000=0</property>
    <property name="Clip bottom">00:00:00.000=0</property>
    <property name="Scale X">00:00:00.000=0.35</property>
    <property name="Scale Y">00:00:00.000=0.39</property>
    <property name="Tilt X">00:00:00.000=0.488095</property>
    <property name="Tilt Y">00:00:00.000=0.572707</property>
    <property name="kdenlive:collapsed">0</property>
   </filter>
  </entry>
  <entry producer="producer6" in="00:00:00.000" out="00:00:02.467">
   <property name="kdenlive:id">38</property>
   <filter id="filter16">
    <property name="version">0.1</property>
    <property name="mlt_service">frei0r.scale0tilt</property>
    <property name="kdenlive_id">frei0r.scale0tilt</property>
    <property name="Clip left">00:00:00.000=0</property>
    <property name="Clip right">00:00:00.000=0</property>
    <property name="Clip top">00:00:00.000=0</property>
    <property name="Clip bottom">00:00:00.000=0</property>
    <property name="Scale X">00:00:00.000=0.35</property>
    <property name="Scale Y">00:00:00.000=0.39</property>
    <property name="Tilt X">00:00:00.000=0.488095</property>
    <property name="Tilt Y">00:00:00.000=0.572707</property>
    <property name="kdenlive:collapsed">0</property>
   </filter>
  </entry>
  <entry producer="producer7" in="00:00:00.000" out="00:00:02.400">
   <property name="kdenlive:id">39</property>
   <filter id="filter17">
    <property name="version">0.1</property>
    <property name="mlt_service">frei0r.scale0tilt</property>
    <property name="kdenlive_id">frei0r.scale0tilt</property>
    <property name="Clip left">00:00:00.000=0</property>
    <property name="Clip right">00:00:00.000=0</property>
    <property name="Clip top">00:00:00.000=0</property>
    <property name="Clip bottom">00:00:00.000=0</property>
    <property name="Scale X">00:00:00.000=0.35</property>
    <property name="Scale Y">00:00:00.000=0.39</property>
    <property name="Tilt X">00:00:00.000=0.488095</property>
    <property name="Tilt Y">00:00:00.000=0.572707</property>
    <property name="kdenlive:collapsed">0</property>
   </filter>
  </entry>
  <entry producer="producer8" in="00:00:00.000" out="00:00:04.333">
   <property name="kdenlive:id">40</property>
   <filter id="filter18">
    <property name="version">0.1</property>
    <property name="mlt_service">frei0r.scale0tilt</property>
    <property name="kdenlive_id">frei0r.scale0tilt</property>
    <property name="Clip left">00:00:00.000=0</property>
    <property name="Clip right">00:00:00.000=0</property>
    <property name="Clip top">00:00:00.000=0</property>
    <property name="Clip bottom">00:00:00.000=0</property>
    <property name="Scale X">00:00:00.000=0.35</property>
    <property name="Scale Y">00:00:00.000=0.39</property>
    <property name="Tilt X">00:00:00.000=0.488095</property>
    <property name="Tilt Y">00:00:00.000=0.572707</property>
    <property name="kdenlive:collapsed">0</property>
   </filter>
  </entry>
  <entry producer="producer9" in="00:00:06.867" out="00:00:07.867">
   <property name="kdenlive:id">40</property>
   <property name="kdenlive:activeeffect">1</property>
   <filter id="filter19">
    <property name="version">0.1</property>
    <property name="mlt_service">frei0r.scale0tilt</property>
    <property name="kdenlive_id">frei0r.scale0tilt</property>
    <property name="Clip left">00:00:06.867=0</property>
    <property name="Clip right">00:00:06.867=0</property>
    <property name="Clip top">00:00:06.867=0</property>
    <property name="Clip bottom">00:00:06.867=0</property>
    <property name="Scale X">00:00:06.867=0.35</property>
    <property name="Scale Y">00:00:06.867=0.39</property>
    <property name="Tilt X">00:00:06.867=0.488095</property>
    <property name="Tilt Y">00:00:06.867=0.572707</property>
    <property name="kdenlive:collapsed">0</property>
   </filter>
   <filter id="filter20">
    <property name="version">0.9</property>
    <property name="mlt_service">frei0r.transparency</property>
    <property name="kdenlive_id">frei0r.transparency</property>
    <property name="0">00:00:06.867=1;00:00:07.600=1;00:00:07.867=0</property>
    <property name="kdenlive:collapsed">0</property>
   </filter>
  </entry>
  <blank length="00:00:02.467"/>
  <entry producer="producer10" in="00:00:00.000" out="00:00:12.267">
   <property name="kdenlive:id">41</property>
   <property name="kdenlive:activeeffect">1</property>
   <filter id="filter21">
    <property name="version">0.9</property>
    <property name="mlt_service">frei0r.transparency</property>
    <property name="kdenlive_id">frei0r.transparency</property>
    <property name="0">00:00:00.000=0;00:00:00.267=1;00:00:11.267=1;00:00:12.267=0</property>
    <property name="kdenlive:collapsed">0</property>
   </filter>
   <filter id="filter22">
    <property name="version">0.1</property>
    <property name="mlt_service">frei0r.scale0tilt</property>
    <property name="kdenlive_id">frei0r.scale0tilt</property>
    <property name="Clip left">00:00:00.000=0</property>
    <property name="Clip right">00:00:00.000=0</property>
    <property name="Clip top">00:00:00.000=0</property>
    <property name="Clip bottom">00:00:00.000=0</property>
    <property name="Scale X">00:00:00.000=0.35</property>
    <property name="Scale Y">00:00:00.000=0.39</property>
    <property name="Tilt X">00:00:00.000=0.488095</property>
    <property name="Tilt Y">00:00:00.000=0.572707</property>
    <property name="kdenlive:collapsed">0</property>
   </filter>
  </entry>
  <blank length="00:00:07.000"/>
  <entry producer="producer11" in="00:00:04.000" out="00:00:09.867">
   <property name="kdenlive:id">33</property>
   <property name="kdenlive:activeeffect">1</property>
   <filter id="filter23">
    <property name="version">0.1</property>
    <property name="mlt_service">frei0r.scale0tilt</property>
    <property name="kdenlive_id">frei0r.scale0tilt</property>
    <property name="Clip left">00:00:04.000=0</property>
    <property name="Clip right">00:00:04.000=0</property>
    <property name="Clip top">00:00:04.000=0</property>
    <property name="Clip bottom">00:00:04.000=0</property>
    <property name="Scale X">00:00:04.000=0.32</property>
    <property name="Scale Y">00:00:04.000=0.38</property>
    <property name="Tilt X">00:00:04.000=0.517544</property>
    <property name="Tilt Y">00:00:04.000=0.58613</property>
    <property name="kdenlive:collapsed">0</property>
   </filter>
   <filter id="filter24">
    <property name="version">0.9</property>
    <property name="mlt_service">frei0r.transparency</property>
    <property name="kdenlive_id">frei0r.transparency</property>
    <property name="0">00:00:04.000=0;00:00:05.200=1</property>
    <property name="kdenlive:collapsed">0</property>
   </filter>
  </entry>
  <entry producer="producer12" in="00:00:00.000" out="00:00:07.333">
   <property name="kdenlive:id">33</property>
   <filter id="filter25">
    <property name="version">0.1</property>
    <property name="mlt_service">frei0r.scale0tilt</property>
    <property name="kdenlive_id">frei0r.scale0tilt</property>
    <property name="Clip left">00:00:00.000=0</property>
    <property name="Clip right">00:00:00.000=0</property>
    <property name="Clip top">00:00:00.000=0</property>
    <property name="Clip bottom">00:00:00.000=0</property>
    <property name="Scale X">00:00:00.000=0.32</property>
    <property name="Scale Y">00:00:00.000=0.38</property>
    <property name="Tilt X">00:00:00.000=0.517544</property>
    <property name="Tilt Y">00:00:00.000=0.58613</property>
    <property name="kdenlive:collapsed">0</property>
   </filter>
  </entry>
  <entry producer="producer13" in="00:00:00.000" out="00:00:10.067">
   <property name="kdenlive:id">42</property>
   <property name="kdenlive:activeeffect">1</property>
   <filter id="filter26">
    <property name="version">0.1</property>
    <property name="mlt_service">frei0r.scale0tilt</property>
    <property name="kdenlive_id">frei0r.scale0tilt</property>
    <property name="Clip left">00:00:00.000=0</property>
    <property name="Clip right">00:00:00.000=0</property>
    <property name="Clip top">00:00:00.000=0</property>
    <property name="Clip bottom">00:00:00.000=0</property>
    <property name="Scale X">00:00:00.000=0.32</property>
    <property name="Scale Y">00:00:00.000=0.38</property>
    <property name="Tilt X">00:00:00.000=0.501253</property>
    <property name="Tilt Y">00:00:00.000=0.58613</property>
    <property name="kdenlive:collapsed">0</property>
   </filter>
   <filter id="filter27">
    <property name="version">0.9</property>
    <property name="mlt_service">frei0r.transparency</property>
    <property name="kdenlive_id">frei0r.transparency</property>
    <property name="0">00:00:00.000=1;00:00:08.467=1;00:00:10.000=0</property>
    <property name="kdenlive:collapsed">0</property>
   </filter>
  </entry>
  <blank length="00:00:01.600"/>
  <entry producer="producer14" in="00:00:00.000" out="00:00:02.200">
   <property name="kdenlive:id">43</property>
   <property name="kdenlive:activeeffect">1</property>
   <filter id="filter28">
    <property name="version">0.9</property>
    <property name="mlt_service">frei0r.transparency</property>
    <property name="kdenlive_id">frei0r.transparency</property>
    <property name="0">00:00:00.000=0;00:00:00.400=1</property>
    <property name="kdenlive:collapsed">0</property>
   </filter>
   <filter id="filter29">
    <property name="version">0.1</property>
    <property name="mlt_service">frei0r.scale0tilt</property>
    <property name="kdenlive_id">frei0r.scale0tilt</property>
    <property name="Clip left">00:00:00.000=0</property>
    <property name="Clip right">00:00:00.000=0</property>
    <property name="Clip top">00:00:00.000=0</property>
    <property name="Clip bottom">00:00:00.000=0</property>
    <property name="Scale X">00:00:00.000=0.32</property>
    <property name="Scale Y">00:00:00.000=0.38</property>
    <property name="Tilt X">00:00:00.000=0.501253</property>
    <property name="Tilt Y">00:00:00.000=0.58613</property>
    <property name="kdenlive:collapsed">0</property>
   </filter>
  </entry>
  <entry producer="producer15" in="00:00:04.000" out="00:00:05.000">
   <property name="kdenlive:id">43</property>
   <filter id="filter30">
    <property name="version">0.1</property>
    <property name="mlt_service">frei0r.scale0tilt</property>
    <property name="kdenlive_id">frei0r.scale0tilt</property>
    <property name="Clip left">00:00:04.000=0</property>
    <property name="Clip right">00:00:04.000=0</property>
    <property name="Clip top">00:00:04.000=0</property>
    <property name="Clip bottom">00:00:04.000=0</property>
    <property name="Scale X">00:00:04.000=0.32</property>
    <property name="Scale Y">00:00:04.000=0.38</property>
    <property name="Tilt X">00:00:04.000=0.501253</property>
    <property name="Tilt Y">00:00:04.000=0.58613</property>
    <property name="kdenlive:collapsed">0</property>
   </filter>
  </entry>
  <entry producer="producer16" in="00:00:00.000" out="00:00:03.267">
   <property name="kdenlive:id">44</property>
   <filter id="filter31">
    <property name="version">0.1</property>
    <property name="mlt_service">frei0r.scale0tilt</property>
    <property name="kdenlive_id">frei0r.scale0tilt</property>
    <property name="Clip left">00:00:00.000=0</property>
    <property name="Clip right">00:00:00.000=0</property>
    <property name="Clip top">00:00:00.000=0</property>
    <property name="Clip bottom">00:00:00.000=0</property>
    <property name="Scale X">00:00:00.000=0.32</property>
    <property name="Scale Y">00:00:00.000=0.38</property>
    <property name="Tilt X">00:00:00.000=0.500627</property>
    <property name="Tilt Y">00:00:00.000=0.58613</property>
    <property name="kdenlive:collapsed">0</property>
   </filter>
  </entry>
  <entry producer="producer17" in="00:00:00.000" out="00:00:04.600">
   <property name="kdenlive:id">46</property>
   <filter id="filter32">
    <property name="version">0.1</property>
    <property name="mlt_service">frei0r.scale0tilt</property>
    <property name="kdenlive_id">frei0r.scale0tilt</property>
    <property name="Clip left">00:00:00.000=0</property>
    <property name="Clip right">00:00:00.000=0</property>
    <property name="Clip top">00:00:00.000=0</property>
    <property name="Clip bottom">00:00:00.000=0</property>
    <property name="Scale X">00:00:00.000=0.35</property>
    <property name="Scale Y">00:00:00.000=0.38</property>
    <property name="Tilt X">00:00:00.000=0.513784</property>
    <property name="Tilt Y">00:00:00.000=0.58613</property>
    <property name="kdenlive:collapsed">0</property>
   </filter>
  </entry>
  <entry producer="producer18" in="00:00:00.000" out="00:00:05.133">
   <property name="kdenlive:id">47</property>
   <filter id="filter33">
    <property name="version">0.1</property>
    <property name="mlt_service">frei0r.scale0tilt</property>
    <property name="kdenlive_id">frei0r.scale0tilt</property>
    <property name="Clip left">00:00:00.000=0</property>
    <property name="Clip right">00:00:00.000=0</property>
    <property name="Clip top">00:00:00.000=0</property>
    <property name="Clip bottom">00:00:00.000=0</property>
    <property name="Scale X">00:00:00.000=0.35</property>
    <property name="Scale Y">00:00:00.000=0.38</property>
    <property name="Tilt X">00:00:00.000=0.513784</property>
    <property name="Tilt Y">00:00:00.000=0.58613</property>
    <property name="kdenlive:collapsed">0</property>
   </filter>
  </entry>
  <entry producer="producer19" in="00:00:00.000" out="00:00:06.333">
   <property name="kdenlive:id">48</property>
   <property name="kdenlive:activeeffect">1</property>
   <filter id="filter34">
    <property name="version">0.1</property>
    <property name="mlt_service">frei0r.scale0tilt</property>
    <property name="kdenlive_id">frei0r.scale0tilt</property>
    <property name="Clip left">00:00:00.000=0</property>
    <property name="Clip right">00:00:00.000=0</property>
    <property name="Clip top">00:00:00.000=0</property>
    <property name="Clip bottom">00:00:00.000=0</property>
    <property name="Scale X">00:00:00.000=0.5</property>
    <property name="Scale Y">00:00:00.000=0.44</property>
    <property name="Tilt X">00:00:00.000=0.400376</property>
    <property name="Tilt Y">00:00:00.000=0.561521</property>
    <property name="kdenlive:collapsed">0</property>
   </filter>
   <filter id="filter35">
    <property name="version">0.9</property>
    <property name="mlt_service">frei0r.transparency</property>
    <property name="kdenlive_id">frei0r.transparency</property>
    <property name="0">00:00:00.000=1;00:00:03.933=1;00:00:06.267=0</property>
    <property name="kdenlive:collapsed">0</property>
   </filter>
  </entry>
  <blank length="00:00:08.467"/>
  <entry producer="producer20" in="00:00:00.000" out="00:00:01.867">
   <property name="kdenlive:id">49</property>
  </entry>
 </playlist>
 <playlist id="playlist7"/>
 <tractor id="tractor3" in="00:00:00.000" out="00:02:46.000">
  <property name="kdenlive:trackheight">67</property>
  <property name="kdenlive:timeline_active">0</property>
  <property name="kdenlive:collapsed">0</property>
  <property name="kdenlive:thumbs_format"/>
  <property name="kdenlive:audio_rec"/>
  <property name="kdenlive:track_name">Application</property>
  <track hide="audio" producer="playlist6"/>
  <track hide="audio" producer="playlist7"/>
 </tractor>
 <producer id="producer21" in="00:00:00.000" out="00:00:06.467">
  <property name="length">98</property>
  <property name="eof">pause</property>
  <property name="resource"/>
  <property name="meta.media.progressive">1</property>
  <property name="aspect_ratio">1</property>
  <property name="seekable">1</property>
  <property name="mlt_service">kdenlivetitle</property>
  <property name="kdenlive:duration">00:00:05:00</property>
  <property name="kdenlive:clipname">Fingrom aims...</property>
  <property name="xmldata">&lt;kdenlivetitle duration="75" LC_NUMERIC="C" width="1596" height="894" out="74">
 &lt;item type="QGraphicsTextItem" z-index="0">
  &lt;position x="9" y="2">
   &lt;transform>1,0,0,0,1,0,0,0,1&lt;/transform>
  &lt;/position>
  &lt;content line-spacing="4" shadow="0;#64000000;3;3;3" font-underline="0" box-height="92" font="Cabin" letter-spacing="1" font-pixel-size="36" font-italic="0" typewriter="1;3;2;0;0" alignment="1" font-weight="50" box-width="1049.83" font-color="61,61,61,255">Fingrom aims to fill this gap and provide a financial management 
tool that's truly user-centric&lt;/content>
 &lt;/item>
 &lt;startviewport rect="0,0,1596,894"/>
 &lt;endviewport rect="0,0,1596,894"/>
 &lt;background color="0,0,0,0"/>
&lt;/kdenlivetitle>
</property>
  <property name="xml">was here</property>
  <property name="kdenlive:folderid">-1</property>
  <property name="kdenlive:id">50</property>
  <property name="kdenlive:clip_type">2</property>
  <property name="kdenlive:file_hash">857d8feed51637524f3efd3f394b77f3</property>
  <property name="force_reload">0</property>
  <property name="meta.media.width">1596</property>
  <property name="meta.media.height">894</property>
 </producer>
 <producer id="producer22" in="00:00:00.000" out="00:00:07.933">
  <property name="length">120</property>
  <property name="eof">pause</property>
  <property name="meta.media.progressive">1</property>
  <property name="aspect_ratio">1</property>
  <property name="seekable">1</property>
  <property name="mlt_service">kdenlivetitle</property>
  <property name="kdenlive:duration">00:00:05:00</property>
  <property name="kdenlive:clipname">It allows yo...</property>
  <property name="xmldata">&lt;kdenlivetitle duration="75" LC_NUMERIC="C" width="1596" height="894" out="74">
 &lt;item type="QGraphicsTextItem" z-index="0">
  &lt;position x="9" y="2">
   &lt;transform>1,0,0,0,1,0,0,0,1&lt;/transform>
  &lt;/position>
  &lt;content line-spacing="4" shadow="0;#64000000;3;3;3" font-underline="0" box-height="92" font-outline-color="47,47,47,255" font="Cabin" letter-spacing="1" font-pixel-size="36" font-italic="0" typewriter="1;3;2;0;0" alignment="1" font-weight="50" font-outline="0" box-width="1240.3" font-color="61,61,61,255">It allows you to manage your accounts, including different account types and 
support for multiple currencies and cryptocurrencies&lt;/content>
 &lt;/item>
 &lt;startviewport rect="0,0,1596,894"/>
 &lt;endviewport rect="0,0,1596,894"/>
 &lt;background color="0,0,0,0"/>
&lt;/kdenlivetitle>
</property>
  <property name="xml">was here</property>
  <property name="kdenlive:folderid">-1</property>
  <property name="kdenlive:id">51</property>
  <property name="kdenlive:clip_type">2</property>
  <property name="force_reload">0</property>
  <property name="meta.media.width">1596</property>
  <property name="meta.media.height">894</property>
 </producer>
 <producer id="producer23" in="00:00:00.000" out="00:00:07.933">
  <property name="length">120</property>
  <property name="eof">pause</property>
  <property name="meta.media.progressive">1</property>
  <property name="aspect_ratio">1</property>
  <property name="seekable">1</property>
  <property name="mlt_service">kdenlivetitle</property>
  <property name="kdenlive:duration">00:00:05:00</property>
  <property name="kdenlive:clipname">Create budge...</property>
  <property name="xmldata">&lt;kdenlivetitle duration="75" LC_NUMERIC="C" width="1596" height="894" out="74">
 &lt;item type="QGraphicsTextItem" z-index="0">
  &lt;position x="9" y="2">
   &lt;transform>1,0,0,0,1,0,0,0,1&lt;/transform>
  &lt;/position>
  &lt;content line-spacing="4" shadow="0;#64000000;3;3;3" font-underline="0" box-height="107" font="Cabin" letter-spacing="1" font-pixel-size="36" font-italic="0" typewriter="1;3;2;0;0" alignment="1" font-weight="50" box-width="1295.92" font-color="61,61,61,255">Create budget categories with ease and set configurable limits, renewed monthly
or based on your relative income&lt;/content>
 &lt;/item>
 &lt;startviewport rect="0,0,1596,894"/>
 &lt;endviewport rect="0,0,1596,894"/>
 &lt;background color="0,0,0,0"/>
&lt;/kdenlivetitle>
</property>
  <property name="xml">was here</property>
  <property name="kdenlive:folderid">-1</property>
  <property name="kdenlive:id">52</property>
  <property name="kdenlive:clip_type">2</property>
  <property name="force_reload">0</property>
  <property name="kdenlive:file_hash">861f74986935928596113bc074ed5155</property>
  <property name="meta.media.width">1596</property>
  <property name="meta.media.height">894</property>
 </producer>
 <producer id="producer24" in="00:00:00.000" out="00:00:07.933">
  <property name="length">120</property>
  <property name="eof">pause</property>
  <property name="meta.media.progressive">1</property>
  <property name="aspect_ratio">1</property>
  <property name="seekable">1</property>
  <property name="mlt_service">kdenlivetitle</property>
  <property name="kdenlive:duration">00:00:05:00</property>
  <property name="kdenlive:clipname">Manage bills...</property>
  <property name="xmldata">&lt;kdenlivetitle duration="75" LC_NUMERIC="C" width="1596" height="894" out="74">
 &lt;item type="QGraphicsTextItem" z-index="0">
  &lt;position x="9" y="2">
   &lt;transform>1,0,0,0,1,0,0,0,1&lt;/transform>
  &lt;/position>
  &lt;content line-spacing="4" shadow="0;#64000000;3;3;3" font-underline="0" box-height="44" font="Cabin" letter-spacing="1" font-pixel-size="36" font-italic="0" typewriter="1;3;2;0;0" alignment="1" font-weight="50" box-width="959.672" font-color="61,61,61,255">Manage bills, transfers, and income transactions effortlessly&lt;/content>
 &lt;/item>
 &lt;startviewport rect="0,0,1596,894"/>
 &lt;endviewport rect="0,0,1596,894"/>
 &lt;background color="0,0,0,0"/>
&lt;/kdenlivetitle>
</property>
  <property name="xml">was here</property>
  <property name="kdenlive:folderid">-1</property>
  <property name="kdenlive:id">56</property>
  <property name="kdenlive:clip_type">2</property>
  <property name="force_reload">0</property>
  <property name="meta.media.width">1596</property>
  <property name="meta.media.height">894</property>
 </producer>
 <producer id="producer25" in="00:00:00.000" out="00:00:07.933">
  <property name="length">120</property>
  <property name="eof">pause</property>
  <property name="meta.media.progressive">1</property>
  <property name="aspect_ratio">1</property>
  <property name="seekable">1</property>
  <property name="mlt_service">kdenlivetitle</property>
  <property name="kdenlive:duration">00:00:05:00</property>
  <property name="kdenlive:clipname">Set and trac...</property>
  <property name="xmldata">&lt;kdenlivetitle duration="75" LC_NUMERIC="C" width="1596" height="894" out="74">
 &lt;item type="QGraphicsTextItem" z-index="0">
  &lt;position x="9" y="2">
   &lt;transform>1,0,0,0,1,0,0,0,1&lt;/transform>
  &lt;/position>
  &lt;content line-spacing="4" shadow="0;#64000000;3;3;3" font-underline="0" box-height="44" font="Cabin" letter-spacing="1" font-pixel-size="36" font-italic="0" typewriter="1;3;2;0;0" alignment="1" font-weight="50" box-width="1132.38" font-color="61,61,61,255">Set and track financial goals to stay on top of your financial aspirations&lt;/content>
 &lt;/item>
 &lt;startviewport rect="0,0,1596,894"/>
 &lt;endviewport rect="0,0,1596,894"/>
 &lt;background color="0,0,0,0"/>
&lt;/kdenlivetitle>
</property>
  <property name="xml">was here</property>
  <property name="kdenlive:folderid">-1</property>
  <property name="kdenlive:id">57</property>
  <property name="kdenlive:clip_type">2</property>
  <property name="force_reload">0</property>
  <property name="meta.media.width">1596</property>
  <property name="meta.media.height">894</property>
 </producer>
 <producer id="producer26" in="00:00:00.000" out="00:00:07.933">
  <property name="length">120</property>
  <property name="eof">pause</property>
  <property name="meta.media.progressive">1</property>
  <property name="aspect_ratio">1</property>
  <property name="seekable">1</property>
  <property name="mlt_service">kdenlivetitle</property>
  <property name="kdenlive:duration">00:00:05:00</property>
  <property name="kdenlive:clipname">Stay updated...</property>
  <property name="xmldata">&lt;kdenlivetitle duration="75" LC_NUMERIC="C" width="1596" height="894" out="74">
 &lt;item type="QGraphicsTextItem" z-index="0">
  &lt;position x="9" y="2">
   &lt;transform>1,0,0,0,1,0,0,0,1&lt;/transform>
  &lt;/position>
  &lt;content line-spacing="4" shadow="0;#64000000;3;3;3" font-underline="0" box-height="107" font="Cabin" letter-spacing="1" font-pixel-size="36" font-italic="0" typewriter="1;3;2;0;0" alignment="1" font-weight="50" box-width="1150.02" font-color="61,61,61,255">Stay updated on exchange rates and choose your default currency for a 
comprehensive financial summary&lt;/content>
 &lt;/item>
 &lt;startviewport rect="0,0,1596,894"/>
 &lt;endviewport rect="0,0,1596,894"/>
 &lt;background color="0,0,0,0"/>
&lt;/kdenlivetitle>
</property>
  <property name="xml">was here</property>
  <property name="kdenlive:folderid">-1</property>
  <property name="kdenlive:id">58</property>
  <property name="kdenlive:clip_type">2</property>
  <property name="force_reload">0</property>
  <property name="meta.media.width">1596</property>
  <property name="meta.media.height">894</property>
 </producer>
 <producer id="producer27" in="00:00:00.000" out="00:00:07.933">
  <property name="length">120</property>
  <property name="eof">pause</property>
  <property name="meta.media.progressive">1</property>
  <property name="aspect_ratio">1</property>
  <property name="seekable">1</property>
  <property name="mlt_service">kdenlivetitle</property>
  <property name="kdenlive:duration">00:00:05:00</property>
  <property name="kdenlive:clipname">Fingrom does...</property>
  <property name="xmldata">&lt;kdenlivetitle duration="75" LC_NUMERIC="C" width="1596" height="894" out="74">
 &lt;item type="QGraphicsTextItem" z-index="0">
  &lt;position x="9" y="2">
   &lt;transform>1,0,0,0,1,0,0,0,1&lt;/transform>
  &lt;/position>
  &lt;content line-spacing="4" shadow="0;#64000000;3;3;3" font-underline="0" box-height="44" font="Cabin" letter-spacing="1" font-pixel-size="36" font-italic="0" typewriter="1;3;2;0;0" alignment="1" font-weight="50" box-width="656.906" font-color="61,61,61,255">Fingrom doesn't stop at basic accounting&lt;/content>
 &lt;/item>
 &lt;startviewport rect="0,0,1596,894"/>
 &lt;endviewport rect="0,0,1596,894"/>
 &lt;background color="0,0,0,0"/>
&lt;/kdenlivetitle>
</property>
  <property name="xml">was here</property>
  <property name="kdenlive:folderid">-1</property>
  <property name="kdenlive:id">59</property>
  <property name="kdenlive:clip_type">2</property>
  <property name="force_reload">0</property>
  <property name="meta.media.width">1596</property>
  <property name="meta.media.height">894</property>
 </producer>
 <producer id="producer28" in="00:00:00.000" out="00:00:09.467">
  <property name="length">143</property>
  <property name="eof">pause</property>
  <property name="meta.media.progressive">1</property>
  <property name="aspect_ratio">1</property>
  <property name="seekable">1</property>
  <property name="mlt_service">kdenlivetitle</property>
  <property name="kdenlive:duration">00:00:05:00</property>
  <property name="kdenlive:clipname">It offers ad...</property>
  <property name="xmldata">&lt;kdenlivetitle duration="75" LC_NUMERIC="C" width="1596" height="894" out="74">
 &lt;item type="QGraphicsTextItem" z-index="0">
  &lt;position x="9" y="2">
   &lt;transform>1,0,0,0,1,0,0,0,1&lt;/transform>
  &lt;/position>
  &lt;content line-spacing="4" shadow="0;#64000000;3;3;3" font-underline="0" box-height="92" font="Cabin" letter-spacing="1" font-pixel-size="36" font-italic="0" typewriter="1;3;2;0;0" alignment="1" font-weight="50" box-width="1227.45" font-color="61,61,61,255">It offers advanced metrics such as budget forecasting with Monte Carlo 
simulation, Candlestick Chart, Income Health Radar, Currency Distribution, ...&lt;/content>
 &lt;/item>
 &lt;startviewport rect="0,0,1596,894"/>
 &lt;endviewport rect="0,0,1596,894"/>
 &lt;background color="0,0,0,0"/>
&lt;/kdenlivetitle>
</property>
  <property name="xml">was here</property>
  <property name="kdenlive:folderid">-1</property>
  <property name="kdenlive:id">60</property>
  <property name="kdenlive:clip_type">2</property>
  <property name="force_reload">0</property>
  <property name="meta.media.width">1596</property>
  <property name="meta.media.height">894</property>
 </producer>
 <producer id="producer29" in="00:00:00.000" out="00:00:09.467">
  <property name="length">143</property>
  <property name="eof">pause</property>
  <property name="meta.media.progressive">1</property>
  <property name="aspect_ratio">1</property>
  <property name="seekable">1</property>
  <property name="mlt_service">kdenlivetitle</property>
  <property name="kdenlive:duration">00:00:05:00</property>
  <property name="kdenlive:clipname">... YTD Expe...</property>
  <property name="xmldata">&lt;kdenlivetitle duration="75" LC_NUMERIC="C" width="1596" height="894" out="74">
 &lt;item type="QGraphicsTextItem" z-index="0">
  &lt;position x="9" y="2">
   &lt;transform>1,0,0,0,1,0,0,0,1&lt;/transform>
  &lt;/position>
  &lt;content line-spacing="4" shadow="0;#64000000;3;3;3" font-underline="0" box-height="44" font="Cabin" letter-spacing="1" font-pixel-size="36" font-italic="0" typewriter="1;3;2;0;0" alignment="1" font-weight="50" box-width="818.469" font-color="61,61,61,255">... YTD Expenses, Bar Race for Categories and more&lt;/content>
 &lt;/item>
 &lt;startviewport rect="0,0,1596,894"/>
 &lt;endviewport rect="0,0,1596,894"/>
 &lt;background color="0,0,0,0"/>
&lt;/kdenlivetitle>
</property>
  <property name="xml">was here</property>
  <property name="kdenlive:folderid">-1</property>
  <property name="kdenlive:id">61</property>
  <property name="kdenlive:clip_type">2</property>
  <property name="force_reload">0</property>
  <property name="meta.media.width">1596</property>
  <property name="meta.media.height">894</property>
 </producer>
 <producer id="producer30" in="00:00:00.000" out="00:00:07.933">
  <property name="length">120</property>
  <property name="eof">pause</property>
  <property name="meta.media.progressive">1</property>
  <property name="aspect_ratio">1</property>
  <property name="seekable">1</property>
  <property name="mlt_service">kdenlivetitle</property>
  <property name="kdenlive:duration">00:00:05:00</property>
  <property name="kdenlive:clipname">These featur...</property>
  <property name="xmldata">&lt;kdenlivetitle duration="75" LC_NUMERIC="C" width="1596" height="894" out="74">
 &lt;item type="QGraphicsTextItem" z-index="0">
  &lt;position x="9" y="2">
   &lt;transform>1,0,0,0,1,0,0,0,1&lt;/transform>
  &lt;/position>
  &lt;content line-spacing="4" shadow="0;#64000000;3;3;3" font-underline="0" box-height="107" font="Cabin" letter-spacing="1" font-pixel-size="36" font-italic="0" typewriter="1;3;2;0;0" alignment="1" font-weight="50" box-width="1130.78" font-color="61,61,61,255">These features are designed to help you gain deeper insights into your 
finances and make informed decisions&lt;/content>
 &lt;/item>
 &lt;startviewport rect="0,0,1596,894"/>
 &lt;endviewport rect="0,0,1596,894"/>
 &lt;background color="0,0,0,0"/>
&lt;/kdenlivetitle>
</property>
  <property name="xml">was here</property>
  <property name="kdenlive:folderid">-1</property>
  <property name="kdenlive:id">62</property>
  <property name="kdenlive:clip_type">2</property>
  <property name="force_reload">0</property>
  <property name="meta.media.width">1596</property>
  <property name="meta.media.height">894</property>
 </producer>
 <producer id="producer31" in="00:00:00.000" out="00:00:07.933">
  <property name="length">120</property>
  <property name="eof">pause</property>
  <property name="meta.media.progressive">1</property>
  <property name="aspect_ratio">1</property>
  <property name="seekable">1</property>
  <property name="mlt_service">kdenlivetitle</property>
  <property name="kdenlive:duration">00:00:05:00</property>
  <property name="kdenlive:clipname">Fingrom allo...</property>
  <property name="xmldata">&lt;kdenlivetitle duration="75" LC_NUMERIC="C" width="1596" height="894" out="74">
 &lt;item type="QGraphicsTextItem" z-index="0">
  &lt;position x="9" y="2">
   &lt;transform>1,0,0,0,1,0,0,0,1&lt;/transform>
  &lt;/position>
  &lt;content line-spacing="4" shadow="0;#64000000;3;3;3" font-underline="0" box-height="107" font="Cabin" letter-spacing="1" font-pixel-size="36" font-italic="0" typewriter="1;3;2;0;0" alignment="1" font-weight="50" box-width="1220.92" font-color="61,61,61,255">Fingrom allows you to configure the main page with multiple configurations 
per width and height set&lt;/content>
 &lt;/item>
 &lt;startviewport rect="0,0,1596,894"/>
 &lt;endviewport rect="0,0,1596,894"/>
 &lt;background color="0,0,0,0"/>
&lt;/kdenlivetitle>
</property>
  <property name="xml">was here</property>
  <property name="kdenlive:folderid">-1</property>
  <property name="kdenlive:id">63</property>
  <property name="kdenlive:clip_type">2</property>
  <property name="force_reload">0</property>
  <property name="meta.media.width">1596</property>
  <property name="meta.media.height">894</property>
 </producer>
 <producer id="producer32" in="00:00:00.000" out="00:00:07.933">
  <property name="length">120</property>
  <property name="eof">pause</property>
  <property name="meta.media.progressive">1</property>
  <property name="aspect_ratio">1</property>
  <property name="seekable">1</property>
  <property name="mlt_service">kdenlivetitle</property>
  <property name="kdenlive:duration">00:00:05:00</property>
  <property name="kdenlive:clipname">It has an ad...</property>
  <property name="xmldata">&lt;kdenlivetitle duration="75" LC_NUMERIC="C" width="1596" height="894" out="74">
 &lt;item type="QGraphicsTextItem" z-index="0">
  &lt;position x="9" y="2">
   &lt;transform>1,0,0,0,1,0,0,0,1&lt;/transform>
  &lt;/position>
  &lt;content line-spacing="4" shadow="0;#64000000;3;3;3" font-underline="0" box-height="92" font="Cabin" letter-spacing="1" font-pixel-size="36" font-italic="0" typewriter="1;3;2;0;0" alignment="1" font-weight="50" box-width="1182.41" font-color="61,61,61,255">It has an adaptive navigation panel (top, bottom, right) and tabs (top, left) 
that adjust to your screen size&lt;/content>
 &lt;/item>
 &lt;startviewport rect="0,0,1596,894"/>
 &lt;endviewport rect="0,0,1596,894"/>
 &lt;background color="0,0,0,0"/>
&lt;/kdenlivetitle>
</property>
  <property name="xml">was here</property>
  <property name="kdenlive:folderid">-1</property>
  <property name="kdenlive:id">64</property>
  <property name="kdenlive:clip_type">2</property>
  <property name="force_reload">0</property>
  <property name="meta.media.width">1596</property>
  <property name="meta.media.height">894</property>
 </producer>
 <producer id="producer33" in="00:00:00.000" out="00:00:07.933">
  <property name="length">120</property>
  <property name="eof">pause</property>
  <property name="meta.media.progressive">1</property>
  <property name="aspect_ratio">1</property>
  <property name="seekable">1</property>
  <property name="mlt_service">kdenlivetitle</property>
  <property name="kdenlive:duration">00:00:05:00</property>
  <property name="kdenlive:clipname">Offers a the...</property>
  <property name="xmldata">&lt;kdenlivetitle duration="75" LC_NUMERIC="C" width="1596" height="894" out="74">
 &lt;item type="QGraphicsTextItem" z-index="0">
  &lt;position x="9" y="2">
   &lt;transform>1,0,0,0,1,0,0,0,1&lt;/transform>
  &lt;/position>
  &lt;content line-spacing="4" shadow="0;#64000000;3;3;3" font-underline="0" box-height="107" font="Cabin" letter-spacing="1" font-pixel-size="36" font-italic="0" typewriter="1;3;2;0;0" alignment="1" font-weight="50" box-width="1182.72" font-color="61,61,61,255">Offers a theme mode (dark, light, system) with palette definition (system, 
custom, personal – colors selector)&lt;/content>
 &lt;/item>
 &lt;startviewport rect="0,0,1596,894"/>
 &lt;endviewport rect="0,0,1596,894"/>
 &lt;background color="0,0,0,0"/>
&lt;/kdenlivetitle>
</property>
  <property name="xml">was here</property>
  <property name="kdenlive:folderid">-1</property>
  <property name="kdenlive:id">65</property>
  <property name="kdenlive:clip_type">2</property>
  <property name="force_reload">0</property>
  <property name="meta.media.width">1596</property>
  <property name="meta.media.height">894</property>
 </producer>
 <producer id="producer34" in="00:00:00.000" out="00:00:07.933">
  <property name="length">120</property>
  <property name="eof">pause</property>
  <property name="meta.media.progressive">1</property>
  <property name="aspect_ratio">1</property>
  <property name="seekable">1</property>
  <property name="mlt_service">kdenlivetitle</property>
  <property name="kdenlive:duration">00:00:05:00</property>
  <property name="kdenlive:clipname">Preserves yo...</property>
  <property name="xmldata">&lt;kdenlivetitle duration="75" LC_NUMERIC="C" width="1596" height="894" out="74">
 &lt;item type="QGraphicsTextItem" z-index="0">
  &lt;position x="9" y="2">
   &lt;transform>1,0,0,0,1,0,0,0,1&lt;/transform>
  &lt;/position>
  &lt;content line-spacing="4" shadow="0;#64000000;3;3;3" font-underline="0" box-height="107" font="Cabin" letter-spacing="1" font-pixel-size="36" font-italic="0" typewriter="1;3;2;0;0" alignment="1" font-weight="50" box-width="962.625" font-color="61,61,61,255">Preserves your last choice for account, budget, and currency
Auto-scrolls to the focused element on form&lt;/content>
 &lt;/item>
 &lt;startviewport rect="0,0,1596,894"/>
 &lt;endviewport rect="0,0,1596,894"/>
 &lt;background color="0,0,0,0"/>
&lt;/kdenlivetitle>
</property>
  <property name="xml">was here</property>
  <property name="kdenlive:folderid">-1</property>
  <property name="kdenlive:id">66</property>
  <property name="kdenlive:clip_type">2</property>
  <property name="force_reload">0</property>
  <property name="meta.media.width">1596</property>
  <property name="meta.media.height">894</property>
 </producer>
 <producer id="producer35" in="00:00:00.000" out="00:00:07.933">
  <property name="length">120</property>
  <property name="eof">pause</property>
  <property name="meta.media.progressive">1</property>
  <property name="aspect_ratio">1</property>
  <property name="seekable">1</property>
  <property name="mlt_service">kdenlivetitle</property>
  <property name="kdenlive:duration">00:00:05:00</property>
  <property name="kdenlive:clipname">You can expa...</property>
  <property name="xmldata">&lt;kdenlivetitle duration="75" LC_NUMERIC="C" width="1596" height="894" out="74">
 &lt;item type="QGraphicsTextItem" z-index="0">
  &lt;position x="9" y="2">
   &lt;transform>1,0,0,0,1,0,0,0,1&lt;/transform>
  &lt;/position>
  &lt;content line-spacing="4" shadow="0;#64000000;3;3;3" font-underline="0" box-height="107" font="Cabin" letter-spacing="1" font-pixel-size="36" font-italic="0" typewriter="1;3;2;0;0" alignment="1" font-weight="50" box-width="1024.55" font-color="61,61,61,255">You can expand or collapse sections on the main page
It allows you to swipe for quick access to edit and delete actions&lt;/content>
 &lt;/item>
 &lt;startviewport rect="0,0,1596,894"/>
 &lt;endviewport rect="0,0,1596,894"/>
 &lt;background color="0,0,0,0"/>
&lt;/kdenlivetitle>
</property>
  <property name="xml">was here</property>
  <property name="kdenlive:folderid">-1</property>
  <property name="kdenlive:id">67</property>
  <property name="kdenlive:clip_type">2</property>
  <property name="force_reload">0</property>
  <property name="meta.media.width">1596</property>
  <property name="meta.media.height">894</property>
 </producer>
 <producer id="producer36" in="00:00:00.000" out="00:00:08.467">
  <property name="length">128</property>
  <property name="eof">pause</property>
  <property name="meta.media.progressive">1</property>
  <property name="aspect_ratio">1</property>
  <property name="seekable">1</property>
  <property name="mlt_service">kdenlivetitle</property>
  <property name="kdenlive:duration">00:00:05:00</property>
  <property name="kdenlive:clipname">You can zoom...</property>
  <property name="xmldata">&lt;kdenlivetitle duration="75" LC_NUMERIC="C" width="1596" height="894" out="74">
 &lt;item type="QGraphicsTextItem" z-index="0">
  &lt;position x="9" y="2">
   &lt;transform>1,0,0,0,1,0,0,0,1&lt;/transform>
  &lt;/position>
  &lt;content line-spacing="4" shadow="0;#64000000;3;3;3" font-underline="0" box-height="107" font="Cabin" letter-spacing="1" font-pixel-size="36" font-italic="0" typewriter="1;3;2;0;0" alignment="1" font-weight="50" box-width="1023.2" font-color="61,61,61,255">You can zoom in and out (from 60% up to 200%) via “Settings”
It provides shortcuts for various actions&lt;/content>
 &lt;/item>
 &lt;startviewport rect="0,0,1596,894"/>
 &lt;endviewport rect="0,0,1596,894"/>
 &lt;background color="0,0,0,0"/>
&lt;/kdenlivetitle>
</property>
  <property name="xml">was here</property>
  <property name="kdenlive:folderid">-1</property>
  <property name="kdenlive:id">68</property>
  <property name="kdenlive:clip_type">2</property>
  <property name="force_reload">0</property>
  <property name="meta.media.width">1596</property>
  <property name="meta.media.height">894</property>
 </producer>
 <producer id="producer37" in="00:00:00.000" out="00:00:08.600">
  <property name="length">130</property>
  <property name="eof">pause</property>
  <property name="meta.media.progressive">1</property>
  <property name="aspect_ratio">1</property>
  <property name="seekable">1</property>
  <property name="mlt_service">kdenlivetitle</property>
  <property name="kdenlive:duration">00:00:05:00</property>
  <property name="kdenlive:clipname">In conclusio...</property>
  <property name="xmldata">&lt;kdenlivetitle duration="75" LC_NUMERIC="C" width="1596" height="894" out="74">
 &lt;item type="QGraphicsTextItem" z-index="0">
  &lt;position x="9" y="2">
   &lt;transform>1,0,0,0,1,0,0,0,1&lt;/transform>
  &lt;/position>
  &lt;content line-spacing="4" shadow="0;#64000000;3;3;3" font-underline="0" box-height="107" font="Cabin" letter-spacing="1" font-pixel-size="36" font-italic="0" typewriter="1;3;2;0;0" alignment="1" font-weight="50" box-width="1296.78" font-color="61,61,61,255">In conclusion, Fingrom is an open-source platform-agnostic financial accounting 
application that offers a user-centric approach to managing finances&lt;/content>
 &lt;/item>
 &lt;startviewport rect="0,0,1596,894"/>
 &lt;endviewport rect="0,0,1596,894"/>
 &lt;background color="0,0,0,0"/>
&lt;/kdenlivetitle>
</property>
  <property name="xml">was here</property>
  <property name="kdenlive:folderid">-1</property>
  <property name="kdenlive:id">69</property>
  <property name="kdenlive:clip_type">2</property>
  <property name="force_reload">0</property>
  <property name="meta.media.width">1596</property>
  <property name="meta.media.height">894</property>
 </producer>
 <playlist id="playlist8">
  <blank length="00:00:49.200"/>
  <entry producer="producer21" in="00:00:00.000" out="00:00:06.467">
   <property name="kdenlive:id">50</property>
  </entry>
  <blank length="00:00:00.333"/>
  <entry producer="producer22" in="00:00:00.000" out="00:00:07.133">
   <property name="kdenlive:id">51</property>
  </entry>
  <blank length="00:00:00.800"/>
  <entry producer="producer23" in="00:00:00.000" out="00:00:06.800">
   <property name="kdenlive:id">52</property>
  </entry>
  <blank length="00:00:00.333"/>
  <entry producer="producer24" in="00:00:00.000" out="00:00:04.200">
   <property name="kdenlive:id">56</property>
  </entry>
  <entry producer="producer25" in="00:00:00.000" out="00:00:04.333">
   <property name="kdenlive:id">57</property>
  </entry>
  <entry producer="producer26" in="00:00:00.000" out="00:00:04.933">
   <property name="kdenlive:id">58</property>
  </entry>
  <blank length="00:00:00.600"/>
  <entry producer="producer27" in="00:00:00.000" out="00:00:02.867">
   <property name="kdenlive:id">59</property>
  </entry>
  <entry producer="producer28" in="00:00:00.000" out="00:00:09.133">
   <property name="kdenlive:id">60</property>
  </entry>
  <entry producer="producer29" in="00:00:00.000" out="00:00:02.933">
   <property name="kdenlive:id">61</property>
  </entry>
  <blank length="00:00:00.667"/>
  <entry producer="producer30" in="00:00:00.000" out="00:00:06.267">
   <property name="kdenlive:id">62</property>
  </entry>
  <entry producer="producer31" in="00:00:00.000" out="00:00:05.667">
   <property name="kdenlive:id">63</property>
  </entry>
  <blank length="00:00:00.200"/>
  <entry producer="producer32" in="00:00:00.000" out="00:00:07.333">
   <property name="kdenlive:id">64</property>
  </entry>
  <entry producer="producer33" in="00:00:00.000" out="00:00:07.600">
   <property name="kdenlive:id">65</property>
  </entry>
  <blank length="00:00:00.067"/>
  <entry producer="producer34" in="00:00:00.000" out="00:00:06.867">
   <property name="kdenlive:id">66</property>
  </entry>
  <blank length="00:00:00.400"/>
  <entry producer="producer35" in="00:00:00.000" out="00:00:07.600">
   <property name="kdenlive:id">67</property>
  </entry>
  <blank length="00:00:00.333"/>
  <entry producer="producer36" in="00:00:00.000" out="00:00:08.467">
   <property name="kdenlive:id">68</property>
  </entry>
  <blank length="00:00:00.667"/>
  <entry producer="producer37" in="00:00:00.000" out="00:00:07.600">
   <property name="kdenlive:id">69</property>
  </entry>
 </playlist>
 <playlist id="playlist9"/>
 <tractor id="tractor4" in="00:00:00.000" out="00:02:40.867">
  <property name="kdenlive:track_name">Text</property>
  <property name="kdenlive:trackheight">67</property>
  <property name="kdenlive:timeline_active">0</property>
  <track hide="audio" producer="playlist8"/>
  <track hide="audio" producer="playlist9"/>
 </tractor>
 <tractor id="{ff20d2f2-8ff5-4477-ab01-973293a4bf18}" in="00:00:00.000" out="00:36:06.067">
  <property name="kdenlive:uuid">{ff20d2f2-8ff5-4477-ab01-973293a4bf18}</property>
  <property name="kdenlive:clipname">Sequence 1</property>
  <property name="kdenlive:sequenceproperties.hasAudio">1</property>
  <property name="kdenlive:sequenceproperties.hasVideo">1</property>
  <property name="kdenlive:sequenceproperties.activeTrack">4</property>
  <property name="kdenlive:sequenceproperties.tracksCount">5</property>
  <property name="kdenlive:sequenceproperties.documentuuid">{ff20d2f2-8ff5-4477-ab01-973293a4bf18}</property>
  <property name="kdenlive:duration">00:02:46:01</property>
  <property name="kdenlive:maxduration">2491</property>
  <property name="kdenlive:producer_type">17</property>
  <property name="kdenlive:id">3</property>
  <property name="kdenlive:clip_type">0</property>
  <property name="kdenlive:file_hash">5a19ad36812dc33d8b2067cf5ef8c1c3</property>
  <property name="kdenlive:folderid">2</property>
  <property name="kdenlive:sequenceproperties.audioTarget">1</property>
  <property name="kdenlive:sequenceproperties.tracks">4</property>
  <property name="kdenlive:sequenceproperties.verticalzoom">1</property>
  <property name="kdenlive:sequenceproperties.videoTarget">2</property>
  <property name="kdenlive:sequenceproperties.zonein">0</property>
  <property name="kdenlive:sequenceproperties.zoneout">75</property>
  <property name="kdenlive:sequenceproperties.zoom">5</property>
  <property name="kdenlive:sequenceproperties.groups">[
]
</property>
  <property name="kdenlive:sequenceproperties.guides">[
]
</property>
  <property name="kdenlive:sequenceproperties.position">2280</property>
  <property name="kdenlive:sequenceproperties.scrollPos">3916</property>
  <property name="kdenlive:sequenceproperties.disablepreview">0</property>
  <track producer="producer0"/>
  <track producer="tractor0"/>
  <track producer="tractor1"/>
  <track producer="tractor2"/>
  <track producer="tractor3"/>
  <track producer="tractor4"/>
  <transition id="transition0">
   <property name="a_track">0</property>
   <property name="b_track">1</property>
   <property name="mlt_service">mix</property>
   <property name="kdenlive_id">mix</property>
   <property name="internal_added">237</property>
   <property name="always_active">1</property>
   <property name="accepts_blanks">1</property>
   <property name="sum">1</property>
  </transition>
  <transition id="transition1">
   <property name="a_track">0</property>
   <property name="b_track">2</property>
   <property name="mlt_service">mix</property>
   <property name="kdenlive_id">mix</property>
   <property name="internal_added">237</property>
   <property name="always_active">1</property>
   <property name="accepts_blanks">1</property>
   <property name="sum">1</property>
  </transition>
  <transition id="transition2">
   <property name="a_track">0</property>
   <property name="b_track">3</property>
   <property name="compositing">0</property>
   <property name="distort">0</property>
   <property name="rotate_center">0</property>
   <property name="mlt_service">qtblend</property>
   <property name="kdenlive_id">qtblend</property>
   <property name="internal_added">237</property>
   <property name="always_active">1</property>
  </transition>
  <transition id="transition3">
   <property name="a_track">0</property>
   <property name="b_track">4</property>
   <property name="compositing">0</property>
   <property name="distort">0</property>
   <property name="rotate_center">0</property>
   <property name="mlt_service">qtblend</property>
   <property name="kdenlive_id">qtblend</property>
   <property name="internal_added">237</property>
   <property name="always_active">1</property>
  </transition>
  <transition id="transition4">
   <property name="a_track">0</property>
   <property name="b_track">5</property>
   <property name="compositing">0</property>
   <property name="distort">0</property>
   <property name="rotate_center">0</property>
   <property name="mlt_service">qtblend</property>
   <property name="kdenlive_id">qtblend</property>
   <property name="internal_added">237</property>
   <property name="always_active">1</property>
  </transition>
  <filter id="filter36">
   <property name="window">75</property>
   <property name="max_gain">20dB</property>
   <property name="mlt_service">volume</property>
   <property name="internal_added">237</property>
   <property name="disable">1</property>
  </filter>
  <filter id="filter37">
   <property name="channel">-1</property>
   <property name="mlt_service">panner</property>
   <property name="internal_added">237</property>
   <property name="start">0.5</property>
   <property name="disable">1</property>
  </filter>
 </tractor>
 <chain id="chain28" out="00:04:25.200">
  <property name="length">3979</property>
  <property name="eof">pause</property>
  <property name="resource">background.mp4</property>
  <property name="mlt_service">avformat</property>
  <property name="meta.media.nb_streams">1</property>
  <property name="meta.media.0.stream.type">video</property>
  <property name="meta.media.0.stream.frame_rate">15</property>
  <property name="meta.media.0.stream.sample_aspect_ratio">1</property>
  <property name="meta.media.0.codec.width">1596</property>
  <property name="meta.media.0.codec.height">894</property>
  <property name="meta.media.0.codec.rotate">0</property>
  <property name="meta.media.0.codec.pix_fmt">yuv444p</property>
  <property name="meta.media.0.codec.sample_aspect_ratio">1</property>
  <property name="meta.media.0.codec.colorspace">709</property>
  <property name="meta.media.0.codec.color_trc">1</property>
  <property name="meta.media.0.codec.name">h264</property>
  <property name="meta.media.0.codec.long_name">H.264 / AVC / MPEG-4 AVC / MPEG-4 part 10</property>
  <property name="meta.media.0.codec.bit_rate">434684</property>
  <property name="meta.attr.0.stream.creation_time.markup">2023-11-02T18:30:54.000000Z</property>
  <property name="meta.attr.0.stream.handler_name.markup">VideoHandler</property>
  <property name="meta.attr.0.stream.vendor_id.markup">[0][0][0][0]</property>
  <property name="meta.attr.major_brand.markup">mp42</property>
  <property name="meta.attr.minor_version.markup">0</property>
  <property name="meta.attr.compatible_brands.markup">mp42mp41isomiso2</property>
  <property name="meta.attr.creation_time.markup">2023-11-02T18:30:54.000000Z</property>
  <property name="meta.attr.encoder.markup">x264</property>
  <property name="seekable">1</property>
  <property name="meta.media.sample_aspect_num">1</property>
  <property name="meta.media.sample_aspect_den">1</property>
  <property name="audio_index">-1</property>
  <property name="video_index">0</property>
  <property name="vstream">0</property>
  <property name="meta.media.frame_rate_num">15</property>
  <property name="meta.media.frame_rate_den">1</property>
  <property name="meta.media.colorspace">709</property>
  <property name="meta.media.color_trc">1</property>
  <property name="meta.media.has_b_frames">0</property>
  <property name="meta.media.width">1596</property>
  <property name="meta.media.height">894</property>
  <property name="meta.media.color_range">mpeg</property>
  <property name="meta.media.top_field_first">0</property>
  <property name="meta.media.progressive">1</property>
  <property name="kdenlive:id">4</property>
  <property name="kdenlive:clip_type">2</property>
  <property name="kdenlive:file_size">14430340</property>
  <property name="kdenlive:file_hash">4c3c04a531ad7830b95d1c7b3f04c495</property>
  <property name="kdenlive:folderid">-1</property>
 </chain>
 <chain id="chain29" out="00:02:45.933">
  <property name="length">2490</property>
  <property name="eof">pause</property>
  <property name="resource">back_Absurd-David_Fesliyan.mp3</property>
  <property name="mlt_service">avformat</property>
  <property name="meta.media.nb_streams">1</property>
  <property name="meta.media.0.stream.type">audio</property>
  <property name="meta.media.0.codec.sample_fmt">fltp</property>
  <property name="meta.media.0.codec.sample_rate">44100</property>
  <property name="meta.media.0.codec.channels">2</property>
  <property name="meta.media.0.codec.name">mp3float</property>
  <property name="meta.media.0.codec.long_name">MP3 (MPEG audio layer 3)</property>
  <property name="meta.media.0.codec.bit_rate">320000</property>
  <property name="meta.attr.album.markup">FesliyanStudios.com ASCAP IPI 792929876, 792929974</property>
  <property name="meta.attr.artist.markup">FesliyanStudios.com ASCAP IPI 792929876, 792929974</property>
  <property name="meta.attr.album_artist.markup">FesliyanStudios.com ASCAP IPI 792929876, 792929974</property>
  <property name="meta.attr.comment.markup">FesliyanStudios.com ASCAP IPI 792929876, 792929974</property>
  <property name="meta.attr.composer.markup">FesliyanStudios.com ASCAP IPI 792929876, 792929974</property>
  <property name="meta.attr.genre.markup">Soundtrack</property>
  <property name="meta.attr.title.markup">Absurd</property>
  <property name="meta.attr.track.markup">1</property>
  <property name="meta.attr.date.markup">2017</property>
  <property name="seekable">1</property>
  <property name="audio_index">0</property>
  <property name="video_index">-1</property>
  <property name="astream">0</property>
  <property name="kdenlive:folderid">-1</property>
  <property name="kdenlive:id">5</property>
  <property name="kdenlive:clip_type">1</property>
  <property name="kdenlive:file_size">6643743</property>
  <property name="kdenlive:file_hash">6d5b595db7134726039f90d798d5f726</property>
  <property name="kdenlive:audio_max0">214</property>
 </chain>
 <chain id="chain30" out="00:00:09.133">
  <property name="length">138</property>
  <property name="eof">pause</property>
  <property name="resource">ch00-s03-journey_en.m4a</property>
  <property name="mlt_service">avformat</property>
  <property name="meta.media.nb_streams">1</property>
  <property name="meta.media.0.stream.type">audio</property>
  <property name="meta.media.0.codec.sample_fmt">fltp</property>
  <property name="meta.media.0.codec.sample_rate">48000</property>
  <property name="meta.media.0.codec.channels">2</property>
  <property name="meta.media.0.codec.name">aac</property>
  <property name="meta.media.0.codec.long_name">AAC (Advanced Audio Coding)</property>
  <property name="meta.media.0.codec.bit_rate">173862</property>
  <property name="meta.attr.0.stream.creation_time.markup">2023-11-01T17:32:34.000000Z</property>
  <property name="meta.attr.0.stream.handler_name.markup">SoundHandler</property>
  <property name="meta.attr.0.stream.vendor_id.markup">[0][0][0][0]</property>
  <property name="meta.attr.major_brand.markup">mp42</property>
  <property name="meta.attr.minor_version.markup">0</property>
  <property name="meta.attr.compatible_brands.markup">mp41isom</property>
  <property name="meta.attr.creation_time.markup">2023-11-01T17:32:34.000000Z</property>
  <property name="meta.attr.date.markup">2023</property>
  <property name="meta.attr.album_artist.markup">Запись голоса</property>
  <property name="meta.attr.title.markup">ch00-s03-journey</property>
  <property name="seekable">1</property>
  <property name="audio_index">0</property>
  <property name="video_index">-1</property>
  <property name="astream">0</property>
  <property name="kdenlive:folderid">-1</property>
  <property name="kdenlive:id">8</property>
  <property name="kdenlive:clip_type">1</property>
  <property name="kdenlive:file_size">202377</property>
  <property name="kdenlive:file_hash">e5ced1e50c64447adfcc3a0ffda3e986</property>
  <property name="kdenlive:audio_max0">120</property>
 </chain>
 <chain id="chain31" out="00:00:11.533">
  <property name="length">174</property>
  <property name="eof">pause</property>
  <property name="resource">ch00-s01-welcome_en.m4a</property>
  <property name="mlt_service">avformat</property>
  <property name="meta.media.nb_streams">1</property>
  <property name="meta.media.0.stream.type">audio</property>
  <property name="meta.media.0.codec.sample_fmt">fltp</property>
  <property name="meta.media.0.codec.sample_rate">48000</property>
  <property name="meta.media.0.codec.channels">2</property>
  <property name="meta.media.0.codec.name">aac</property>
  <property name="meta.media.0.codec.long_name">AAC (Advanced Audio Coding)</property>
  <property name="meta.media.0.codec.bit_rate">174871</property>
  <property name="meta.attr.0.stream.creation_time.markup">2023-11-01T17:21:37.000000Z</property>
  <property name="meta.attr.0.stream.handler_name.markup">SoundHandler</property>
  <property name="meta.attr.0.stream.vendor_id.markup">[0][0][0][0]</property>
  <property name="meta.attr.major_brand.markup">mp42</property>
  <property name="meta.attr.minor_version.markup">0</property>
  <property name="meta.attr.compatible_brands.markup">mp41isom</property>
  <property name="meta.attr.creation_time.markup">2023-11-01T17:21:37.000000Z</property>
  <property name="meta.attr.date.markup">2023</property>
  <property name="meta.attr.album_artist.markup">Запись голоса</property>
  <property name="meta.attr.title.markup">ch00-s01-welcome</property>
  <property name="seekable">1</property>
  <property name="audio_index">0</property>
  <property name="video_index">-1</property>
  <property name="astream">0</property>
  <property name="kdenlive:folderid">-1</property>
  <property name="kdenlive:id">6</property>
  <property name="kdenlive:clip_type">1</property>
  <property name="kdenlive:file_size">256212</property>
  <property name="kdenlive:file_hash">df207f46ca025f866f4414c53a4f281e</property>
  <property name="kdenlive:audio_max0">136</property>
 </chain>
 <chain id="chain32" out="00:00:09.867">
  <property name="length">149</property>
  <property name="eof">pause</property>
  <property name="resource">ch00-s02-inclusive_en.m4a</property>
  <property name="mlt_service">avformat</property>
  <property name="meta.media.nb_streams">1</property>
  <property name="meta.media.0.stream.type">audio</property>
  <property name="meta.media.0.codec.sample_fmt">fltp</property>
  <property name="meta.media.0.codec.sample_rate">48000</property>
  <property name="meta.media.0.codec.channels">2</property>
  <property name="meta.media.0.codec.name">aac</property>
  <property name="meta.media.0.codec.long_name">AAC (Advanced Audio Coding)</property>
  <property name="meta.media.0.codec.bit_rate">178060</property>
  <property name="meta.attr.0.stream.creation_time.markup">2023-11-01T17:39:56.000000Z</property>
  <property name="meta.attr.0.stream.handler_name.markup">SoundHandler</property>
  <property name="meta.attr.0.stream.vendor_id.markup">[0][0][0][0]</property>
  <property name="meta.attr.major_brand.markup">mp42</property>
  <property name="meta.attr.minor_version.markup">0</property>
  <property name="meta.attr.compatible_brands.markup">mp41isom</property>
  <property name="meta.attr.creation_time.markup">2023-11-01T17:39:56.000000Z</property>
  <property name="meta.attr.title.markup">ch00-s02-inclusive</property>
  <property name="meta.attr.date.markup">2023</property>
  <property name="meta.attr.album_artist.markup">Запись голоса</property>
  <property name="seekable">1</property>
  <property name="audio_index">0</property>
  <property name="video_index">-1</property>
  <property name="astream">0</property>
  <property name="kdenlive:folderid">-1</property>
  <property name="kdenlive:id">7</property>
  <property name="kdenlive:clip_type">1</property>
  <property name="kdenlive:file_size">224173</property>
  <property name="kdenlive:file_hash">6996858f5bbae41f7ce40f2b3a7aba74</property>
  <property name="kdenlive:audio_max0">159</property>
 </chain>
 <chain id="chain33" out="00:00:08.267">
  <property name="length">125</property>
  <property name="eof">pause</property>
  <property name="resource">ch01-s02-complex_en.m4a</property>
  <property name="mlt_service">avformat</property>
  <property name="meta.media.nb_streams">1</property>
  <property name="meta.media.0.stream.type">audio</property>
  <property name="meta.media.0.codec.sample_fmt">fltp</property>
  <property name="meta.media.0.codec.sample_rate">48000</property>
  <property name="meta.media.0.codec.channels">2</property>
  <property name="meta.media.0.codec.name">aac</property>
  <property name="meta.media.0.codec.long_name">AAC (Advanced Audio Coding)</property>
  <property name="meta.media.0.codec.bit_rate">176334</property>
  <property name="meta.attr.0.stream.creation_time.markup">2023-11-01T17:47:19.000000Z</property>
  <property name="meta.attr.0.stream.handler_name.markup">SoundHandler</property>
  <property name="meta.attr.0.stream.vendor_id.markup">[0][0][0][0]</property>
  <property name="meta.attr.major_brand.markup">mp42</property>
  <property name="meta.attr.minor_version.markup">0</property>
  <property name="meta.attr.compatible_brands.markup">mp41isom</property>
  <property name="meta.attr.creation_time.markup">2023-11-01T17:47:19.000000Z</property>
  <property name="meta.attr.date.markup">2023</property>
  <property name="meta.attr.album_artist.markup">Запись голоса</property>
  <property name="meta.attr.title.markup">ch01-s02-complex</property>
  <property name="seekable">1</property>
  <property name="audio_index">0</property>
  <property name="video_index">-1</property>
  <property name="astream">0</property>
  <property name="kdenlive:folderid">-1</property>
  <property name="kdenlive:id">10</property>
  <property name="kdenlive:clip_type">1</property>
  <property name="kdenlive:file_size">185774</property>
  <property name="kdenlive:file_hash">a99b0029bca6aec19e936f7311916514</property>
  <property name="kdenlive:audio_max0">119</property>
 </chain>
 <chain id="chain34" out="00:00:09.067">
  <property name="length">137</property>
  <property name="eof">pause</property>
  <property name="resource">ch01-s01-challenges_en.m4a</property>
  <property name="mlt_service">avformat</property>
  <property name="meta.media.nb_streams">1</property>
  <property name="meta.media.0.stream.type">audio</property>
  <property name="meta.media.0.codec.sample_fmt">fltp</property>
  <property name="meta.media.0.codec.sample_rate">48000</property>
  <property name="meta.media.0.codec.channels">2</property>
  <property name="meta.media.0.codec.name">aac</property>
  <property name="meta.media.0.codec.long_name">AAC (Advanced Audio Coding)</property>
  <property name="meta.media.0.codec.bit_rate">170137</property>
  <property name="meta.attr.0.stream.creation_time.markup">2023-11-01T17:44:41.000000Z</property>
  <property name="meta.attr.0.stream.handler_name.markup">SoundHandler</property>
  <property name="meta.attr.0.stream.vendor_id.markup">[0][0][0][0]</property>
  <property name="meta.attr.major_brand.markup">mp42</property>
  <property name="meta.attr.minor_version.markup">0</property>
  <property name="meta.attr.compatible_brands.markup">mp41isom</property>
  <property name="meta.attr.creation_time.markup">2023-11-01T17:44:41.000000Z</property>
  <property name="meta.attr.date.markup">2023</property>
  <property name="meta.attr.album_artist.markup">Запись голоса</property>
  <property name="meta.attr.title.markup">ch01-s01-challenges</property>
  <property name="seekable">1</property>
  <property name="audio_index">0</property>
  <property name="video_index">-1</property>
  <property name="astream">0</property>
  <property name="kdenlive:folderid">-1</property>
  <property name="kdenlive:id">9</property>
  <property name="kdenlive:clip_type">1</property>
  <property name="kdenlive:file_size">196725</property>
  <property name="kdenlive:file_hash">42d65966e3c3a6204032ea627a1e8c92</property>
  <property name="kdenlive:audio_max0">126</property>
 </chain>
 <chain id="chain35" out="00:00:07.000">
  <property name="length">106</property>
  <property name="eof">pause</property>
  <property name="resource">ch01-s03-centric_en.m4a</property>
  <property name="mlt_service">avformat</property>
  <property name="meta.media.nb_streams">1</property>
  <property name="meta.media.0.stream.type">audio</property>
  <property name="meta.media.0.codec.sample_fmt">fltp</property>
  <property name="meta.media.0.codec.sample_rate">48000</property>
  <property name="meta.media.0.codec.channels">38</property>
  <property name="meta.media.0.codec.name">aac</property>
  <property name="meta.media.0.codec.long_name">AAC (Advanced Audio Coding)</property>
  <property name="meta.media.0.codec.bit_rate">177487</property>
  <property name="meta.attr.0.stream.creation_time.markup">2023-11-01T17:52:22.000000Z</property>
  <property name="meta.attr.0.stream.handler_name.markup">SoundHandler</property>
  <property name="meta.attr.0.stream.vendor_id.markup">[0][0][0][0]</property>
  <property name="meta.attr.major_brand.markup">mp42</property>
  <property name="meta.attr.minor_version.markup">0</property>
  <property name="meta.attr.compatible_brands.markup">mp41isom</property>
  <property name="meta.attr.creation_time.markup">2023-11-01T17:52:22.000000Z</property>
  <property name="meta.attr.date.markup">2023</property>
  <property name="meta.attr.album_artist.markup">Запись голоса</property>
  <property name="meta.attr.title.markup">ch01-s03-centric</property>
  <property name="seekable">1</property>
  <property name="audio_index">0</property>
  <property name="video_index">-1</property>
  <property name="astream">0</property>
  <property name="kdenlive:folderid">-1</property>
  <property name="kdenlive:id">11</property>
  <property name="kdenlive:clip_type">1</property>
  <property name="kdenlive:file_size">158634</property>
  <property name="kdenlive:file_hash">33f416122ca52272825869e6fc24188e</property>
  <property name="kdenlive:audio_max0">182</property>
 </chain>
 <chain id="chain36" out="00:00:07.467">
  <property name="length">113</property>
  <property name="eof">pause</property>
  <property name="resource">ch02-s01-accounts_en.m4a</property>
  <property name="mlt_service">avformat</property>
  <property name="meta.media.nb_streams">1</property>
  <property name="meta.media.0.stream.type">audio</property>
  <property name="meta.media.0.codec.sample_fmt">fltp</property>
  <property name="meta.media.0.codec.sample_rate">48000</property>
  <property name="meta.media.0.codec.channels">2</property>
  <property name="meta.media.0.codec.name">aac</property>
  <property name="meta.media.0.codec.long_name">AAC (Advanced Audio Coding)</property>
  <property name="meta.media.0.codec.bit_rate">176618</property>
  <property name="meta.attr.0.stream.creation_time.markup">2023-11-01T17:57:02.000000Z</property>
  <property name="meta.attr.0.stream.handler_name.markup">SoundHandler</property>
  <property name="meta.attr.0.stream.vendor_id.markup">[0][0][0][0]</property>
  <property name="meta.attr.major_brand.markup">mp42</property>
  <property name="meta.attr.minor_version.markup">0</property>
  <property name="meta.attr.compatible_brands.markup">mp41isom</property>
  <property name="meta.attr.creation_time.markup">2023-11-01T17:57:02.000000Z</property>
  <property name="meta.attr.date.markup">2023</property>
  <property name="meta.attr.album_artist.markup">Запись голоса</property>
  <property name="meta.attr.title.markup">ch02-s01-accounts</property>
  <property name="seekable">1</property>
  <property name="audio_index">0</property>
  <property name="video_index">-1</property>
  <property name="astream">0</property>
  <property name="kdenlive:folderid">-1</property>
  <property name="kdenlive:id">12</property>
  <property name="kdenlive:clip_type">1</property>
  <property name="kdenlive:file_size">168021</property>
  <property name="kdenlive:file_hash">69b362155bf9318cb1ebc450d2dd19cb</property>
  <property name="kdenlive:audio_max0">127</property>
 </chain>
 <chain id="chain37" out="00:00:06.933">
  <property name="length">105</property>
  <property name="eof">pause</property>
  <property name="resource">ch02-s03-categories_en.m4a</property>
  <property name="mlt_service">avformat</property>
  <property name="meta.media.nb_streams">1</property>
  <property name="meta.media.0.stream.type">audio</property>
  <property name="meta.media.0.codec.sample_fmt">fltp</property>
  <property name="meta.media.0.codec.sample_rate">48000</property>
  <property name="meta.media.0.codec.channels">2</property>
  <property name="meta.media.0.codec.name">aac</property>
  <property name="meta.media.0.codec.long_name">AAC (Advanced Audio Coding)</property>
  <property name="meta.media.0.codec.bit_rate">180509</property>
  <property name="meta.attr.0.stream.creation_time.markup">2023-11-01T18:03:02.000000Z</property>
  <property name="meta.attr.0.stream.handler_name.markup">SoundHandler</property>
  <property name="meta.attr.0.stream.vendor_id.markup">[0][0][0][0]</property>
  <property name="meta.attr.major_brand.markup">mp42</property>
  <property name="meta.attr.minor_version.markup">0</property>
  <property name="meta.attr.compatible_brands.markup">mp41isom</property>
  <property name="meta.attr.creation_time.markup">2023-11-01T18:03:02.000000Z</property>
  <property name="meta.attr.date.markup">2023</property>
  <property name="meta.attr.album_artist.markup">Запись голоса</property>
  <property name="meta.attr.title.markup">ch02-s03-categories</property>
  <property name="seekable">1</property>
  <property name="audio_index">0</property>
  <property name="video_index">-1</property>
  <property name="astream">0</property>
  <property name="kdenlive:folderid">-1</property>
  <property name="kdenlive:id">13</property>
  <property name="kdenlive:clip_type">1</property>
  <property name="kdenlive:file_size">160901</property>
  <property name="kdenlive:file_hash">4cef8f18303ec93e65226a259f4f3362</property>
  <property name="kdenlive:audio_max0">120</property>
 </chain>
 <chain id="chain38" out="00:00:05.600">
  <property name="length">85</property>
  <property name="eof">pause</property>
  <property name="resource">ch03-s01-bills_en.m4a</property>
  <property name="mlt_service">avformat</property>
  <property name="meta.media.nb_streams">1</property>
  <property name="meta.media.0.stream.type">audio</property>
  <property name="meta.media.0.codec.sample_fmt">fltp</property>
  <property name="meta.media.0.codec.sample_rate">48000</property>
  <property name="meta.media.0.codec.channels">2</property>
  <property name="meta.media.0.codec.name">aac</property>
  <property name="meta.media.0.codec.long_name">AAC (Advanced Audio Coding)</property>
  <property name="meta.media.0.codec.bit_rate">163129</property>
  <property name="meta.attr.0.stream.creation_time.markup">2023-11-01T18:08:17.000000Z</property>
  <property name="meta.attr.0.stream.handler_name.markup">SoundHandler</property>
  <property name="meta.attr.0.stream.vendor_id.markup">[0][0][0][0]</property>
  <property name="meta.attr.major_brand.markup">mp42</property>
  <property name="meta.attr.minor_version.markup">0</property>
  <property name="meta.attr.compatible_brands.markup">mp41isom</property>
  <property name="meta.attr.creation_time.markup">2023-11-01T18:08:17.000000Z</property>
  <property name="meta.attr.date.markup">2023</property>
  <property name="meta.attr.album_artist.markup">Запись голоса</property>
  <property name="meta.attr.title.markup">ch03-s01-bills</property>
  <property name="seekable">1</property>
  <property name="audio_index">0</property>
  <property name="video_index">-1</property>
  <property name="astream">0</property>
  <property name="kdenlive:folderid">-1</property>
  <property name="kdenlive:id">14</property>
  <property name="kdenlive:clip_type">1</property>
  <property name="kdenlive:file_size">117602</property>
  <property name="kdenlive:file_hash">ac608d3e60931a2d0dd5150d634f4a07</property>
  <property name="kdenlive:audio_max0">131</property>
 </chain>
 <chain id="chain39" out="00:00:06.467">
  <property name="length">98</property>
  <property name="eof">pause</property>
  <property name="resource">ch04-s01-goals_en.m4a</property>
  <property name="mlt_service">avformat</property>
  <property name="meta.media.nb_streams">1</property>
  <property name="meta.media.0.stream.type">audio</property>
  <property name="meta.media.0.codec.sample_fmt">fltp</property>
  <property name="meta.media.0.codec.sample_rate">48000</property>
  <property name="meta.media.0.codec.channels">2</property>
  <property name="meta.media.0.codec.name">aac</property>
  <property name="meta.media.0.codec.long_name">AAC (Advanced Audio Coding)</property>
  <property name="meta.media.0.codec.bit_rate">164846</property>
  <property name="meta.attr.0.stream.creation_time.markup">2023-11-01T18:11:20.000000Z</property>
  <property name="meta.attr.0.stream.handler_name.markup">SoundHandler</property>
  <property name="meta.attr.0.stream.vendor_id.markup">[0][0][0][0]</property>
  <property name="meta.attr.major_brand.markup">mp42</property>
  <property name="meta.attr.minor_version.markup">0</property>
  <property name="meta.attr.compatible_brands.markup">mp41isom</property>
  <property name="meta.attr.creation_time.markup">2023-11-01T18:11:20.000000Z</property>
  <property name="meta.attr.date.markup">2023</property>
  <property name="meta.attr.album_artist.markup">Запись голоса</property>
  <property name="meta.attr.title.markup">ch04-s01-goals</property>
  <property name="seekable">1</property>
  <property name="audio_index">0</property>
  <property name="video_index">-1</property>
  <property name="astream">0</property>
  <property name="kdenlive:folderid">-1</property>
  <property name="kdenlive:id">15</property>
  <property name="kdenlive:clip_type">1</property>
  <property name="kdenlive:file_size">136120</property>
  <property name="kdenlive:file_hash">d22814e7ce7f7b26b29f561264b62d93</property>
  <property name="kdenlive:audio_max0">129</property>
 </chain>
 <chain id="chain40" out="00:00:06.000">
  <property name="length">91</property>
  <property name="eof">pause</property>
  <property name="resource">ch05-s01-exchange_en.m4a</property>
  <property name="mlt_service">avformat</property>
  <property name="meta.media.nb_streams">1</property>
  <property name="meta.media.0.stream.type">audio</property>
  <property name="meta.media.0.codec.sample_fmt">fltp</property>
  <property name="meta.media.0.codec.sample_rate">48000</property>
  <property name="meta.media.0.codec.channels">19</property>
  <property name="meta.media.0.codec.name">aac</property>
  <property name="meta.media.0.codec.long_name">AAC (Advanced Audio Coding)</property>
  <property name="meta.media.0.codec.bit_rate">176327</property>
  <property name="meta.attr.0.stream.creation_time.markup">2023-11-01T18:15:50.000000Z</property>
  <property name="meta.attr.0.stream.handler_name.markup">SoundHandler</property>
  <property name="meta.attr.0.stream.vendor_id.markup">[0][0][0][0]</property>
  <property name="meta.attr.major_brand.markup">mp42</property>
  <property name="meta.attr.minor_version.markup">0</property>
  <property name="meta.attr.compatible_brands.markup">mp41isom</property>
  <property name="meta.attr.creation_time.markup">2023-11-01T18:15:50.000000Z</property>
  <property name="meta.attr.date.markup">2023</property>
  <property name="meta.attr.album_artist.markup">Запись голоса</property>
  <property name="meta.attr.title.markup">ch05-s01-exchange</property>
  <property name="seekable">1</property>
  <property name="audio_index">0</property>
  <property name="video_index">-1</property>
  <property name="astream">0</property>
  <property name="kdenlive:folderid">-1</property>
  <property name="kdenlive:id">16</property>
  <property name="kdenlive:clip_type">1</property>
  <property name="kdenlive:file_size">136462</property>
  <property name="kdenlive:file_hash">fcd21e8932989136bd8d7db2fb175447</property>
  <property name="kdenlive:audio_max0">122</property>
 </chain>
 <chain id="chain41" out="00:00:02.867">
  <property name="length">44</property>
  <property name="eof">pause</property>
  <property name="resource">ch05-s01-metrics_en.m4a</property>
  <property name="mlt_service">avformat</property>
  <property name="meta.media.nb_streams">1</property>
  <property name="meta.media.0.stream.type">audio</property>
  <property name="meta.media.0.codec.sample_fmt">fltp</property>
  <property name="meta.media.0.codec.sample_rate">48000</property>
  <property name="meta.media.0.codec.channels">2</property>
  <property name="meta.media.0.codec.name">aac</property>
  <property name="meta.media.0.codec.long_name">AAC (Advanced Audio Coding)</property>
  <property name="meta.media.0.codec.bit_rate">182869</property>
  <property name="meta.attr.0.stream.creation_time.markup">2023-11-01T18:19:19.000000Z</property>
  <property name="meta.attr.0.stream.handler_name.markup">SoundHandler</property>
  <property name="meta.attr.0.stream.vendor_id.markup">[0][0][0][0]</property>
  <property name="meta.attr.major_brand.markup">mp42</property>
  <property name="meta.attr.minor_version.markup">0</property>
  <property name="meta.attr.compatible_brands.markup">mp41isom</property>
  <property name="meta.attr.creation_time.markup">2023-11-01T18:19:19.000000Z</property>
  <property name="meta.attr.date.markup">2023</property>
  <property name="meta.attr.album_artist.markup">Запись голоса</property>
  <property name="meta.attr.title.markup">ch05-s01-metrics</property>
  <property name="seekable">1</property>
  <property name="audio_index">0</property>
  <property name="video_index">-1</property>
  <property name="astream">0</property>
  <property name="kdenlive:folderid">-1</property>
  <property name="kdenlive:id">17</property>
  <property name="kdenlive:clip_type">1</property>
  <property name="kdenlive:file_size">68489</property>
  <property name="kdenlive:file_hash">a45ee9db81cffea341a1ed49fd002c61</property>
  <property name="kdenlive:audio_max0">151</property>
 </chain>
 <chain id="chain42" out="00:00:11.933">
  <property name="length">180</property>
  <property name="eof">pause</property>
  <property name="resource">ch05-s02-list_en.m4a</property>
  <property name="mlt_service">avformat</property>
  <property name="meta.media.nb_streams">1</property>
  <property name="meta.media.0.stream.type">audio</property>
  <property name="meta.media.0.codec.sample_fmt">fltp</property>
  <property name="meta.media.0.codec.sample_rate">48000</property>
  <property name="meta.media.0.codec.channels">2</property>
  <property name="meta.media.0.codec.name">aac</property>
  <property name="meta.media.0.codec.long_name">AAC (Advanced Audio Coding)</property>
  <property name="meta.media.0.codec.bit_rate">183600</property>
  <property name="meta.attr.0.stream.creation_time.markup">2023-11-01T18:23:34.000000Z</property>
  <property name="meta.attr.0.stream.handler_name.markup">SoundHandler</property>
  <property name="meta.attr.0.stream.vendor_id.markup">[0][0][0][0]</property>
  <property name="meta.attr.major_brand.markup">mp42</property>
  <property name="meta.attr.minor_version.markup">0</property>
  <property name="meta.attr.compatible_brands.markup">mp41isom</property>
  <property name="meta.attr.creation_time.markup">2023-11-01T18:23:34.000000Z</property>
  <property name="meta.attr.date.markup">2023</property>
  <property name="meta.attr.album_artist.markup">Запись голоса</property>
  <property name="meta.attr.title.markup">ch05-s02-list</property>
  <property name="seekable">1</property>
  <property name="audio_index">0</property>
  <property name="video_index">-1</property>
  <property name="astream">0</property>
  <property name="kdenlive:folderid">-1</property>
  <property name="kdenlive:id">18</property>
  <property name="kdenlive:clip_type">1</property>
  <property name="kdenlive:file_size">278698</property>
  <property name="kdenlive:file_hash">d4fb312fba70e8c13921aafb3c0f0eea</property>
  <property name="kdenlive:audio_max0">127</property>
 </chain>
 <chain id="chain43" out="00:00:06.600">
  <property name="length">100</property>
  <property name="eof">pause</property>
  <property name="resource">ch05-s03-insights_en.m4a</property>
  <property name="mlt_service">avformat</property>
  <property name="meta.media.nb_streams">1</property>
  <property name="meta.media.0.stream.type">audio</property>
  <property name="meta.media.0.codec.sample_fmt">fltp</property>
  <property name="meta.media.0.codec.sample_rate">48000</property>
  <property name="meta.media.0.codec.channels">2</property>
  <property name="meta.media.0.codec.name">aac</property>
  <property name="meta.media.0.codec.long_name">AAC (Advanced Audio Coding)</property>
  <property name="meta.media.0.codec.bit_rate">183191</property>
  <property name="meta.attr.0.stream.creation_time.markup">2023-11-01T18:28:56.000000Z</property>
  <property name="meta.attr.0.stream.handler_name.markup">SoundHandler</property>
  <property name="meta.attr.0.stream.vendor_id.markup">[0][0][0][0]</property>
  <property name="meta.attr.major_brand.markup">mp42</property>
  <property name="meta.attr.minor_version.markup">0</property>
  <property name="meta.attr.compatible_brands.markup">mp41isom</property>
  <property name="meta.attr.creation_time.markup">2023-11-01T18:28:56.000000Z</property>
  <property name="meta.attr.date.markup">2023</property>
  <property name="meta.attr.album_artist.markup">Запись голоса</property>
  <property name="meta.attr.title.markup">ch05-s03-insights</property>
  <property name="seekable">1</property>
  <property name="audio_index">0</property>
  <property name="video_index">-1</property>
  <property name="astream">0</property>
  <property name="kdenlive:folderid">-1</property>
  <property name="kdenlive:id">19</property>
  <property name="kdenlive:clip_type">1</property>
  <property name="kdenlive:file_size">154047</property>
  <property name="kdenlive:file_hash">584034e23228b07c4b24fe749167b735</property>
  <property name="kdenlive:audio_max0">142</property>
 </chain>
 <chain id="chain44" out="00:00:07.667">
  <property name="length">116</property>
  <property name="eof">pause</property>
  <property name="resource">ch06-s02-navigation-panel_en.m4a</property>
  <property name="mlt_service">avformat</property>
  <property name="meta.media.nb_streams">1</property>
  <property name="meta.media.0.stream.type">audio</property>
  <property name="meta.media.0.codec.sample_fmt">fltp</property>
  <property name="meta.media.0.codec.sample_rate">48000</property>
  <property name="meta.media.0.codec.channels">2</property>
  <property name="meta.media.0.codec.name">aac</property>
  <property name="meta.media.0.codec.long_name">AAC (Advanced Audio Coding)</property>
  <property name="meta.media.0.codec.bit_rate">182659</property>
  <property name="meta.attr.0.stream.creation_time.markup">2023-11-01T18:46:13.000000Z</property>
  <property name="meta.attr.0.stream.handler_name.markup">SoundHandler</property>
  <property name="meta.attr.0.stream.vendor_id.markup">[0][0][0][0]</property>
  <property name="meta.attr.major_brand.markup">mp42</property>
  <property name="meta.attr.minor_version.markup">0</property>
  <property name="meta.attr.compatible_brands.markup">mp41isom</property>
  <property name="meta.attr.creation_time.markup">2023-11-01T18:46:13.000000Z</property>
  <property name="meta.attr.date.markup">2023</property>
  <property name="meta.attr.album_artist.markup">Запись голоса</property>
  <property name="meta.attr.title.markup">ch06-s02-navigation-panel</property>
  <property name="seekable">1</property>
  <property name="audio_index">0</property>
  <property name="video_index">-1</property>
  <property name="astream">0</property>
  <property name="kdenlive:folderid">-1</property>
  <property name="kdenlive:id">21</property>
  <property name="kdenlive:clip_type">1</property>
  <property name="kdenlive:file_size">179642</property>
  <property name="kdenlive:file_hash">f944b578d5c2cd2fff1ef020179d7ed5</property>
  <property name="kdenlive:audio_max0">143</property>
 </chain>
 <chain id="chain45" out="00:00:06.000">
  <property name="length">91</property>
  <property name="eof">pause</property>
  <property name="resource">ch06-s01-main-page_en.m4a</property>
  <property name="mlt_service">avformat</property>
  <property name="meta.media.nb_streams">1</property>
  <property name="meta.media.0.stream.type">audio</property>
  <property name="meta.media.0.codec.sample_fmt">fltp</property>
  <property name="meta.media.0.codec.sample_rate">48000</property>
  <property name="meta.media.0.codec.channels">2</property>
  <property name="meta.media.0.codec.name">aac</property>
  <property name="meta.media.0.codec.long_name">AAC (Advanced Audio Coding)</property>
  <property name="meta.media.0.codec.bit_rate">178582</property>
  <property name="meta.attr.0.stream.creation_time.markup">2023-11-01T18:41:49.000000Z</property>
  <property name="meta.attr.0.stream.handler_name.markup">SoundHandler</property>
  <property name="meta.attr.0.stream.vendor_id.markup">[0][0][0][0]</property>
  <property name="meta.attr.major_brand.markup">mp42</property>
  <property name="meta.attr.minor_version.markup">0</property>
  <property name="meta.attr.compatible_brands.markup">mp41isom</property>
  <property name="meta.attr.creation_time.markup">2023-11-01T18:41:49.000000Z</property>
  <property name="meta.attr.date.markup">2023</property>
  <property name="meta.attr.album_artist.markup">Запись голоса</property>
  <property name="meta.attr.title.markup">ch06-s01-main-page</property>
  <property name="seekable">1</property>
  <property name="audio_index">0</property>
  <property name="video_index">-1</property>
  <property name="astream">0</property>
  <property name="kdenlive:folderid">-1</property>
  <property name="kdenlive:id">20</property>
  <property name="kdenlive:clip_type">1</property>
  <property name="kdenlive:file_size">137911</property>
  <property name="kdenlive:file_hash">3473cb86709a6f48db7da8757baa7e83</property>
  <property name="kdenlive:audio_max0">166</property>
 </chain>
 <chain id="chain46" out="00:00:08.867">
  <property name="length">134</property>
  <property name="eof">pause</property>
  <property name="resource">ch06-s03-colors_en.m4a</property>
  <property name="mlt_service">avformat</property>
  <property name="meta.media.nb_streams">1</property>
  <property name="meta.media.0.stream.type">audio</property>
  <property name="meta.media.0.codec.sample_fmt">fltp</property>
  <property name="meta.media.0.codec.sample_rate">48000</property>
  <property name="meta.media.0.codec.channels">2</property>
  <property name="meta.media.0.codec.name">aac</property>
  <property name="meta.media.0.codec.long_name">AAC (Advanced Audio Coding)</property>
  <property name="meta.media.0.codec.bit_rate">169665</property>
  <property name="meta.attr.0.stream.creation_time.markup">2023-11-01T18:49:26.000000Z</property>
  <property name="meta.attr.0.stream.handler_name.markup">SoundHandler</property>
  <property name="meta.attr.0.stream.vendor_id.markup">[0][0][0][0]</property>
  <property name="meta.attr.major_brand.markup">mp42</property>
  <property name="meta.attr.minor_version.markup">0</property>
  <property name="meta.attr.compatible_brands.markup">mp41isom</property>
  <property name="meta.attr.creation_time.markup">2023-11-01T18:49:26.000000Z</property>
  <property name="meta.attr.date.markup">2023</property>
  <property name="meta.attr.album_artist.markup">Запись голоса</property>
  <property name="meta.attr.title.markup">ch06-s03-colors</property>
  <property name="seekable">1</property>
  <property name="audio_index">0</property>
  <property name="video_index">-1</property>
  <property name="astream">0</property>
  <property name="kdenlive:folderid">-1</property>
  <property name="kdenlive:id">22</property>
  <property name="kdenlive:clip_type">1</property>
  <property name="kdenlive:file_size">192075</property>
  <property name="kdenlive:file_hash">d69fd86750d00faad304d78d6cf21b5f</property>
  <property name="kdenlive:audio_max0">132</property>
 </chain>
 <chain id="chain47" out="00:00:04.267">
  <property name="length">65</property>
  <property name="eof">pause</property>
  <property name="resource">ch06-s04-last-choice_en.m4a</property>
  <property name="mlt_service">avformat</property>
  <property name="meta.media.nb_streams">1</property>
  <property name="meta.media.0.stream.type">audio</property>
  <property name="meta.media.0.codec.sample_fmt">fltp</property>
  <property name="meta.media.0.codec.sample_rate">48000</property>
  <property name="meta.media.0.codec.channels">2</property>
  <property name="meta.media.0.codec.name">aac</property>
  <property name="meta.media.0.codec.long_name">AAC (Advanced Audio Coding)</property>
  <property name="meta.media.0.codec.bit_rate">182268</property>
  <property name="meta.attr.0.stream.creation_time.markup">2023-11-01T19:22:00.000000Z</property>
  <property name="meta.attr.0.stream.handler_name.markup">SoundHandler</property>
  <property name="meta.attr.0.stream.vendor_id.markup">[0][0][0][0]</property>
  <property name="meta.attr.major_brand.markup">mp42</property>
  <property name="meta.attr.minor_version.markup">0</property>
  <property name="meta.attr.compatible_brands.markup">mp41isom</property>
  <property name="meta.attr.creation_time.markup">2023-11-01T19:22:00.000000Z</property>
  <property name="meta.attr.date.markup">2023</property>
  <property name="meta.attr.album_artist.markup">Запись голоса</property>
  <property name="meta.attr.title.markup">ch06-s04-last-choice</property>
  <property name="seekable">1</property>
  <property name="audio_index">0</property>
  <property name="video_index">-1</property>
  <property name="astream">0</property>
  <property name="kdenlive:folderid">-1</property>
  <property name="kdenlive:id">23</property>
  <property name="kdenlive:clip_type">1</property>
  <property name="kdenlive:file_size">99937</property>
  <property name="kdenlive:file_hash">38889c46410b883e6aebc6eb3802c062</property>
  <property name="kdenlive:audio_max0">123</property>
 </chain>
 <chain id="chain48" out="00:00:04.000">
  <property name="length">61</property>
  <property name="eof">pause</property>
  <property name="resource">ch06-s05-scroll-to_en.m4a</property>
  <property name="mlt_service">avformat</property>
  <property name="meta.media.nb_streams">1</property>
  <property name="meta.media.0.stream.type">audio</property>
  <property name="meta.media.0.codec.sample_fmt">fltp</property>
  <property name="meta.media.0.codec.sample_rate">48000</property>
  <property name="meta.media.0.codec.channels">2</property>
  <property name="meta.media.0.codec.name">aac</property>
  <property name="meta.media.0.codec.long_name">AAC (Advanced Audio Coding)</property>
  <property name="meta.media.0.codec.bit_rate">162535</property>
  <property name="meta.attr.0.stream.creation_time.markup">2023-11-01T19:24:12.000000Z</property>
  <property name="meta.attr.0.stream.handler_name.markup">SoundHandler</property>
  <property name="meta.attr.0.stream.vendor_id.markup">[0][0][0][0]</property>
  <property name="meta.attr.major_brand.markup">mp42</property>
  <property name="meta.attr.minor_version.markup">0</property>
  <property name="meta.attr.compatible_brands.markup">mp41isom</property>
  <property name="meta.attr.creation_time.markup">2023-11-01T19:24:12.000000Z</property>
  <property name="meta.attr.date.markup">2023</property>
  <property name="meta.attr.album_artist.markup">Запись голоса</property>
  <property name="meta.attr.title.markup">ch06-s05-scroll-to</property>
  <property name="seekable">1</property>
  <property name="audio_index">0</property>
  <property name="video_index">-1</property>
  <property name="astream">0</property>
  <property name="kdenlive:folderid">-1</property>
  <property name="kdenlive:id">24</property>
  <property name="kdenlive:clip_type">1</property>
  <property name="kdenlive:file_size">84713</property>
  <property name="kdenlive:file_hash">7bfdc6d3233e5d1d07a45ba084642951</property>
  <property name="kdenlive:audio_max0">132</property>
 </chain>
 <chain id="chain49" out="00:00:04.933">
  <property name="length">75</property>
  <property name="eof">pause</property>
  <property name="resource">ch06-s06-expand_en.m4a</property>
  <property name="mlt_service">avformat</property>
  <property name="meta.media.nb_streams">1</property>
  <property name="meta.media.0.stream.type">audio</property>
  <property name="meta.media.0.codec.sample_fmt">fltp</property>
  <property name="meta.media.0.codec.sample_rate">48000</property>
  <property name="meta.media.0.codec.channels">2</property>
  <property name="meta.media.0.codec.name">aac</property>
  <property name="meta.media.0.codec.long_name">AAC (Advanced Audio Coding)</property>
  <property name="meta.media.0.codec.bit_rate">167194</property>
  <property name="meta.attr.0.stream.creation_time.markup">2023-11-01T19:28:31.000000Z</property>
  <property name="meta.attr.0.stream.handler_name.markup">SoundHandler</property>
  <property name="meta.attr.0.stream.vendor_id.markup">[0][0][0][0]</property>
  <property name="meta.attr.major_brand.markup">mp42</property>
  <property name="meta.attr.minor_version.markup">0</property>
  <property name="meta.attr.compatible_brands.markup">mp41isom</property>
  <property name="meta.attr.creation_time.markup">2023-11-01T19:28:31.000000Z</property>
  <property name="meta.attr.date.markup">2023</property>
  <property name="meta.attr.album_artist.markup">Запись голоса</property>
  <property name="meta.attr.title.markup">ch06-s06-expand</property>
  <property name="seekable">1</property>
  <property name="audio_index">0</property>
  <property name="video_index">-1</property>
  <property name="astream">0</property>
  <property name="kdenlive:folderid">-1</property>
  <property name="kdenlive:id">25</property>
  <property name="kdenlive:clip_type">1</property>
  <property name="kdenlive:file_size">106541</property>
  <property name="kdenlive:file_hash">5e0fc971a90e3b7853cf5f3605a1547f</property>
  <property name="kdenlive:audio_max0">112</property>
 </chain>
 <chain id="chain50" out="00:00:05.533">
  <property name="length">84</property>
  <property name="eof">pause</property>
  <property name="resource">ch06-s07-swipe_en.m4a</property>
  <property name="mlt_service">avformat</property>
  <property name="meta.media.nb_streams">1</property>
  <property name="meta.media.0.stream.type">audio</property>
  <property name="meta.media.0.codec.sample_fmt">fltp</property>
  <property name="meta.media.0.codec.sample_rate">48000</property>
  <property name="meta.media.0.codec.channels">2</property>
  <property name="meta.media.0.codec.name">aac</property>
  <property name="meta.media.0.codec.long_name">AAC (Advanced Audio Coding)</property>
  <property name="meta.media.0.codec.bit_rate">180641</property>
  <property name="meta.attr.0.stream.creation_time.markup">2023-11-01T19:31:14.000000Z</property>
  <property name="meta.attr.0.stream.handler_name.markup">SoundHandler</property>
  <property name="meta.attr.0.stream.vendor_id.markup">[0][0][0][0]</property>
  <property name="meta.attr.major_brand.markup">mp42</property>
  <property name="meta.attr.minor_version.markup">0</property>
  <property name="meta.attr.compatible_brands.markup">mp41isom</property>
  <property name="meta.attr.creation_time.markup">2023-11-01T19:31:14.000000Z</property>
  <property name="meta.attr.date.markup">2023</property>
  <property name="meta.attr.album_artist.markup">Запись голоса</property>
  <property name="meta.attr.title.markup">ch06-s07-swipe</property>
  <property name="seekable">1</property>
  <property name="audio_index">0</property>
  <property name="video_index">-1</property>
  <property name="astream">0</property>
  <property name="kdenlive:folderid">-1</property>
  <property name="kdenlive:id">26</property>
  <property name="kdenlive:clip_type">1</property>
  <property name="kdenlive:file_size">129052</property>
  <property name="kdenlive:file_hash">770de80d22e6f82e473f57467ffd1527</property>
  <property name="kdenlive:audio_max0">171</property>
 </chain>
 <chain id="chain51" out="00:00:07.400">
  <property name="length">112</property>
  <property name="eof">pause</property>
  <property name="resource">ch06-s08-zoom_en.m4a</property>
  <property name="mlt_service">avformat</property>
  <property name="meta.media.nb_streams">1</property>
  <property name="meta.media.0.stream.type">audio</property>
  <property name="meta.media.0.codec.sample_fmt">fltp</property>
  <property name="meta.media.0.codec.sample_rate">48000</property>
  <property name="meta.media.0.codec.channels">2</property>
  <property name="meta.media.0.codec.name">aac</property>
  <property name="meta.media.0.codec.long_name">AAC (Advanced Audio Coding)</property>
  <property name="meta.media.0.codec.bit_rate">166669</property>
  <property name="meta.attr.0.stream.creation_time.markup">2023-11-01T19:33:39.000000Z</property>
  <property name="meta.attr.0.stream.handler_name.markup">SoundHandler</property>
  <property name="meta.attr.0.stream.vendor_id.markup">[0][0][0][0]</property>
  <property name="meta.attr.major_brand.markup">mp42</property>
  <property name="meta.attr.minor_version.markup">0</property>
  <property name="meta.attr.compatible_brands.markup">mp41isom</property>
  <property name="meta.attr.creation_time.markup">2023-11-01T19:33:39.000000Z</property>
  <property name="meta.attr.date.markup">2023</property>
  <property name="meta.attr.album_artist.markup">Запись голоса</property>
  <property name="meta.attr.title.markup">ch06-s08-zoom</property>
  <property name="seekable">1</property>
  <property name="audio_index">0</property>
  <property name="video_index">-1</property>
  <property name="astream">0</property>
  <property name="kdenlive:folderid">-1</property>
  <property name="kdenlive:id">27</property>
  <property name="kdenlive:clip_type">1</property>
  <property name="kdenlive:file_size">157782</property>
  <property name="kdenlive:file_hash">79b533e4607275e1044b4c2309ec5804</property>
  <property name="kdenlive:audio_max0">149</property>
 </chain>
 <chain id="chain52" out="00:00:03.067">
  <property name="length">47</property>
  <property name="eof">pause</property>
  <property name="resource">ch07-s09-shortcuts_en.m4a</property>
  <property name="mlt_service">avformat</property>
  <property name="meta.media.nb_streams">1</property>
  <property name="meta.media.0.stream.type">audio</property>
  <property name="meta.media.0.codec.sample_fmt">fltp</property>
  <property name="meta.media.0.codec.sample_rate">48000</property>
  <property name="meta.media.0.codec.channels">2</property>
  <property name="meta.media.0.codec.name">aac</property>
  <property name="meta.media.0.codec.long_name">AAC (Advanced Audio Coding)</property>
  <property name="meta.media.0.codec.bit_rate">171414</property>
  <property name="meta.attr.0.stream.creation_time.markup">2023-11-01T19:36:10.000000Z</property>
  <property name="meta.attr.0.stream.handler_name.markup">SoundHandler</property>
  <property name="meta.attr.0.stream.vendor_id.markup">[0][0][0][0]</property>
  <property name="meta.attr.major_brand.markup">mp42</property>
  <property name="meta.attr.minor_version.markup">0</property>
  <property name="meta.attr.compatible_brands.markup">mp41isom</property>
  <property name="meta.attr.creation_time.markup">2023-11-01T19:36:10.000000Z</property>
  <property name="meta.attr.date.markup">2023</property>
  <property name="meta.attr.album_artist.markup">Запись голоса</property>
  <property name="meta.attr.title.markup">ch07-s09-shortcuts</property>
  <property name="seekable">1</property>
  <property name="audio_index">0</property>
  <property name="video_index">-1</property>
  <property name="astream">0</property>
  <property name="kdenlive:folderid">-1</property>
  <property name="kdenlive:id">28</property>
  <property name="kdenlive:clip_type">1</property>
  <property name="kdenlive:file_size">68292</property>
  <property name="kdenlive:file_hash">5d6aa71d0d9703260d3f23a21eb7567d</property>
  <property name="kdenlive:audio_max0">129</property>
 </chain>
 <chain id="chain53" out="00:00:10.267">
  <property name="length">155</property>
  <property name="eof">pause</property>
  <property name="resource">ch08-s01-conclusion_en.m4a</property>
  <property name="mlt_service">avformat</property>
  <property name="meta.media.nb_streams">1</property>
  <property name="meta.media.0.stream.type">audio</property>
  <property name="meta.media.0.codec.sample_fmt">fltp</property>
  <property name="meta.media.0.codec.sample_rate">48000</property>
  <property name="meta.media.0.codec.channels">2</property>
  <property name="meta.media.0.codec.name">aac</property>
  <property name="meta.media.0.codec.long_name">AAC (Advanced Audio Coding)</property>
  <property name="meta.media.0.codec.bit_rate">178027</property>
  <property name="meta.attr.0.stream.creation_time.markup">2023-11-01T19:40:16.000000Z</property>
  <property name="meta.attr.0.stream.handler_name.markup">SoundHandler</property>
  <property name="meta.attr.0.stream.vendor_id.markup">[0][0][0][0]</property>
  <property name="meta.attr.major_brand.markup">mp42</property>
  <property name="meta.attr.minor_version.markup">0</property>
  <property name="meta.attr.compatible_brands.markup">mp41isom</property>
  <property name="meta.attr.creation_time.markup">2023-11-01T19:40:16.000000Z</property>
  <property name="meta.attr.date.markup">2023</property>
  <property name="meta.attr.album_artist.markup">Запись голоса</property>
  <property name="meta.attr.title.markup">ch08-s01-conclusion</property>
  <property name="seekable">1</property>
  <property name="audio_index">0</property>
  <property name="video_index">-1</property>
  <property name="astream">0</property>
  <property name="kdenlive:folderid">-1</property>
  <property name="kdenlive:id">29</property>
  <property name="kdenlive:clip_type">1</property>
  <property name="kdenlive:file_size">233019</property>
  <property name="kdenlive:file_hash">b29338b04fa1d2daea097972ca8ec678</property>
  <property name="kdenlive:audio_max0">148</property>
 </chain>
 <chain id="chain54" out="00:00:06.600">
  <property name="length">100</property>
  <property name="eof">pause</property>
  <property name="resource">ch08-s02-free_en.m4a</property>
  <property name="mlt_service">avformat</property>
  <property name="meta.media.nb_streams">1</property>
  <property name="meta.media.0.stream.type">audio</property>
  <property name="meta.media.0.codec.sample_fmt">fltp</property>
  <property name="meta.media.0.codec.sample_rate">48000</property>
  <property name="meta.media.0.codec.channels">2</property>
  <property name="meta.media.0.codec.name">aac</property>
  <property name="meta.media.0.codec.long_name">AAC (Advanced Audio Coding)</property>
  <property name="meta.media.0.codec.bit_rate">183918</property>
  <property name="meta.attr.0.stream.creation_time.markup">2023-11-01T19:43:13.000000Z</property>
  <property name="meta.attr.0.stream.handler_name.markup">SoundHandler</property>
  <property name="meta.attr.0.stream.vendor_id.markup">[0][0][0][0]</property>
  <property name="meta.attr.major_brand.markup">mp42</property>
  <property name="meta.attr.minor_version.markup">0</property>
  <property name="meta.attr.compatible_brands.markup">mp41isom</property>
  <property name="meta.attr.creation_time.markup">2023-11-01T19:43:13.000000Z</property>
  <property name="meta.attr.date.markup">2023</property>
  <property name="meta.attr.album_artist.markup">Запись голоса</property>
  <property name="meta.attr.title.markup">ch08-s02-free</property>
  <property name="seekable">1</property>
  <property name="audio_index">0</property>
  <property name="video_index">-1</property>
  <property name="astream">0</property>
  <property name="kdenlive:folderid">-1</property>
  <property name="kdenlive:id">30</property>
  <property name="kdenlive:clip_type">1</property>
  <property name="kdenlive:file_size">155786</property>
  <property name="kdenlive:file_hash">211bea8fd6b5d144331e87b7e32f3dd3</property>
  <property name="kdenlive:audio_max0">152</property>
 </chain>
 <chain id="chain55" out="00:00:01.600">
  <property name="length">25</property>
  <property name="eof">pause</property>
  <property name="resource">ch08-s03-thanks_en.m4a</property>
  <property name="mlt_service">avformat</property>
  <property name="meta.media.nb_streams">1</property>
  <property name="meta.media.0.stream.type">audio</property>
  <property name="meta.media.0.codec.sample_fmt">fltp</property>
  <property name="meta.media.0.codec.sample_rate">48000</property>
  <property name="meta.media.0.codec.channels">2</property>
  <property name="meta.media.0.codec.name">aac</property>
  <property name="meta.media.0.codec.long_name">AAC (Advanced Audio Coding)</property>
  <property name="meta.media.0.codec.bit_rate">178813</property>
  <property name="meta.attr.0.stream.creation_time.markup">2023-11-01T19:48:26.000000Z</property>
  <property name="meta.attr.0.stream.handler_name.markup">SoundHandler</property>
  <property name="meta.attr.0.stream.vendor_id.markup">[0][0][0][0]</property>
  <property name="meta.attr.major_brand.markup">mp42</property>
  <property name="meta.attr.minor_version.markup">0</property>
  <property name="meta.attr.compatible_brands.markup">mp41isom</property>
  <property name="meta.attr.creation_time.markup">2023-11-01T19:48:26.000000Z</property>
  <property name="meta.attr.date.markup">2023</property>
  <property name="meta.attr.album_artist.markup">Запись голоса</property>
  <property name="meta.attr.title.markup">ch08-s03-thanks</property>
  <property name="seekable">1</property>
  <property name="audio_index">0</property>
  <property name="video_index">-1</property>
  <property name="astream">0</property>
  <property name="kdenlive:folderid">-1</property>
  <property name="kdenlive:id">32</property>
  <property name="kdenlive:clip_type">1</property>
  <property name="kdenlive:file_size">38423</property>
  <property name="kdenlive:file_hash">9827404a712a2348e6c25ec7c7d68d97</property>
  <property name="kdenlive:audio_max0">124</property>
 </chain>
 <chain id="chain56" out="00:00:05.400">
  <property name="length">82</property>
  <property name="eof">pause</property>
  <property name="resource">ch08-s03-decision_en.m4a</property>
  <property name="mlt_service">avformat</property>
  <property name="meta.media.nb_streams">1</property>
  <property name="meta.media.0.stream.type">audio</property>
  <property name="meta.media.0.codec.sample_fmt">fltp</property>
  <property name="meta.media.0.codec.sample_rate">48000</property>
  <property name="meta.media.0.codec.channels">30</property>
  <property name="meta.media.0.codec.name">aac</property>
  <property name="meta.media.0.codec.long_name">AAC (Advanced Audio Coding)</property>
  <property name="meta.media.0.codec.bit_rate">184369</property>
  <property name="meta.attr.0.stream.creation_time.markup">2023-11-01T19:46:11.000000Z</property>
  <property name="meta.attr.0.stream.handler_name.markup">SoundHandler</property>
  <property name="meta.attr.0.stream.vendor_id.markup">[0][0][0][0]</property>
  <property name="meta.attr.major_brand.markup">mp42</property>
  <property name="meta.attr.minor_version.markup">0</property>
  <property name="meta.attr.compatible_brands.markup">mp41isom</property>
  <property name="meta.attr.creation_time.markup">2023-11-01T19:46:11.000000Z</property>
  <property name="meta.attr.date.markup">2023</property>
  <property name="meta.attr.album_artist.markup">Запись голоса</property>
  <property name="meta.attr.title.markup">ch08-s03-decision</property>
  <property name="seekable">1</property>
  <property name="audio_index">0</property>
  <property name="video_index">-1</property>
  <property name="astream">0</property>
  <property name="kdenlive:folderid">-1</property>
  <property name="kdenlive:id">31</property>
  <property name="kdenlive:clip_type">1</property>
  <property name="kdenlive:file_size">127656</property>
  <property name="kdenlive:file_hash">d0f116f02950c1bdedddaa11f9c3d07f</property>
  <property name="kdenlive:audio_max0">151</property>
 </chain>
 <chain id="chain57" out="00:01:20.933">
  <property name="length">1215</property>
  <property name="eof">pause</property>
  <property name="resource">adaptive-design.mp4</property>
  <property name="mlt_service">avformat-novalidate</property>
  <property name="meta.media.nb_streams">2</property>
  <property name="meta.media.0.stream.type">video</property>
  <property name="meta.media.0.stream.frame_rate">15</property>
  <property name="meta.media.0.stream.sample_aspect_ratio">1</property>
  <property name="meta.media.0.codec.width">1816</property>
  <property name="meta.media.0.codec.height">1028</property>
  <property name="meta.media.0.codec.rotate">0</property>
  <property name="meta.media.0.codec.pix_fmt">yuv420p</property>
  <property name="meta.media.0.codec.sample_aspect_ratio">1</property>
  <property name="meta.media.0.codec.colorspace">709</property>
  <property name="meta.media.0.codec.color_trc">1</property>
  <property name="meta.media.0.codec.name">h264</property>
  <property name="meta.media.0.codec.long_name">H.264 / AVC / MPEG-4 AVC / MPEG-4 part 10</property>
  <property name="meta.media.0.codec.bit_rate">292958</property>
  <property name="meta.attr.0.stream.handler_name.markup">VideoHandler</property>
  <property name="meta.attr.0.stream.vendor_id.markup">[0][0][0][0]</property>
  <property name="meta.media.1.stream.type">audio</property>
  <property name="meta.media.1.codec.sample_fmt">fltp</property>
  <property name="meta.media.1.codec.sample_rate">48000</property>
  <property name="meta.media.1.codec.channels">2</property>
  <property name="meta.media.1.codec.name">aac</property>
  <property name="meta.media.1.codec.long_name">AAC (Advanced Audio Coding)</property>
  <property name="meta.media.1.codec.bit_rate">2272</property>
  <property name="meta.attr.1.stream.handler_name.markup">SoundHandler</property>
  <property name="meta.attr.1.stream.vendor_id.markup">[0][0][0][0]</property>
  <property name="meta.attr.major_brand.markup">isom</property>
  <property name="meta.attr.minor_version.markup">512</property>
  <property name="meta.attr.compatible_brands.markup">isomiso2avc1mp41</property>
  <property name="meta.attr.encoder.markup">Lavf60.3.100</property>
  <property name="seekable">1</property>
  <property name="meta.media.sample_aspect_num">1</property>
  <property name="meta.media.sample_aspect_den">1</property>
  <property name="audio_index">1</property>
  <property name="video_index">0</property>
  <property name="vstream">0</property>
  <property name="meta.media.frame_rate_num">15</property>
  <property name="meta.media.frame_rate_den">1</property>
  <property name="meta.media.colorspace">709</property>
  <property name="meta.media.color_trc">1</property>
  <property name="meta.media.has_b_frames">2</property>
  <property name="meta.media.width">1816</property>
  <property name="meta.media.height">1028</property>
  <property name="meta.media.color_range">mpeg</property>
  <property name="astream">0</property>
  <property name="meta.media.top_field_first">0</property>
  <property name="meta.media.progressive">1</property>
  <property name="kdenlive:folderid">-1</property>
  <property name="kdenlive:id">33</property>
  <property name="mute_on_pause">0</property>
  <property name="kdenlive:clip_type">0</property>
  <property name="kdenlive:file_size">3032773</property>
  <property name="kdenlive:file_hash">c1e96150e34532e63a66f1e7d88662f1</property>
  <property name="kdenlive:audio_max1">1</property>
 </chain>
 <chain id="chain58" out="00:01:06.667">
  <property name="length">1001</property>
  <property name="eof">pause</property>
  <property name="resource">/home/vlyskouski/Videos/Pear-to-Pear.mp4</property>
  <property name="mlt_service">avformat-novalidate</property>
  <property name="meta.media.nb_streams">2</property>
  <property name="meta.media.0.stream.type">video</property>
  <property name="meta.media.0.stream.frame_rate">15</property>
  <property name="meta.media.0.stream.sample_aspect_ratio">1</property>
  <property name="meta.media.0.codec.width">994</property>
  <property name="meta.media.0.codec.height">742</property>
  <property name="meta.media.0.codec.rotate">0</property>
  <property name="meta.media.0.codec.pix_fmt">yuv420p</property>
  <property name="meta.media.0.codec.sample_aspect_ratio">1</property>
  <property name="meta.media.0.codec.colorspace">709</property>
  <property name="meta.media.0.codec.color_trc">1</property>
  <property name="meta.media.0.codec.name">h264</property>
  <property name="meta.media.0.codec.long_name">H.264 / AVC / MPEG-4 AVC / MPEG-4 part 10</property>
  <property name="meta.media.0.codec.bit_rate">318695</property>
  <property name="meta.attr.0.stream.handler_name.markup">VideoHandler</property>
  <property name="meta.attr.0.stream.vendor_id.markup">[0][0][0][0]</property>
  <property name="meta.media.1.stream.type">audio</property>
  <property name="meta.media.1.codec.sample_fmt">fltp</property>
  <property name="meta.media.1.codec.sample_rate">48000</property>
  <property name="meta.media.1.codec.channels">2</property>
  <property name="meta.media.1.codec.name">aac</property>
  <property name="meta.media.1.codec.long_name">AAC (Advanced Audio Coding)</property>
  <property name="meta.media.1.codec.bit_rate">2273</property>
  <property name="meta.attr.1.stream.handler_name.markup">SoundHandler</property>
  <property name="meta.attr.1.stream.vendor_id.markup">[0][0][0][0]</property>
  <property name="meta.attr.major_brand.markup">isom</property>
  <property name="meta.attr.minor_version.markup">512</property>
  <property name="meta.attr.compatible_brands.markup">isomiso2avc1mp41</property>
  <property name="meta.attr.encoder.markup">Lavf60.3.100</property>
  <property name="seekable">1</property>
  <property name="meta.media.sample_aspect_num">1</property>
  <property name="meta.media.sample_aspect_den">1</property>
  <property name="audio_index">1</property>
  <property name="video_index">0</property>
  <property name="vstream">0</property>
  <property name="meta.media.frame_rate_num">15</property>
  <property name="meta.media.frame_rate_den">1</property>
  <property name="meta.media.colorspace">709</property>
  <property name="meta.media.color_trc">1</property>
  <property name="meta.media.has_b_frames">2</property>
  <property name="meta.media.width">994</property>
  <property name="meta.media.height">742</property>
  <property name="meta.media.color_range">mpeg</property>
  <property name="astream">0</property>
  <property name="meta.media.top_field_first">0</property>
  <property name="meta.media.progressive">1</property>
  <property name="kdenlive:folderid">-1</property>
  <property name="kdenlive:id">34</property>
  <property name="mute_on_pause">0</property>
  <property name="kdenlive:clip_type">0</property>
  <property name="kdenlive:file_size">2714421</property>
  <property name="kdenlive:file_hash">62c0557839e4659d1b5420fcc7b84109</property>
  <property name="kdenlive:audio_max1">1</property>
 </chain>
 <chain id="chain59" out="00:00:23.733">
  <property name="length">357</property>
  <property name="eof">pause</property>
  <property name="resource">accounts.mp4</property>
  <property name="mlt_service">avformat-novalidate</property>
  <property name="meta.media.nb_streams">1</property>
  <property name="meta.media.0.stream.type">video</property>
  <property name="meta.media.0.stream.frame_rate">15</property>
  <property name="meta.media.0.stream.sample_aspect_ratio">1</property>
  <property name="meta.media.0.codec.width">1156</property>
  <property name="meta.media.0.codec.height">724</property>
  <property name="meta.media.0.codec.rotate">0</property>
  <property name="meta.media.0.codec.pix_fmt">yuv444p</property>
  <property name="meta.media.0.codec.sample_aspect_ratio">1</property>
  <property name="meta.media.0.codec.colorspace">709</property>
  <property name="meta.media.0.codec.color_trc">1</property>
  <property name="meta.media.0.codec.name">h264</property>
  <property name="meta.media.0.codec.long_name">H.264 / AVC / MPEG-4 AVC / MPEG-4 part 10</property>
  <property name="meta.media.0.codec.bit_rate">887387</property>
  <property name="meta.attr.0.stream.creation_time.markup">2023-11-02T20:21:45.000000Z</property>
  <property name="meta.attr.0.stream.handler_name.markup">VideoHandler</property>
  <property name="meta.attr.0.stream.vendor_id.markup">[0][0][0][0]</property>
  <property name="meta.attr.major_brand.markup">mp42</property>
  <property name="meta.attr.minor_version.markup">0</property>
  <property name="meta.attr.compatible_brands.markup">mp42mp41isomiso2</property>
  <property name="meta.attr.creation_time.markup">2023-11-02T20:21:45.000000Z</property>
  <property name="meta.attr.encoder.markup">x264</property>
  <property name="seekable">1</property>
  <property name="meta.media.sample_aspect_num">1</property>
  <property name="meta.media.sample_aspect_den">1</property>
  <property name="audio_index">-1</property>
  <property name="video_index">0</property>
  <property name="vstream">0</property>
  <property name="meta.media.frame_rate_num">15</property>
  <property name="meta.media.frame_rate_den">1</property>
  <property name="meta.media.colorspace">709</property>
  <property name="meta.media.color_trc">1</property>
  <property name="meta.media.has_b_frames">0</property>
  <property name="meta.media.width">1156</property>
  <property name="meta.media.height">724</property>
  <property name="meta.media.color_range">mpeg</property>
  <property name="meta.media.top_field_first">0</property>
  <property name="meta.media.progressive">1</property>
  <property name="kdenlive:folderid">-1</property>
  <property name="kdenlive:id">35</property>
  <property name="mute_on_pause">0</property>
  <property name="kdenlive:clip_type">2</property>
  <property name="kdenlive:file_size">2642336</property>
  <property name="kdenlive:file_hash">22751f535e921504d517dd339e8043e3</property>
 </chain>
 <chain id="chain60" out="00:00:16.533">
  <property name="length">249</property>
  <property name="eof">pause</property>
  <property name="resource">budgets.mp4</property>
  <property name="mlt_service">avformat-novalidate</property>
  <property name="meta.media.nb_streams">1</property>
  <property name="meta.media.0.stream.type">video</property>
  <property name="meta.media.0.stream.frame_rate">15</property>
  <property name="meta.media.0.stream.sample_aspect_ratio">1</property>
  <property name="meta.media.0.codec.width">1156</property>
  <property name="meta.media.0.codec.height">724</property>
  <property name="meta.media.0.codec.rotate">0</property>
  <property name="meta.media.0.codec.pix_fmt">yuv444p</property>
  <property name="meta.media.0.codec.sample_aspect_ratio">1</property>
  <property name="meta.media.0.codec.colorspace">709</property>
  <property name="meta.media.0.codec.color_trc">1</property>
  <property name="meta.media.0.codec.name">h264</property>
  <property name="meta.media.0.codec.long_name">H.264 / AVC / MPEG-4 AVC / MPEG-4 part 10</property>
  <property name="meta.media.0.codec.bit_rate">170457</property>
  <property name="meta.attr.0.stream.creation_time.markup">2023-11-02T20:36:10.000000Z</property>
  <property name="meta.attr.0.stream.handler_name.markup">VideoHandler</property>
  <property name="meta.attr.0.stream.vendor_id.markup">[0][0][0][0]</property>
  <property name="meta.attr.major_brand.markup">mp42</property>
  <property name="meta.attr.minor_version.markup">0</property>
  <property name="meta.attr.compatible_brands.markup">mp42mp41isomiso2</property>
  <property name="meta.attr.creation_time.markup">2023-11-02T20:36:10.000000Z</property>
  <property name="meta.attr.encoder.markup">x264</property>
  <property name="seekable">1</property>
  <property name="meta.media.sample_aspect_num">1</property>
  <property name="meta.media.sample_aspect_den">1</property>
  <property name="audio_index">-1</property>
  <property name="video_index">0</property>
  <property name="vstream">0</property>
  <property name="meta.media.frame_rate_num">15</property>
  <property name="meta.media.frame_rate_den">1</property>
  <property name="meta.media.colorspace">709</property>
  <property name="meta.media.color_trc">1</property>
  <property name="meta.media.has_b_frames">0</property>
  <property name="meta.media.width">1156</property>
  <property name="meta.media.height">724</property>
  <property name="meta.media.color_range">mpeg</property>
  <property name="meta.media.top_field_first">0</property>
  <property name="meta.media.progressive">1</property>
  <property name="kdenlive:folderid">-1</property>
  <property name="kdenlive:id">36</property>
  <property name="mute_on_pause">0</property>
  <property name="kdenlive:clip_type">2</property>
  <property name="kdenlive:file_size">355621</property>
  <property name="kdenlive:file_hash">1980293c15e7dc302f793b3cb37c89de</property>
 </chain>
 <chain id="chain61" out="00:00:10.600">
  <property name="length">160</property>
  <property name="eof">pause</property>
  <property name="resource">bills.mp4</property>
  <property name="mlt_service">avformat-novalidate</property>
  <property name="meta.media.nb_streams">1</property>
  <property name="meta.media.0.stream.type">video</property>
  <property name="meta.media.0.stream.frame_rate">15</property>
  <property name="meta.media.0.stream.sample_aspect_ratio">1</property>
  <property name="meta.media.0.codec.width">1156</property>
  <property name="meta.media.0.codec.height">724</property>
  <property name="meta.media.0.codec.rotate">0</property>
  <property name="meta.media.0.codec.pix_fmt">yuv444p</property>
  <property name="meta.media.0.codec.sample_aspect_ratio">1</property>
  <property name="meta.media.0.codec.colorspace">709</property>
  <property name="meta.media.0.codec.color_trc">1</property>
  <property name="meta.media.0.codec.name">h264</property>
  <property name="meta.media.0.codec.long_name">H.264 / AVC / MPEG-4 AVC / MPEG-4 part 10</property>
  <property name="meta.media.0.codec.bit_rate">362804</property>
  <property name="meta.attr.0.stream.creation_time.markup">2023-11-02T20:39:57.000000Z</property>
  <property name="meta.attr.0.stream.handler_name.markup">VideoHandler</property>
  <property name="meta.attr.0.stream.vendor_id.markup">[0][0][0][0]</property>
  <property name="meta.attr.major_brand.markup">mp42</property>
  <property name="meta.attr.minor_version.markup">0</property>
  <property name="meta.attr.compatible_brands.markup">mp42mp41isomiso2</property>
  <property name="meta.attr.creation_time.markup">2023-11-02T20:39:57.000000Z</property>
  <property name="meta.attr.encoder.markup">x264</property>
  <property name="seekable">1</property>
  <property name="meta.media.sample_aspect_num">1</property>
  <property name="meta.media.sample_aspect_den">1</property>
  <property name="audio_index">-1</property>
  <property name="video_index">0</property>
  <property name="vstream">0</property>
  <property name="meta.media.frame_rate_num">15</property>
  <property name="meta.media.frame_rate_den">1</property>
  <property name="meta.media.colorspace">709</property>
  <property name="meta.media.color_trc">1</property>
  <property name="meta.media.has_b_frames">0</property>
  <property name="meta.media.width">1156</property>
  <property name="meta.media.height">724</property>
  <property name="meta.media.color_range">mpeg</property>
  <property name="meta.media.top_field_first">0</property>
  <property name="meta.media.progressive">1</property>
  <property name="kdenlive:folderid">-1</property>
  <property name="kdenlive:id">37</property>
  <property name="mute_on_pause">0</property>
  <property name="kdenlive:clip_type">2</property>
  <property name="kdenlive:file_size">485305</property>
  <property name="kdenlive:file_hash">ac6a90f217d1ceccf7136191b28c81f4</property>
 </chain>
 <chain id="chain62" out="00:00:34.800">
  <property name="length">523</property>
  <property name="eof">pause</property>
  <property name="resource">goal_2.mp4</property>
  <property name="mlt_service">avformat-novalidate</property>
  <property name="meta.media.nb_streams">1</property>
  <property name="meta.media.0.stream.type">video</property>
  <property name="meta.media.0.stream.frame_rate">15</property>
  <property name="meta.media.0.stream.sample_aspect_ratio">1</property>
  <property name="meta.media.0.codec.width">1156</property>
  <property name="meta.media.0.codec.height">724</property>
  <property name="meta.media.0.codec.rotate">0</property>
  <property name="meta.media.0.codec.pix_fmt">yuv444p</property>
  <property name="meta.media.0.codec.sample_aspect_ratio">1</property>
  <property name="meta.media.0.codec.colorspace">709</property>
  <property name="meta.media.0.codec.color_trc">1</property>
  <property name="meta.media.0.codec.name">h264</property>
  <property name="meta.media.0.codec.long_name">H.264 / AVC / MPEG-4 AVC / MPEG-4 part 10</property>
  <property name="meta.media.0.codec.bit_rate">169390</property>
  <property name="meta.attr.0.stream.creation_time.markup">2023-11-02T20:47:09.000000Z</property>
  <property name="meta.attr.0.stream.handler_name.markup">VideoHandler</property>
  <property name="meta.attr.0.stream.vendor_id.markup">[0][0][0][0]</property>
  <property name="meta.attr.major_brand.markup">mp42</property>
  <property name="meta.attr.minor_version.markup">0</property>
  <property name="meta.attr.compatible_brands.markup">mp42mp41isomiso2</property>
  <property name="meta.attr.creation_time.markup">2023-11-02T20:47:09.000000Z</property>
  <property name="meta.attr.encoder.markup">x264</property>
  <property name="seekable">1</property>
  <property name="meta.media.sample_aspect_num">1</property>
  <property name="meta.media.sample_aspect_den">1</property>
  <property name="audio_index">-1</property>
  <property name="video_index">0</property>
  <property name="vstream">0</property>
  <property name="meta.media.frame_rate_num">15</property>
  <property name="meta.media.frame_rate_den">1</property>
  <property name="meta.media.colorspace">709</property>
  <property name="meta.media.color_trc">1</property>
  <property name="meta.media.has_b_frames">0</property>
  <property name="meta.media.width">1156</property>
  <property name="meta.media.height">724</property>
  <property name="meta.media.color_range">mpeg</property>
  <property name="meta.media.top_field_first">0</property>
  <property name="meta.media.progressive">1</property>
  <property name="kdenlive:folderid">-1</property>
  <property name="kdenlive:id">39</property>
  <property name="mute_on_pause">0</property>
  <property name="kdenlive:clip_type">2</property>
  <property name="kdenlive:file_size">741286</property>
  <property name="kdenlive:file_hash">c560afcfceafd1e004c39732ed3a09bb</property>
 </chain>
 <chain id="chain63" out="00:00:36.867">
  <property name="length">554</property>
  <property name="eof">pause</property>
  <property name="resource">goal_1.mp4</property>
  <property name="mlt_service">avformat-novalidate</property>
  <property name="meta.media.nb_streams">1</property>
  <property name="meta.media.0.stream.type">video</property>
  <property name="meta.media.0.stream.frame_rate">15</property>
  <property name="meta.media.0.stream.sample_aspect_ratio">1</property>
  <property name="meta.media.0.codec.width">1156</property>
  <property name="meta.media.0.codec.height">724</property>
  <property name="meta.media.0.codec.rotate">0</property>
  <property name="meta.media.0.codec.pix_fmt">yuv444p</property>
  <property name="meta.media.0.codec.sample_aspect_ratio">1</property>
  <property name="meta.media.0.codec.colorspace">709</property>
  <property name="meta.media.0.codec.color_trc">1</property>
  <property name="meta.media.0.codec.name">h264</property>
  <property name="meta.media.0.codec.long_name">H.264 / AVC / MPEG-4 AVC / MPEG-4 part 10</property>
  <property name="meta.media.0.codec.bit_rate">392699</property>
  <property name="meta.attr.0.stream.creation_time.markup">2023-11-02T20:42:36.000000Z</property>
  <property name="meta.attr.0.stream.handler_name.markup">VideoHandler</property>
  <property name="meta.attr.0.stream.vendor_id.markup">[0][0][0][0]</property>
  <property name="meta.attr.major_brand.markup">mp42</property>
  <property name="meta.attr.minor_version.markup">0</property>
  <property name="meta.attr.compatible_brands.markup">mp42mp41isomiso2</property>
  <property name="meta.attr.creation_time.markup">2023-11-02T20:42:36.000000Z</property>
  <property name="meta.attr.encoder.markup">x264</property>
  <property name="seekable">1</property>
  <property name="meta.media.sample_aspect_num">1</property>
  <property name="meta.media.sample_aspect_den">1</property>
  <property name="audio_index">-1</property>
  <property name="video_index">0</property>
  <property name="vstream">0</property>
  <property name="meta.media.frame_rate_num">15</property>
  <property name="meta.media.frame_rate_den">1</property>
  <property name="meta.media.colorspace">709</property>
  <property name="meta.media.color_trc">1</property>
  <property name="meta.media.has_b_frames">0</property>
  <property name="meta.media.width">1156</property>
  <property name="meta.media.height">724</property>
  <property name="meta.media.color_range">mpeg</property>
  <property name="meta.media.top_field_first">0</property>
  <property name="meta.media.progressive">1</property>
  <property name="kdenlive:folderid">-1</property>
  <property name="kdenlive:id">38</property>
  <property name="mute_on_pause">0</property>
  <property name="kdenlive:clip_type">2</property>
  <property name="kdenlive:file_size">1816114</property>
  <property name="kdenlive:file_hash">5820cf36b82d54f0922038bd507d2681</property>
 </chain>
 <chain id="chain64" out="00:00:31.867">
  <property name="length">479</property>
  <property name="eof">pause</property>
  <property name="resource">currencies.mp4</property>
  <property name="mlt_service">avformat-novalidate</property>
  <property name="meta.media.nb_streams">1</property>
  <property name="meta.media.0.stream.type">video</property>
  <property name="meta.media.0.stream.frame_rate">15</property>
  <property name="meta.media.0.stream.sample_aspect_ratio">1</property>
  <property name="meta.media.0.codec.width">1156</property>
  <property name="meta.media.0.codec.height">724</property>
  <property name="meta.media.0.codec.rotate">0</property>
  <property name="meta.media.0.codec.pix_fmt">yuv444p</property>
  <property name="meta.media.0.codec.sample_aspect_ratio">1</property>
  <property name="meta.media.0.codec.colorspace">709</property>
  <property name="meta.media.0.codec.color_trc">1</property>
  <property name="meta.media.0.codec.name">h264</property>
  <property name="meta.media.0.codec.long_name">H.264 / AVC / MPEG-4 AVC / MPEG-4 part 10</property>
  <property name="meta.media.0.codec.bit_rate">318641</property>
  <property name="meta.attr.0.stream.creation_time.markup">2023-11-02T20:56:42.000000Z</property>
  <property name="meta.attr.0.stream.handler_name.markup">VideoHandler</property>
  <property name="meta.attr.0.stream.vendor_id.markup">[0][0][0][0]</property>
  <property name="meta.attr.major_brand.markup">mp42</property>
  <property name="meta.attr.minor_version.markup">0</property>
  <property name="meta.attr.compatible_brands.markup">mp42mp41isomiso2</property>
  <property name="meta.attr.creation_time.markup">2023-11-02T20:56:42.000000Z</property>
  <property name="meta.attr.encoder.markup">x264</property>
  <property name="seekable">1</property>
  <property name="meta.media.sample_aspect_num">1</property>
  <property name="meta.media.sample_aspect_den">1</property>
  <property name="audio_index">-1</property>
  <property name="video_index">0</property>
  <property name="vstream">0</property>
  <property name="meta.media.frame_rate_num">15</property>
  <property name="meta.media.frame_rate_den">1</property>
  <property name="meta.media.colorspace">709</property>
  <property name="meta.media.color_trc">1</property>
  <property name="meta.media.has_b_frames">0</property>
  <property name="meta.media.width">1156</property>
  <property name="meta.media.height">724</property>
  <property name="meta.media.color_range">mpeg</property>
  <property name="meta.media.top_field_first">0</property>
  <property name="meta.media.progressive">1</property>
  <property name="kdenlive:folderid">-1</property>
  <property name="kdenlive:id">40</property>
  <property name="mute_on_pause">0</property>
  <property name="kdenlive:clip_type">2</property>
  <property name="kdenlive:file_size">1274759</property>
  <property name="kdenlive:file_hash">645d1c270a25b9cbd990613b1bb872b2</property>
 </chain>
 <chain id="chain65" out="00:00:19.667">
  <property name="length">296</property>
  <property name="eof">pause</property>
  <property name="resource">metrics.mp4</property>
  <property name="mlt_service">avformat-novalidate</property>
  <property name="meta.media.nb_streams">1</property>
  <property name="meta.media.0.stream.type">video</property>
  <property name="meta.media.0.stream.frame_rate">15</property>
  <property name="meta.media.0.stream.sample_aspect_ratio">1</property>
  <property name="meta.media.0.codec.width">1156</property>
  <property name="meta.media.0.codec.height">724</property>
  <property name="meta.media.0.codec.rotate">0</property>
  <property name="meta.media.0.codec.pix_fmt">yuv444p</property>
  <property name="meta.media.0.codec.sample_aspect_ratio">1</property>
  <property name="meta.media.0.codec.colorspace">709</property>
  <property name="meta.media.0.codec.color_trc">1</property>
  <property name="meta.media.0.codec.name">h264</property>
  <property name="meta.media.0.codec.long_name">H.264 / AVC / MPEG-4 AVC / MPEG-4 part 10</property>
  <property name="meta.media.0.codec.bit_rate">256341</property>
  <property name="meta.attr.0.stream.creation_time.markup">2023-11-02T21:06:35.000000Z</property>
  <property name="meta.attr.0.stream.handler_name.markup">VideoHandler</property>
  <property name="meta.attr.0.stream.vendor_id.markup">[0][0][0][0]</property>
  <property name="meta.attr.major_brand.markup">mp42</property>
  <property name="meta.attr.minor_version.markup">0</property>
  <property name="meta.attr.compatible_brands.markup">mp42mp41isomiso2</property>
  <property name="meta.attr.creation_time.markup">2023-11-02T21:06:35.000000Z</property>
  <property name="meta.attr.encoder.markup">x264</property>
  <property name="seekable">1</property>
  <property name="meta.media.sample_aspect_num">1</property>
  <property name="meta.media.sample_aspect_den">1</property>
  <property name="audio_index">-1</property>
  <property name="video_index">0</property>
  <property name="vstream">0</property>
  <property name="meta.media.frame_rate_num">15</property>
  <property name="meta.media.frame_rate_den">1</property>
  <property name="meta.media.colorspace">709</property>
  <property name="meta.media.color_trc">1</property>
  <property name="meta.media.has_b_frames">0</property>
  <property name="meta.media.width">1156</property>
  <property name="meta.media.height">724</property>
  <property name="meta.media.color_range">mpeg</property>
  <property name="meta.media.top_field_first">0</property>
  <property name="meta.media.progressive">1</property>
  <property name="kdenlive:folderid">-1</property>
  <property name="kdenlive:id">41</property>
  <property name="mute_on_pause">0</property>
  <property name="kdenlive:clip_type">2</property>
  <property name="kdenlive:file_size">634420</property>
  <property name="kdenlive:file_hash">8524a2d5ff637f05d9e22bcec145f957</property>
 </chain>
 <chain id="chain66" out="00:00:50.867">
  <property name="length">764</property>
  <property name="eof">pause</property>
  <property name="resource">settings.mp4</property>
  <property name="mlt_service">avformat-novalidate</property>
  <property name="meta.media.nb_streams">1</property>
  <property name="meta.media.0.stream.type">video</property>
  <property name="meta.media.0.stream.frame_rate">15</property>
  <property name="meta.media.0.stream.sample_aspect_ratio">1</property>
  <property name="meta.media.0.codec.width">1156</property>
  <property name="meta.media.0.codec.height">724</property>
  <property name="meta.media.0.codec.rotate">0</property>
  <property name="meta.media.0.codec.pix_fmt">yuv444p</property>
  <property name="meta.media.0.codec.sample_aspect_ratio">1</property>
  <property name="meta.media.0.codec.colorspace">709</property>
  <property name="meta.media.0.codec.color_trc">1</property>
  <property name="meta.media.0.codec.name">h264</property>
  <property name="meta.media.0.codec.long_name">H.264 / AVC / MPEG-4 AVC / MPEG-4 part 10</property>
  <property name="meta.media.0.codec.bit_rate">225872</property>
  <property name="meta.attr.0.stream.creation_time.markup">2023-11-02T21:22:36.000000Z</property>
  <property name="meta.attr.0.stream.handler_name.markup">VideoHandler</property>
  <property name="meta.attr.0.stream.vendor_id.markup">[0][0][0][0]</property>
  <property name="meta.attr.major_brand.markup">mp42</property>
  <property name="meta.attr.minor_version.markup">0</property>
  <property name="meta.attr.compatible_brands.markup">mp42mp41isomiso2</property>
  <property name="meta.attr.creation_time.markup">2023-11-02T21:22:36.000000Z</property>
  <property name="meta.attr.encoder.markup">x264</property>
  <property name="seekable">1</property>
  <property name="meta.media.sample_aspect_num">1</property>
  <property name="meta.media.sample_aspect_den">1</property>
  <property name="audio_index">-1</property>
  <property name="video_index">0</property>
  <property name="vstream">0</property>
  <property name="meta.media.frame_rate_num">15</property>
  <property name="meta.media.frame_rate_den">1</property>
  <property name="meta.media.colorspace">709</property>
  <property name="meta.media.color_trc">1</property>
  <property name="meta.media.has_b_frames">0</property>
  <property name="meta.media.width">1156</property>
  <property name="meta.media.height">724</property>
  <property name="meta.media.color_range">mpeg</property>
  <property name="meta.media.top_field_first">0</property>
  <property name="meta.media.progressive">1</property>
  <property name="kdenlive:folderid">-1</property>
  <property name="kdenlive:id">42</property>
  <property name="mute_on_pause">0</property>
  <property name="kdenlive:clip_type">2</property>
  <property name="kdenlive:file_size">1442053</property>
  <property name="kdenlive:file_hash">6c275d5ad9aa231403ab182b5ae24e17</property>
 </chain>
 <chain id="chain67" out="00:00:35.667">
  <property name="length">536</property>
  <property name="eof">pause</property>
  <property name="resource">autoscroll.mp4</property>
  <property name="mlt_service">avformat-novalidate</property>
  <property name="meta.media.nb_streams">1</property>
  <property name="meta.media.0.stream.type">video</property>
  <property name="meta.media.0.stream.frame_rate">15</property>
  <property name="meta.media.0.stream.sample_aspect_ratio">1</property>
  <property name="meta.media.0.codec.width">1156</property>
  <property name="meta.media.0.codec.height">724</property>
  <property name="meta.media.0.codec.rotate">0</property>
  <property name="meta.media.0.codec.pix_fmt">yuv444p</property>
  <property name="meta.media.0.codec.sample_aspect_ratio">1</property>
  <property name="meta.media.0.codec.colorspace">709</property>
  <property name="meta.media.0.codec.color_trc">1</property>
  <property name="meta.media.0.codec.name">h264</property>
  <property name="meta.media.0.codec.long_name">H.264 / AVC / MPEG-4 AVC / MPEG-4 part 10</property>
  <property name="meta.media.0.codec.bit_rate">288514</property>
  <property name="meta.attr.0.stream.creation_time.markup">2023-11-02T21:28:53.000000Z</property>
  <property name="meta.attr.0.stream.handler_name.markup">VideoHandler</property>
  <property name="meta.attr.0.stream.vendor_id.markup">[0][0][0][0]</property>
  <property name="meta.attr.major_brand.markup">mp42</property>
  <property name="meta.attr.minor_version.markup">0</property>
  <property name="meta.attr.compatible_brands.markup">mp42mp41isomiso2</property>
  <property name="meta.attr.creation_time.markup">2023-11-02T21:28:53.000000Z</property>
  <property name="meta.attr.encoder.markup">x264</property>
  <property name="seekable">1</property>
  <property name="meta.media.sample_aspect_num">1</property>
  <property name="meta.media.sample_aspect_den">1</property>
  <property name="audio_index">-1</property>
  <property name="video_index">0</property>
  <property name="vstream">0</property>
  <property name="meta.media.frame_rate_num">15</property>
  <property name="meta.media.frame_rate_den">1</property>
  <property name="meta.media.colorspace">709</property>
  <property name="meta.media.color_trc">1</property>
  <property name="meta.media.has_b_frames">0</property>
  <property name="meta.media.width">1156</property>
  <property name="meta.media.height">724</property>
  <property name="meta.media.color_range">mpeg</property>
  <property name="meta.media.top_field_first">0</property>
  <property name="meta.media.progressive">1</property>
  <property name="kdenlive:folderid">-1</property>
  <property name="kdenlive:id">43</property>
  <property name="mute_on_pause">0</property>
  <property name="kdenlive:clip_type">2</property>
  <property name="kdenlive:file_size">1291775</property>
  <property name="kdenlive:file_hash">69bb751cd854447e8839e084d64e2953</property>
 </chain>
 <chain id="chain68" out="00:00:09.267">
  <property name="length">140</property>
  <property name="eof">pause</property>
  <property name="resource">collapse.mp4</property>
  <property name="mlt_service">avformat-novalidate</property>
  <property name="meta.media.nb_streams">1</property>
  <property name="meta.media.0.stream.type">video</property>
  <property name="meta.media.0.stream.frame_rate">15</property>
  <property name="meta.media.0.stream.sample_aspect_ratio">1</property>
  <property name="meta.media.0.codec.width">1158</property>
  <property name="meta.media.0.codec.height">720</property>
  <property name="meta.media.0.codec.rotate">0</property>
  <property name="meta.media.0.codec.pix_fmt">yuv444p</property>
  <property name="meta.media.0.codec.sample_aspect_ratio">1</property>
  <property name="meta.media.0.codec.colorspace">709</property>
  <property name="meta.media.0.codec.color_trc">1</property>
  <property name="meta.media.0.codec.name">h264</property>
  <property name="meta.media.0.codec.long_name">H.264 / AVC / MPEG-4 AVC / MPEG-4 part 10</property>
  <property name="meta.media.0.codec.bit_rate">280768</property>
  <property name="meta.attr.0.stream.creation_time.markup">2023-11-02T21:35:22.000000Z</property>
  <property name="meta.attr.0.stream.handler_name.markup">VideoHandler</property>
  <property name="meta.attr.0.stream.vendor_id.markup">[0][0][0][0]</property>
  <property name="meta.attr.major_brand.markup">mp42</property>
  <property name="meta.attr.minor_version.markup">0</property>
  <property name="meta.attr.compatible_brands.markup">mp42mp41isomiso2</property>
  <property name="meta.attr.creation_time.markup">2023-11-02T21:35:22.000000Z</property>
  <property name="meta.attr.encoder.markup">x264</property>
  <property name="seekable">1</property>
  <property name="meta.media.sample_aspect_num">1</property>
  <property name="meta.media.sample_aspect_den">1</property>
  <property name="audio_index">-1</property>
  <property name="video_index">0</property>
  <property name="vstream">0</property>
  <property name="meta.media.frame_rate_num">15</property>
  <property name="meta.media.frame_rate_den">1</property>
  <property name="meta.media.colorspace">709</property>
  <property name="meta.media.color_trc">1</property>
  <property name="meta.media.has_b_frames">0</property>
  <property name="meta.media.width">1158</property>
  <property name="meta.media.height">720</property>
  <property name="meta.media.color_range">mpeg</property>
  <property name="meta.media.top_field_first">0</property>
  <property name="meta.media.progressive">1</property>
  <property name="kdenlive:folderid">-1</property>
  <property name="kdenlive:id">44</property>
  <property name="mute_on_pause">0</property>
  <property name="kdenlive:clip_type">2</property>
  <property name="kdenlive:file_size">329045</property>
  <property name="kdenlive:file_hash">f870fdc91ceeef18576c799871d10976</property>
 </chain>
 <chain id="chain69" out="00:00:10.600">
  <property name="length">160</property>
  <property name="eof">pause</property>
  <property name="resource">swipe.mp4</property>
  <property name="mlt_service">avformat-novalidate</property>
  <property name="meta.media.nb_streams">1</property>
  <property name="meta.media.0.stream.type">video</property>
  <property name="meta.media.0.stream.frame_rate">15</property>
  <property name="meta.media.0.stream.sample_aspect_ratio">1</property>
  <property name="meta.media.0.codec.width">1280</property>
  <property name="meta.media.0.codec.height">720</property>
  <property name="meta.media.0.codec.rotate">0</property>
  <property name="meta.media.0.codec.pix_fmt">yuv444p</property>
  <property name="meta.media.0.codec.sample_aspect_ratio">1</property>
  <property name="meta.media.0.codec.colorspace">709</property>
  <property name="meta.media.0.codec.color_trc">1</property>
  <property name="meta.media.0.codec.name">h264</property>
  <property name="meta.media.0.codec.long_name">H.264 / AVC / MPEG-4 AVC / MPEG-4 part 10</property>
  <property name="meta.media.0.codec.bit_rate">305474</property>
  <property name="meta.attr.0.stream.creation_time.markup">2023-11-02T21:39:27.000000Z</property>
  <property name="meta.attr.0.stream.handler_name.markup">VideoHandler</property>
  <property name="meta.attr.0.stream.vendor_id.markup">[0][0][0][0]</property>
  <property name="meta.attr.major_brand.markup">mp42</property>
  <property name="meta.attr.minor_version.markup">0</property>
  <property name="meta.attr.compatible_brands.markup">mp42mp41isomiso2</property>
  <property name="meta.attr.creation_time.markup">2023-11-02T21:39:27.000000Z</property>
  <property name="meta.attr.encoder.markup">x264</property>
  <property name="seekable">1</property>
  <property name="meta.media.sample_aspect_num">1</property>
  <property name="meta.media.sample_aspect_den">1</property>
  <property name="audio_index">-1</property>
  <property name="video_index">0</property>
  <property name="vstream">0</property>
  <property name="meta.media.frame_rate_num">15</property>
  <property name="meta.media.frame_rate_den">1</property>
  <property name="meta.media.colorspace">709</property>
  <property name="meta.media.color_trc">1</property>
  <property name="meta.media.has_b_frames">0</property>
  <property name="meta.media.width">1280</property>
  <property name="meta.media.height">720</property>
  <property name="meta.media.color_range">mpeg</property>
  <property name="meta.media.top_field_first">0</property>
  <property name="meta.media.progressive">1</property>
  <property name="kdenlive:folderid">-1</property>
  <property name="kdenlive:id">46</property>
  <property name="mute_on_pause">0</property>
  <property name="kdenlive:clip_type">2</property>
  <property name="kdenlive:file_size">408863</property>
  <property name="kdenlive:file_hash">f05a9b217dd24d7d9cdcc2a0eef54c13</property>
 </chain>
 <chain id="chain70" out="00:00:14.533">
  <property name="length">219</property>
  <property name="eof">pause</property>
  <property name="resource">zoom.mp4</property>
  <property name="mlt_service">avformat-novalidate</property>
  <property name="meta.media.nb_streams">1</property>
  <property name="meta.media.0.stream.type">video</property>
  <property name="meta.media.0.stream.frame_rate">15</property>
  <property name="meta.media.0.stream.sample_aspect_ratio">1</property>
  <property name="meta.media.0.codec.width">1280</property>
  <property name="meta.media.0.codec.height">720</property>
  <property name="meta.media.0.codec.rotate">0</property>
  <property name="meta.media.0.codec.pix_fmt">yuv444p</property>
  <property name="meta.media.0.codec.sample_aspect_ratio">1</property>
  <property name="meta.media.0.codec.colorspace">709</property>
  <property name="meta.media.0.codec.color_trc">1</property>
  <property name="meta.media.0.codec.name">h264</property>
  <property name="meta.media.0.codec.long_name">H.264 / AVC / MPEG-4 AVC / MPEG-4 part 10</property>
  <property name="meta.media.0.codec.bit_rate">966739</property>
  <property name="meta.attr.0.stream.creation_time.markup">2023-11-02T21:46:58.000000Z</property>
  <property name="meta.attr.0.stream.handler_name.markup">VideoHandler</property>
  <property name="meta.attr.0.stream.vendor_id.markup">[0][0][0][0]</property>
  <property name="meta.attr.major_brand.markup">mp42</property>
  <property name="meta.attr.minor_version.markup">0</property>
  <property name="meta.attr.compatible_brands.markup">mp42mp41isomiso2</property>
  <property name="meta.attr.creation_time.markup">2023-11-02T21:46:58.000000Z</property>
  <property name="meta.attr.encoder.markup">x264</property>
  <property name="seekable">1</property>
  <property name="meta.media.sample_aspect_num">1</property>
  <property name="meta.media.sample_aspect_den">1</property>
  <property name="audio_index">-1</property>
  <property name="video_index">0</property>
  <property name="vstream">0</property>
  <property name="meta.media.frame_rate_num">15</property>
  <property name="meta.media.frame_rate_den">1</property>
  <property name="meta.media.colorspace">709</property>
  <property name="meta.media.color_trc">1</property>
  <property name="meta.media.has_b_frames">0</property>
  <property name="meta.media.width">1280</property>
  <property name="meta.media.height">720</property>
  <property name="meta.media.color_range">mpeg</property>
  <property name="meta.media.top_field_first">0</property>
  <property name="meta.media.progressive">1</property>
  <property name="kdenlive:folderid">-1</property>
  <property name="kdenlive:id">47</property>
  <property name="mute_on_pause">0</property>
  <property name="kdenlive:clip_type">2</property>
  <property name="kdenlive:file_size">1766099</property>
  <property name="kdenlive:file_hash">089a864a9aa105973216cdbb4bd5bd13</property>
 </chain>
 <chain id="chain71" out="00:00:03.133">
  <property name="length">48</property>
  <property name="eof">pause</property>
  <property name="resource">keys.mp4</property>
  <property name="mlt_service">avformat-novalidate</property>
  <property name="meta.media.nb_streams">1</property>
  <property name="meta.media.0.stream.type">video</property>
  <property name="meta.media.0.stream.frame_rate">15</property>
  <property name="meta.media.0.stream.sample_aspect_ratio">1</property>
  <property name="meta.media.0.codec.width">508</property>
  <property name="meta.media.0.codec.height">472</property>
  <property name="meta.media.0.codec.rotate">0</property>
  <property name="meta.media.0.codec.pix_fmt">yuv444p</property>
  <property name="meta.media.0.codec.sample_aspect_ratio">1</property>
  <property name="meta.media.0.codec.colorspace">601</property>
  <property name="meta.media.0.codec.color_trc">6</property>
  <property name="meta.media.0.codec.name">h264</property>
  <property name="meta.media.0.codec.long_name">H.264 / AVC / MPEG-4 AVC / MPEG-4 part 10</property>
  <property name="meta.media.0.codec.bit_rate">160165</property>
  <property name="meta.attr.0.stream.creation_time.markup">2023-11-02T21:49:42.000000Z</property>
  <property name="meta.attr.0.stream.handler_name.markup">VideoHandler</property>
  <property name="meta.attr.0.stream.vendor_id.markup">[0][0][0][0]</property>
  <property name="meta.attr.major_brand.markup">mp42</property>
  <property name="meta.attr.minor_version.markup">0</property>
  <property name="meta.attr.compatible_brands.markup">mp42mp41isomiso2</property>
  <property name="meta.attr.creation_time.markup">2023-11-02T21:49:42.000000Z</property>
  <property name="meta.attr.encoder.markup">x264</property>
  <property name="seekable">1</property>
  <property name="meta.media.sample_aspect_num">1</property>
  <property name="meta.media.sample_aspect_den">1</property>
  <property name="audio_index">-1</property>
  <property name="video_index">0</property>
  <property name="vstream">0</property>
  <property name="meta.media.frame_rate_num">15</property>
  <property name="meta.media.frame_rate_den">1</property>
  <property name="meta.media.colorspace">601</property>
  <property name="meta.media.color_trc">6</property>
  <property name="meta.media.has_b_frames">0</property>
  <property name="meta.media.width">508</property>
  <property name="meta.media.height">472</property>
  <property name="meta.media.color_range">mpeg</property>
  <property name="meta.media.top_field_first">0</property>
  <property name="meta.media.progressive">1</property>
  <property name="kdenlive:folderid">-1</property>
  <property name="kdenlive:id">48</property>
  <property name="mute_on_pause">0</property>
  <property name="kdenlive:clip_type">2</property>
  <property name="kdenlive:file_size">65180</property>
  <property name="kdenlive:file_hash">fa866df1c1a29ba4bc510d48dc830827</property>
 </chain>
 <producer id="producer38" in="00:00:00.000" out="00:00:07.933">
  <property name="length">120</property>
  <property name="eof">pause</property>
  <property name="resource"/>
  <property name="meta.media.progressive">1</property>
  <property name="aspect_ratio">1</property>
  <property name="seekable">1</property>
  <property name="mlt_service">kdenlivetitle</property>
  <property name="kdenlive:duration">00:00:05:00</property>
  <property name="kdenlive:clipname">Create budge...</property>
  <property name="xmldata">&lt;kdenlivetitle duration="75" LC_NUMERIC="C" width="1596" height="894" out="74">
 &lt;item type="QGraphicsTextItem" z-index="0">
  &lt;position x="9" y="2">
   &lt;transform>1,0,0,0,1,0,0,0,1&lt;/transform>
  &lt;/position>
  &lt;content line-spacing="4" shadow="0;#64000000;3;3;3" font-underline="0" box-height="107" font="Cabin" letter-spacing="1" font-pixel-size="36" font-italic="0" typewriter="1;3;2;0;0" alignment="1" font-weight="50" box-width="1295.92" font-color="61,61,61,255">Create budget categories with ease and set configurable limits, renewed monthly
or based on your relative income&lt;/content>
 &lt;/item>
 &lt;startviewport rect="0,0,1596,894"/>
 &lt;endviewport rect="0,0,1596,894"/>
 &lt;background color="0,0,0,0"/>
&lt;/kdenlivetitle>
</property>
  <property name="xml">was here</property>
  <property name="kdenlive:folderid">54</property>
  <property name="kdenlive:id">53</property>
  <property name="kdenlive:clip_type">2</property>
  <property name="force_reload">0</property>
  <property name="kdenlive:file_hash">861f74986935928596113bc074ed5155</property>
  <property name="meta.media.width">1596</property>
  <property name="meta.media.height">894</property>
 </producer>
 <playlist id="main_bin">
  <property name="kdenlive:folder.-1.2">Sequences</property>
  <property name="kdenlive:sequenceFolder">2</property>
  <property name="kdenlive:docproperties.audioChannels">2</property>
  <property name="kdenlive:docproperties.browserurl">/home/vlyskouski/Videos/</property>
  <property name="kdenlive:docproperties.compositing">1</property>
  <property name="kdenlive:docproperties.documentid">1698950411065</property>
  <property name="kdenlive:docproperties.enableTimelineZone">0</property>
  <property name="kdenlive:docproperties.enableexternalproxy">0</property>
  <property name="kdenlive:docproperties.enableproxy">0</property>
  <property name="kdenlive:docproperties.externalproxyparams"/>
  <property name="kdenlive:docproperties.generateimageproxy">0</property>
  <property name="kdenlive:docproperties.generateproxy">0</property>
  <property name="kdenlive:docproperties.guidesCategories">[
    {
        "color": "#9b59b6",
        "comment": "Category 1",
        "index": 0
    },
    {
        "color": "#3daee9",
        "comment": "Category 2",
        "index": 1
    },
    {
        "color": "#1abc9c",
        "comment": "Category 3",
        "index": 2
    },
    {
        "color": "#1cdc9a",
        "comment": "Category 4",
        "index": 3
    },
    {
        "color": "#c9ce3b",
        "comment": "Category 5",
        "index": 4
    },
    {
        "color": "#fdbc4b",
        "comment": "Category 6",
        "index": 5
    },
    {
        "color": "#f39c1f",
        "comment": "Category 7",
        "index": 6
    },
    {
        "color": "#f47750",
        "comment": "Category 8",
        "index": 7
    },
    {
        "color": "#da4453",
        "comment": "Category 9",
        "index": 8
    }
]
</property>
  <property name="kdenlive:docproperties.kdenliveversion">23.08.2</property>
  <property name="kdenlive:docproperties.previewextension"/>
  <property name="kdenlive:docproperties.previewparameters"/>
  <property name="kdenlive:docproperties.profile">/home/vlyskouski/.var/app/org.kde.kdenlive/data/kdenlive/profiles/customprofile3</property>
  <property name="kdenlive:docproperties.proxyextension"/>
  <property name="kdenlive:docproperties.proxyimageminsize">2000</property>
  <property name="kdenlive:docproperties.proxyimagesize">800</property>
  <property name="kdenlive:docproperties.proxyminsize">1000</property>
  <property name="kdenlive:docproperties.proxyparams"/>
  <property name="kdenlive:docproperties.proxyresize">640</property>
  <property name="kdenlive:docproperties.seekOffset">30000</property>
  <property name="kdenlive:docproperties.uuid">{ff20d2f2-8ff5-4477-ab01-973293a4bf18}</property>
  <property name="kdenlive:docproperties.version">1.1</property>
  <property name="kdenlive:expandedFolders"/>
  <property name="kdenlive:binZoom">4</property>
  <property name="kdenlive:documentnotes"/>
  <property name="kdenlive:docproperties.opensequences">{ff20d2f2-8ff5-4477-ab01-973293a4bf18}</property>
  <property name="kdenlive:docproperties.activetimeline">{ff20d2f2-8ff5-4477-ab01-973293a4bf18}</property>
  <property name="kdenlive:folder.-1.54">Pasted clips</property>
  <property name="kdenlive:docproperties.rendercategory">Generic (HD for web, mobile devices...)</property>
  <property name="kdenlive:docproperties.rendercustomquality">-1</property>
  <property name="kdenlive:docproperties.renderendguide">-1</property>
  <property name="kdenlive:docproperties.renderexportaudio">0</property>
  <property name="kdenlive:docproperties.renderfullcolorrange">0</property>
  <property name="kdenlive:docproperties.rendermode">0</property>
  <property name="kdenlive:docproperties.renderplay">0</property>
  <property name="kdenlive:docproperties.renderpreview">0</property>
  <property name="kdenlive:docproperties.renderprofile">MP4-H264/AAC</property>
  <property name="kdenlive:docproperties.renderrescale">0</property>
  <property name="kdenlive:docproperties.renderrescaleheight">447</property>
  <property name="kdenlive:docproperties.renderrescalewidth">798</property>
  <property name="kdenlive:docproperties.renderspeed">6</property>
  <property name="kdenlive:docproperties.renderstartguide">-1</property>
  <property name="kdenlive:docproperties.rendertcoverlay">0</property>
  <property name="kdenlive:docproperties.rendertctype">-1</property>
  <property name="kdenlive:docproperties.rendertwopass">0</property>
  <property name="kdenlive:docproperties.renderurl">/home/vlyskouski/Videos/index.mp4</property>
  <property name="xml_retain">1</property>
  <entry producer="{ff20d2f2-8ff5-4477-ab01-973293a4bf18}" in="00:00:00.000" out="00:00:00.000"/>
  <entry producer="chain28" in="00:00:00.000" out="00:04:25.200"/>
  <entry producer="chain29" in="00:00:00.000" out="00:02:45.933"/>
  <entry producer="chain30" in="00:00:00.000" out="00:00:09.133"/>
  <entry producer="chain31" in="00:00:00.000" out="00:00:11.533"/>
  <entry producer="chain32" in="00:00:00.000" out="00:00:09.867"/>
  <entry producer="chain33" in="00:00:00.000" out="00:00:08.267"/>
  <entry producer="chain34" in="00:00:00.000" out="00:00:09.067"/>
  <entry producer="chain35" in="00:00:00.000" out="00:00:07.000"/>
  <entry producer="chain36" in="00:00:00.000" out="00:00:07.467"/>
  <entry producer="chain37" in="00:00:00.000" out="00:00:06.933"/>
  <entry producer="chain38" in="00:00:00.000" out="00:00:05.600"/>
  <entry producer="chain39" in="00:00:00.000" out="00:00:06.467"/>
  <entry producer="chain40" in="00:00:00.000" out="00:00:06.000"/>
  <entry producer="chain41" in="00:00:00.000" out="00:00:02.867"/>
  <entry producer="chain42" in="00:00:00.000" out="00:00:11.933"/>
  <entry producer="chain43" in="00:00:00.000" out="00:00:06.600"/>
  <entry producer="chain44" in="00:00:00.000" out="00:00:07.667"/>
  <entry producer="chain45" in="00:00:00.000" out="00:00:06.000"/>
  <entry producer="chain46" in="00:00:00.000" out="00:00:08.867"/>
  <entry producer="chain47" in="00:00:00.000" out="00:00:04.267"/>
  <entry producer="chain48" in="00:00:00.000" out="00:00:04.000"/>
  <entry producer="chain49" in="00:00:00.000" out="00:00:04.933"/>
  <entry producer="chain50" in="00:00:00.000" out="00:00:05.533"/>
  <entry producer="chain51" in="00:00:00.000" out="00:00:07.400"/>
  <entry producer="chain52" in="00:00:00.000" out="00:00:03.067"/>
  <entry producer="chain53" in="00:00:00.000" out="00:00:10.267"/>
  <entry producer="chain54" in="00:00:00.000" out="00:00:06.600"/>
  <entry producer="chain55" in="00:00:00.000" out="00:00:01.600"/>
  <entry producer="chain56" in="00:00:00.000" out="00:00:05.400"/>
  <entry producer="chain57" in="00:00:00.000" out="00:01:20.933"/>
  <entry producer="chain58" in="00:00:00.000" out="00:01:06.667"/>
  <entry producer="chain59" in="00:00:00.000" out="00:00:23.733"/>
  <entry producer="chain60" in="00:00:00.000" out="00:00:16.533"/>
  <entry producer="chain61" in="00:00:00.000" out="00:00:10.600"/>
  <entry producer="chain62" in="00:00:00.000" out="00:00:34.800"/>
  <entry producer="chain63" in="00:00:00.000" out="00:00:36.867"/>
  <entry producer="chain64" in="00:00:00.000" out="00:00:31.867"/>
  <entry producer="chain65" in="00:00:00.000" out="00:00:19.667"/>
  <entry producer="chain66" in="00:00:00.000" out="00:00:50.867"/>
  <entry producer="chain67" in="00:00:00.000" out="00:00:35.667"/>
  <entry producer="chain68" in="00:00:00.000" out="00:00:09.267"/>
  <entry producer="chain69" in="00:00:00.000" out="00:00:10.600"/>
  <entry producer="chain70" in="00:00:00.000" out="00:00:14.533"/>
  <entry producer="chain71" in="00:00:00.000" out="00:00:03.133"/>
  <entry producer="producer20" in="00:00:00.000" out="00:00:04.933"/>
  <entry producer="producer21" in="00:00:00.000" out="00:00:04.933"/>
  <entry producer="producer22" in="00:00:00.000" out="00:00:06.467"/>
  <entry producer="producer23" in="00:00:00.000" out="00:00:07.933"/>
  <entry producer="producer38" in="00:00:00.000" out="00:00:07.933"/>
  <entry producer="producer24" in="00:00:00.000" out="00:00:07.933"/>
  <entry producer="producer25" in="00:00:00.000" out="00:00:07.933"/>
  <entry producer="producer26" in="00:00:00.000" out="00:00:07.933"/>
  <entry producer="producer27" in="00:00:00.000" out="00:00:07.933"/>
  <entry producer="producer28" in="00:00:00.000" out="00:00:07.933"/>
  <entry producer="producer29" in="00:00:00.000" out="00:00:09.467"/>
  <entry producer="producer30" in="00:00:00.000" out="00:00:07.933"/>
  <entry producer="producer31" in="00:00:00.000" out="00:00:07.933"/>
  <entry producer="producer32" in="00:00:00.000" out="00:00:07.933"/>
  <entry producer="producer33" in="00:00:00.000" out="00:00:07.933"/>
  <entry producer="producer34" in="00:00:00.000" out="00:00:07.933"/>
  <entry producer="producer35" in="00:00:00.000" out="00:00:07.933"/>
  <entry producer="producer36" in="00:00:00.000" out="00:00:07.933"/>
  <entry producer="producer37" in="00:00:00.000" out="00:00:07.933"/>
 </playlist>
 <tractor id="tractor5" in="00:00:00.000" out="00:02:46.067">
  <property name="kdenlive:projectTractor">1</property>
  <track producer="{ff20d2f2-8ff5-4477-ab01-973293a4bf18}" in="00:00:00.000" out="00:02:46.067"/>
 </tractor>
</mlt>
